<svg width="126" height="75" viewBox="0 0 126 75" fill="none" xmlns="http://www.w3.org/2000/svg">
<g filter="url(#filter0_f_304_103)">
<path d="M24.6676 33.1199L23.4769 32.1524L22.0509 33.9075L24.2088 34.5838L24.6676 33.1199ZM31.1425 37.4364L32.3382 36.4751L32.3382 36.4751L31.1425 37.4364ZM8.90021 56.5012L8.11374 57.8185L8.12233 57.8236L8.90021 56.5012ZM3.08485 49.4268L2.32459 48.0942L1.17974 48.7474L1.6529 49.9776L3.08485 49.4268ZM12.4374 44.0911L13.9063 43.6484L13.3505 41.8038L11.6771 42.7585L12.4374 44.0911ZM21.67 47.3885L20.6716 46.2236L20.6575 46.2357L20.6437 46.2481L21.67 47.3885ZM21.67 41.693L20.6437 42.8334L20.6735 42.8602L20.7047 42.8855L21.67 41.693ZM15.9146 40.6139L14.6438 41.4735L15.1002 42.1481H15.9146V40.6139ZM11.7779 34.4988L10.5901 33.5277L9.86705 34.4122L10.5071 35.3584L11.7779 34.4988ZM18.4926 26.2853L19.6804 27.2564L21.7285 24.7511H18.4926V26.2853ZM4.4038 26.2853H2.86958V27.8195H4.4038V26.2853ZM4.4038 16.0335V14.4993H2.86958V16.0335H4.4038ZM31.682 16.0335H33.2163V14.4993H31.682V16.0335ZM31.682 24.4867L32.8728 25.4542L33.2163 25.0315V24.4867H31.682ZM24.2088 34.5838C26.6188 35.3392 28.5125 36.6137 29.9467 38.3977L32.3382 36.4751C30.495 34.1824 28.0721 32.5791 25.1265 31.6559L24.2088 34.5838ZM29.9467 38.3977C31.3441 40.1358 32.0663 42.2451 32.0663 44.8105H35.1347C35.1347 41.6205 34.2183 38.8137 32.3382 36.4751L29.9467 38.3977ZM32.0663 44.8105C32.0663 48.9595 30.7277 51.965 28.1882 54.0584L30.1399 56.426C33.5157 53.6433 35.1347 49.6943 35.1347 44.8105H32.0663ZM28.1882 54.0584C25.5426 56.2392 22.2447 57.3651 18.1928 57.3651V60.4335C22.8539 60.4335 26.8702 59.1213 30.1399 56.426L28.1882 54.0584ZM18.1928 57.3651C14.9602 57.3651 12.1364 56.6249 9.67809 55.1788L8.12233 57.8236C11.0997 59.575 14.4709 60.4335 18.1928 60.4335V57.3651ZM9.68667 55.1839C7.32534 53.7741 5.60191 51.6974 4.51681 48.8761L1.6529 49.9776C2.96588 53.3913 5.11936 56.0308 8.11376 57.8185L9.68667 55.1839ZM3.84512 50.7594L13.1977 45.4237L11.6771 42.7585L2.32459 48.0942L3.84512 50.7594ZM10.9684 44.5338C11.4766 46.2201 12.329 47.6229 13.6071 48.5947C14.8893 49.5698 16.4565 50.0018 18.1928 50.0018V46.9334C16.9715 46.9334 16.1006 46.636 15.4644 46.1522C14.824 45.6653 14.2774 44.8798 13.9063 43.6484L10.9684 44.5338ZM18.1928 50.0018C19.935 50.0018 21.5178 49.5895 22.6964 48.5288L20.6437 46.2481C20.2235 46.6262 19.4882 46.9334 18.1928 46.9334V50.0018ZM22.6685 48.5533C23.8791 47.5156 24.4632 46.1148 24.4632 44.5108H21.3948C21.3948 45.3048 21.1396 45.8225 20.6716 46.2236L22.6685 48.5533ZM24.4632 44.5108C24.4632 42.9068 23.8773 41.5059 22.6353 40.5005L20.7047 42.8855C21.1414 43.239 21.3948 43.7167 21.3948 44.5108H24.4632ZM22.6964 40.5526C21.5178 39.4919 19.935 39.0797 18.1928 39.0797V42.1481C19.4882 42.1481 20.2235 42.4552 20.6437 42.8334L22.6964 40.5526ZM18.1928 39.0797H15.9146V42.1481H18.1928V39.0797ZM17.1854 39.7542L13.0487 33.6391L10.5071 35.3584L14.6438 41.4735L17.1854 39.7542ZM12.9657 35.4698L19.6804 27.2564L17.3048 25.3143L10.5901 33.5277L12.9657 35.4698ZM18.4926 24.7511H4.4038V27.8195H18.4926V24.7511ZM5.93802 26.2853V16.0335H2.86958V26.2853H5.93802ZM4.4038 17.5677H31.682V14.4993H4.4038V17.5677ZM30.1478 16.0335V24.4867H33.2163V16.0335H30.1478ZM30.4913 23.5193L23.4769 32.1524L25.8584 34.0873L32.8728 25.4542L30.4913 23.5193ZM68.6037 52.964L67.3881 52.028L67.3867 52.0298L68.6037 52.964ZM43.0041 52.964L41.7826 53.8923L41.7878 53.8992L41.7931 53.9059L43.0041 52.964ZM43.0041 21.1294L41.7885 20.1934L41.7871 20.1952L43.0041 21.1294ZM68.6037 21.1294L67.3822 22.0578L67.3874 22.0646L67.3926 22.0713L68.6037 21.1294ZM67.3867 52.0298C64.6706 55.5678 60.8862 57.3651 55.8339 57.3651V60.4335C61.7328 60.4335 66.4615 58.2739 69.8206 53.8983L67.3867 52.0298ZM55.8339 57.3651C50.7814 57.3651 46.9725 55.5673 44.2151 52.0221L41.7931 53.9059C45.1908 58.2744 49.935 60.4335 55.8339 60.4335V57.3651ZM44.2256 52.0357C41.4476 48.3804 39.9819 43.4237 39.9819 37.0167H36.9135C36.9135 43.8792 38.4855 49.554 41.7826 53.8923L44.2256 52.0357ZM39.9819 37.0167C39.9819 30.6087 41.4479 25.676 44.2211 22.0637L41.7871 20.1952C38.4851 24.4965 36.9135 30.1553 36.9135 37.0167H39.9819ZM44.2197 22.0654C46.9793 18.4815 50.7874 16.6684 55.8339 16.6684V13.6C49.9291 13.6 45.184 15.7837 41.7885 20.1934L44.2197 22.0654ZM55.8339 16.6684C60.8802 16.6684 64.6638 18.481 67.3822 22.0578L69.8251 20.2011C66.4684 15.7843 61.7387 13.6 55.8339 13.6V16.6684ZM67.3926 22.0713C70.2018 25.6831 71.6858 30.6128 71.6858 37.0167H74.7542C74.7542 30.1513 73.1607 24.4895 69.8147 20.1875L67.3926 22.0713ZM71.6858 37.0167C71.6858 43.4197 70.2021 48.3734 67.3881 52.028L69.8193 53.9C73.1603 49.561 74.7542 43.8832 74.7542 37.0167H71.6858ZM47.6449 37.0167C47.6449 40.932 48.2049 44.1192 49.5164 46.3758C50.9018 48.7597 53.0724 50.0018 55.8339 50.0018V46.9334C54.1588 46.9334 53.0021 46.267 52.1693 44.834C51.2625 43.2736 50.7134 40.7353 50.7134 37.0167H47.6449ZM55.8339 50.0018C58.5953 50.0018 60.7659 48.7597 62.1514 46.3758C63.4628 44.1192 64.0228 40.932 64.0228 37.0167H60.9543C60.9543 40.7353 60.4052 43.2736 59.4984 44.834C58.6656 46.267 57.5089 46.9334 55.8339 46.9334V50.0018ZM64.0228 37.0167C64.0228 33.1014 63.4628 29.9143 62.1514 27.6577C60.7659 25.2738 58.5953 24.0317 55.8339 24.0317V27.1001C57.5089 27.1001 58.6656 27.7664 59.4984 29.1995C60.4052 30.7598 60.9543 33.2981 60.9543 37.0167H64.0228ZM55.8339 24.0317C53.0724 24.0317 50.9018 25.2738 49.5164 27.6577C48.2049 29.9143 47.6449 33.1014 47.6449 37.0167H50.7134C50.7134 33.2981 51.2625 30.7598 52.1693 29.1995C53.0021 27.7664 54.1588 27.1001 55.8339 27.1001V24.0317ZM80.6152 33.5395L79.5303 34.6244L79.5355 34.6295L79.5407 34.6347L80.6152 33.5395ZM80.6152 18.2517L79.5407 17.1566L79.5407 17.1566L80.6152 18.2517ZM96.2627 18.2517L97.3475 17.1669L97.3475 17.1669L96.2627 18.2517ZM96.2027 33.5395L95.1283 32.4444L95.123 32.4495L95.1179 32.4547L96.2027 33.5395ZM83.6727 51.4053L82.5437 50.3665L81.2345 51.7895L82.9178 52.7409L83.6727 51.4053ZM111.251 21.4292L112.012 20.0971L110.95 19.4902L110.122 20.3904L111.251 21.4292ZM115.447 23.8273L116.574 24.8684L117.883 23.4519L116.209 22.4952L115.447 23.8273ZM87.8094 53.7434L87.0545 55.079L88.112 55.6768L88.9363 54.7845L87.8094 53.7434ZM90.6272 28.1438L89.5079 27.0945L89.5056 27.097L90.6272 28.1438ZM90.6272 23.6474L89.5056 24.6942L89.5236 24.7136L89.5423 24.7323L90.6272 23.6474ZM86.1907 23.6474L85.1059 22.5626L85.0872 22.5813L85.0691 22.6006L86.1907 23.6474ZM86.1907 28.1438L85.0691 29.1906L85.0872 29.21L85.1059 29.2287L86.1907 28.1438ZM103.757 55.7218L102.672 56.8067L102.677 56.8118L102.682 56.817L103.757 55.7218ZM103.757 40.434L102.682 39.3389L102.677 39.344L102.672 39.3492L103.757 40.434ZM119.464 40.494L118.369 41.5684L118.374 41.5737L118.379 41.5788L119.464 40.494ZM119.404 55.7218L118.33 54.6267L118.325 54.6318L118.319 54.637L119.404 55.7218ZM109.392 50.3261L108.271 51.3729L108.289 51.3923L108.307 51.411L109.392 50.3261ZM113.769 50.3261L112.649 49.2768L112.647 49.2793L113.769 50.3261ZM113.769 45.8297L112.647 46.8765L112.665 46.8959L112.684 46.9146L113.769 45.8297ZM109.392 45.8297L108.307 44.7449L108.289 44.7636L108.271 44.7829L109.392 45.8297ZM88.4689 35.1228C85.7307 35.1228 83.5054 34.2259 81.6896 32.4444L79.5407 34.6347C81.9615 37.0098 84.9721 38.1912 88.4689 38.1912V35.1228ZM81.7 32.4547C79.8696 30.6243 78.9719 28.4566 78.9719 25.8656H75.9035C75.9035 29.2699 77.1241 32.2181 79.5303 34.6244L81.7 32.4547ZM78.9719 25.8656C78.9719 23.2753 79.8687 21.1334 81.6896 19.3469L79.5407 17.1566C77.125 19.5267 75.9035 22.4608 75.9035 25.8656H78.9719ZM81.6896 19.3469C83.5054 17.5653 85.7307 16.6684 88.4689 16.6684V13.6C84.9721 13.6 81.9615 14.7814 79.5407 17.1566L81.6896 19.3469ZM88.4689 16.6684C91.2069 16.6684 93.406 17.5648 95.1778 19.3366L97.3475 17.1669C94.9627 14.782 91.9659 13.6 88.4689 13.6V16.6684ZM95.1778 19.3366C96.9621 21.1208 97.846 23.2659 97.846 25.8656H100.914C100.914 22.4702 99.7199 19.5393 97.3475 17.1669L95.1778 19.3366ZM97.846 25.8656C97.846 28.5022 96.9448 30.6621 95.1283 32.4444L97.2772 34.6347C99.6973 32.2602 100.914 29.3043 100.914 25.8656H97.846ZM95.1179 32.4547C93.342 34.2305 91.1609 35.1228 88.4689 35.1228V38.1912C91.932 38.1912 94.9068 37.0052 97.2876 34.6244L95.1179 32.4547ZM84.8018 52.444L112.38 22.4679L110.122 20.3904L82.5437 50.3665L84.8018 52.444ZM110.49 22.7613L114.686 25.1593L116.209 22.4952L112.012 20.0971L110.49 22.7613ZM114.32 22.7862L86.6825 52.7023L88.9363 54.7845L116.574 24.8684L114.32 22.7862ZM88.5644 52.4078L84.4277 50.0696L82.9178 52.7409L87.0545 55.079L88.5644 52.4078ZM88.4089 30.5773C89.6966 30.5773 90.8624 30.1403 91.7488 29.1906L89.5056 27.097C89.2728 27.3464 88.9598 27.5089 88.4089 27.5089V30.5773ZM91.7464 29.1931C92.6135 28.2683 93.0607 27.1334 93.0607 25.8656H89.9922C89.9922 26.3565 89.8399 26.7404 89.5079 27.0945L91.7464 29.1931ZM93.0607 25.8656C93.0607 24.5963 92.611 23.4615 91.712 22.5626L89.5423 24.7323C89.8424 25.0324 89.9922 25.3764 89.9922 25.8656H93.0607ZM91.7488 22.6006C90.8624 21.6509 89.6966 21.2139 88.4089 21.2139V24.2823C88.9598 24.2823 89.2728 24.4448 89.5056 24.6942L91.7488 22.6006ZM88.4089 21.2139C87.1396 21.2139 86.0048 21.6636 85.1059 22.5626L87.2756 24.7323C87.5757 24.4322 87.9197 24.2823 88.4089 24.2823V21.2139ZM85.0691 22.6006C84.2242 23.5059 83.8172 24.6285 83.8172 25.8656H86.8856C86.8856 25.3442 87.0382 24.988 87.3123 24.6942L85.0691 22.6006ZM83.8172 25.8656C83.8172 27.1227 84.2117 28.2719 85.0691 29.1906L87.3123 27.097C87.0507 26.8167 86.8856 26.4471 86.8856 25.8656H83.8172ZM85.1059 29.2287C86.0048 30.1276 87.1396 30.5773 88.4089 30.5773V27.5089C87.9197 27.5089 87.5757 27.3591 87.2756 27.059L85.1059 29.2287ZM111.67 57.3051C108.886 57.3051 106.643 56.4043 104.831 54.6267L102.682 56.817C105.107 59.196 108.139 60.3735 111.67 60.3735V57.3051ZM104.842 54.637C103.057 52.8527 102.173 50.7077 102.173 48.1079H99.105C99.105 51.5033 100.299 54.4343 102.672 56.8067L104.842 54.637ZM102.173 48.1079C102.173 45.462 103.062 43.2989 104.842 41.5189L102.672 39.3492C100.295 41.7258 99.105 44.6786 99.105 48.1079H102.173ZM104.831 41.5292C106.643 39.7515 108.886 38.8507 111.67 38.8507V35.7823C108.139 35.7823 105.107 36.9598 102.682 39.3389L104.831 41.5292ZM111.67 38.8507C114.399 38.8507 116.595 39.7604 118.369 41.5684L120.559 39.4195C118.177 36.9909 115.177 35.7823 111.67 35.7823V38.8507ZM118.379 41.5788C120.164 43.3631 121.047 45.5081 121.047 48.1079H124.116C124.116 44.7124 122.921 41.7815 120.549 39.4091L118.379 41.5788ZM121.047 48.1079C121.047 50.6982 120.151 52.8401 118.33 54.6267L120.479 56.817C122.894 54.4468 124.116 51.5128 124.116 48.1079H121.047ZM118.319 54.637C116.543 56.4128 114.362 57.3051 111.67 57.3051V60.3735C115.134 60.3735 118.108 59.1875 120.489 56.8067L118.319 54.637ZM108.307 51.411C109.206 52.3099 110.341 52.7596 111.61 52.7596V49.6912C111.121 49.6912 110.777 49.5414 110.477 49.2413L108.307 51.411ZM111.61 52.7596C112.881 52.7596 114.018 52.3076 114.89 51.3729L112.647 49.2793C112.4 49.5437 112.099 49.6912 111.61 49.6912V52.7596ZM114.888 51.3754C115.741 50.4655 116.202 49.3557 116.202 48.1079H113.134C113.134 48.5388 112.995 48.9078 112.649 49.2768L114.888 51.3754ZM116.202 48.1079C116.202 46.8195 115.766 45.6578 114.854 44.7449L112.684 46.9146C112.97 47.2007 113.134 47.5577 113.134 48.1079H116.202ZM114.89 44.7829C114.018 43.8482 112.881 43.3962 111.61 43.3962V46.4646C112.099 46.4646 112.4 46.6122 112.647 46.8765L114.89 44.7829ZM111.61 43.3962C110.341 43.3962 109.206 43.8459 108.307 44.7449L110.477 46.9146C110.777 46.6145 111.121 46.4646 111.61 46.4646V43.3962ZM108.271 44.7829C107.413 45.7016 107.019 46.8508 107.019 48.1079H110.087C110.087 47.5264 110.252 47.1569 110.514 46.8765L108.271 44.7829ZM107.019 48.1079C107.019 49.3451 107.426 50.4676 108.271 51.3729L110.514 49.2793C110.24 48.9856 110.087 48.6293 110.087 48.1079H107.019Z" fill="url(#paint0_linear_304_103)"/>
</g>
<path d="M24.6676 33.1199L24.396 32.8991L24.0707 33.2995L24.563 33.4538L24.6676 33.1199ZM31.1425 37.4364L31.4152 37.2171L31.4152 37.2171L31.1425 37.4364ZM8.90021 56.5012L8.72079 56.8017L8.72275 56.8029L8.90021 56.5012ZM3.08485 49.4268L2.91141 49.1228L2.65024 49.2718L2.75818 49.5525L3.08485 49.4268ZM12.4374 44.0911L12.7725 43.9901L12.6457 43.5693L12.264 43.7871L12.4374 44.0911ZM21.67 47.3885L21.4422 47.1227L21.4359 47.1283L21.67 47.3885ZM21.67 41.693L21.4359 41.9532L21.4427 41.9593L21.4498 41.965L21.67 41.693ZM15.9146 40.6139L15.6247 40.81L15.7288 40.9639H15.9146V40.6139ZM11.7779 34.4988L11.5069 34.2772L11.342 34.479L11.488 34.6949L11.7779 34.4988ZM18.4926 26.2853L18.7635 26.5068L19.2308 25.9353H18.4926V26.2853ZM4.4038 26.2853H4.0538V26.6353H4.4038V26.2853ZM4.4038 16.0335V15.6835H4.0538V16.0335H4.4038ZM31.682 16.0335H32.032V15.6835H31.682V16.0335ZM31.682 24.4867L31.9537 24.7074L32.032 24.611V24.4867H31.682ZM24.563 33.4538C27.1797 34.274 29.2776 35.6754 30.8697 37.6557L31.4152 37.2171C29.7299 35.1207 27.5113 33.6444 24.7723 32.7859L24.563 33.4538ZM30.8697 37.6557C32.4533 39.6256 33.2505 42.0041 33.2505 44.8105H33.9505C33.9505 41.8616 33.109 39.324 31.4152 37.2171L30.8697 37.6557ZM33.2505 44.8105C33.2505 49.2431 31.8037 52.6127 28.9414 54.9721L29.3867 55.5123C32.4397 52.9956 33.9505 49.4107 33.9505 44.8105H33.2505ZM28.9414 54.9721C26.055 57.3515 22.4798 58.5493 18.1928 58.5493V59.2493C22.6188 59.2493 26.3578 58.009 29.3867 55.5123L28.9414 54.9721ZM18.1928 58.5493C14.7714 58.5493 11.7363 57.7634 9.07767 56.1995L8.72275 56.8029C11.4998 58.4364 14.6598 59.2493 18.1928 59.2493V58.5493ZM9.07962 56.2007C6.47397 54.6451 4.58457 52.3511 3.41152 49.3012L2.75818 49.5525C3.98322 52.7376 5.97072 55.1599 8.7208 56.8017L9.07962 56.2007ZM3.25829 49.7308L12.6108 44.3951L12.264 43.7871L2.91141 49.1228L3.25829 49.7308ZM12.1023 44.1921C12.5576 45.7028 13.2919 46.8674 14.3239 47.6521C15.3568 48.4375 16.6552 48.8176 18.1928 48.8176V48.1176C16.7727 48.1176 15.6331 47.7683 14.7476 47.0949C13.8611 46.4208 13.1965 45.3971 12.7725 43.9901L12.1023 44.1921ZM18.1928 48.8176C19.7625 48.8176 21.0183 48.4459 21.9042 47.6486L21.4359 47.1283C20.723 47.7699 19.6606 48.1176 18.1928 48.1176V48.8176ZM21.8978 47.6542C22.8218 46.8622 23.279 45.8022 23.279 44.5108H22.579C22.579 45.6174 22.1969 46.4759 21.4422 47.1227L21.8978 47.6542ZM23.279 44.5108C23.279 43.2193 22.8214 42.1748 21.8902 41.421L21.4498 41.965C22.1973 42.5702 22.579 43.4041 22.579 44.5108H23.279ZM21.9042 41.4329C21.0183 40.6356 19.7625 40.2639 18.1928 40.2639V40.9639C19.6606 40.9639 20.723 41.3116 21.4359 41.9532L21.9042 41.4329ZM18.1928 40.2639H15.9146V40.9639H18.1928V40.2639ZM16.2045 40.4178L12.0678 34.3026L11.488 34.6949L15.6247 40.81L16.2045 40.4178ZM12.0489 34.7203L18.7635 26.5068L18.2216 26.0638L11.5069 34.2772L12.0489 34.7203ZM18.4926 25.9353H4.4038V26.6353H18.4926V25.9353ZM4.7538 26.2853V16.0335H4.0538V26.2853H4.7538ZM4.4038 16.3835H31.682V15.6835H4.4038V16.3835ZM31.332 16.0335V24.4867H32.032V16.0335H31.332ZM31.4104 24.266L24.396 32.8991L24.9393 33.3406L31.9537 24.7074L31.4104 24.266ZM68.6037 52.964L68.3263 52.7505L68.326 52.7509L68.6037 52.964ZM43.0041 52.964L42.7254 53.1758L42.7278 53.1789L43.0041 52.964ZM43.0041 21.1294L42.7268 20.9159L42.7265 20.9163L43.0041 21.1294ZM68.6037 21.1294L68.325 21.3412L68.3274 21.3443L68.6037 21.1294ZM68.326 52.7509C65.3618 56.6122 61.2129 58.5493 55.8339 58.5493V59.2493C61.406 59.2493 65.7704 57.2295 68.8813 53.1771L68.326 52.7509ZM55.8339 58.5493C50.4548 58.5493 46.2849 56.6121 43.2804 52.7491L42.7278 53.1789C45.8784 57.2296 50.2617 59.2493 55.8339 59.2493V58.5493ZM43.2827 52.7522C40.3044 48.8333 38.7977 43.5995 38.7977 37.0167H38.0977C38.0977 43.7034 39.6286 49.1011 42.7254 53.1758L43.2827 52.7522ZM38.7977 37.0167C38.7977 30.4338 40.3045 25.2208 43.2817 21.3425L42.7265 20.9163C39.6286 24.9517 38.0977 30.3303 38.0977 37.0167H38.7977ZM43.2814 21.343C46.2864 17.4403 50.4561 15.4842 55.8339 15.4842V14.7842C50.2603 14.7842 45.8768 16.8249 42.7268 20.9159L43.2814 21.343ZM55.8339 15.4842C61.2116 15.4842 65.3603 17.4402 68.325 21.3412L68.8823 20.9176C65.7719 16.825 61.4074 14.7842 55.8339 14.7842V15.4842ZM68.3274 21.3443C71.3437 25.2224 72.87 30.4347 72.87 37.0167H73.57C73.57 30.3294 72.0187 24.9501 68.8799 20.9145L68.3274 21.3443ZM72.87 37.0167C72.87 43.5986 71.3438 48.8317 68.3263 52.7505L68.881 53.1776C72.0186 49.1027 73.57 43.7043 73.57 37.0167H72.87ZM48.8292 37.0167C48.8292 40.8561 49.385 43.7929 50.5402 45.7808C51.7124 47.7977 53.4917 48.8176 55.8339 48.8176V48.1176C53.7395 48.1176 52.1915 47.229 51.1454 45.429C50.0825 43.6 49.5292 40.8113 49.5292 37.0167H48.8292ZM55.8339 48.8176C58.176 48.8176 59.9553 47.7977 61.1275 45.7808C62.2827 43.7929 62.8385 40.8561 62.8385 37.0167H62.1385C62.1385 40.8113 61.5852 43.6 60.5223 45.429C59.4762 47.229 57.9282 48.1176 55.8339 48.1176V48.8176ZM62.8385 37.0167C62.8385 33.1774 62.2827 30.2406 61.1275 28.2527C59.9553 26.2358 58.176 25.2159 55.8339 25.2159V25.9159C57.9282 25.9159 59.4762 26.8044 60.5223 28.6045C61.5852 30.4335 62.1385 33.2222 62.1385 37.0167H62.8385ZM55.8339 25.2159C53.4917 25.2159 51.7124 26.2358 50.5402 28.2527C49.385 30.2406 48.8292 33.1774 48.8292 37.0167H49.5292C49.5292 33.2222 50.0825 30.4335 51.1454 28.6045C52.1915 26.8044 53.7395 25.9159 55.8339 25.9159V25.2159ZM80.6152 33.5395L80.3677 33.787L80.37 33.7894L80.6152 33.5395ZM80.6152 18.2517L80.37 18.0019L80.37 18.0019L80.6152 18.2517ZM96.2627 18.2517L96.5102 18.0042L96.5102 18.0042L96.2627 18.2517ZM96.2027 33.5395L95.9576 33.2897L95.9552 33.292L96.2027 33.5395ZM83.6727 51.4053L83.4152 51.1683L83.1165 51.4929L83.5005 51.71L83.6727 51.4053ZM111.251 21.4292L111.424 21.1253L111.182 20.9868L110.993 21.1922L111.251 21.4292ZM115.447 23.8273L115.704 24.0648L116.003 23.7416L115.621 23.5234L115.447 23.8273ZM87.8094 53.7434L87.6372 54.0481L87.8785 54.1845L88.0665 53.9809L87.8094 53.7434ZM90.6272 28.1438L90.3718 27.9044L90.3713 27.905L90.6272 28.1438ZM90.6272 23.6474L90.3712 23.8864L90.3797 23.8949L90.6272 23.6474ZM86.1907 23.6474L85.9431 23.3998L85.9349 23.4086L86.1907 23.6474ZM86.1907 28.1438L85.9347 28.3828L85.9432 28.3913L86.1907 28.1438ZM103.757 55.7218L103.509 55.9693L103.512 55.9717L103.757 55.7218ZM103.757 40.434L103.512 40.1842L103.509 40.1865L103.757 40.434ZM119.464 40.494L119.214 40.7391L119.217 40.7415L119.464 40.494ZM119.404 55.7218L119.159 55.472L119.157 55.4743L119.404 55.7218ZM109.392 50.3261L109.136 50.5651L109.145 50.5736L109.392 50.3261ZM113.769 50.3261L113.513 50.0867L113.513 50.0873L113.769 50.3261ZM113.769 45.8297L113.513 46.0687L113.521 46.0772L113.769 45.8297ZM109.392 45.8297L109.145 45.5821L109.136 45.5909L109.392 45.8297ZM88.4689 36.307C85.4379 36.307 82.9096 35.3003 80.8603 33.2897L80.37 33.7894C82.5574 35.9354 85.2649 37.007 88.4689 37.007V36.307ZM80.8627 33.292C78.81 31.2394 77.7877 28.7705 77.7877 25.8656H77.0877C77.0877 28.956 78.1837 31.603 80.3677 33.787L80.8627 33.292ZM77.7877 25.8656C77.7877 22.9609 78.8098 20.5133 80.8603 18.5015L80.37 18.0019C78.1839 20.1468 77.0877 22.7751 77.0877 25.8656H77.7877ZM80.8603 18.5015C82.9096 16.4909 85.4379 15.4842 88.4689 15.4842V14.7842C85.2649 14.7842 82.5574 15.8558 80.37 18.0019L80.8603 18.5015ZM88.4689 15.4842C91.4998 15.4842 94.0068 16.4908 96.0152 18.4992L96.5102 18.0042C94.3619 15.856 91.673 14.7842 88.4689 14.7842V15.4842ZM96.0152 18.4992C98.0265 20.5105 99.0302 22.9588 99.0302 25.8656H99.7302C99.7302 22.7773 98.6556 20.1497 96.5102 18.0042L96.0152 18.4992ZM99.0302 25.8656C99.0302 28.8117 98.0071 31.2789 95.9576 33.2897L96.4479 33.7894C98.635 31.6435 99.7302 28.9947 99.7302 25.8656H99.0302ZM95.9552 33.292C93.9459 35.3014 91.4585 36.307 88.4689 36.307V37.007C91.6344 37.007 94.3029 35.9343 96.4502 33.787L95.9552 33.292ZM83.9303 51.6422L111.508 21.6662L110.993 21.1922L83.4152 51.1683L83.9303 51.6422ZM111.077 21.7331L115.274 24.1312L115.621 23.5234L111.424 21.1253L111.077 21.7331ZM115.19 23.5898L87.5523 53.5059L88.0665 53.9809L115.704 24.0648L115.19 23.5898ZM87.9816 53.4387L83.8449 51.1006L83.5005 51.71L87.6372 54.0481L87.9816 53.4387ZM88.4089 29.3931C89.4123 29.3931 90.2489 29.062 90.883 28.3826L90.3713 27.905C89.8863 28.4247 89.2442 28.6931 88.4089 28.6931V29.3931ZM90.8825 28.3832C91.5431 27.6786 91.8765 26.8336 91.8765 25.8656H91.1765C91.1765 26.6563 90.9103 27.3301 90.3718 27.9044L90.8825 28.3832ZM91.8765 25.8656C91.8765 24.8974 91.5425 24.0678 90.8747 23.3999L90.3797 23.8949C90.9109 24.4261 91.1765 25.0753 91.1765 25.8656H91.8765ZM90.883 23.4086C90.2489 22.7292 89.4123 22.3981 88.4089 22.3981V23.0981C89.2442 23.0981 89.8863 23.3666 90.3713 23.8862L90.883 23.4086ZM88.4089 22.3981C87.4407 22.3981 86.6111 22.7321 85.9432 23.3999L86.4382 23.8949C86.9694 23.3637 87.6186 23.0981 88.4089 23.0981V22.3981ZM85.9349 23.4086C85.3102 24.0779 85.0014 24.9047 85.0014 25.8656H85.7014C85.7014 25.068 85.9521 24.416 86.4466 23.8862L85.9349 23.4086ZM85.0014 25.8656C85.0014 26.862 85.3073 27.7103 85.9349 28.3826L86.4466 27.905C85.955 27.3783 85.7014 26.7078 85.7014 25.8656H85.0014ZM85.9432 28.3913C86.6111 29.0591 87.4407 29.3931 88.4089 29.3931V28.6931C87.6186 28.6931 86.9694 28.4276 86.4382 27.8963L85.9432 28.3913ZM111.67 58.4893C108.598 58.4893 106.05 57.4817 104.002 55.472L103.512 55.9717C105.7 58.1186 108.428 59.1893 111.67 59.1893V58.4893ZM104.004 55.4743C101.993 53.4631 100.989 51.0147 100.989 48.1079H100.289C100.289 51.1963 101.364 53.8239 103.509 55.9693L104.004 55.4743ZM100.989 48.1079C100.989 45.1597 101.994 42.6918 104.004 40.6815L103.509 40.1865C101.363 42.3329 100.289 44.981 100.289 48.1079H100.989ZM104.002 40.6838C106.05 38.6741 108.598 37.6665 111.67 37.6665V36.9665C108.428 36.9665 105.7 38.0372 103.512 40.1842L104.002 40.6838ZM111.67 37.6665C114.699 37.6665 117.205 38.6916 119.214 40.7391L119.714 40.2488C117.566 38.0598 114.877 36.9665 111.67 36.9665V37.6665ZM119.217 40.7415C121.228 42.7527 122.232 45.201 122.232 48.1079H122.932C122.932 45.0195 121.857 42.3919 119.712 40.2465L119.217 40.7415ZM122.232 48.1079C122.232 51.0126 121.21 53.4602 119.159 55.472L119.649 55.9717C121.835 53.8267 122.932 51.1984 122.932 48.1079H122.232ZM119.157 55.4743C117.147 57.4837 114.66 58.4893 111.67 58.4893V59.1893C114.836 59.1893 117.504 58.1166 119.652 55.9693L119.157 55.4743ZM109.145 50.5736C109.813 51.2414 110.642 51.5754 111.61 51.5754V50.8754C110.82 50.8754 110.171 50.6099 109.64 50.0786L109.145 50.5736ZM111.61 51.5754C112.579 51.5754 113.394 51.2409 114.025 50.5649L113.513 50.0873C113.025 50.6104 112.401 50.8754 111.61 50.8754V51.5754ZM114.024 50.5655C114.681 49.8643 115.018 49.0404 115.018 48.1079H114.318C114.318 48.854 114.055 49.5089 113.513 50.0867L114.024 50.5655ZM115.018 48.1079C115.018 47.1044 114.687 46.2532 114.016 45.5822L113.521 46.0772C114.049 46.6052 114.318 47.2728 114.318 48.1079H115.018ZM114.025 45.5909C113.394 44.9149 112.579 44.5804 111.61 44.5804V45.2804C112.401 45.2804 113.025 45.5455 113.513 46.0685L114.025 45.5909ZM111.61 44.5804C110.642 44.5804 109.813 44.9144 109.145 45.5822L109.64 46.0772C110.171 45.546 110.82 45.2804 111.61 45.2804V44.5804ZM109.136 45.5909C108.509 46.2632 108.203 47.1116 108.203 48.1079H108.903C108.903 47.2657 109.156 46.5952 109.648 46.0685L109.136 45.5909ZM108.203 48.1079C108.203 49.0688 108.512 49.8957 109.136 50.5649L109.648 50.0873C109.154 49.5575 108.903 48.9055 108.903 48.1079H108.203Z" fill="white"/>
<defs>
<filter id="filter0_f_304_103" x="0.108455" y="12.1578" width="125.45" height="49.7178" filterUnits="userSpaceOnUse" color-interpolation-filters="sRGB">
<feFlood flood-opacity="0" result="BackgroundImageFix"/>
<feBlend mode="normal" in="SourceGraphic" in2="BackgroundImageFix" result="shape"/>
<feGaussianBlur stdDeviation="1.48819" result="effect1_foregroundBlur_304_103"/>
</filter>
<linearGradient id="paint0_linear_304_103" x1="9.81959" y1="7.99553e-06" x2="129.994" y2="10.7867" gradientUnits="userSpaceOnUse">
<stop stop-color="#3F65EC"/>
<stop offset="1" stop-color="#D43FEC"/>
</linearGradient>
</defs>
</svg>
