<svg width="212" height="68" viewBox="0 0 212 68" fill="none" xmlns="http://www.w3.org/2000/svg">
<g filter="url(#filter0_f_114_9)">
<g filter="url(#filter1_f_114_9)">
<path d="M26.957 29.458L26.3098 28.6332L25.1029 29.5801L26.4236 30.3605L26.957 29.458ZM28.2526 45.9768L27.5693 45.1817L27.5683 45.1826L28.2526 45.9768ZM3.09638 48.9999H2.048V50.0483H3.09638V48.9999ZM3.09638 11.2116V10.1632H2.048V11.2116H3.09638ZM27.0649 14.1267L26.3764 14.9173L26.3831 14.9232L26.39 14.929L27.0649 14.1267ZM12.7594 19.8489V18.8006H11.711V19.8489H12.7594ZM12.7594 25.7871H11.711V26.8355H12.7594V25.7871ZM19.9391 25.0313L20.6295 25.8203L20.643 25.8085L20.6562 25.7962L19.9391 25.0313ZM12.7594 40.3626H11.711V41.4109H12.7594V40.3626ZM21.1268 39.4988L21.8453 40.2623L21.8569 40.2514L21.8681 40.2401L21.1268 39.4988ZM21.1268 34.8563L21.8453 34.0928L21.8453 34.0928L21.1268 34.8563ZM12.7594 33.9925V32.9442H11.711V33.9925H12.7594ZM26.4236 30.3605C29.2609 32.0371 30.6591 34.5128 30.6591 37.9333H32.7559C32.7559 33.7962 30.9871 30.6217 27.4903 28.5554L26.4236 30.3605ZM30.6591 37.9333C30.6591 41.0498 29.6127 43.4256 27.5693 45.1817L28.9359 46.7719C31.499 44.5692 32.7559 41.5828 32.7559 37.9333H30.6591ZM27.5683 45.1826C25.4611 46.9979 22.6464 47.9515 19.0214 47.9515V50.0483C23.0261 50.0483 26.3654 48.9864 28.9368 46.7711L27.5683 45.1826ZM19.0214 47.9515H3.09638V50.0483H19.0214V47.9515ZM4.14476 48.9999V11.2116H2.048V48.9999H4.14476ZM3.09638 12.26H17.9957V10.1632H3.09638V12.26ZM17.9957 12.26C21.6324 12.26 24.3858 13.1835 26.3764 14.9173L27.7535 13.3362C25.2815 11.1831 21.9887 10.1632 17.9957 10.1632V12.26ZM26.39 14.929C28.3909 16.6123 29.4175 18.9118 29.4175 21.9543H31.5143C31.5143 18.3748 30.2735 15.456 27.7398 13.3245L26.39 14.929ZM29.4175 21.9543C29.4175 24.8236 28.3773 27.011 26.3098 28.6332L27.6041 30.2828C30.2151 28.2341 31.5143 25.419 31.5143 21.9543H29.4175ZM17.7258 18.8006H12.7594V20.8973H17.7258V18.8006ZM11.711 19.8489V25.7871H13.8078V19.8489H11.711ZM12.7594 26.8355H17.7258V24.7387H12.7594V26.8355ZM17.7258 26.8355C18.8323 26.8355 19.8298 26.52 20.6295 25.8203L19.2488 24.2423C18.8968 24.5503 18.4188 24.7387 17.7258 24.7387V26.8355ZM20.6562 25.7962C21.4825 25.0215 21.8513 23.9852 21.8513 22.818H19.7545C19.7545 23.5223 19.5474 23.9615 19.2221 24.2665L20.6562 25.7962ZM21.8513 22.818C21.8513 21.6731 21.4738 20.6604 20.6562 19.8939L19.2221 21.4235C19.5561 21.7366 19.7545 22.1635 19.7545 22.818H21.8513ZM20.6562 19.8939C19.8586 19.1462 18.8518 18.8006 17.7258 18.8006V20.8973C18.3993 20.8973 18.868 21.0916 19.2221 21.4235L20.6562 19.8939ZM12.7594 41.4109H18.7515V39.3142H12.7594V41.4109ZM18.7515 41.4109C19.9454 41.4109 21.0086 41.0497 21.8453 40.2623L20.4083 38.7354C20.0213 39.0996 19.501 39.3142 18.7515 39.3142V41.4109ZM21.8681 40.2401C22.6935 39.4147 23.0929 38.3663 23.0929 37.1776H20.9961C20.9961 37.8602 20.7837 38.3593 20.3855 38.7575L21.8681 40.2401ZM23.0929 37.1776C23.0929 35.9663 22.7011 34.8983 21.8453 34.0928L20.4083 35.6197C20.7761 35.9659 20.9961 36.4455 20.9961 37.1776H23.0929ZM21.8453 34.0928C21.0086 33.3054 19.9454 32.9442 18.7515 32.9442V35.0409C19.501 35.0409 20.0213 35.2555 20.4083 35.6197L21.8453 34.0928ZM18.7515 32.9442H12.7594V35.0409H18.7515V32.9442ZM11.711 33.9925V40.3626H13.8078V33.9925H11.711ZM67.2588 48.9999V50.0483H69.0412L68.1751 48.4904L67.2588 48.9999ZM56.894 48.9999L55.9715 49.4979L56.2686 50.0483H56.894V48.9999ZM50.3081 36.7997L51.2306 36.3017L50.9335 35.7513H50.3081V36.7997ZM46.8531 36.7997V35.7513H45.8048V36.7997H46.8531ZM46.8531 48.9999V50.0483H47.9015V48.9999H46.8531ZM37.1902 48.9999H36.1418V50.0483H37.1902V48.9999ZM37.1902 11.2116V10.1632H36.1418V11.2116H37.1902ZM61.9684 14.9365L61.2431 15.6934L61.2512 15.7012L61.2596 15.7088L61.9684 14.9365ZM59.4852 35.0182L58.9705 34.1049L58.0625 34.6167L58.5689 35.5277L59.4852 35.0182ZM46.8531 20.1189V19.0705H45.8048V20.1189H46.8531ZM46.8531 28.5942H45.8048V29.6426H46.8531V28.5942ZM52.1975 28.5942L52.2292 27.5463L52.2134 27.5458H52.1975V28.5942ZM55.1126 21.3065L54.3542 22.0304L54.3542 22.0304L55.1126 21.3065ZM67.2588 47.9515H56.894V50.0483H67.2588V47.9515ZM57.8166 48.5019L51.2306 36.3017L49.3855 37.2977L55.9715 49.4979L57.8166 48.5019ZM50.3081 35.7513H46.8531V37.8481H50.3081V35.7513ZM45.8048 36.7997V48.9999H47.9015V36.7997H45.8048ZM46.8531 47.9515H37.1902V50.0483H46.8531V47.9515ZM38.2385 48.9999V11.2116H36.1418V48.9999H38.2385ZM37.1902 12.26H52.3055V10.1632H37.1902V12.26ZM52.3055 12.26C55.9076 12.26 58.8622 13.4117 61.2431 15.6934L62.6938 14.1796C59.8924 11.4948 56.4049 10.1632 52.3055 10.1632V12.26ZM61.2596 15.7088C63.654 17.9065 64.8608 20.7314 64.8608 24.2756H66.9576C66.9576 20.1901 65.5372 16.7889 62.6773 14.1641L61.2596 15.7088ZM64.8608 24.2756C64.8608 26.3162 64.337 28.1981 63.2843 29.9418L65.0792 31.0255C66.3298 28.9543 66.9576 26.6976 66.9576 24.2756H64.8608ZM63.2843 29.9418C62.228 31.6913 60.7956 33.0762 58.9705 34.1049L60 35.9315C62.1336 34.729 63.8323 33.0908 65.0792 31.0255L63.2843 29.9418ZM58.5689 35.5277L66.3425 49.5093L68.1751 48.4904L60.4015 34.5088L58.5689 35.5277ZM52.1975 19.0705H46.8531V21.1672H52.1975V19.0705ZM45.8048 20.1189V28.5942H47.9015V20.1189H45.8048ZM46.8531 29.6426H52.1975V27.5458H46.8531V29.6426ZM52.1657 29.6421C53.6222 29.6863 54.8908 29.2113 55.8709 28.1845L54.3542 26.7367C53.8228 27.2934 53.148 27.5742 52.2292 27.5463L52.1657 29.6421ZM55.8709 28.1845C56.841 27.1682 57.2946 25.869 57.2946 24.3835H55.1978C55.1978 25.4173 54.8957 26.1695 54.3542 26.7367L55.8709 28.1845ZM57.2946 24.3835C57.2946 22.8981 56.841 21.5989 55.8709 20.5826L54.3542 22.0304C54.8957 22.5976 55.1978 23.3498 55.1978 24.3835H57.2946ZM55.8709 20.5826C54.8994 19.5648 53.6446 19.0705 52.1975 19.0705V21.1672C53.1257 21.1672 53.8142 21.4647 54.3542 22.0304L55.8709 20.5826ZM104.148 44.1414L104.883 44.8897L104.89 44.8827L104.148 44.1414ZM76.0231 44.1414L75.2817 44.8827L75.2853 44.8862L76.0231 44.1414ZM76.0231 16.1241L76.7609 16.8689L76.7644 16.8654L76.0231 16.1241ZM104.148 16.1241L103.407 16.8655L103.414 16.8724L104.148 16.1241ZM82.825 37.5015L82.0836 38.2428L82.0905 38.2496L82.0975 38.2564L82.825 37.5015ZM97.4004 37.5015L98.1279 38.2564L98.1349 38.2496L98.1417 38.2428L97.4004 37.5015ZM97.4004 22.764L96.6591 23.5054L96.6661 23.5123L96.6732 23.5192L97.4004 22.764ZM82.825 22.764L83.5522 23.5192L83.5593 23.5123L83.5663 23.5054L82.825 22.764ZM103.414 43.3931C99.7637 46.9752 95.3507 48.7612 90.1127 48.7612V50.858C95.8873 50.858 100.831 48.8652 104.883 44.8897L103.414 43.3931ZM90.1127 48.7612C84.7988 48.7612 80.371 46.9727 76.7609 43.3966L75.2853 44.8862C79.3047 48.8678 84.2701 50.858 90.1127 50.858V48.7612ZM76.7644 43.4001C73.1521 39.7878 71.3492 35.3785 71.3492 30.1058H69.2525C69.2525 35.9176 71.2644 40.8654 75.2817 44.8827L76.7644 43.4001ZM71.3492 30.1058C71.3492 24.8332 73.1519 20.4439 76.7609 16.8689L75.2853 15.3793C71.2646 19.362 69.2525 24.2938 69.2525 30.1058H71.3492ZM76.7644 16.8654C80.3752 13.2546 84.8019 11.4503 90.1127 11.4503V9.3535C84.2669 9.3535 79.3005 11.364 75.2817 15.3828L76.7644 16.8654ZM90.1127 11.4503C95.3854 11.4503 99.7947 13.2531 103.407 16.8654L104.89 15.3828C100.872 11.3654 95.9245 9.3535 90.1127 9.3535V11.4503ZM103.414 16.8724C107.058 20.4481 108.876 24.8363 108.876 30.1058H110.973C110.973 24.2906 108.94 19.3577 104.883 15.3758L103.414 16.8724ZM108.876 30.1058C108.876 35.3375 107.059 39.7483 103.407 43.4001L104.89 44.8827C108.939 40.8329 110.973 35.8866 110.973 30.1058H108.876ZM82.0975 38.2564C84.2823 40.3617 86.9765 41.4109 90.1127 41.4109V39.3142C87.4907 39.3142 85.3264 38.456 83.5524 36.7465L82.0975 38.2564ZM90.1127 41.4109C93.2489 41.4109 95.9431 40.3617 98.1279 38.2564L96.673 36.7465C94.899 38.456 92.7347 39.3142 90.1127 39.3142V41.4109ZM98.1417 38.2428C100.3 36.0847 101.364 33.3443 101.364 30.1058H99.2671C99.2671 32.8414 98.3878 35.0314 96.6591 36.7601L98.1417 38.2428ZM101.364 30.1058C101.364 26.8355 100.302 24.1026 98.1276 22.0089L96.6732 23.5192C98.3857 25.1683 99.2671 27.3299 99.2671 30.1058H101.364ZM98.1417 22.0227C95.9889 19.8699 93.2871 18.8006 90.1127 18.8006V20.8973C92.7684 20.8973 94.9252 21.7714 96.6591 23.5054L98.1417 22.0227ZM90.1127 18.8006C86.9383 18.8006 84.2365 19.8699 82.0836 22.0227L83.5663 23.5054C85.3002 21.7714 87.4569 20.8973 90.1127 20.8973V18.8006ZM82.0978 22.0089C79.9234 24.1026 78.8615 26.8355 78.8615 30.1058H80.9582C80.9582 27.3299 81.8397 25.1683 83.5522 23.5192L82.0978 22.0089ZM78.8615 30.1058C78.8615 33.3443 79.9256 36.0847 82.0836 38.2428L83.5663 36.7601C81.8375 35.0314 80.9582 32.8414 80.9582 30.1058H78.8615ZM136.864 30.2137L136.006 30.8159L137.913 33.5329V30.2137H136.864ZM136.864 11.2116V10.1632H135.816V11.2116H136.864ZM146.473 11.2116H147.522V10.1632H146.473V11.2116ZM146.473 48.9999V50.0483H147.522V48.9999H146.473ZM139.024 48.9999L138.165 49.6021L138.478 50.0483H139.024V48.9999ZM125.69 29.9978L126.548 29.3956L124.641 26.6786V29.9978H125.69ZM125.69 48.9999V50.0483H126.738V48.9999H125.69ZM116.027 48.9999H114.978V50.0483H116.027V48.9999ZM116.027 11.2116V10.1632H114.978V11.2116H116.027ZM123.53 11.2116L124.389 10.6094L124.075 10.1632H123.53V11.2116ZM137.913 30.2137V11.2116H135.816V30.2137H137.913ZM136.864 12.26H146.473V10.1632H136.864V12.26ZM145.425 11.2116V48.9999H147.522V11.2116H145.425ZM146.473 47.9515H139.024V50.0483H146.473V47.9515ZM139.882 48.3977L126.548 29.3956L124.832 30.6L138.165 49.6021L139.882 48.3977ZM124.641 29.9978V48.9999H126.738V29.9978H124.641ZM125.69 47.9515H116.027V50.0483H125.69V47.9515ZM117.075 48.9999V11.2116H114.978V48.9999H117.075ZM116.027 12.26H123.53V10.1632H116.027V12.26ZM122.672 11.8138L136.006 30.8159L137.722 29.6115L124.389 10.6094L122.672 11.8138ZM178.745 18.6613L179.63 19.2233L179.793 18.966V18.6613H178.745ZM165.411 39.6608L164.526 39.0988L163.503 40.7092H165.411V39.6608ZM179.177 39.6608H180.225V38.6124H179.177V39.6608ZM179.177 48.9999V50.0483H180.225V48.9999H179.177ZM152.887 48.9999H151.838V50.0483H152.887V48.9999ZM152.887 41.5502L152.002 40.9882L151.838 41.2455V41.5502H152.887ZM166.221 20.5507L167.106 21.1127L168.128 19.5023H166.221V20.5507ZM153.157 20.5507H152.108V21.5991H153.157V20.5507ZM153.157 11.2116V10.1632H152.108V11.2116H153.157ZM178.745 11.2116H179.793V10.1632H178.745V11.2116ZM177.86 18.0993L164.526 39.0988L166.296 40.2227L179.63 19.2233L177.86 18.0993ZM165.411 40.7092H179.177V38.6124H165.411V40.7092ZM178.128 39.6608V48.9999H180.225V39.6608H178.128ZM179.177 47.9515H152.887V50.0483H179.177V47.9515ZM153.935 48.9999V41.5502H151.838V48.9999H153.935ZM153.772 42.1122L167.106 21.1127L165.336 19.9888L152.002 40.9882L153.772 42.1122ZM166.221 19.5023H153.157V21.5991H166.221V19.5023ZM154.205 20.5507V11.2116H152.108V20.5507H154.205ZM153.157 12.26H178.745V10.1632H153.157V12.26ZM177.696 11.2116V18.6613H179.793V11.2116H177.696ZM194.615 34.3704V33.322H193.567V34.3704H194.615ZM194.615 39.9307H193.567V40.9791H194.615V39.9307ZM209.245 39.9307H210.293V38.8823H209.245V39.9307ZM209.245 48.9999V50.0483H210.293V48.9999H209.245ZM184.952 48.9999H183.904V50.0483H184.952V48.9999ZM184.952 11.2116V10.1632H183.904V11.2116H184.952ZM208.975 11.2116H210.023V10.1632H208.975V11.2116ZM208.975 20.2268V21.2752H210.023V20.2268H208.975ZM194.615 20.2268V19.1784H193.567V20.2268H194.615ZM194.615 25.4632H193.567V26.5116H194.615V25.4632ZM207.625 25.4632H208.674V24.4148H207.625V25.4632ZM207.625 34.3704V35.4188H208.674V34.3704H207.625ZM193.567 34.3704V39.9307H195.664V34.3704H193.567ZM194.615 40.9791H209.245V38.8823H194.615V40.9791ZM208.196 39.9307V48.9999H210.293V39.9307H208.196ZM209.245 47.9515H184.952V50.0483H209.245V47.9515ZM186.001 48.9999V11.2116H183.904V48.9999H186.001ZM184.952 12.26H208.975V10.1632H184.952V12.26ZM207.926 11.2116V20.2268H210.023V11.2116H207.926ZM208.975 19.1784H194.615V21.2752H208.975V19.1784ZM193.567 20.2268V25.4632H195.664V20.2268H193.567ZM194.615 26.5116H207.625V24.4148H194.615V26.5116ZM206.577 25.4632V34.3704H208.674V25.4632H206.577ZM207.625 33.322H194.615V35.4188H207.625V33.322Z" fill="url(#paint0_linear_114_9)"/>
</g>
<path d="M26.957 29.458L26.749 29.1928L26.361 29.4972L26.7855 29.7481L26.957 29.458ZM28.2526 45.9768L28.0329 45.7213L28.0326 45.7215L28.2526 45.9768ZM3.09638 48.9999H2.75941V49.3368H3.09638V48.9999ZM3.09638 11.2116V10.8747H2.75941V11.2116H3.09638ZM27.0649 14.1267L26.8436 14.3809L26.848 14.3846L27.0649 14.1267ZM12.7594 19.8489V19.512H12.4224V19.8489H12.7594ZM12.7594 25.7871H12.4224V26.1241H12.7594V25.7871ZM19.9391 25.0313L20.1612 25.2851L20.1696 25.2772L19.9391 25.0313ZM12.7594 40.3626H12.4224V40.6995H12.7594V40.3626ZM21.1268 39.4988L21.3578 39.7443L21.365 39.7371L21.1268 39.4988ZM21.1268 34.8563L21.3577 34.6109L21.3577 34.6109L21.1268 34.8563ZM12.7594 33.9925V33.6556H12.4224V33.9925H12.7594ZM26.7855 29.7481C29.8466 31.5568 31.3705 34.2697 31.3705 37.9333H32.0445C32.0445 34.0393 30.4014 31.1019 27.1284 29.1678L26.7855 29.7481ZM31.3705 37.9333C31.3705 41.2306 30.2527 43.8136 28.0329 45.7213L28.4722 46.2324C30.859 44.1812 32.0445 41.4019 32.0445 37.9333H31.3705ZM28.0326 45.7215C25.768 47.6726 22.7752 48.6629 19.0214 48.6629V49.3368C22.8973 49.3368 26.0586 48.3118 28.4725 46.2321L28.0326 45.7215ZM19.0214 48.6629H3.09638V49.3368H19.0214V48.6629ZM3.43335 48.9999V11.2116H2.75941V48.9999H3.43335ZM3.09638 11.5486H17.9957V10.8747H3.09638V11.5486ZM17.9957 11.5486C21.7533 11.5486 24.6897 12.5048 26.8436 14.3808L27.2862 13.8726C24.9776 11.8618 21.8678 10.8747 17.9957 10.8747V11.5486ZM26.848 14.3846C29.0297 16.22 30.1289 18.7296 30.1289 21.9543H30.8028C30.8028 18.557 29.6348 15.8483 27.2819 13.8689L26.848 14.3846ZM30.1289 21.9543C30.1289 25.0256 29.0009 27.426 26.749 29.1928L27.165 29.7231C29.5916 27.8191 30.8028 25.217 30.8028 21.9543H30.1289ZM17.7258 19.512H12.7594V20.1859H17.7258V19.512ZM12.4224 19.8489V25.7871H13.0963V19.8489H12.4224ZM12.7594 26.1241H17.7258V25.4501H12.7594V26.1241ZM17.7258 26.1241C18.692 26.1241 19.5133 25.8517 20.161 25.2849L19.7172 24.7777C19.2134 25.2186 18.5591 25.4501 17.7258 25.4501V26.1241ZM20.1696 25.2772C20.826 24.6618 21.1398 23.8281 21.1398 22.818H20.4659C20.4659 23.6793 20.204 24.3212 19.7087 24.7855L20.1696 25.2772ZM21.1398 22.818C21.1398 21.8395 20.8232 21.0256 20.1696 20.4129L19.7087 20.9045C20.2068 21.3715 20.4659 21.9971 20.4659 22.818H21.1398ZM20.1696 20.4129C19.5225 19.8062 18.6983 19.512 17.7258 19.512V20.1859C18.5528 20.1859 19.2041 20.4315 19.7087 20.9045L20.1696 20.4129ZM12.7594 40.6995H18.7515V40.0256H12.7594V40.6995ZM18.7515 40.6995C19.7946 40.6995 20.6736 40.3881 21.3577 39.7442L20.8958 39.2535C20.3563 39.7613 19.6518 40.0256 18.7515 40.0256V40.6995ZM21.365 39.7371C22.0455 39.0566 22.3815 38.1946 22.3815 37.1776H21.7075C21.7075 38.0319 21.4317 38.7174 20.8885 39.2606L21.365 39.7371ZM22.3815 37.1776C22.3815 36.1288 22.048 35.2605 21.3577 34.6109L20.8958 35.1017C21.4292 35.6037 21.7075 36.2829 21.7075 37.1776H22.3815ZM21.3577 34.6109C20.6736 33.9671 19.7946 33.6556 18.7515 33.6556V34.3295C19.6518 34.3295 20.3563 34.5939 20.8958 35.1017L21.3577 34.6109ZM18.7515 33.6556H12.7594V34.3295H18.7515V33.6556ZM12.4224 33.9925V40.3626H13.0963V33.9925H12.4224ZM67.2588 48.9999V49.3368H67.8317L67.5533 48.8361L67.2588 48.9999ZM56.894 48.9999L56.5975 49.1599L56.693 49.3368H56.894V48.9999ZM50.3081 36.7997L50.6046 36.6396L50.5091 36.4627H50.3081V36.7997ZM46.8531 36.7997V36.4627H46.5162V36.7997H46.8531ZM46.8531 48.9999V49.3368H47.1901V48.9999H46.8531ZM37.1902 48.9999H36.8532V49.3368H37.1902V48.9999ZM37.1902 11.2116V10.8747H36.8532V11.2116H37.1902ZM61.9684 14.9365L61.7352 15.1798L61.7406 15.1847L61.9684 14.9365ZM59.4852 35.0182L59.3198 34.7247L59.0279 34.8892L59.1907 35.182L59.4852 35.0182ZM46.8531 20.1189V19.7819H46.5162V20.1189H46.8531ZM46.8531 28.5942H46.5162V28.9312H46.8531V28.5942ZM52.1975 28.5942L52.2077 28.2573H52.1975V28.5942ZM55.1126 21.3065L54.8688 21.5392L54.8688 21.5392L55.1126 21.3065ZM67.2588 48.6629H56.894V49.3368H67.2588V48.6629ZM57.1905 48.8398L50.6046 36.6396L50.0116 36.9597L56.5975 49.1599L57.1905 48.8398ZM50.3081 36.4627H46.8531V37.1366H50.3081V36.4627ZM46.5162 36.7997V48.9999H47.1901V36.7997H46.5162ZM46.8531 48.6629H37.1902V49.3368H46.8531V48.6629ZM37.5271 48.9999V11.2116H36.8532V48.9999H37.5271ZM37.1902 11.5486H52.3055V10.8747H37.1902V11.5486ZM52.3055 11.5486C56.0763 11.5486 59.2117 12.7613 61.7353 15.1798L62.2016 14.6932C59.5428 12.1452 56.2362 10.8747 52.3055 10.8747V11.5486ZM61.7406 15.1847C64.293 17.5273 65.5723 20.5477 65.5723 24.2756H66.2462C66.2462 20.3738 64.8983 17.1681 62.1963 14.6882L61.7406 15.1847ZM65.5723 24.2756C65.5723 26.4456 65.0132 28.4547 63.8933 30.3095L64.4702 30.6578C65.6536 28.6978 66.2462 26.5682 66.2462 24.2756H65.5723ZM63.8933 30.3095C62.7723 32.1661 61.2496 33.637 59.3198 34.7247L59.6507 35.3118C61.6796 34.1682 63.2879 32.616 64.4702 30.6578L63.8933 30.3095ZM59.1907 35.182L66.9643 49.1636L67.5533 48.8361L59.7797 34.8545L59.1907 35.182ZM52.1975 19.7819H46.8531V20.4558H52.1975V19.7819ZM46.5162 20.1189V28.5942H47.1901V20.1189H46.5162ZM46.8531 28.9312H52.1975V28.2573H46.8531V28.9312ZM52.1873 28.931C53.4613 28.9696 54.5284 28.5606 55.3563 27.6932L54.8688 27.2279C54.1852 27.9441 53.3089 28.2908 52.2077 28.2574L52.1873 28.931ZM55.3563 27.6932C56.181 26.8293 56.5832 25.7157 56.5832 24.3835H55.9093C55.9093 25.5705 55.5557 26.5083 54.8688 27.2279L55.3563 27.6932ZM56.5832 24.3835C56.5832 23.0513 56.181 21.9377 55.3563 21.0738L54.8688 21.5392C55.5557 22.2587 55.9093 23.1965 55.9093 24.3835H56.5832ZM55.3563 21.0738C54.5312 20.2094 53.4685 19.7819 52.1975 19.7819V20.4558C53.3017 20.4558 54.1824 20.8201 54.8688 21.5392L55.3563 21.0738ZM104.148 44.1414L104.384 44.3819L104.387 44.3797L104.148 44.1414ZM76.0231 44.1414L75.7848 44.3797L75.7859 44.3808L76.0231 44.1414ZM76.0231 16.1241L76.2602 16.3635L76.2613 16.3624L76.0231 16.1241ZM104.148 16.1241L103.91 16.3624L103.912 16.3646L104.148 16.1241ZM82.825 37.5015L82.5866 37.7398L82.5911 37.7441L82.825 37.5015ZM97.4004 37.5015L97.6343 37.7441L97.6387 37.7397L97.4004 37.5015ZM97.4004 22.764L97.1621 23.0024L97.1667 23.0068L97.4004 22.764ZM82.825 22.764L83.0587 23.0068L83.0632 23.0023L82.825 22.764ZM103.912 43.9009C100.126 47.6165 95.5327 49.4727 90.1127 49.4727V50.1466C95.7052 50.1466 100.469 48.224 104.384 44.3819L103.912 43.9009ZM90.1127 49.4727C84.6194 49.4727 80.0092 47.6157 76.2602 43.902L75.7859 44.3808C79.6665 48.2248 84.4494 50.1466 90.1127 50.1466V49.4727ZM76.2613 43.9031C72.5116 40.1534 70.6378 35.5614 70.6378 30.1058H69.9639C69.9639 35.7347 71.9049 40.4997 75.7848 44.3797L76.2613 43.9031ZM70.6378 30.1058C70.6378 24.6502 72.5115 20.0768 76.2602 16.3635L75.7859 15.8847C71.905 19.7291 69.9639 24.4768 69.9639 30.1058H70.6378ZM76.2613 16.3624C80.0106 12.6131 84.6204 10.7388 90.1127 10.7388V10.0649C84.4484 10.0649 79.6652 12.0055 75.7848 15.8858L76.2613 16.3624ZM90.1127 10.7388C95.5683 10.7388 100.16 12.6127 103.91 16.3624L104.387 15.8858C100.507 12.0059 95.7416 10.0649 90.1127 10.0649V10.7388ZM103.912 16.3646C107.697 20.0782 109.588 24.6512 109.588 30.1058H110.261C110.261 24.4758 108.302 19.7277 104.384 15.8836L103.912 16.3646ZM109.588 30.1058C109.588 35.5238 107.697 40.1163 103.91 43.9031L104.387 44.3797C108.301 40.4649 110.261 35.7003 110.261 30.1058H109.588ZM82.5911 37.7441C84.6365 39.7151 87.1509 40.6995 90.1127 40.6995V40.0256C87.3162 40.0256 84.9721 39.1026 83.0588 37.2588L82.5911 37.7441ZM90.1127 40.6995C93.0744 40.6995 95.5888 39.7151 97.6342 37.7441L97.1666 37.2588C95.2532 39.1026 92.9092 40.0256 90.1127 40.0256V40.6995ZM97.6387 37.7397C99.6511 35.7273 100.652 33.1736 100.652 30.1058H99.9785C99.9785 33.012 99.0365 35.3888 97.1621 37.2632L97.6387 37.7397ZM100.652 30.1058C100.652 27.0033 99.6518 24.4642 97.6342 22.5213L97.1667 23.0068C99.0359 24.8067 99.9785 27.1621 99.9785 30.1058H100.652ZM97.6387 22.5258C95.628 20.515 93.1111 19.512 90.1127 19.512V20.1859C92.9444 20.1859 95.2861 21.1262 97.1621 23.0023L97.6387 22.5258ZM90.1127 19.512C87.1142 19.512 84.5974 20.515 82.5867 22.5258L83.0632 23.0023C84.9393 21.1262 87.2809 20.1859 90.1127 20.1859V19.512ZM82.5912 22.5213C80.5736 24.4642 79.5729 27.0033 79.5729 30.1058H80.2468C80.2468 27.1621 81.1895 24.8067 83.0587 23.0068L82.5912 22.5213ZM79.5729 30.1058C79.5729 33.1736 80.5743 35.7273 82.5867 37.7397L83.0632 37.2632C81.1888 35.3888 80.2468 33.012 80.2468 30.1058H79.5729ZM136.864 30.2137L136.588 30.4073L137.201 31.2806V30.2137H136.864ZM136.864 11.2116V10.8747H136.527V11.2116H136.864ZM146.473 11.2116H146.81V10.8747H146.473V11.2116ZM146.473 48.9999V49.3368H146.81V48.9999H146.473ZM139.024 48.9999L138.748 49.1934L138.848 49.3368H139.024V48.9999ZM125.69 29.9978L125.966 29.8042L125.353 28.9309V29.9978H125.69ZM125.69 48.9999V49.3368H126.027V48.9999H125.69ZM116.027 48.9999H115.69V49.3368H116.027V48.9999ZM116.027 11.2116V10.8747H115.69V11.2116H116.027ZM123.53 11.2116L123.806 11.0181L123.706 10.8747H123.53V11.2116ZM137.201 30.2137V11.2116H136.527V30.2137H137.201ZM136.864 11.5486H146.473V10.8747H136.864V11.5486ZM146.136 11.2116V48.9999H146.81V11.2116H146.136ZM146.473 48.6629H139.024V49.3368H146.473V48.6629ZM139.299 48.8063L125.966 29.8042L125.414 30.1913L138.748 49.1934L139.299 48.8063ZM125.353 29.9978V48.9999H126.027V29.9978H125.353ZM125.69 48.6629H116.027V49.3368H125.69V48.6629ZM116.364 48.9999V11.2116H115.69V48.9999H116.364ZM116.027 11.5486H123.53V10.8747H116.027V11.5486ZM123.255 11.4052L136.588 30.4073L137.14 30.0202L123.806 11.0181L123.255 11.4052ZM178.745 18.6613L179.029 18.8419L179.082 18.7593V18.6613H178.745ZM165.411 39.6608L165.126 39.4802L164.798 39.9978H165.411V39.6608ZM179.177 39.6608H179.514V39.3238H179.177V39.6608ZM179.177 48.9999V49.3368H179.514V48.9999H179.177ZM152.887 48.9999H152.55V49.3368H152.887V48.9999ZM152.887 41.5502L152.602 41.3696L152.55 41.4523V41.5502H152.887ZM166.221 20.5507L166.505 20.7314L166.834 20.2138H166.221V20.5507ZM153.157 20.5507H152.82V20.8877H153.157V20.5507ZM153.157 11.2116V10.8747H152.82V11.2116H153.157ZM178.745 11.2116H179.082V10.8747H178.745V11.2116ZM178.46 18.4807L165.126 39.4802L165.695 39.8414L179.029 18.8419L178.46 18.4807ZM165.411 39.9978H179.177V39.3238H165.411V39.9978ZM178.84 39.6608V48.9999H179.514V39.6608H178.84ZM179.177 48.6629H152.887V49.3368H179.177V48.6629ZM153.224 48.9999V41.5502H152.55V48.9999H153.224ZM153.171 41.7308L166.505 20.7314L165.936 20.3701L152.602 41.3696L153.171 41.7308ZM166.221 20.2138H153.157V20.8877H166.221V20.2138ZM153.494 20.5507V11.2116H152.82V20.5507H153.494ZM153.157 11.5486H178.745V10.8747H153.157V11.5486ZM178.408 11.2116V18.6613H179.082V11.2116H178.408ZM194.615 34.3704V34.0335H194.278V34.3704H194.615ZM194.615 39.9307H194.278V40.2677H194.615V39.9307ZM209.245 39.9307H209.582V39.5937H209.245V39.9307ZM209.245 48.9999V49.3368H209.582V48.9999H209.245ZM184.952 48.9999H184.615V49.3368H184.952V48.9999ZM184.952 11.2116V10.8747H184.615V11.2116H184.952ZM208.975 11.2116H209.312V10.8747H208.975V11.2116ZM208.975 20.2268V20.5638H209.312V20.2268H208.975ZM194.615 20.2268V19.8899H194.278V20.2268H194.615ZM194.615 25.4632H194.278V25.8002H194.615V25.4632ZM207.625 25.4632H207.962V25.1262H207.625V25.4632ZM207.625 34.3704V34.7074H207.962V34.3704H207.625ZM194.278 34.3704V39.9307H194.952V34.3704H194.278ZM194.615 40.2677H209.245V39.5937H194.615V40.2677ZM208.908 39.9307V48.9999H209.582V39.9307H208.908ZM209.245 48.6629H184.952V49.3368H209.245V48.6629ZM185.289 48.9999V11.2116H184.615V48.9999H185.289ZM184.952 11.5486H208.975V10.8747H184.952V11.5486ZM208.638 11.2116V20.2268H209.312V11.2116H208.638ZM208.975 19.8899H194.615V20.5638H208.975V19.8899ZM194.278 20.2268V25.4632H194.952V20.2268H194.278ZM194.615 25.8002H207.625V25.1262H194.615V25.8002ZM207.288 25.4632V34.3704H207.962V25.4632H207.288ZM207.625 34.0335H194.615V34.7074H207.625V34.0335Z" fill="white"/>
</g>
<defs>
<filter id="filter0_f_114_9" x="1.0957" y="8.40186" width="210.148" height="43.4077" filterUnits="userSpaceOnUse" color-interpolation-filters="sRGB">
<feFlood flood-opacity="0" result="BackgroundImageFix"/>
<feBlend mode="normal" in="SourceGraphic" in2="BackgroundImageFix" result="shape"/>
<feGaussianBlur stdDeviation="1" result="effect1_foregroundBlur_114_9"/>
</filter>
<filter id="filter1_f_114_9" x="1.06185" y="8.368" width="210.216" height="43.4754" filterUnits="userSpaceOnUse" color-interpolation-filters="sRGB">
<feFlood flood-opacity="0" result="BackgroundImageFix"/>
<feBlend mode="normal" in="SourceGraphic" in2="BackgroundImageFix" result="shape"/>
<feGaussianBlur stdDeviation="1.01693" result="effect1_foregroundBlur_114_9"/>
</filter>
<linearGradient id="paint0_linear_114_9" x1="13.4141" y1="-0.000114821" x2="215.403" y2="34.3028" gradientUnits="userSpaceOnUse">
<stop stop-color="#E43D08"/>
<stop offset="1" stop-color="#D43FEC"/>
</linearGradient>
</defs>
</svg>
