<svg width="233" height="75" viewBox="0 0 233 75" fill="none" xmlns="http://www.w3.org/2000/svg">
<g filter="url(#filter0_f_106_2631)">
<path d="M29.6399 32.5132L28.9283 31.6063L27.6013 32.6475L29.0535 33.5056L29.6399 32.5132ZM31.0644 50.6761L30.3131 49.8019L30.312 49.8028L31.0644 50.6761ZM3.40455 54.0001H2.25183V55.1528H3.40455V54.0001ZM3.40455 12.4509V11.2982H2.25183V12.4509H3.40455ZM29.7586 15.6561L29.0015 16.5254L29.009 16.5318L29.0165 16.5382L29.7586 15.6561ZM14.0293 21.9478V20.7951H12.8765V21.9478H14.0293ZM14.0293 28.477H12.8765V29.6297H14.0293V28.477ZM21.9236 27.646L22.6827 28.5135L22.6976 28.5005L22.712 28.487L21.9236 27.646ZM14.0293 44.5031H12.8765V45.6558H14.0293V44.5031ZM23.2294 43.5534L24.0195 44.3928L24.0322 44.3809L24.0445 44.3685L23.2294 43.5534ZM23.2294 38.4488L24.0195 37.6094H24.0195L23.2294 38.4488ZM14.0293 37.4991V36.3464H12.8765V37.4991H14.0293ZM29.0535 33.5056C32.1731 35.349 33.7105 38.0712 33.7105 41.8321H36.0159C36.0159 37.2832 34.0711 33.7927 30.2263 31.5208L29.0535 33.5056ZM33.7105 41.8321C33.7105 45.2587 32.5599 47.871 30.3131 49.8019L31.8157 51.5504C34.6339 49.1285 36.0159 45.8448 36.0159 41.8321H33.7105ZM30.312 49.8028C27.9952 51.7989 24.9003 52.8473 20.9146 52.8473V55.1528C25.3177 55.1528 28.9895 53.9853 31.8168 51.5494L30.312 49.8028ZM20.9146 52.8473H3.40455V55.1528H20.9146V52.8473ZM4.55727 54.0001V12.4509H2.25183V54.0001H4.55727ZM3.40455 13.6036H19.7868V11.2982H3.40455V13.6036ZM19.7868 13.6036C23.7854 13.6036 26.8128 14.6191 29.0015 16.5254L30.5157 14.7869C27.7976 12.4195 24.1771 11.2982 19.7868 11.2982V13.6036ZM29.0165 16.5382C31.2165 18.389 32.3453 20.9175 32.3453 24.2627H34.6507C34.6507 20.327 33.2865 17.1177 30.5007 14.774L29.0165 16.5382ZM32.3453 24.2627C32.3453 27.4176 31.2016 29.8227 28.9283 31.6063L30.3514 33.4201C33.2223 31.1675 34.6507 28.0723 34.6507 24.2627H32.3453ZM19.49 20.7951H14.0293V23.1006H19.49V20.7951ZM12.8765 21.9478V28.477H15.182V21.9478H12.8765ZM14.0293 29.6297H19.49V27.3243H14.0293V29.6297ZM19.49 29.6297C20.7066 29.6297 21.8034 29.2829 22.6827 28.5135L21.1645 26.7785C20.7775 27.1171 20.2519 27.3243 19.49 27.3243V29.6297ZM22.712 28.487C23.6206 27.6352 24.026 26.4957 24.026 25.2124H21.7206C21.7206 25.9868 21.4929 26.4697 21.1352 26.8051L22.712 28.487ZM24.026 25.2124C24.026 23.9535 23.611 22.8401 22.712 21.9972L21.1352 23.6791C21.5024 24.0234 21.7206 24.4928 21.7206 25.2124H24.026ZM22.712 21.9972C21.8351 21.1751 20.728 20.7951 19.49 20.7951V23.1006C20.2305 23.1006 20.7459 23.3141 21.1352 23.6791L22.712 21.9972ZM14.0293 45.6558H20.6178V43.3504H14.0293V45.6558ZM20.6178 45.6558C21.9305 45.6558 23.0996 45.2586 24.0195 44.3928L22.4394 42.714C22.0139 43.1145 21.4418 43.3504 20.6178 43.3504V45.6558ZM24.0445 44.3685C24.9521 43.4609 25.3912 42.3082 25.3912 41.0011H23.0858C23.0858 41.7517 22.8522 42.3005 22.4143 42.7383L24.0445 44.3685ZM25.3912 41.0011C25.3912 39.6693 24.9605 38.495 24.0195 37.6094L22.4394 39.2882C22.8438 39.6688 23.0858 40.1961 23.0858 41.0011H25.3912ZM24.0195 37.6094C23.0996 36.7436 21.9305 36.3464 20.6178 36.3464V38.6518C21.4418 38.6518 22.0139 38.8878 22.4394 39.2882L24.0195 37.6094ZM20.6178 36.3464H14.0293V38.6518H20.6178V36.3464ZM12.8765 37.4991V44.5031H15.182V37.4991H12.8765ZM73.9528 54.0001V55.1528H75.9126L74.9603 53.4399L73.9528 54.0001ZM62.5565 54.0001L61.5421 54.5476L61.8688 55.1528H62.5565V54.0001ZM55.315 40.5856L56.3294 40.038L56.0027 39.4329H55.315V40.5856ZM51.5163 40.5856V39.4329H50.3635V40.5856H51.5163ZM51.5163 54.0001V55.1528H52.669V54.0001H51.5163ZM40.8915 54.0001H39.7388V55.1528H40.8915V54.0001ZM40.8915 12.4509V11.2982H39.7388V12.4509H40.8915ZM68.1359 16.5465L67.3383 17.3787L67.3473 17.3873L67.3565 17.3957L68.1359 16.5465ZM65.4055 38.6269L64.8395 37.6227L63.8412 38.1854L64.3981 39.187L65.4055 38.6269ZM51.5163 22.2446V21.0919H50.3635V22.2446H51.5163ZM51.5163 31.5635H50.3635V32.7162H51.5163V31.5635ZM57.3925 31.5635L57.4274 30.4113L57.41 30.4108H57.3925V31.5635ZM60.5977 23.5505L59.7639 24.3464H59.7639L60.5977 23.5505ZM73.9528 52.8473H62.5565V55.1528H73.9528V52.8473ZM63.5708 53.4525L56.3294 40.038L54.3007 41.1332L61.5421 54.5476L63.5708 53.4525ZM55.315 39.4329H51.5163V41.7383H55.315V39.4329ZM50.3635 40.5856V54.0001H52.669V40.5856H50.3635ZM51.5163 52.8473H40.8915V55.1528H51.5163V52.8473ZM42.0443 54.0001V12.4509H39.7388V54.0001H42.0443ZM40.8915 13.6036H57.5112V11.2982H40.8915V13.6036ZM57.5112 13.6036C61.4719 13.6036 64.7205 14.8699 67.3383 17.3787L68.9335 15.7142C65.8532 12.7623 62.0187 11.2982 57.5112 11.2982V13.6036ZM67.3565 17.3957C69.9892 19.8121 71.3162 22.9181 71.3162 26.815H73.6216C73.6216 22.323 72.0599 18.5833 68.9154 15.6972L67.3565 17.3957ZM71.3162 26.815C71.3162 29.0587 70.7403 31.128 69.5827 33.0452L71.5563 34.2368C72.9313 31.9595 73.6216 29.4781 73.6216 26.815H71.3162ZM69.5827 33.0452C68.4213 34.9688 66.8464 36.4915 64.8395 37.6227L65.9715 39.6311C68.3175 38.3088 70.1852 36.5076 71.5563 34.2368L69.5827 33.0452ZM64.3981 39.187L72.9453 54.5602L74.9603 53.4399L66.413 38.0667L64.3981 39.187ZM57.3925 21.0919H51.5163V23.3973H57.3925V21.0919ZM50.3635 22.2446V31.5635H52.669V22.2446H50.3635ZM51.5163 32.7162H57.3925V30.4108H51.5163V32.7162ZM57.3576 32.7157C58.959 32.7642 60.3538 32.242 61.4315 31.113L59.7639 29.5211C59.1796 30.1332 58.4376 30.4419 57.4274 30.4113L57.3576 32.7157ZM61.4315 31.113C62.4982 29.9955 62.9969 28.567 62.9969 26.9337H60.6915C60.6915 28.0704 60.3592 28.8974 59.7639 29.5211L61.4315 31.113ZM62.9969 26.9337C62.9969 25.3005 62.4982 23.872 61.4315 22.7545L59.7639 24.3464C60.3592 24.9701 60.6915 25.7971 60.6915 26.9337H62.9969ZM61.4315 22.7545C60.3633 21.6354 58.9836 21.0919 57.3925 21.0919V23.3973C58.4131 23.3973 59.1701 23.7244 59.7639 24.3464L61.4315 22.7545ZM114.514 48.658L115.321 49.4808L115.329 49.4731L114.514 48.658ZM83.5893 48.658L82.7742 49.4731L82.7781 49.477L83.5893 48.658ZM83.5893 17.8523L84.4006 18.6712L84.4044 18.6674L83.5893 17.8523ZM114.514 17.8523L113.699 18.6674L113.706 18.675L114.514 17.8523ZM91.0682 41.3572L90.2531 42.1723L90.2606 42.1799L90.2683 42.1873L91.0682 41.3572ZM107.094 41.3572L107.894 42.1873L107.902 42.1799L107.909 42.1723L107.094 41.3572ZM107.094 25.1531L106.279 25.9682L106.287 25.9759L106.295 25.9834L107.094 25.1531ZM91.0682 25.1531L91.8678 25.9834L91.8756 25.9759L91.8833 25.9682L91.0682 25.1531ZM113.706 47.8353C109.693 51.7739 104.841 53.7377 99.0812 53.7377V56.0431C105.431 56.0431 110.867 53.852 115.321 49.4808L113.706 47.8353ZM99.0812 53.7377C93.2385 53.7377 88.37 51.7711 84.4006 47.8391L82.7781 49.477C87.1976 53.8548 92.6571 56.0431 99.0812 56.0431V53.7377ZM84.4044 47.8429C80.4326 43.8711 78.4503 39.023 78.4503 33.2255H76.1449C76.1449 39.6157 78.3571 45.0559 82.7742 49.4731L84.4044 47.8429ZM78.4503 33.2255C78.4503 27.4281 80.4324 22.602 84.4006 18.6712L82.7781 17.0333C78.3573 21.4124 76.1449 26.8351 76.1449 33.2255H78.4503ZM84.4044 18.6674C88.3747 14.6971 93.2419 12.7133 99.0812 12.7133V10.4078C92.6537 10.4078 87.193 12.6185 82.7742 17.0372L84.4044 18.6674ZM99.0812 12.7133C104.879 12.7133 109.727 14.6956 113.699 18.6674L115.329 17.0372C110.912 12.62 105.471 10.4078 99.0812 10.4078V12.7133ZM113.706 18.675C117.713 22.6066 119.712 27.4316 119.712 33.2255H122.018C122.018 26.8316 119.783 21.4078 115.321 17.0295L113.706 18.675ZM119.712 33.2255C119.712 38.9779 117.714 43.8277 113.699 47.8429L115.329 49.4731C119.782 45.0202 122.018 39.5817 122.018 33.2255H119.712ZM90.2683 42.1873C92.6705 44.5022 95.6329 45.6558 99.0812 45.6558V43.3504C96.1983 43.3504 93.8186 42.4068 91.868 40.5272L90.2683 42.1873ZM99.0812 45.6558C102.53 45.6558 105.492 44.5022 107.894 42.1873L106.294 40.5272C104.344 42.4068 101.964 43.3504 99.0812 43.3504V45.6558ZM107.909 42.1723C110.282 39.7995 111.452 36.7863 111.452 33.2255H109.147C109.147 36.2334 108.18 38.6414 106.279 40.5421L107.909 42.1723ZM111.452 33.2255C111.452 29.6298 110.285 26.6249 107.894 24.3227L106.295 25.9834C108.178 27.7966 109.147 30.1733 109.147 33.2255H111.452ZM107.909 24.338C105.542 21.9708 102.572 20.7951 99.0812 20.7951V23.1006C102.001 23.1006 104.373 24.0617 106.279 25.9682L107.909 24.338ZM99.0812 20.7951C95.5909 20.7951 92.6202 21.9708 90.2531 24.338L91.8833 25.9682C93.7898 24.0617 96.1612 23.1006 99.0812 23.1006V20.7951ZM90.2686 24.3227C87.8779 26.6249 86.7102 29.6298 86.7102 33.2255H89.0157C89.0157 30.1733 89.9848 27.7966 91.8678 25.9834L90.2686 24.3227ZM86.7102 33.2255C86.7102 36.7863 87.8802 39.7995 90.2531 42.1723L91.8833 40.5421C89.9825 38.6414 89.0157 36.2334 89.0157 33.2255H86.7102ZM150.486 33.3442L149.542 34.0063L151.639 36.9938V33.3442H150.486ZM150.486 12.4509V11.2982H149.333V12.4509H150.486ZM161.051 12.4509H162.204V11.2982H161.051V12.4509ZM161.051 54.0001V55.1528H162.204V54.0001H161.051ZM152.86 54.0001L151.916 54.6622L152.261 55.1528H152.86V54.0001ZM138.199 33.1068L139.143 32.4446L137.046 29.4572V33.1068H138.199ZM138.199 54.0001V55.1528H139.352V54.0001H138.199ZM127.574 54.0001H126.422V55.1528H127.574V54.0001ZM127.574 12.4509V11.2982H126.422V12.4509H127.574ZM135.825 12.4509L136.768 11.7888L136.424 11.2982H135.825V12.4509ZM151.639 33.3442V12.4509H149.333V33.3442H151.639ZM150.486 13.6036H161.051V11.2982H150.486V13.6036ZM159.898 12.4509V54.0001H162.204V12.4509H159.898ZM161.051 52.8473H152.86V55.1528H161.051V52.8473ZM153.804 53.3379L139.143 32.4446L137.256 33.7689L151.916 54.6622L153.804 53.3379ZM137.046 33.1068V54.0001H139.352V33.1068H137.046ZM138.199 52.8473H127.574V55.1528H138.199V52.8473ZM128.727 54.0001V12.4509H126.422V54.0001H128.727ZM127.574 13.6036H135.825V11.2982H127.574V13.6036ZM134.881 13.113L149.542 34.0063L151.429 32.6821L136.768 11.7888L134.881 13.113ZM196.534 20.642L197.508 21.2599L197.687 20.9771V20.642H196.534ZM181.874 43.7315L180.9 43.1136L179.776 44.8842H181.874V43.7315ZM197.009 43.7315H198.162V42.5788H197.009V43.7315ZM197.009 54.0001V55.1528H198.162V54.0001H197.009ZM168.103 54.0001H166.95V55.1528H168.103V54.0001ZM168.103 45.8089L167.13 45.191L166.95 45.4739V45.8089H168.103ZM182.764 22.7195L183.737 23.3374L184.861 21.5668H182.764V22.7195ZM168.4 22.7195H167.247V23.8722H168.4V22.7195ZM168.4 12.4509V11.2982H167.247V12.4509H168.4ZM196.534 12.4509H197.687V11.2982H196.534V12.4509ZM195.561 20.0241L180.9 43.1136L182.847 44.3494L197.508 21.2599L195.561 20.0241ZM181.874 44.8842H197.009V42.5788H181.874V44.8842ZM195.857 43.7315V54.0001H198.162V43.7315H195.857ZM197.009 52.8473H168.103V55.1528H197.009V52.8473ZM169.256 54.0001V45.8089H166.95V54.0001H169.256ZM169.076 46.4268L183.737 23.3374L181.791 22.1016L167.13 45.191L169.076 46.4268ZM182.764 21.5668H168.4V23.8722H182.764V21.5668ZM169.552 22.7195V12.4509H167.247V22.7195H169.552ZM168.4 13.6036H196.534V11.2982H168.4V13.6036ZM195.382 12.4509V20.642H197.687V12.4509H195.382ZM213.985 37.9146V36.7619H212.832V37.9146H213.985ZM213.985 44.0283H212.832V45.181H213.985V44.0283ZM230.07 44.0283H231.223V42.8755H230.07V44.0283ZM230.07 54.0001V55.1528H231.223V54.0001H230.07ZM203.36 54.0001H202.207V55.1528H203.36V54.0001ZM203.36 12.4509V11.2982H202.207V12.4509H203.36ZM229.773 12.4509H230.926V11.2982H229.773V12.4509ZM229.773 22.3633V23.5161H230.926V22.3633H229.773ZM213.985 22.3633V21.2106H212.832V22.3633H213.985ZM213.985 28.1209H212.832V29.2736H213.985V28.1209ZM228.289 28.1209H229.442V26.9681H228.289V28.1209ZM228.289 37.9146V39.0673H229.442V37.9146H228.289ZM212.832 37.9146V44.0283H215.137V37.9146H212.832ZM213.985 45.181H230.07V42.8755H213.985V45.181ZM228.917 44.0283V54.0001H231.223V44.0283H228.917ZM230.07 52.8473H203.36V55.1528H230.07V52.8473ZM204.513 54.0001V12.4509H202.207V54.0001H204.513ZM203.36 13.6036H229.773V11.2982H203.36V13.6036ZM228.621 12.4509V22.3633H230.926V12.4509H228.621ZM229.773 21.2106H213.985V23.5161H229.773V21.2106ZM212.832 22.3633V28.1209H215.137V22.3633H212.832ZM213.985 29.2736H228.289V26.9681H213.985V29.2736ZM227.137 28.1209V37.9146H229.442V28.1209H227.137ZM228.289 36.7619H213.985V39.0673H228.289V36.7619Z" fill="url(#paint0_linear_106_2631)"/>
</g>
<path d="M29.6399 32.5132L29.4112 32.2217L28.9846 32.5564L29.4514 32.8322L29.6399 32.5132ZM31.0644 50.6761L30.8229 50.3951L30.8226 50.3954L31.0644 50.6761ZM3.40455 54.0001H3.03404V54.3706H3.40455V54.0001ZM3.40455 12.4509V12.0804H3.03404V12.4509H3.40455ZM29.7586 15.6561L29.5152 15.9355L29.5201 15.9396L29.7586 15.6561ZM14.0293 21.9478V21.5773H13.6588V21.9478H14.0293ZM14.0293 28.477H13.6588V28.8475H14.0293V28.477ZM21.9236 27.646L22.1677 27.925L22.177 27.9163L21.9236 27.646ZM14.0293 44.5031H13.6588V44.8736H14.0293V44.5031ZM23.2294 43.5534L23.4835 43.8233L23.4914 43.8154L23.2294 43.5534ZM23.2294 38.4488L23.4834 38.179L23.2294 38.4488ZM14.0293 37.4991V37.1286H13.6588V37.4991H14.0293ZM29.4514 32.8322C32.8171 34.821 34.4927 37.8038 34.4927 41.8321H35.2337C35.2337 37.5505 33.4271 34.3208 29.8284 32.1942L29.4514 32.8322ZM34.4927 41.8321C34.4927 45.4575 33.2636 48.2977 30.8229 50.3951L31.3059 50.9571C33.9303 48.7018 35.2337 45.6459 35.2337 41.8321H34.4927ZM30.8226 50.3954C28.3325 52.5407 25.042 53.6296 20.9146 53.6296V54.3706C25.1761 54.3706 28.6521 53.2435 31.3063 50.9568L30.8226 50.3954ZM20.9146 53.6296H3.40455V54.3706H20.9146V53.6296ZM3.77505 54.0001V12.4509H3.03404V54.0001H3.77505ZM3.40455 12.8214H19.7868V12.0804H3.40455V12.8214ZM19.7868 12.8214C23.9183 12.8214 27.1469 13.8728 29.5152 15.9355L30.0019 15.3767C27.4635 13.1658 24.0442 12.0804 19.7868 12.0804V12.8214ZM29.5201 15.9396C31.9189 17.9577 33.1275 20.7171 33.1275 24.2627H33.8685C33.8685 20.5273 32.5842 17.549 29.9971 15.3726L29.5201 15.9396ZM33.1275 24.2627C33.1275 27.6397 31.8872 30.279 29.4112 32.2217L29.8686 32.8047C32.5367 30.7112 33.8685 27.8502 33.8685 24.2627H33.1275ZM19.49 21.5773H14.0293V22.3184H19.49V21.5773ZM13.6588 21.9478V28.477H14.3998V21.9478H13.6588ZM14.0293 28.8475H19.49V28.1065H14.0293V28.8475ZM19.49 28.8475C20.5524 28.8475 21.4553 28.5481 22.1676 27.9249L21.6796 27.3672C21.1256 27.852 20.4062 28.1065 19.49 28.1065V28.8475ZM22.177 27.9163C22.8987 27.2398 23.2438 26.323 23.2438 25.2124H22.5028C22.5028 26.1595 22.2148 26.8652 21.6702 27.3757L22.177 27.9163ZM23.2438 25.2124C23.2438 24.1365 22.8956 23.2416 22.177 22.5679L21.6702 23.1085C22.2179 23.6219 22.5028 24.3098 22.5028 25.2124H23.2438ZM22.177 22.5679C21.4655 21.9009 20.5592 21.5773 19.49 21.5773V22.3184C20.3993 22.3184 21.1154 22.5884 21.6702 23.1085L22.177 22.5679ZM14.0293 44.8736H20.6178V44.1326H14.0293V44.8736ZM20.6178 44.8736C21.7647 44.8736 22.7312 44.5311 23.4834 43.8232L22.9755 43.2836C22.3823 43.842 21.6076 44.1326 20.6178 44.1326V44.8736ZM23.4914 43.8154C24.2396 43.0672 24.609 42.1194 24.609 41.0011H23.868C23.868 41.9405 23.5647 42.6942 22.9674 43.2914L23.4914 43.8154ZM24.609 41.0011C24.609 39.848 24.2423 38.8933 23.4834 38.179L22.9755 38.7186C23.562 39.2706 23.868 40.0174 23.868 41.0011H24.609ZM23.4834 38.179C22.7312 37.4711 21.7647 37.1286 20.6178 37.1286V37.8696C21.6076 37.8696 22.3823 38.1603 22.9755 38.7186L23.4834 38.179ZM20.6178 37.1286H14.0293V37.8696H20.6178V37.1286ZM13.6588 37.4991V44.5031H14.3998V37.4991H13.6588ZM73.9528 54.0001V54.3706H74.5827L74.2766 53.82L73.9528 54.0001ZM62.5565 54.0001L62.2304 54.1761L62.3354 54.3706H62.5565V54.0001ZM55.315 40.5856L55.6411 40.4096L55.5361 40.2151H55.315V40.5856ZM51.5163 40.5856V40.2151H51.1457V40.5856H51.5163ZM51.5163 54.0001V54.3706H51.8868V54.0001H51.5163ZM40.8915 54.0001H40.521V54.3706H40.8915V54.0001ZM40.8915 12.4509V12.0804H40.521V12.4509H40.8915ZM68.1359 16.5465L67.8795 16.814L67.8854 16.8194L68.1359 16.5465ZM65.4055 38.6269L65.2236 38.3041L64.9027 38.485L65.0817 38.8069L65.4055 38.6269ZM51.5163 22.2446V21.8741H51.1457V22.2446H51.5163ZM51.5163 31.5635H51.1457V31.934H51.5163V31.5635ZM57.3925 31.5635L57.4037 31.193H57.3925V31.5635ZM60.5977 23.5505L60.3297 23.8063L60.5977 23.5505ZM73.9528 53.6296H62.5565V54.3706H73.9528V53.6296ZM62.8825 53.8241L55.6411 40.4096L54.989 40.7616L62.2304 54.1761L62.8825 53.8241ZM55.315 40.2151H51.5163V40.9561H55.315V40.2151ZM51.1457 40.5856V54.0001H51.8868V40.5856H51.1457ZM51.5163 53.6296H40.8915V54.3706H51.5163V53.6296ZM41.262 54.0001V12.4509H40.521V54.0001H41.262ZM40.8915 12.8214H57.5112V12.0804H40.8915V12.8214ZM57.5112 12.8214C61.6574 12.8214 65.1048 14.1548 67.8796 16.814L68.3923 16.279C65.4689 13.4774 61.8331 12.0804 57.5112 12.0804V12.8214ZM67.8854 16.8194C70.6918 19.3952 72.0984 22.7162 72.0984 26.815H72.8394C72.8394 22.5249 71.3574 19.0002 68.3864 16.2735L67.8854 16.8194ZM72.0984 26.815C72.0984 29.201 71.4837 31.4101 70.2523 33.4495L70.8867 33.8325C72.1879 31.6774 72.8394 29.3358 72.8394 26.815H72.0984ZM70.2523 33.4495C69.0198 35.4909 67.3455 37.1081 65.2236 38.3041L65.5875 38.9496C67.8184 37.6922 69.5867 35.9855 70.8867 33.8325L70.2523 33.4495ZM65.0817 38.8069L73.629 54.1801L74.2766 53.82L65.7294 38.4468L65.0817 38.8069ZM57.3925 21.8741H51.5163V22.6151H57.3925V21.8741ZM51.1457 22.2446V31.5635H51.8868V22.2446H51.1457ZM51.5163 31.934H57.3925V31.193H51.5163V31.934ZM57.3813 31.9338C58.7821 31.9763 59.9554 31.5265 60.8657 30.5729L60.3297 30.0612C59.578 30.8487 58.6145 31.2299 57.4037 31.1932L57.3813 31.9338ZM60.8657 30.5729C61.7725 29.623 62.2147 28.3985 62.2147 26.9337H61.4737C61.4737 28.2389 61.0849 29.27 60.3297 30.0612L60.8657 30.5729ZM62.2147 26.9337C62.2147 25.469 61.7725 24.2445 60.8657 23.2946L60.3297 23.8063C61.0849 24.5975 61.4737 25.6286 61.4737 26.9337H62.2147ZM60.8657 23.2946C59.9585 22.3442 58.79 21.8741 57.3925 21.8741V22.6151C58.6066 22.6151 59.575 23.0156 60.3297 23.8063L60.8657 23.2946ZM114.514 48.658L114.773 48.9225L114.776 48.92L114.514 48.658ZM83.5893 48.658L83.3273 48.92L83.3286 48.9212L83.5893 48.658ZM83.5893 17.8523L83.8501 18.1155L83.8513 18.1143L83.5893 17.8523ZM114.514 17.8523L114.252 18.1143L114.254 18.1167L114.514 17.8523ZM91.0682 41.3572L90.8062 41.6193L90.8111 41.624L91.0682 41.3572ZM107.094 41.3572L107.351 41.6241L107.356 41.6192L107.094 41.3572ZM107.094 25.1531L106.832 25.4151L106.837 25.42L107.094 25.1531ZM91.0682 25.1531L91.3252 25.42L91.3302 25.4151L91.0682 25.1531ZM114.254 48.3936C110.091 52.479 105.041 54.5199 99.0812 54.5199V55.2609C105.23 55.2609 110.468 53.1469 114.773 48.9225L114.254 48.3936ZM99.0812 54.5199C93.0412 54.5199 87.9722 52.4781 83.8501 48.3948L83.3286 48.9212C87.5954 53.1478 92.8544 55.2609 99.0812 55.2609V54.5199ZM83.8513 48.396C79.7284 44.2731 77.6681 39.2241 77.6681 33.2255H76.9271C76.9271 39.4146 79.0613 44.6539 83.3273 48.92L83.8513 48.396ZM77.6681 33.2255C77.6681 27.2269 79.7283 22.1984 83.8501 18.1155L83.3286 17.5891C79.0614 21.816 76.9271 27.0363 76.9271 33.2255H77.6681ZM83.8513 18.1143C87.9737 13.9919 93.0423 11.9311 99.0812 11.9311V11.1901C92.8533 11.1901 87.5939 13.3237 83.3273 17.5903L83.8513 18.1143ZM99.0812 11.9311C105.08 11.9311 110.129 13.9914 114.252 18.1143L114.776 17.5903C110.51 13.3242 105.27 11.1901 99.0812 11.1901V11.9311ZM114.254 18.1167C118.415 22.1999 120.494 27.228 120.494 33.2255H121.235C121.235 27.0352 119.08 21.8145 114.773 17.5878L114.254 18.1167ZM120.494 33.2255C120.494 39.1827 118.416 44.2323 114.252 48.396L114.776 48.92C119.08 44.6156 121.235 39.3768 121.235 33.2255H120.494ZM90.8111 41.624C93.0601 43.7912 95.8247 44.8736 99.0812 44.8736V44.1326C96.0064 44.1326 93.4291 43.1177 91.3253 41.0905L90.8111 41.624ZM99.0812 44.8736C102.338 44.8736 105.102 43.7912 107.351 41.624L106.837 41.0905C104.733 43.1177 102.156 44.1326 99.0812 44.1326V44.8736ZM107.356 41.6192C109.569 39.4066 110.67 36.5987 110.67 33.2255H109.929C109.929 36.421 108.893 39.0343 106.832 41.0953L107.356 41.6192ZM110.67 33.2255C110.67 29.8142 109.57 27.0224 107.351 24.8862L106.837 25.42C108.893 27.399 109.929 29.9889 109.929 33.2255H110.67ZM107.356 24.8911C105.145 22.6802 102.378 21.5773 99.0812 21.5773V22.3184C102.195 22.3184 104.77 23.3523 106.832 25.4151L107.356 24.8911ZM99.0812 21.5773C95.7844 21.5773 93.017 22.6802 90.8062 24.8911L91.3302 25.4151C93.393 23.3523 95.9677 22.3184 99.0812 22.3184V21.5773ZM90.8112 24.8862C88.5928 27.0224 87.4925 29.8142 87.4925 33.2255H88.2335C88.2335 29.9889 89.27 27.399 91.3252 25.42L90.8112 24.8862ZM87.4925 33.2255C87.4925 36.5987 88.5935 39.4066 90.8062 41.6192L91.3302 41.0953C89.2692 39.0343 88.2335 36.421 88.2335 33.2255H87.4925ZM150.486 33.3442L150.183 33.557L150.856 34.5172V33.3442H150.486ZM150.486 12.4509V12.0804H150.115V12.4509H150.486ZM161.051 12.4509H161.422V12.0804H161.051V12.4509ZM161.051 54.0001V54.3706H161.422V54.0001H161.051ZM152.86 54.0001L152.557 54.2129L152.667 54.3706H152.86V54.0001ZM138.199 33.1068L138.502 32.8939L137.829 31.9337V33.1068H138.199ZM138.199 54.0001V54.3706H138.57V54.0001H138.199ZM127.574 54.0001H127.204V54.3706H127.574V54.0001ZM127.574 12.4509V12.0804H127.204V12.4509H127.574ZM135.825 12.4509L136.128 12.2381L136.018 12.0804H135.825V12.4509ZM150.856 33.3442V12.4509H150.115V33.3442H150.856ZM150.486 12.8214H161.051V12.0804H150.486V12.8214ZM160.681 12.4509V54.0001H161.422V12.4509H160.681ZM161.051 53.6296H152.86V54.3706H161.051V53.6296ZM153.163 53.7872L138.502 32.8939L137.896 33.3196L152.557 54.2129L153.163 53.7872ZM137.829 33.1068V54.0001H138.57V33.1068H137.829ZM138.199 53.6296H127.574V54.3706H138.199V53.6296ZM127.945 54.0001V12.4509H127.204V54.0001H127.945ZM127.574 12.8214H135.825V12.0804H127.574V12.8214ZM135.522 12.6637L150.183 33.557L150.789 33.1314L136.128 12.2381L135.522 12.6637ZM196.534 20.642L196.847 20.8406L196.905 20.7497V20.642H196.534ZM181.874 43.7315L181.561 43.5329L181.199 44.102H181.874V43.7315ZM197.009 43.7315H197.38V43.361H197.009V43.7315ZM197.009 54.0001V54.3706H197.38V54.0001H197.009ZM168.103 54.0001H167.732V54.3706H168.103V54.0001ZM168.103 45.8089L167.79 45.6103L167.732 45.7012V45.8089H168.103ZM182.764 22.7195L183.077 22.9181L183.438 22.349H182.764V22.7195ZM168.4 22.7195H168.029V23.09H168.4V22.7195ZM168.4 12.4509V12.0804H168.029V12.4509H168.4ZM196.534 12.4509H196.905V12.0804H196.534V12.4509ZM196.222 20.4434L181.561 43.5329L182.186 43.9301L196.847 20.8406L196.222 20.4434ZM181.874 44.102H197.009V43.361H181.874V44.102ZM196.639 43.7315V54.0001H197.38V43.7315H196.639ZM197.009 53.6296H168.103V54.3706H197.009V53.6296ZM168.473 54.0001V45.8089H167.732V54.0001H168.473ZM168.416 46.0075L183.077 22.9181L182.451 22.5209L167.79 45.6103L168.416 46.0075ZM182.764 22.349H168.4V23.09H182.764V22.349ZM168.77 22.7195V12.4509H168.029V22.7195H168.77ZM168.4 12.8214H196.534V12.0804H168.4V12.8214ZM196.164 12.4509V20.642H196.905V12.4509H196.164ZM213.985 37.9146V37.5441H213.614V37.9146H213.985ZM213.985 44.0283H213.614V44.3988H213.985V44.0283ZM230.07 44.0283H230.441V43.6578H230.07V44.0283ZM230.07 54.0001V54.3706H230.441V54.0001H230.07ZM203.36 54.0001H202.989V54.3706H203.36V54.0001ZM203.36 12.4509V12.0804H202.989V12.4509H203.36ZM229.773 12.4509H230.144V12.0804H229.773V12.4509ZM229.773 22.3633V22.7338H230.144V22.3633H229.773ZM213.985 22.3633V21.9928H213.614V22.3633H213.985ZM213.985 28.1209H213.614V28.4914H213.985V28.1209ZM228.289 28.1209H228.66V27.7504H228.289V28.1209ZM228.289 37.9146V38.2851H228.66V37.9146H228.289ZM213.614 37.9146V44.0283H214.355V37.9146H213.614ZM213.985 44.3988H230.07V43.6578H213.985V44.3988ZM229.7 44.0283V54.0001H230.441V44.0283H229.7ZM230.07 53.6296H203.36V54.3706H230.07V53.6296ZM203.73 54.0001V12.4509H202.989V54.0001H203.73ZM203.36 12.8214H229.773V12.0804H203.36V12.8214ZM229.403 12.4509V22.3633H230.144V12.4509H229.403ZM229.773 21.9928H213.985V22.7338H229.773V21.9928ZM213.614 22.3633V28.1209H214.355V22.3633H213.614ZM213.985 28.4914H228.289V27.7504H213.985V28.4914ZM227.919 28.1209V37.9146H228.66V28.1209H227.919ZM228.289 37.5441H213.985V38.2851H228.289V37.5441Z" fill="white"/>
<defs>
<filter id="filter0_f_106_2631" x="1.16802" y="9.32427" width="231.139" height="47.8024" filterUnits="userSpaceOnUse" color-interpolation-filters="sRGB">
<feFlood flood-opacity="0" result="BackgroundImageFix"/>
<feBlend mode="normal" in="SourceGraphic" in2="BackgroundImageFix" result="shape"/>
<feGaussianBlur stdDeviation="1.11814" result="effect1_foregroundBlur_106_2631"/>
</filter>
<linearGradient id="paint0_linear_106_2631" x1="14.7491" y1="6.90307e-05" x2="236.88" y2="37.6067" gradientUnits="userSpaceOnUse">
<stop stop-color="#E43D08"/>
<stop offset="1" stop-color="#D43FEC"/>
</linearGradient>
</defs>
</svg>
