<svg width="822" height="274" viewBox="0 0 822 274" fill="none" xmlns="http://www.w3.org/2000/svg">
<g filter="url(#filter0_b_223_239)">
<rect x="56" y="66" width="149" height="207.511" rx="14.7354" fill="#CC66FC" fill-opacity="0.17"/>
</g>
<g filter="url(#filter1_f_223_239)">
<rect x="67.5" y="179" width="126" height="36" rx="18" stroke="url(#paint0_linear_223_239)" stroke-width="1.05882"/>
</g>
<rect opacity="0.81" x="67.5" y="179" width="126" height="36" rx="18" stroke="white" stroke-width="0.645389"/>
<rect x="86" y="231" width="89" height="25.4286" rx="12.7143" fill="url(#paint1_linear_223_239)"/>
<path d="M107.377 248L106.63 245.943H102.503L101.756 248H100.459L103.879 238.828H105.255L108.675 248H107.377ZM102.922 244.803H106.211L104.56 240.282L102.922 244.803ZM113.478 238.828C114.325 238.828 115.028 239.112 115.588 239.679C116.155 240.239 116.439 240.937 116.439 241.776C116.439 242.606 116.155 243.305 115.588 243.872C115.028 244.44 114.325 244.724 113.478 244.724H111.368V248H110.15V238.828H113.478ZM113.478 243.584C113.985 243.584 114.404 243.414 114.736 243.073C115.068 242.724 115.234 242.291 115.234 241.776C115.234 241.252 115.068 240.819 114.736 240.479C114.404 240.138 113.985 239.968 113.478 239.968H111.368V243.584H113.478ZM124.843 238.828L121.593 244.292V248H120.374V244.279L117.138 238.828H118.501L120.99 243.126L123.48 238.828H124.843ZM135.686 242.497V244.331H133.589V246.428H131.755V244.331H129.658V242.497H131.755V240.4H133.589V242.497H135.686ZM137.016 248V246.48L140.096 243.283C140.716 242.645 141.026 242.104 141.026 241.658C141.026 241.37 140.939 241.138 140.764 240.964C140.589 240.78 140.349 240.688 140.043 240.688C139.432 240.688 138.982 241.02 138.694 241.684L136.925 240.649C137.204 239.994 137.624 239.496 138.183 239.155C138.742 238.815 139.353 238.644 140.017 238.644C140.873 238.644 141.603 238.911 142.205 239.444C142.817 239.968 143.123 240.675 143.123 241.566C143.123 242.536 142.647 243.497 141.694 244.449L140.174 245.982H143.254V248H137.016ZM150.846 246.886C150.191 247.751 149.278 248.183 148.108 248.183C146.937 248.183 146.02 247.751 145.356 246.886C144.701 246.013 144.373 244.855 144.373 243.414C144.373 241.973 144.701 240.819 145.356 239.955C146.02 239.081 146.937 238.644 148.108 238.644C149.278 238.644 150.191 239.081 150.846 239.955C151.51 240.819 151.842 241.973 151.842 243.414C151.842 244.855 151.51 246.013 150.846 246.886ZM146.47 243.414C146.47 245.231 147.016 246.139 148.108 246.139C149.199 246.139 149.745 245.231 149.745 243.414C149.745 241.597 149.199 240.688 148.108 240.688C147.016 240.688 146.47 241.597 146.47 243.414ZM156.786 242.457C156.358 242.885 155.821 243.099 155.175 243.099C154.528 243.099 153.987 242.885 153.55 242.457C153.113 242.021 152.895 241.492 152.895 240.872C152.895 240.252 153.113 239.728 153.55 239.299C153.987 238.863 154.528 238.644 155.175 238.644C155.821 238.644 156.358 238.858 156.786 239.286C157.223 239.706 157.442 240.234 157.442 240.872C157.442 241.492 157.223 242.021 156.786 242.457ZM153.982 246.559L159.905 240.007L160.77 240.505L154.847 247.07L153.982 246.559ZM154.664 241.383C154.795 241.523 154.961 241.593 155.162 241.593C155.363 241.593 155.529 241.523 155.66 241.383C155.799 241.234 155.869 241.064 155.869 240.872C155.869 240.662 155.804 240.492 155.673 240.361C155.542 240.221 155.371 240.151 155.162 240.151C154.961 240.151 154.795 240.221 154.664 240.361C154.533 240.501 154.467 240.671 154.467 240.872C154.467 241.073 154.533 241.243 154.664 241.383ZM161.464 247.515C161.036 247.943 160.499 248.157 159.853 248.157C159.206 248.157 158.665 247.943 158.228 247.515C157.791 247.078 157.573 246.55 157.573 245.93C157.573 245.309 157.791 244.785 158.228 244.357C158.665 243.921 159.206 243.702 159.853 243.702C160.499 243.702 161.036 243.921 161.464 244.357C161.901 244.785 162.119 245.309 162.119 245.93C162.119 246.55 161.901 247.078 161.464 247.515ZM159.342 246.441C159.473 246.58 159.639 246.65 159.84 246.65C160.04 246.65 160.206 246.58 160.337 246.441C160.477 246.292 160.547 246.122 160.547 245.93C160.547 245.72 160.482 245.55 160.351 245.419C160.22 245.279 160.049 245.209 159.84 245.209C159.639 245.209 159.473 245.279 159.342 245.419C159.211 245.558 159.145 245.729 159.145 245.93C159.145 246.131 159.211 246.301 159.342 246.441Z" fill="white"/>
<path d="M116.382 191.948C116.382 192.562 116.187 193.061 115.796 193.445C115.405 193.822 114.896 194.049 114.268 194.126V195.047H113.566V194.136C112.98 194.094 112.478 193.93 112.059 193.644C111.64 193.358 111.34 192.971 111.159 192.482L112.404 191.76C112.628 192.318 113.015 192.636 113.566 192.712V190.901C113.559 190.901 113.556 190.901 113.556 190.901L113.535 190.891C113.291 190.8 113.092 190.72 112.938 190.65C112.785 190.58 112.603 190.479 112.394 190.346C112.192 190.214 112.031 190.078 111.912 189.938C111.801 189.792 111.7 189.607 111.609 189.383C111.525 189.16 111.483 188.916 111.483 188.651C111.483 188.036 111.682 187.544 112.08 187.175C112.485 186.805 112.98 186.592 113.566 186.536V185.625H114.268V186.557C115.217 186.669 115.887 187.161 116.278 188.033L115.063 188.745C114.896 188.326 114.631 188.071 114.268 187.981V189.729C114.917 189.987 115.353 190.193 115.576 190.346C116.114 190.73 116.382 191.264 116.382 191.948ZM112.917 188.661C112.917 188.815 112.966 188.951 113.064 189.069C113.162 189.181 113.329 189.296 113.566 189.415V187.949C113.357 187.991 113.197 188.075 113.085 188.2C112.973 188.326 112.917 188.48 112.917 188.661ZM114.268 192.691C114.715 192.594 114.938 192.349 114.938 191.959C114.938 191.784 114.882 191.638 114.77 191.519C114.666 191.4 114.498 191.289 114.268 191.184V192.691ZM122.382 186.672V188.054H120.403V194H118.958V188.054H116.99V186.672H122.382ZM129.249 193.047C128.509 193.78 127.609 194.147 126.548 194.147C125.487 194.147 124.587 193.78 123.847 193.047C123.114 192.308 122.748 191.404 122.748 190.336C122.748 189.268 123.114 188.368 123.847 187.635C124.587 186.895 125.487 186.525 126.548 186.525C127.609 186.525 128.509 186.895 129.249 187.635C129.989 188.368 130.359 189.268 130.359 190.336C130.359 191.404 129.989 192.308 129.249 193.047ZM124.863 192.063C125.316 192.51 125.878 192.733 126.548 192.733C127.218 192.733 127.78 192.51 128.234 192.063C128.687 191.61 128.914 191.034 128.914 190.336C128.914 189.638 128.687 189.062 128.234 188.609C127.78 188.155 127.218 187.928 126.548 187.928C125.878 187.928 125.316 188.155 124.863 188.609C124.409 189.062 124.182 189.638 124.182 190.336C124.182 191.034 124.409 191.61 124.863 192.063ZM137.414 194H135.75L133.133 190.566V194H131.688V186.672H133.133V189.907L135.645 186.672H137.31L134.598 190.231L137.414 194ZM139.887 192.618H142.976V194H138.443V186.672H142.923V188.054H139.887V189.614H142.662V190.975H139.887V192.618ZM148.548 186.672H149.992V194H148.893L145.753 189.519V194H144.308V186.672H145.407L148.548 191.142V186.672ZM94.3505 207L92.8744 204.456H91.7752V207H90.3306V199.672H93.2618C93.9387 199.672 94.5145 199.909 94.9891 200.384C95.4637 200.858 95.7009 201.431 95.7009 202.101C95.7009 202.554 95.5718 202.977 95.3136 203.367C95.0554 203.751 94.7134 204.041 94.2877 204.236L95.9103 207H94.3505ZM91.7752 201.022V203.189H93.2618C93.534 203.189 93.7678 203.085 93.9632 202.875C94.1586 202.659 94.2563 202.401 94.2563 202.101C94.2563 201.801 94.1586 201.546 93.9632 201.337C93.7678 201.127 93.534 201.022 93.2618 201.022H91.7752ZM98.5197 205.618H101.608V207H97.075V199.672H101.556V201.054H98.5197V202.614H101.294V203.975H98.5197V205.618ZM104.469 207L102.417 199.672H103.935L105.338 205.105L106.866 199.672H108.101L109.64 205.105L111.043 199.672H112.561L110.509 207H108.865L107.484 202.164L106.112 207H104.469ZM118.004 207L117.565 205.681H114.644L114.204 207H112.644L115.209 199.672H116.999L119.575 207H118.004ZM115.105 204.331H117.115L116.11 201.337L115.105 204.331ZM124.62 207L123.144 204.456H122.045V207H120.6V199.672H123.531C124.208 199.672 124.784 199.909 125.259 200.384C125.733 200.858 125.971 201.431 125.971 202.101C125.971 202.554 125.841 202.977 125.583 203.367C125.325 203.751 124.983 204.041 124.557 204.236L126.18 207H124.62ZM122.045 201.022V203.189H123.531C123.804 203.189 124.037 203.085 124.233 202.875C124.428 202.659 124.526 202.401 124.526 202.101C124.526 201.801 124.428 201.546 124.233 201.337C124.037 201.127 123.804 201.022 123.531 201.022H122.045ZM130.255 199.672C131.26 199.672 132.097 200.024 132.767 200.729C133.444 201.434 133.783 202.303 133.783 203.336C133.783 204.369 133.444 205.238 132.767 205.943C132.097 206.648 131.26 207 130.255 207H127.345V199.672H130.255ZM130.255 205.618C130.89 205.618 131.406 205.409 131.804 204.99C132.202 204.564 132.401 204.013 132.401 203.336C132.401 202.659 132.202 202.111 131.804 201.692C131.406 201.267 130.89 201.054 130.255 201.054H128.789V205.618H130.255ZM137.358 207.147C136.632 207.147 136.021 206.986 135.526 206.665C135.03 206.337 134.681 205.894 134.479 205.336L135.714 204.613C136 205.36 136.562 205.733 137.4 205.733C137.804 205.733 138.101 205.66 138.29 205.513C138.478 205.367 138.572 205.182 138.572 204.959C138.572 204.7 138.457 204.502 138.227 204.362C137.996 204.215 137.585 204.058 136.991 203.891C136.663 203.793 136.384 203.695 136.154 203.598C135.931 203.5 135.704 203.371 135.473 203.21C135.25 203.043 135.079 202.834 134.961 202.582C134.842 202.331 134.783 202.038 134.783 201.703C134.783 201.04 135.016 200.513 135.484 200.122C135.959 199.724 136.527 199.525 137.19 199.525C137.784 199.525 138.303 199.672 138.75 199.965C139.204 200.251 139.556 200.653 139.807 201.169L138.593 201.87C138.3 201.242 137.832 200.928 137.19 200.928C136.89 200.928 136.653 200.998 136.478 201.138C136.311 201.27 136.227 201.445 136.227 201.661C136.227 201.891 136.321 202.08 136.51 202.226C136.705 202.366 137.075 202.519 137.62 202.687C137.843 202.757 138.01 202.813 138.122 202.854C138.241 202.889 138.398 202.949 138.593 203.032C138.796 203.109 138.949 203.182 139.054 203.252C139.165 203.322 139.291 203.416 139.431 203.535C139.57 203.654 139.675 203.776 139.745 203.901C139.821 204.027 139.884 204.18 139.933 204.362C139.989 204.536 140.017 204.728 140.017 204.938C140.017 205.615 139.769 206.152 139.274 206.55C138.785 206.948 138.146 207.147 137.358 207.147ZM146.937 199.672C147.642 199.672 148.235 199.909 148.716 200.384C149.198 200.858 149.439 201.441 149.439 202.132C149.439 202.823 149.198 203.406 148.716 203.88C148.235 204.355 147.642 204.592 146.937 204.592H145.649V207H144.204V199.672H146.937ZM146.937 203.242C147.244 203.242 147.498 203.137 147.701 202.928C147.903 202.711 148.004 202.446 148.004 202.132C148.004 201.811 147.903 201.546 147.701 201.337C147.498 201.127 147.244 201.022 146.937 201.022H145.649V203.242H146.937ZM156.808 206.047C156.068 206.78 155.168 207.147 154.107 207.147C153.046 207.147 152.146 206.78 151.406 206.047C150.673 205.308 150.307 204.404 150.307 203.336C150.307 202.268 150.673 201.368 151.406 200.635C152.146 199.895 153.046 199.525 154.107 199.525C155.168 199.525 156.068 199.895 156.808 200.635C157.548 201.368 157.918 202.268 157.918 203.336C157.918 204.404 157.548 205.308 156.808 206.047ZM152.422 205.063C152.875 205.51 153.437 205.733 154.107 205.733C154.777 205.733 155.339 205.51 155.793 205.063C156.246 204.61 156.473 204.034 156.473 203.336C156.473 202.638 156.246 202.062 155.793 201.609C155.339 201.155 154.777 200.928 154.107 200.928C153.437 200.928 152.875 201.155 152.422 201.609C151.968 202.062 151.741 202.638 151.741 203.336C151.741 204.034 151.968 204.61 152.422 205.063ZM165.413 206.047C164.673 206.78 163.773 207.147 162.712 207.147C161.651 207.147 160.751 206.78 160.011 206.047C159.279 205.308 158.912 204.404 158.912 203.336C158.912 202.268 159.279 201.368 160.011 200.635C160.751 199.895 161.651 199.525 162.712 199.525C163.773 199.525 164.673 199.895 165.413 200.635C166.153 201.368 166.523 202.268 166.523 203.336C166.523 204.404 166.153 205.308 165.413 206.047ZM161.027 205.063C161.48 205.51 162.042 205.733 162.712 205.733C163.382 205.733 163.944 205.51 164.398 205.063C164.851 204.61 165.078 204.034 165.078 203.336C165.078 202.638 164.851 202.062 164.398 201.609C163.944 201.155 163.382 200.928 162.712 200.928C162.042 200.928 161.48 201.155 161.027 201.609C160.573 202.062 160.346 202.638 160.346 203.336C160.346 204.034 160.573 204.61 161.027 205.063ZM169.297 205.618H172.092V207H167.852V199.672H169.297V205.618Z" fill="white"/>
<path d="M108.608 58.0737H111.748V74H109.359L102.533 64.2622V74H99.3933V58.0737H101.782L108.608 67.7887V58.0737ZM125.623 74L124.667 71.1333H118.319L117.364 74H113.974L119.548 58.0737H123.439L129.036 74H125.623ZM119.321 68.1983H123.689L121.505 61.6912L119.321 68.1983ZM146.85 58.0737V74H143.733V63.6706L139.251 71.065H138.886L134.404 63.6934V74H131.265V58.0737H134.495L139.069 65.6045L143.619 58.0737H146.85ZM153.64 70.9967H160.351V74H150.5V58.0737H160.238V61.0769H153.64V64.4669H159.669V67.4247H153.64V70.9967Z" fill="white"/>
<g filter="url(#filter2_f_223_239)">
<ellipse cx="129" cy="130.5" rx="29" ry="30.5" fill="#26054F"/>
</g>
<circle cx="130" cy="129" r="37" fill="#C4C4C4"/>
<g filter="url(#filter3_b_223_239)">
<rect x="244" y="66" width="149" height="207.511" rx="14.7354" fill="#CC66FC" fill-opacity="0.17"/>
</g>
<g filter="url(#filter4_f_223_239)">
<rect x="255.5" y="179" width="126" height="36" rx="18" stroke="url(#paint2_linear_223_239)" stroke-width="1.05882"/>
</g>
<rect opacity="0.81" x="255.5" y="179" width="126" height="36" rx="18" stroke="white" stroke-width="0.645389"/>
<rect x="274" y="231" width="89" height="25.4286" rx="12.7143" fill="url(#paint3_linear_223_239)"/>
<path d="M295.377 248L294.63 245.943H290.503L289.756 248H288.459L291.879 238.828H293.255L296.675 248H295.377ZM290.922 244.803H294.211L292.56 240.282L290.922 244.803ZM301.478 238.828C302.325 238.828 303.028 239.112 303.588 239.679C304.155 240.239 304.439 240.937 304.439 241.776C304.439 242.606 304.155 243.305 303.588 243.872C303.028 244.44 302.325 244.724 301.478 244.724H299.368V248H298.15V238.828H301.478ZM301.478 243.584C301.985 243.584 302.404 243.414 302.736 243.073C303.068 242.724 303.234 242.291 303.234 241.776C303.234 241.252 303.068 240.819 302.736 240.479C302.404 240.138 301.985 239.968 301.478 239.968H299.368V243.584H301.478ZM312.843 238.828L309.593 244.292V248H308.374V244.279L305.138 238.828H306.501L308.99 243.126L311.48 238.828H312.843ZM323.686 242.497V244.331H321.589V246.428H319.755V244.331H317.658V242.497H319.755V240.4H321.589V242.497H323.686ZM325.016 248V246.48L328.096 243.283C328.716 242.645 329.026 242.104 329.026 241.658C329.026 241.37 328.939 241.138 328.764 240.964C328.589 240.78 328.349 240.688 328.043 240.688C327.432 240.688 326.982 241.02 326.694 241.684L324.925 240.649C325.204 239.994 325.624 239.496 326.183 239.155C326.742 238.815 327.353 238.644 328.017 238.644C328.873 238.644 329.603 238.911 330.205 239.444C330.817 239.968 331.123 240.675 331.123 241.566C331.123 242.536 330.647 243.497 329.694 244.449L328.174 245.982H331.254V248H325.016ZM338.846 246.886C338.191 247.751 337.278 248.183 336.108 248.183C334.937 248.183 334.02 247.751 333.356 246.886C332.701 246.013 332.373 244.855 332.373 243.414C332.373 241.973 332.701 240.819 333.356 239.955C334.02 239.081 334.937 238.644 336.108 238.644C337.278 238.644 338.191 239.081 338.846 239.955C339.51 240.819 339.842 241.973 339.842 243.414C339.842 244.855 339.51 246.013 338.846 246.886ZM334.47 243.414C334.47 245.231 335.016 246.139 336.108 246.139C337.199 246.139 337.745 245.231 337.745 243.414C337.745 241.597 337.199 240.688 336.108 240.688C335.016 240.688 334.47 241.597 334.47 243.414ZM344.786 242.457C344.358 242.885 343.821 243.099 343.175 243.099C342.528 243.099 341.987 242.885 341.55 242.457C341.113 242.021 340.895 241.492 340.895 240.872C340.895 240.252 341.113 239.728 341.55 239.299C341.987 238.863 342.528 238.644 343.175 238.644C343.821 238.644 344.358 238.858 344.786 239.286C345.223 239.706 345.442 240.234 345.442 240.872C345.442 241.492 345.223 242.021 344.786 242.457ZM341.982 246.559L347.905 240.007L348.77 240.505L342.847 247.07L341.982 246.559ZM342.664 241.383C342.795 241.523 342.961 241.593 343.162 241.593C343.363 241.593 343.529 241.523 343.66 241.383C343.799 241.234 343.869 241.064 343.869 240.872C343.869 240.662 343.804 240.492 343.673 240.361C343.542 240.221 343.371 240.151 343.162 240.151C342.961 240.151 342.795 240.221 342.664 240.361C342.533 240.501 342.467 240.671 342.467 240.872C342.467 241.073 342.533 241.243 342.664 241.383ZM349.464 247.515C349.036 247.943 348.499 248.157 347.853 248.157C347.206 248.157 346.665 247.943 346.228 247.515C345.791 247.078 345.573 246.55 345.573 245.93C345.573 245.309 345.791 244.785 346.228 244.357C346.665 243.921 347.206 243.702 347.853 243.702C348.499 243.702 349.036 243.921 349.464 244.357C349.901 244.785 350.119 245.309 350.119 245.93C350.119 246.55 349.901 247.078 349.464 247.515ZM347.342 246.441C347.473 246.58 347.639 246.65 347.84 246.65C348.04 246.65 348.206 246.58 348.337 246.441C348.477 246.292 348.547 246.122 348.547 245.93C348.547 245.72 348.482 245.55 348.351 245.419C348.22 245.279 348.049 245.209 347.84 245.209C347.639 245.209 347.473 245.279 347.342 245.419C347.211 245.558 347.145 245.729 347.145 245.93C347.145 246.131 347.211 246.301 347.342 246.441Z" fill="white"/>
<path d="M304.382 191.948C304.382 192.562 304.187 193.061 303.796 193.445C303.405 193.822 302.896 194.049 302.268 194.126V195.047H301.566V194.136C300.98 194.094 300.478 193.93 300.059 193.644C299.64 193.358 299.34 192.971 299.159 192.482L300.404 191.76C300.628 192.318 301.015 192.636 301.566 192.712V190.901C301.559 190.901 301.556 190.901 301.556 190.901L301.535 190.891C301.291 190.8 301.092 190.72 300.938 190.65C300.785 190.58 300.603 190.479 300.394 190.346C300.192 190.214 300.031 190.078 299.912 189.938C299.801 189.792 299.7 189.607 299.609 189.383C299.525 189.16 299.483 188.916 299.483 188.651C299.483 188.036 299.682 187.544 300.08 187.175C300.485 186.805 300.98 186.592 301.566 186.536V185.625H302.268V186.557C303.217 186.669 303.887 187.161 304.278 188.033L303.063 188.745C302.896 188.326 302.631 188.071 302.268 187.981V189.729C302.917 189.987 303.353 190.193 303.576 190.346C304.114 190.73 304.382 191.264 304.382 191.948ZM300.917 188.661C300.917 188.815 300.966 188.951 301.064 189.069C301.162 189.181 301.329 189.296 301.566 189.415V187.949C301.357 187.991 301.197 188.075 301.085 188.2C300.973 188.326 300.917 188.48 300.917 188.661ZM302.268 192.691C302.715 192.594 302.938 192.349 302.938 191.959C302.938 191.784 302.882 191.638 302.77 191.519C302.666 191.4 302.498 191.289 302.268 191.184V192.691ZM310.382 186.672V188.054H308.403V194H306.958V188.054H304.99V186.672H310.382ZM317.249 193.047C316.509 193.78 315.609 194.147 314.548 194.147C313.487 194.147 312.587 193.78 311.847 193.047C311.114 192.308 310.748 191.404 310.748 190.336C310.748 189.268 311.114 188.368 311.847 187.635C312.587 186.895 313.487 186.525 314.548 186.525C315.609 186.525 316.509 186.895 317.249 187.635C317.989 188.368 318.359 189.268 318.359 190.336C318.359 191.404 317.989 192.308 317.249 193.047ZM312.863 192.063C313.316 192.51 313.878 192.733 314.548 192.733C315.218 192.733 315.78 192.51 316.234 192.063C316.687 191.61 316.914 191.034 316.914 190.336C316.914 189.638 316.687 189.062 316.234 188.609C315.78 188.155 315.218 187.928 314.548 187.928C313.878 187.928 313.316 188.155 312.863 188.609C312.409 189.062 312.182 189.638 312.182 190.336C312.182 191.034 312.409 191.61 312.863 192.063ZM325.414 194H323.75L321.133 190.566V194H319.688V186.672H321.133V189.907L323.645 186.672H325.31L322.598 190.231L325.414 194ZM327.887 192.618H330.976V194H326.443V186.672H330.923V188.054H327.887V189.614H330.662V190.975H327.887V192.618ZM336.548 186.672H337.992V194H336.893L333.753 189.519V194H332.308V186.672H333.407L336.548 191.142V186.672ZM282.351 207L280.874 204.456H279.775V207H278.331V199.672H281.262C281.939 199.672 282.515 199.909 282.989 200.384C283.464 200.858 283.701 201.431 283.701 202.101C283.701 202.554 283.572 202.977 283.314 203.367C283.055 203.751 282.713 204.041 282.288 204.236L283.91 207H282.351ZM279.775 201.022V203.189H281.262C281.534 203.189 281.768 203.085 281.963 202.875C282.159 202.659 282.256 202.401 282.256 202.101C282.256 201.801 282.159 201.546 281.963 201.337C281.768 201.127 281.534 201.022 281.262 201.022H279.775ZM286.52 205.618H289.608V207H285.075V199.672H289.556V201.054H286.52V202.614H289.294V203.975H286.52V205.618ZM292.469 207L290.417 199.672H291.935L293.338 205.105L294.866 199.672H296.101L297.64 205.105L299.043 199.672H300.561L298.509 207H296.865L295.484 202.164L294.112 207H292.469ZM306.004 207L305.565 205.681H302.644L302.204 207H300.644L303.209 199.672H304.999L307.575 207H306.004ZM303.105 204.331H305.115L304.11 201.337L303.105 204.331ZM312.62 207L311.144 204.456H310.045V207H308.6V199.672H311.531C312.208 199.672 312.784 199.909 313.259 200.384C313.733 200.858 313.971 201.431 313.971 202.101C313.971 202.554 313.841 202.977 313.583 203.367C313.325 203.751 312.983 204.041 312.557 204.236L314.18 207H312.62ZM310.045 201.022V203.189H311.531C311.804 203.189 312.037 203.085 312.233 202.875C312.428 202.659 312.526 202.401 312.526 202.101C312.526 201.801 312.428 201.546 312.233 201.337C312.037 201.127 311.804 201.022 311.531 201.022H310.045ZM318.255 199.672C319.26 199.672 320.097 200.024 320.767 200.729C321.444 201.434 321.783 202.303 321.783 203.336C321.783 204.369 321.444 205.238 320.767 205.943C320.097 206.648 319.26 207 318.255 207H315.345V199.672H318.255ZM318.255 205.618C318.89 205.618 319.406 205.409 319.804 204.99C320.202 204.564 320.401 204.013 320.401 203.336C320.401 202.659 320.202 202.111 319.804 201.692C319.406 201.267 318.89 201.054 318.255 201.054H316.789V205.618H318.255ZM325.358 207.147C324.632 207.147 324.021 206.986 323.526 206.665C323.03 206.337 322.681 205.894 322.479 205.336L323.714 204.613C324 205.36 324.562 205.733 325.4 205.733C325.804 205.733 326.101 205.66 326.29 205.513C326.478 205.367 326.572 205.182 326.572 204.959C326.572 204.7 326.457 204.502 326.227 204.362C325.996 204.215 325.585 204.058 324.991 203.891C324.663 203.793 324.384 203.695 324.154 203.598C323.931 203.5 323.704 203.371 323.473 203.21C323.25 203.043 323.079 202.834 322.961 202.582C322.842 202.331 322.783 202.038 322.783 201.703C322.783 201.04 323.016 200.513 323.484 200.122C323.959 199.724 324.527 199.525 325.19 199.525C325.784 199.525 326.303 199.672 326.75 199.965C327.204 200.251 327.556 200.653 327.807 201.169L326.593 201.87C326.3 201.242 325.832 200.928 325.19 200.928C324.89 200.928 324.653 200.998 324.478 201.138C324.311 201.27 324.227 201.445 324.227 201.661C324.227 201.891 324.321 202.08 324.51 202.226C324.705 202.366 325.075 202.519 325.62 202.687C325.843 202.757 326.01 202.813 326.122 202.854C326.241 202.889 326.398 202.949 326.593 203.032C326.796 203.109 326.949 203.182 327.054 203.252C327.165 203.322 327.291 203.416 327.431 203.535C327.57 203.654 327.675 203.776 327.745 203.901C327.821 204.027 327.884 204.18 327.933 204.362C327.989 204.536 328.017 204.728 328.017 204.938C328.017 205.615 327.769 206.152 327.274 206.55C326.785 206.948 326.146 207.147 325.358 207.147ZM334.937 199.672C335.642 199.672 336.235 199.909 336.716 200.384C337.198 200.858 337.439 201.441 337.439 202.132C337.439 202.823 337.198 203.406 336.716 203.88C336.235 204.355 335.642 204.592 334.937 204.592H333.649V207H332.204V199.672H334.937ZM334.937 203.242C335.244 203.242 335.498 203.137 335.701 202.928C335.903 202.711 336.004 202.446 336.004 202.132C336.004 201.811 335.903 201.546 335.701 201.337C335.498 201.127 335.244 201.022 334.937 201.022H333.649V203.242H334.937ZM344.808 206.047C344.068 206.78 343.168 207.147 342.107 207.147C341.046 207.147 340.146 206.78 339.406 206.047C338.673 205.308 338.307 204.404 338.307 203.336C338.307 202.268 338.673 201.368 339.406 200.635C340.146 199.895 341.046 199.525 342.107 199.525C343.168 199.525 344.068 199.895 344.808 200.635C345.548 201.368 345.918 202.268 345.918 203.336C345.918 204.404 345.548 205.308 344.808 206.047ZM340.422 205.063C340.875 205.51 341.437 205.733 342.107 205.733C342.777 205.733 343.339 205.51 343.793 205.063C344.246 204.61 344.473 204.034 344.473 203.336C344.473 202.638 344.246 202.062 343.793 201.609C343.339 201.155 342.777 200.928 342.107 200.928C341.437 200.928 340.875 201.155 340.422 201.609C339.968 202.062 339.741 202.638 339.741 203.336C339.741 204.034 339.968 204.61 340.422 205.063ZM353.413 206.047C352.673 206.78 351.773 207.147 350.712 207.147C349.651 207.147 348.751 206.78 348.011 206.047C347.279 205.308 346.912 204.404 346.912 203.336C346.912 202.268 347.279 201.368 348.011 200.635C348.751 199.895 349.651 199.525 350.712 199.525C351.773 199.525 352.673 199.895 353.413 200.635C354.153 201.368 354.523 202.268 354.523 203.336C354.523 204.404 354.153 205.308 353.413 206.047ZM349.027 205.063C349.48 205.51 350.042 205.733 350.712 205.733C351.382 205.733 351.944 205.51 352.398 205.063C352.851 204.61 353.078 204.034 353.078 203.336C353.078 202.638 352.851 202.062 352.398 201.609C351.944 201.155 351.382 200.928 350.712 200.928C350.042 200.928 349.48 201.155 349.027 201.609C348.573 202.062 348.346 202.638 348.346 203.336C348.346 204.034 348.573 204.61 349.027 205.063ZM357.297 205.618H360.092V207H355.852V199.672H357.297V205.618Z" fill="white"/>
<path d="M296.608 58.0737H299.748V74H297.359L290.533 64.2622V74H287.393V58.0737H289.782L296.608 67.7887V58.0737ZM313.623 74L312.667 71.1333H306.319L305.364 74H301.974L307.548 58.0737H311.439L317.036 74H313.623ZM307.321 68.1983H311.689L309.505 61.6912L307.321 68.1983ZM334.85 58.0737V74H331.733V63.6706L327.251 71.065H326.886L322.404 63.6934V74H319.265V58.0737H322.495L327.069 65.6045L331.619 58.0737H334.85ZM341.64 70.9967H348.351V74H338.5V58.0737H348.238V61.0769H341.64V64.4669H347.669V67.4247H341.64V70.9967Z" fill="white"/>
<g filter="url(#filter5_f_223_239)">
<ellipse cx="317" cy="130.5" rx="29" ry="30.5" fill="#26054F"/>
</g>
<circle cx="318" cy="129" r="37" fill="#C4C4C4"/>
<g filter="url(#filter6_b_223_239)">
<rect x="432" y="66" width="149" height="207.511" rx="14.7354" fill="#CC66FC" fill-opacity="0.17"/>
</g>
<g filter="url(#filter7_f_223_239)">
<rect x="443.5" y="179" width="126" height="36" rx="18" stroke="url(#paint4_linear_223_239)" stroke-width="1.05882"/>
</g>
<rect opacity="0.81" x="443.5" y="179" width="126" height="36" rx="18" stroke="white" stroke-width="0.645389"/>
<rect x="462" y="231" width="89" height="25.4286" rx="12.7143" fill="url(#paint5_linear_223_239)"/>
<path d="M483.377 248L482.63 245.943H478.503L477.756 248H476.459L479.879 238.828H481.255L484.675 248H483.377ZM478.922 244.803H482.211L480.56 240.282L478.922 244.803ZM489.478 238.828C490.325 238.828 491.028 239.112 491.588 239.679C492.155 240.239 492.439 240.937 492.439 241.776C492.439 242.606 492.155 243.305 491.588 243.872C491.028 244.44 490.325 244.724 489.478 244.724H487.368V248H486.15V238.828H489.478ZM489.478 243.584C489.985 243.584 490.404 243.414 490.736 243.073C491.068 242.724 491.234 242.291 491.234 241.776C491.234 241.252 491.068 240.819 490.736 240.479C490.404 240.138 489.985 239.968 489.478 239.968H487.368V243.584H489.478ZM500.843 238.828L497.593 244.292V248H496.374V244.279L493.138 238.828H494.501L496.99 243.126L499.48 238.828H500.843ZM511.686 242.497V244.331H509.589V246.428H507.755V244.331H505.658V242.497H507.755V240.4H509.589V242.497H511.686ZM513.016 248V246.48L516.096 243.283C516.716 242.645 517.026 242.104 517.026 241.658C517.026 241.37 516.939 241.138 516.764 240.964C516.589 240.78 516.349 240.688 516.043 240.688C515.432 240.688 514.982 241.02 514.694 241.684L512.925 240.649C513.204 239.994 513.624 239.496 514.183 239.155C514.742 238.815 515.353 238.644 516.017 238.644C516.873 238.644 517.603 238.911 518.205 239.444C518.817 239.968 519.123 240.675 519.123 241.566C519.123 242.536 518.647 243.497 517.694 244.449L516.174 245.982H519.254V248H513.016ZM526.846 246.886C526.191 247.751 525.278 248.183 524.108 248.183C522.937 248.183 522.02 247.751 521.356 246.886C520.701 246.013 520.373 244.855 520.373 243.414C520.373 241.973 520.701 240.819 521.356 239.955C522.02 239.081 522.937 238.644 524.108 238.644C525.278 238.644 526.191 239.081 526.846 239.955C527.51 240.819 527.842 241.973 527.842 243.414C527.842 244.855 527.51 246.013 526.846 246.886ZM522.47 243.414C522.47 245.231 523.016 246.139 524.108 246.139C525.199 246.139 525.745 245.231 525.745 243.414C525.745 241.597 525.199 240.688 524.108 240.688C523.016 240.688 522.47 241.597 522.47 243.414ZM532.786 242.457C532.358 242.885 531.821 243.099 531.175 243.099C530.528 243.099 529.987 242.885 529.55 242.457C529.113 242.021 528.895 241.492 528.895 240.872C528.895 240.252 529.113 239.728 529.55 239.299C529.987 238.863 530.528 238.644 531.175 238.644C531.821 238.644 532.358 238.858 532.786 239.286C533.223 239.706 533.442 240.234 533.442 240.872C533.442 241.492 533.223 242.021 532.786 242.457ZM529.982 246.559L535.905 240.007L536.77 240.505L530.847 247.07L529.982 246.559ZM530.664 241.383C530.795 241.523 530.961 241.593 531.162 241.593C531.363 241.593 531.529 241.523 531.66 241.383C531.799 241.234 531.869 241.064 531.869 240.872C531.869 240.662 531.804 240.492 531.673 240.361C531.542 240.221 531.371 240.151 531.162 240.151C530.961 240.151 530.795 240.221 530.664 240.361C530.533 240.501 530.467 240.671 530.467 240.872C530.467 241.073 530.533 241.243 530.664 241.383ZM537.464 247.515C537.036 247.943 536.499 248.157 535.853 248.157C535.206 248.157 534.665 247.943 534.228 247.515C533.791 247.078 533.573 246.55 533.573 245.93C533.573 245.309 533.791 244.785 534.228 244.357C534.665 243.921 535.206 243.702 535.853 243.702C536.499 243.702 537.036 243.921 537.464 244.357C537.901 244.785 538.119 245.309 538.119 245.93C538.119 246.55 537.901 247.078 537.464 247.515ZM535.342 246.441C535.473 246.58 535.639 246.65 535.84 246.65C536.04 246.65 536.206 246.58 536.337 246.441C536.477 246.292 536.547 246.122 536.547 245.93C536.547 245.72 536.482 245.55 536.351 245.419C536.22 245.279 536.049 245.209 535.84 245.209C535.639 245.209 535.473 245.279 535.342 245.419C535.211 245.558 535.145 245.729 535.145 245.93C535.145 246.131 535.211 246.301 535.342 246.441Z" fill="white"/>
<path d="M492.382 191.948C492.382 192.562 492.187 193.061 491.796 193.445C491.405 193.822 490.896 194.049 490.268 194.126V195.047H489.566V194.136C488.98 194.094 488.478 193.93 488.059 193.644C487.64 193.358 487.34 192.971 487.159 192.482L488.404 191.76C488.628 192.318 489.015 192.636 489.566 192.712V190.901C489.559 190.901 489.556 190.901 489.556 190.901L489.535 190.891C489.291 190.8 489.092 190.72 488.938 190.65C488.785 190.58 488.603 190.479 488.394 190.346C488.192 190.214 488.031 190.078 487.912 189.938C487.801 189.792 487.7 189.607 487.609 189.383C487.525 189.16 487.483 188.916 487.483 188.651C487.483 188.036 487.682 187.544 488.08 187.175C488.485 186.805 488.98 186.592 489.566 186.536V185.625H490.268V186.557C491.217 186.669 491.887 187.161 492.278 188.033L491.063 188.745C490.896 188.326 490.631 188.071 490.268 187.981V189.729C490.917 189.987 491.353 190.193 491.576 190.346C492.114 190.73 492.382 191.264 492.382 191.948ZM488.917 188.661C488.917 188.815 488.966 188.951 489.064 189.069C489.162 189.181 489.329 189.296 489.566 189.415V187.949C489.357 187.991 489.197 188.075 489.085 188.2C488.973 188.326 488.917 188.48 488.917 188.661ZM490.268 192.691C490.715 192.594 490.938 192.349 490.938 191.959C490.938 191.784 490.882 191.638 490.77 191.519C490.666 191.4 490.498 191.289 490.268 191.184V192.691ZM498.382 186.672V188.054H496.403V194H494.958V188.054H492.99V186.672H498.382ZM505.249 193.047C504.509 193.78 503.609 194.147 502.548 194.147C501.487 194.147 500.587 193.78 499.847 193.047C499.114 192.308 498.748 191.404 498.748 190.336C498.748 189.268 499.114 188.368 499.847 187.635C500.587 186.895 501.487 186.525 502.548 186.525C503.609 186.525 504.509 186.895 505.249 187.635C505.989 188.368 506.359 189.268 506.359 190.336C506.359 191.404 505.989 192.308 505.249 193.047ZM500.863 192.063C501.316 192.51 501.878 192.733 502.548 192.733C503.218 192.733 503.78 192.51 504.234 192.063C504.687 191.61 504.914 191.034 504.914 190.336C504.914 189.638 504.687 189.062 504.234 188.609C503.78 188.155 503.218 187.928 502.548 187.928C501.878 187.928 501.316 188.155 500.863 188.609C500.409 189.062 500.182 189.638 500.182 190.336C500.182 191.034 500.409 191.61 500.863 192.063ZM513.414 194H511.75L509.133 190.566V194H507.688V186.672H509.133V189.907L511.645 186.672H513.31L510.598 190.231L513.414 194ZM515.887 192.618H518.976V194H514.443V186.672H518.923V188.054H515.887V189.614H518.662V190.975H515.887V192.618ZM524.548 186.672H525.992V194H524.893L521.753 189.519V194H520.308V186.672H521.407L524.548 191.142V186.672ZM470.351 207L468.874 204.456H467.775V207H466.331V199.672H469.262C469.939 199.672 470.515 199.909 470.989 200.384C471.464 200.858 471.701 201.431 471.701 202.101C471.701 202.554 471.572 202.977 471.314 203.367C471.055 203.751 470.713 204.041 470.288 204.236L471.91 207H470.351ZM467.775 201.022V203.189H469.262C469.534 203.189 469.768 203.085 469.963 202.875C470.159 202.659 470.256 202.401 470.256 202.101C470.256 201.801 470.159 201.546 469.963 201.337C469.768 201.127 469.534 201.022 469.262 201.022H467.775ZM474.52 205.618H477.608V207H473.075V199.672H477.556V201.054H474.52V202.614H477.294V203.975H474.52V205.618ZM480.469 207L478.417 199.672H479.935L481.338 205.105L482.866 199.672H484.101L485.64 205.105L487.043 199.672H488.561L486.509 207H484.865L483.484 202.164L482.112 207H480.469ZM494.004 207L493.565 205.681H490.644L490.204 207H488.644L491.209 199.672H492.999L495.575 207H494.004ZM491.105 204.331H493.115L492.11 201.337L491.105 204.331ZM500.62 207L499.144 204.456H498.045V207H496.6V199.672H499.531C500.208 199.672 500.784 199.909 501.259 200.384C501.733 200.858 501.971 201.431 501.971 202.101C501.971 202.554 501.841 202.977 501.583 203.367C501.325 203.751 500.983 204.041 500.557 204.236L502.18 207H500.62ZM498.045 201.022V203.189H499.531C499.804 203.189 500.037 203.085 500.233 202.875C500.428 202.659 500.526 202.401 500.526 202.101C500.526 201.801 500.428 201.546 500.233 201.337C500.037 201.127 499.804 201.022 499.531 201.022H498.045ZM506.255 199.672C507.26 199.672 508.097 200.024 508.767 200.729C509.444 201.434 509.783 202.303 509.783 203.336C509.783 204.369 509.444 205.238 508.767 205.943C508.097 206.648 507.26 207 506.255 207H503.345V199.672H506.255ZM506.255 205.618C506.89 205.618 507.406 205.409 507.804 204.99C508.202 204.564 508.401 204.013 508.401 203.336C508.401 202.659 508.202 202.111 507.804 201.692C507.406 201.267 506.89 201.054 506.255 201.054H504.789V205.618H506.255ZM513.358 207.147C512.632 207.147 512.021 206.986 511.526 206.665C511.03 206.337 510.681 205.894 510.479 205.336L511.714 204.613C512 205.36 512.562 205.733 513.4 205.733C513.804 205.733 514.101 205.66 514.29 205.513C514.478 205.367 514.572 205.182 514.572 204.959C514.572 204.7 514.457 204.502 514.227 204.362C513.996 204.215 513.585 204.058 512.991 203.891C512.663 203.793 512.384 203.695 512.154 203.598C511.931 203.5 511.704 203.371 511.473 203.21C511.25 203.043 511.079 202.834 510.961 202.582C510.842 202.331 510.783 202.038 510.783 201.703C510.783 201.04 511.016 200.513 511.484 200.122C511.959 199.724 512.527 199.525 513.19 199.525C513.784 199.525 514.303 199.672 514.75 199.965C515.204 200.251 515.556 200.653 515.807 201.169L514.593 201.87C514.3 201.242 513.832 200.928 513.19 200.928C512.89 200.928 512.653 200.998 512.478 201.138C512.311 201.27 512.227 201.445 512.227 201.661C512.227 201.891 512.321 202.08 512.51 202.226C512.705 202.366 513.075 202.519 513.62 202.687C513.843 202.757 514.01 202.813 514.122 202.854C514.241 202.889 514.398 202.949 514.593 203.032C514.796 203.109 514.949 203.182 515.054 203.252C515.165 203.322 515.291 203.416 515.431 203.535C515.57 203.654 515.675 203.776 515.745 203.901C515.821 204.027 515.884 204.18 515.933 204.362C515.989 204.536 516.017 204.728 516.017 204.938C516.017 205.615 515.769 206.152 515.274 206.55C514.785 206.948 514.146 207.147 513.358 207.147ZM522.937 199.672C523.642 199.672 524.235 199.909 524.716 200.384C525.198 200.858 525.439 201.441 525.439 202.132C525.439 202.823 525.198 203.406 524.716 203.88C524.235 204.355 523.642 204.592 522.937 204.592H521.649V207H520.204V199.672H522.937ZM522.937 203.242C523.244 203.242 523.498 203.137 523.701 202.928C523.903 202.711 524.004 202.446 524.004 202.132C524.004 201.811 523.903 201.546 523.701 201.337C523.498 201.127 523.244 201.022 522.937 201.022H521.649V203.242H522.937ZM532.808 206.047C532.068 206.78 531.168 207.147 530.107 207.147C529.046 207.147 528.146 206.78 527.406 206.047C526.673 205.308 526.307 204.404 526.307 203.336C526.307 202.268 526.673 201.368 527.406 200.635C528.146 199.895 529.046 199.525 530.107 199.525C531.168 199.525 532.068 199.895 532.808 200.635C533.548 201.368 533.918 202.268 533.918 203.336C533.918 204.404 533.548 205.308 532.808 206.047ZM528.422 205.063C528.875 205.51 529.437 205.733 530.107 205.733C530.777 205.733 531.339 205.51 531.793 205.063C532.246 204.61 532.473 204.034 532.473 203.336C532.473 202.638 532.246 202.062 531.793 201.609C531.339 201.155 530.777 200.928 530.107 200.928C529.437 200.928 528.875 201.155 528.422 201.609C527.968 202.062 527.741 202.638 527.741 203.336C527.741 204.034 527.968 204.61 528.422 205.063ZM541.413 206.047C540.673 206.78 539.773 207.147 538.712 207.147C537.651 207.147 536.751 206.78 536.011 206.047C535.279 205.308 534.912 204.404 534.912 203.336C534.912 202.268 535.279 201.368 536.011 200.635C536.751 199.895 537.651 199.525 538.712 199.525C539.773 199.525 540.673 199.895 541.413 200.635C542.153 201.368 542.523 202.268 542.523 203.336C542.523 204.404 542.153 205.308 541.413 206.047ZM537.027 205.063C537.48 205.51 538.042 205.733 538.712 205.733C539.382 205.733 539.944 205.51 540.398 205.063C540.851 204.61 541.078 204.034 541.078 203.336C541.078 202.638 540.851 202.062 540.398 201.609C539.944 201.155 539.382 200.928 538.712 200.928C538.042 200.928 537.48 201.155 537.027 201.609C536.573 202.062 536.346 202.638 536.346 203.336C536.346 204.034 536.573 204.61 537.027 205.063ZM545.297 205.618H548.092V207H543.852V199.672H545.297V205.618Z" fill="white"/>
<path d="M484.608 58.0737H487.748V74H485.359L478.533 64.2622V74H475.393V58.0737H477.782L484.608 67.7887V58.0737ZM501.623 74L500.667 71.1333H494.319L493.364 74H489.974L495.548 58.0737H499.439L505.036 74H501.623ZM495.321 68.1983H499.689L497.505 61.6912L495.321 68.1983ZM522.85 58.0737V74H519.733V63.6706L515.251 71.065H514.886L510.404 63.6934V74H507.265V58.0737H510.495L515.069 65.6045L519.619 58.0737H522.85ZM529.64 70.9967H536.351V74H526.5V58.0737H536.238V61.0769H529.64V64.4669H535.669V67.4247H529.64V70.9967Z" fill="white"/>
<g filter="url(#filter8_f_223_239)">
<ellipse cx="505" cy="130.5" rx="29" ry="30.5" fill="#26054F"/>
</g>
<circle cx="506" cy="129" r="37" fill="#C4C4C4"/>
<g filter="url(#filter9_b_223_239)">
<rect x="620" y="66" width="149" height="207.511" rx="14.7354" fill="#CC66FC" fill-opacity="0.17"/>
</g>
<g filter="url(#filter10_f_223_239)">
<rect x="631.5" y="179" width="126" height="36" rx="18" stroke="url(#paint6_linear_223_239)" stroke-width="1.05882"/>
</g>
<rect opacity="0.81" x="631.5" y="179" width="126" height="36" rx="18" stroke="white" stroke-width="0.645389"/>
<rect x="650" y="231" width="89" height="25.4286" rx="12.7143" fill="url(#paint7_linear_223_239)"/>
<path d="M671.377 248L670.63 245.943H666.503L665.756 248H664.459L667.879 238.828H669.255L672.675 248H671.377ZM666.922 244.803H670.211L668.56 240.282L666.922 244.803ZM677.478 238.828C678.325 238.828 679.028 239.112 679.588 239.679C680.155 240.239 680.439 240.937 680.439 241.776C680.439 242.606 680.155 243.305 679.588 243.872C679.028 244.44 678.325 244.724 677.478 244.724H675.368V248H674.15V238.828H677.478ZM677.478 243.584C677.985 243.584 678.404 243.414 678.736 243.073C679.068 242.724 679.234 242.291 679.234 241.776C679.234 241.252 679.068 240.819 678.736 240.479C678.404 240.138 677.985 239.968 677.478 239.968H675.368V243.584H677.478ZM688.843 238.828L685.593 244.292V248H684.374V244.279L681.138 238.828H682.501L684.99 243.126L687.48 238.828H688.843ZM699.686 242.497V244.331H697.589V246.428H695.755V244.331H693.658V242.497H695.755V240.4H697.589V242.497H699.686ZM701.016 248V246.48L704.096 243.283C704.716 242.645 705.026 242.104 705.026 241.658C705.026 241.37 704.939 241.138 704.764 240.964C704.589 240.78 704.349 240.688 704.043 240.688C703.432 240.688 702.982 241.02 702.694 241.684L700.925 240.649C701.204 239.994 701.624 239.496 702.183 239.155C702.742 238.815 703.353 238.644 704.017 238.644C704.873 238.644 705.603 238.911 706.205 239.444C706.817 239.968 707.123 240.675 707.123 241.566C707.123 242.536 706.647 243.497 705.694 244.449L704.174 245.982H707.254V248H701.016ZM714.846 246.886C714.191 247.751 713.278 248.183 712.108 248.183C710.937 248.183 710.02 247.751 709.356 246.886C708.701 246.013 708.373 244.855 708.373 243.414C708.373 241.973 708.701 240.819 709.356 239.955C710.02 239.081 710.937 238.644 712.108 238.644C713.278 238.644 714.191 239.081 714.846 239.955C715.51 240.819 715.842 241.973 715.842 243.414C715.842 244.855 715.51 246.013 714.846 246.886ZM710.47 243.414C710.47 245.231 711.016 246.139 712.108 246.139C713.199 246.139 713.745 245.231 713.745 243.414C713.745 241.597 713.199 240.688 712.108 240.688C711.016 240.688 710.47 241.597 710.47 243.414ZM720.786 242.457C720.358 242.885 719.821 243.099 719.175 243.099C718.528 243.099 717.987 242.885 717.55 242.457C717.113 242.021 716.895 241.492 716.895 240.872C716.895 240.252 717.113 239.728 717.55 239.299C717.987 238.863 718.528 238.644 719.175 238.644C719.821 238.644 720.358 238.858 720.786 239.286C721.223 239.706 721.442 240.234 721.442 240.872C721.442 241.492 721.223 242.021 720.786 242.457ZM717.982 246.559L723.905 240.007L724.77 240.505L718.847 247.07L717.982 246.559ZM718.664 241.383C718.795 241.523 718.961 241.593 719.162 241.593C719.363 241.593 719.529 241.523 719.66 241.383C719.799 241.234 719.869 241.064 719.869 240.872C719.869 240.662 719.804 240.492 719.673 240.361C719.542 240.221 719.371 240.151 719.162 240.151C718.961 240.151 718.795 240.221 718.664 240.361C718.533 240.501 718.467 240.671 718.467 240.872C718.467 241.073 718.533 241.243 718.664 241.383ZM725.464 247.515C725.036 247.943 724.499 248.157 723.853 248.157C723.206 248.157 722.665 247.943 722.228 247.515C721.791 247.078 721.573 246.55 721.573 245.93C721.573 245.309 721.791 244.785 722.228 244.357C722.665 243.921 723.206 243.702 723.853 243.702C724.499 243.702 725.036 243.921 725.464 244.357C725.901 244.785 726.119 245.309 726.119 245.93C726.119 246.55 725.901 247.078 725.464 247.515ZM723.342 246.441C723.473 246.58 723.639 246.65 723.84 246.65C724.04 246.65 724.206 246.58 724.337 246.441C724.477 246.292 724.547 246.122 724.547 245.93C724.547 245.72 724.482 245.55 724.351 245.419C724.22 245.279 724.049 245.209 723.84 245.209C723.639 245.209 723.473 245.279 723.342 245.419C723.211 245.558 723.145 245.729 723.145 245.93C723.145 246.131 723.211 246.301 723.342 246.441Z" fill="white"/>
<path d="M680.382 191.948C680.382 192.562 680.187 193.061 679.796 193.445C679.405 193.822 678.896 194.049 678.268 194.126V195.047H677.566V194.136C676.98 194.094 676.478 193.93 676.059 193.644C675.64 193.358 675.34 192.971 675.159 192.482L676.404 191.76C676.628 192.318 677.015 192.636 677.566 192.712V190.901C677.559 190.901 677.556 190.901 677.556 190.901L677.535 190.891C677.291 190.8 677.092 190.72 676.938 190.65C676.785 190.58 676.603 190.479 676.394 190.346C676.192 190.214 676.031 190.078 675.912 189.938C675.801 189.792 675.7 189.607 675.609 189.383C675.525 189.16 675.483 188.916 675.483 188.651C675.483 188.036 675.682 187.544 676.08 187.175C676.485 186.805 676.98 186.592 677.566 186.536V185.625H678.268V186.557C679.217 186.669 679.887 187.161 680.278 188.033L679.063 188.745C678.896 188.326 678.631 188.071 678.268 187.981V189.729C678.917 189.987 679.353 190.193 679.576 190.346C680.114 190.73 680.382 191.264 680.382 191.948ZM676.917 188.661C676.917 188.815 676.966 188.951 677.064 189.069C677.162 189.181 677.329 189.296 677.566 189.415V187.949C677.357 187.991 677.197 188.075 677.085 188.2C676.973 188.326 676.917 188.48 676.917 188.661ZM678.268 192.691C678.715 192.594 678.938 192.349 678.938 191.959C678.938 191.784 678.882 191.638 678.77 191.519C678.666 191.4 678.498 191.289 678.268 191.184V192.691ZM686.382 186.672V188.054H684.403V194H682.958V188.054H680.99V186.672H686.382ZM693.249 193.047C692.509 193.78 691.609 194.147 690.548 194.147C689.487 194.147 688.587 193.78 687.847 193.047C687.114 192.308 686.748 191.404 686.748 190.336C686.748 189.268 687.114 188.368 687.847 187.635C688.587 186.895 689.487 186.525 690.548 186.525C691.609 186.525 692.509 186.895 693.249 187.635C693.989 188.368 694.359 189.268 694.359 190.336C694.359 191.404 693.989 192.308 693.249 193.047ZM688.863 192.063C689.316 192.51 689.878 192.733 690.548 192.733C691.218 192.733 691.78 192.51 692.234 192.063C692.687 191.61 692.914 191.034 692.914 190.336C692.914 189.638 692.687 189.062 692.234 188.609C691.78 188.155 691.218 187.928 690.548 187.928C689.878 187.928 689.316 188.155 688.863 188.609C688.409 189.062 688.182 189.638 688.182 190.336C688.182 191.034 688.409 191.61 688.863 192.063ZM701.414 194H699.75L697.133 190.566V194H695.688V186.672H697.133V189.907L699.645 186.672H701.31L698.598 190.231L701.414 194ZM703.887 192.618H706.976V194H702.443V186.672H706.923V188.054H703.887V189.614H706.662V190.975H703.887V192.618ZM712.548 186.672H713.992V194H712.893L709.753 189.519V194H708.308V186.672H709.407L712.548 191.142V186.672ZM658.351 207L656.874 204.456H655.775V207H654.331V199.672H657.262C657.939 199.672 658.515 199.909 658.989 200.384C659.464 200.858 659.701 201.431 659.701 202.101C659.701 202.554 659.572 202.977 659.314 203.367C659.055 203.751 658.713 204.041 658.288 204.236L659.91 207H658.351ZM655.775 201.022V203.189H657.262C657.534 203.189 657.768 203.085 657.963 202.875C658.159 202.659 658.256 202.401 658.256 202.101C658.256 201.801 658.159 201.546 657.963 201.337C657.768 201.127 657.534 201.022 657.262 201.022H655.775ZM662.52 205.618H665.608V207H661.075V199.672H665.556V201.054H662.52V202.614H665.294V203.975H662.52V205.618ZM668.469 207L666.417 199.672H667.935L669.338 205.105L670.866 199.672H672.101L673.64 205.105L675.043 199.672H676.561L674.509 207H672.865L671.484 202.164L670.112 207H668.469ZM682.004 207L681.565 205.681H678.644L678.204 207H676.644L679.209 199.672H680.999L683.575 207H682.004ZM679.105 204.331H681.115L680.11 201.337L679.105 204.331ZM688.62 207L687.144 204.456H686.045V207H684.6V199.672H687.531C688.208 199.672 688.784 199.909 689.259 200.384C689.733 200.858 689.971 201.431 689.971 202.101C689.971 202.554 689.841 202.977 689.583 203.367C689.325 203.751 688.983 204.041 688.557 204.236L690.18 207H688.62ZM686.045 201.022V203.189H687.531C687.804 203.189 688.037 203.085 688.233 202.875C688.428 202.659 688.526 202.401 688.526 202.101C688.526 201.801 688.428 201.546 688.233 201.337C688.037 201.127 687.804 201.022 687.531 201.022H686.045ZM694.255 199.672C695.26 199.672 696.097 200.024 696.767 200.729C697.444 201.434 697.783 202.303 697.783 203.336C697.783 204.369 697.444 205.238 696.767 205.943C696.097 206.648 695.26 207 694.255 207H691.345V199.672H694.255ZM694.255 205.618C694.89 205.618 695.406 205.409 695.804 204.99C696.202 204.564 696.401 204.013 696.401 203.336C696.401 202.659 696.202 202.111 695.804 201.692C695.406 201.267 694.89 201.054 694.255 201.054H692.789V205.618H694.255ZM701.358 207.147C700.632 207.147 700.021 206.986 699.526 206.665C699.03 206.337 698.681 205.894 698.479 205.336L699.714 204.613C700 205.36 700.562 205.733 701.4 205.733C701.804 205.733 702.101 205.66 702.29 205.513C702.478 205.367 702.572 205.182 702.572 204.959C702.572 204.7 702.457 204.502 702.227 204.362C701.996 204.215 701.585 204.058 700.991 203.891C700.663 203.793 700.384 203.695 700.154 203.598C699.931 203.5 699.704 203.371 699.473 203.21C699.25 203.043 699.079 202.834 698.961 202.582C698.842 202.331 698.783 202.038 698.783 201.703C698.783 201.04 699.016 200.513 699.484 200.122C699.959 199.724 700.527 199.525 701.19 199.525C701.784 199.525 702.303 199.672 702.75 199.965C703.204 200.251 703.556 200.653 703.807 201.169L702.593 201.87C702.3 201.242 701.832 200.928 701.19 200.928C700.89 200.928 700.653 200.998 700.478 201.138C700.311 201.27 700.227 201.445 700.227 201.661C700.227 201.891 700.321 202.08 700.51 202.226C700.705 202.366 701.075 202.519 701.62 202.687C701.843 202.757 702.01 202.813 702.122 202.854C702.241 202.889 702.398 202.949 702.593 203.032C702.796 203.109 702.949 203.182 703.054 203.252C703.165 203.322 703.291 203.416 703.431 203.535C703.57 203.654 703.675 203.776 703.745 203.901C703.821 204.027 703.884 204.18 703.933 204.362C703.989 204.536 704.017 204.728 704.017 204.938C704.017 205.615 703.769 206.152 703.274 206.55C702.785 206.948 702.146 207.147 701.358 207.147ZM710.937 199.672C711.642 199.672 712.235 199.909 712.716 200.384C713.198 200.858 713.439 201.441 713.439 202.132C713.439 202.823 713.198 203.406 712.716 203.88C712.235 204.355 711.642 204.592 710.937 204.592H709.649V207H708.204V199.672H710.937ZM710.937 203.242C711.244 203.242 711.498 203.137 711.701 202.928C711.903 202.711 712.004 202.446 712.004 202.132C712.004 201.811 711.903 201.546 711.701 201.337C711.498 201.127 711.244 201.022 710.937 201.022H709.649V203.242H710.937ZM720.808 206.047C720.068 206.78 719.168 207.147 718.107 207.147C717.046 207.147 716.146 206.78 715.406 206.047C714.673 205.308 714.307 204.404 714.307 203.336C714.307 202.268 714.673 201.368 715.406 200.635C716.146 199.895 717.046 199.525 718.107 199.525C719.168 199.525 720.068 199.895 720.808 200.635C721.548 201.368 721.918 202.268 721.918 203.336C721.918 204.404 721.548 205.308 720.808 206.047ZM716.422 205.063C716.875 205.51 717.437 205.733 718.107 205.733C718.777 205.733 719.339 205.51 719.793 205.063C720.246 204.61 720.473 204.034 720.473 203.336C720.473 202.638 720.246 202.062 719.793 201.609C719.339 201.155 718.777 200.928 718.107 200.928C717.437 200.928 716.875 201.155 716.422 201.609C715.968 202.062 715.741 202.638 715.741 203.336C715.741 204.034 715.968 204.61 716.422 205.063ZM729.413 206.047C728.673 206.78 727.773 207.147 726.712 207.147C725.651 207.147 724.751 206.78 724.011 206.047C723.279 205.308 722.912 204.404 722.912 203.336C722.912 202.268 723.279 201.368 724.011 200.635C724.751 199.895 725.651 199.525 726.712 199.525C727.773 199.525 728.673 199.895 729.413 200.635C730.153 201.368 730.523 202.268 730.523 203.336C730.523 204.404 730.153 205.308 729.413 206.047ZM725.027 205.063C725.48 205.51 726.042 205.733 726.712 205.733C727.382 205.733 727.944 205.51 728.398 205.063C728.851 204.61 729.078 204.034 729.078 203.336C729.078 202.638 728.851 202.062 728.398 201.609C727.944 201.155 727.382 200.928 726.712 200.928C726.042 200.928 725.48 201.155 725.027 201.609C724.573 202.062 724.346 202.638 724.346 203.336C724.346 204.034 724.573 204.61 725.027 205.063ZM733.297 205.618H736.092V207H731.852V199.672H733.297V205.618Z" fill="white"/>
<path d="M672.608 58.0737H675.748V74H673.359L666.533 64.2622V74H663.393V58.0737H665.782L672.608 67.7887V58.0737ZM689.623 74L688.667 71.1333H682.319L681.364 74H677.974L683.548 58.0737H687.439L693.036 74H689.623ZM683.321 68.1983H687.689L685.505 61.6912L683.321 68.1983ZM710.85 58.0737V74H707.733V63.6706L703.251 71.065H702.886L698.404 63.6934V74H695.265V58.0737H698.495L703.069 65.6045L707.619 58.0737H710.85ZM717.64 70.9967H724.351V74H714.5V58.0737H724.238V61.0769H717.64V64.4669H723.669V67.4247H717.64V70.9967Z" fill="white"/>
<g filter="url(#filter11_f_223_239)">
<ellipse cx="693" cy="130.5" rx="29" ry="30.5" fill="#26054F"/>
</g>
<circle cx="694" cy="129" r="37" fill="#C4C4C4"/>
<defs>
<filter id="filter0_b_223_239" x="50.8583" y="60.8583" width="159.283" height="217.795" filterUnits="userSpaceOnUse" color-interpolation-filters="sRGB">
<feFlood flood-opacity="0" result="BackgroundImageFix"/>
<feGaussianBlur in="BackgroundImage" stdDeviation="2.57087"/>
<feComposite in2="SourceAlpha" operator="in" result="effect1_backgroundBlur_223_239"/>
<feBlend mode="normal" in="SourceGraphic" in2="effect1_backgroundBlur_223_239" result="shape"/>
</filter>
<filter id="filter1_f_223_239" x="63.7942" y="175.294" width="133.412" height="43.4118" filterUnits="userSpaceOnUse" color-interpolation-filters="sRGB">
<feFlood flood-opacity="0" result="BackgroundImageFix"/>
<feBlend mode="normal" in="SourceGraphic" in2="BackgroundImageFix" result="shape"/>
<feGaussianBlur stdDeviation="1.58824" result="effect1_foregroundBlur_223_239"/>
</filter>
<filter id="filter2_f_223_239" x="0" y="0" width="258" height="261" filterUnits="userSpaceOnUse" color-interpolation-filters="sRGB">
<feFlood flood-opacity="0" result="BackgroundImageFix"/>
<feBlend mode="normal" in="SourceGraphic" in2="BackgroundImageFix" result="shape"/>
<feGaussianBlur stdDeviation="50" result="effect1_foregroundBlur_223_239"/>
</filter>
<filter id="filter3_b_223_239" x="238.858" y="60.8583" width="159.283" height="217.795" filterUnits="userSpaceOnUse" color-interpolation-filters="sRGB">
<feFlood flood-opacity="0" result="BackgroundImageFix"/>
<feGaussianBlur in="BackgroundImage" stdDeviation="2.57087"/>
<feComposite in2="SourceAlpha" operator="in" result="effect1_backgroundBlur_223_239"/>
<feBlend mode="normal" in="SourceGraphic" in2="effect1_backgroundBlur_223_239" result="shape"/>
</filter>
<filter id="filter4_f_223_239" x="251.794" y="175.294" width="133.412" height="43.4118" filterUnits="userSpaceOnUse" color-interpolation-filters="sRGB">
<feFlood flood-opacity="0" result="BackgroundImageFix"/>
<feBlend mode="normal" in="SourceGraphic" in2="BackgroundImageFix" result="shape"/>
<feGaussianBlur stdDeviation="1.58824" result="effect1_foregroundBlur_223_239"/>
</filter>
<filter id="filter5_f_223_239" x="188" y="0" width="258" height="261" filterUnits="userSpaceOnUse" color-interpolation-filters="sRGB">
<feFlood flood-opacity="0" result="BackgroundImageFix"/>
<feBlend mode="normal" in="SourceGraphic" in2="BackgroundImageFix" result="shape"/>
<feGaussianBlur stdDeviation="50" result="effect1_foregroundBlur_223_239"/>
</filter>
<filter id="filter6_b_223_239" x="426.858" y="60.8583" width="159.283" height="217.795" filterUnits="userSpaceOnUse" color-interpolation-filters="sRGB">
<feFlood flood-opacity="0" result="BackgroundImageFix"/>
<feGaussianBlur in="BackgroundImage" stdDeviation="2.57087"/>
<feComposite in2="SourceAlpha" operator="in" result="effect1_backgroundBlur_223_239"/>
<feBlend mode="normal" in="SourceGraphic" in2="effect1_backgroundBlur_223_239" result="shape"/>
</filter>
<filter id="filter7_f_223_239" x="439.794" y="175.294" width="133.412" height="43.4118" filterUnits="userSpaceOnUse" color-interpolation-filters="sRGB">
<feFlood flood-opacity="0" result="BackgroundImageFix"/>
<feBlend mode="normal" in="SourceGraphic" in2="BackgroundImageFix" result="shape"/>
<feGaussianBlur stdDeviation="1.58824" result="effect1_foregroundBlur_223_239"/>
</filter>
<filter id="filter8_f_223_239" x="376" y="0" width="258" height="261" filterUnits="userSpaceOnUse" color-interpolation-filters="sRGB">
<feFlood flood-opacity="0" result="BackgroundImageFix"/>
<feBlend mode="normal" in="SourceGraphic" in2="BackgroundImageFix" result="shape"/>
<feGaussianBlur stdDeviation="50" result="effect1_foregroundBlur_223_239"/>
</filter>
<filter id="filter9_b_223_239" x="614.858" y="60.8583" width="159.283" height="217.795" filterUnits="userSpaceOnUse" color-interpolation-filters="sRGB">
<feFlood flood-opacity="0" result="BackgroundImageFix"/>
<feGaussianBlur in="BackgroundImage" stdDeviation="2.57087"/>
<feComposite in2="SourceAlpha" operator="in" result="effect1_backgroundBlur_223_239"/>
<feBlend mode="normal" in="SourceGraphic" in2="effect1_backgroundBlur_223_239" result="shape"/>
</filter>
<filter id="filter10_f_223_239" x="627.794" y="175.294" width="133.412" height="43.4118" filterUnits="userSpaceOnUse" color-interpolation-filters="sRGB">
<feFlood flood-opacity="0" result="BackgroundImageFix"/>
<feBlend mode="normal" in="SourceGraphic" in2="BackgroundImageFix" result="shape"/>
<feGaussianBlur stdDeviation="1.58824" result="effect1_foregroundBlur_223_239"/>
</filter>
<filter id="filter11_f_223_239" x="564" y="0" width="258" height="261" filterUnits="userSpaceOnUse" color-interpolation-filters="sRGB">
<feFlood flood-opacity="0" result="BackgroundImageFix"/>
<feBlend mode="normal" in="SourceGraphic" in2="BackgroundImageFix" result="shape"/>
<feGaussianBlur stdDeviation="50" result="effect1_foregroundBlur_223_239"/>
</filter>
<linearGradient id="paint0_linear_223_239" x1="53.325" y1="166.815" x2="208.796" y2="178.593" gradientUnits="userSpaceOnUse">
<stop stop-color="#D43FEC"/>
<stop offset="1" stop-color="#3F75EC"/>
</linearGradient>
<linearGradient id="paint1_linear_223_239" x1="91.2516" y1="232.806" x2="174.182" y2="244.892" gradientUnits="userSpaceOnUse">
<stop stop-color="#AF52D0" stop-opacity="0.56"/>
<stop offset="1" stop-color="#3F65EC" stop-opacity="0.5"/>
</linearGradient>
<linearGradient id="paint2_linear_223_239" x1="241.325" y1="166.815" x2="396.796" y2="178.593" gradientUnits="userSpaceOnUse">
<stop stop-color="#D43FEC"/>
<stop offset="1" stop-color="#3F75EC"/>
</linearGradient>
<linearGradient id="paint3_linear_223_239" x1="279.252" y1="232.806" x2="362.182" y2="244.892" gradientUnits="userSpaceOnUse">
<stop stop-color="#AF52D0" stop-opacity="0.56"/>
<stop offset="1" stop-color="#3F65EC" stop-opacity="0.5"/>
</linearGradient>
<linearGradient id="paint4_linear_223_239" x1="429.325" y1="166.815" x2="584.796" y2="178.593" gradientUnits="userSpaceOnUse">
<stop stop-color="#D43FEC"/>
<stop offset="1" stop-color="#3F75EC"/>
</linearGradient>
<linearGradient id="paint5_linear_223_239" x1="467.252" y1="232.806" x2="550.182" y2="244.892" gradientUnits="userSpaceOnUse">
<stop stop-color="#AF52D0" stop-opacity="0.56"/>
<stop offset="1" stop-color="#3F65EC" stop-opacity="0.5"/>
</linearGradient>
<linearGradient id="paint6_linear_223_239" x1="617.325" y1="166.815" x2="772.796" y2="178.593" gradientUnits="userSpaceOnUse">
<stop stop-color="#D43FEC"/>
<stop offset="1" stop-color="#3F75EC"/>
</linearGradient>
<linearGradient id="paint7_linear_223_239" x1="655.252" y1="232.806" x2="738.182" y2="244.892" gradientUnits="userSpaceOnUse">
<stop stop-color="#AF52D0" stop-opacity="0.56"/>
<stop offset="1" stop-color="#3F65EC" stop-opacity="0.5"/>
</linearGradient>
</defs>
</svg>
