<svg width="452" height="162" viewBox="0 0 452 162" fill="none" xmlns="http://www.w3.org/2000/svg">
<g filter="url(#filter0_f_279_336)">
<path d="M326.584 54.4498H332.249C353.668 54.4498 373.262 42.3887 382.91 23.2654L391.62 6M326.584 71.9092H345.945C359.636 71.9092 372.866 76.8593 383.194 85.8468L446 140.5M92.8309 64.87V64.87C67.5192 64.87 47 85.3892 47 110.701V157.841" stroke="url(#paint0_linear_279_336)" stroke-width="5.23781"/>
</g>
<path d="M326.584 54.4498H332.249C353.668 54.4498 373.262 42.3887 382.91 23.2654L391.62 6M326.584 71.9092H345.74C359.555 71.9092 372.895 76.949 383.259 86.0834L445 140.5M92.8309 64.87V64.87C67.5192 64.87 47 85.3892 47 110.701V157.841" stroke="white"/>
<g filter="url(#filter1_f_279_336)">
<path d="M3 6H46.4718C66.3563 6 84.828 16.4715 95.0982 33.4985V33.4985" stroke="url(#paint1_linear_279_336)" stroke-width="5.23781" stroke-linejoin="round"/>
</g>
<path d="M6 6.07471H48.6324C67.6198 6.07471 85.1569 16.2312 94.6064 32.7003V32.7003" stroke="white" stroke-width="0.872969" stroke-linejoin="round"/>
<defs>
<filter id="filter0_f_279_336" x="40.889" y="1.32844" width="410.322" height="160.005" filterUnits="userSpaceOnUse" color-interpolation-filters="sRGB">
<feFlood flood-opacity="0" result="BackgroundImageFix"/>
<feBlend mode="normal" in="SourceGraphic" in2="BackgroundImageFix" result="shape"/>
<feGaussianBlur stdDeviation="1.74594" result="effect1_foregroundBlur_279_336"/>
</filter>
<filter id="filter1_f_279_336" x="0.612317" y="0.99342" width="99.1152" height="36.2455" filterUnits="userSpaceOnUse" color-interpolation-filters="sRGB">
<feFlood flood-opacity="0" result="BackgroundImageFix"/>
<feBlend mode="normal" in="SourceGraphic" in2="BackgroundImageFix" result="shape"/>
<feGaussianBlur stdDeviation="1.19384" result="effect1_foregroundBlur_279_336"/>
</filter>
<linearGradient id="paint0_linear_279_336" x1="143.289" y1="9.35209" x2="455.652" y2="48.1992" gradientUnits="userSpaceOnUse">
<stop stop-color="#3F65EC"/>
<stop offset="1" stop-color="#D43FEC"/>
</linearGradient>
<linearGradient id="paint1_linear_279_336" x1="10.5998" y1="-50.9793" x2="118.18" y2="-43.1226" gradientUnits="userSpaceOnUse">
<stop stop-color="#3F65EC"/>
<stop offset="1" stop-color="#D43FEC"/>
</linearGradient>
</defs>
</svg>
