<svg width="37" height="27" viewBox="0 0 37 27" fill="none" xmlns="http://www.w3.org/2000/svg">
<path d="M30.6678 2.21146C28.4015 1.18939 25.9722 0.433938 23.4318 0.00437C23.4092 2.67843e-05 23.3858 0.00282571 23.3648 0.0123797C23.3438 0.0219337 23.3264 0.0377702 23.3148 0.0576958C23.0037 0.604285 22.6571 1.31678 22.4142 1.87966C19.7199 1.4771 16.9808 1.4771 14.2865 1.87966C14.0159 1.25584 13.7108 0.647574 13.3725 0.0576958C13.3611 0.0375248 13.3437 0.0213302 13.3228 0.0112729C13.3019 0.00121563 13.2784 -0.00222608 13.2555 0.00140732C10.7166 0.430976 8.28731 1.18642 6.01949 2.20998C5.99998 2.21817 5.98344 2.23212 5.97209 2.24998C1.36237 9.02679 0.0988488 15.6362 0.719501 22.1627C0.721228 22.1787 0.72619 22.1941 0.734084 22.2082C0.741979 22.2222 0.75264 22.2344 0.765421 22.2442C3.45599 24.203 6.45696 25.6953 9.64268 26.6583C9.66488 26.6652 9.68864 26.6652 9.71083 26.6583C9.73303 26.6514 9.75264 26.638 9.7671 26.6198C10.4526 25.703 11.0601 24.7304 11.5831 23.7121C11.5904 23.6982 11.5946 23.6829 11.5954 23.6672C11.5962 23.6515 11.5937 23.6358 11.5879 23.6212C11.5822 23.6066 11.5733 23.5934 11.562 23.5825C11.5507 23.5716 11.5372 23.5633 11.5224 23.5581C10.5655 23.1977 9.63836 22.7628 8.74947 22.2575C8.7335 22.2484 8.72004 22.2354 8.7103 22.2198C8.70056 22.2042 8.69485 22.1865 8.69368 22.1681C8.6925 22.1498 8.6959 22.1314 8.70357 22.1147C8.71124 22.098 8.72294 22.0834 8.73762 22.0723C8.92426 21.9346 9.1109 21.7909 9.28865 21.6472C9.30465 21.6343 9.32393 21.6261 9.34433 21.6235C9.36472 21.6208 9.38545 21.6239 9.40419 21.6324C15.2211 24.2454 21.521 24.2454 27.2698 21.6324C27.2886 21.6234 27.3095 21.6199 27.3302 21.6223C27.3509 21.6246 27.3705 21.6328 27.3868 21.6457C27.5646 21.7909 27.7497 21.9346 27.9379 22.0723C27.9527 22.0832 27.9646 22.0975 27.9725 22.1141C27.9804 22.1307 27.9841 22.149 27.9832 22.1673C27.9823 22.1856 27.9769 22.2035 27.9674 22.2192C27.958 22.235 27.9448 22.2481 27.929 22.2575C27.0432 22.7671 26.1218 23.1981 25.1545 23.5566C25.1397 23.562 25.1262 23.5705 25.1148 23.5815C25.1035 23.5925 25.0947 23.6059 25.089 23.6206C25.0832 23.6353 25.0807 23.6511 25.0815 23.6669C25.0823 23.6826 25.0865 23.6981 25.0938 23.7121C25.6271 24.7297 26.2374 25.6985 26.9084 26.6184C26.9223 26.6372 26.9418 26.6513 26.964 26.6588C26.9863 26.6662 27.0103 26.6666 27.0328 26.6598C30.224 25.6994 33.2298 24.2065 35.9234 22.2442C35.9365 22.235 35.9475 22.2231 35.9557 22.2093C35.9639 22.1955 35.969 22.1801 35.9708 22.1642C36.7114 14.6186 34.7295 8.06248 30.7138 2.25294C30.7039 2.23406 30.6876 2.21934 30.6678 2.21146ZM12.4526 18.1884C10.7018 18.1884 9.25755 16.605 9.25755 14.663C9.25755 12.7196 10.6736 11.1376 12.4526 11.1376C14.245 11.1376 15.6759 12.7329 15.6477 14.663C15.6477 16.6064 14.2317 18.1884 12.4526 18.1884ZM24.2658 18.1884C22.5134 18.1884 21.0707 16.605 21.0707 14.663C21.0707 12.7196 22.4853 11.1376 24.2658 11.1376C26.0581 11.1376 27.489 12.7329 27.4609 14.663C27.4609 16.6064 26.0596 18.1884 24.2658 18.1884Z" fill="url(#paint0_linear_102_93)"/>
<defs>
<linearGradient id="paint0_linear_102_93" x1="-43.1518" y1="4.35506" x2="30.3902" y2="-44.3105" gradientUnits="userSpaceOnUse">
<stop stop-color="#D43FEC"/>
<stop offset="1" stop-color="#3F65EC"/>
</linearGradient>
</defs>
</svg>
