<svg width="37" height="100" viewBox="0 0 37 100" fill="none" xmlns="http://www.w3.org/2000/svg">
<g filter="url(#filter0_f_157_43)">
<path d="M19.0363 21.9291V20.3735H18.7663L18.5121 20.4645L19.0363 21.9291ZM31.3719 21.9291H32.9275V20.3735H31.3719V21.9291ZM31.3719 78V79.5556H32.9275V78H31.3719ZM17.0337 78H15.4781V79.5556H17.0337V78ZM17.0337 36.9881H18.5894V34.9878L16.6506 35.4804L17.0337 36.9881ZM7.26139 39.4713L5.76527 39.8973L6.1793 41.3513L7.64449 40.979L7.26139 39.4713ZM3.81704 27.376L3.29285 25.9113L1.9222 26.4019L2.32091 27.802L3.81704 27.376ZM19.0363 23.4847H31.3719V20.3735H19.0363V23.4847ZM29.8163 21.9291V78H32.9275V21.9291H29.8163ZM31.3719 76.4444H17.0337V79.5556H31.3719V76.4444ZM18.5894 78V36.9881H15.4781V78H18.5894ZM16.6506 35.4804L6.87829 37.9636L7.64449 40.979L17.4169 38.4958L16.6506 35.4804ZM8.75752 39.0452L5.31316 26.9499L2.32091 27.802L5.76527 39.8973L8.75752 39.0452ZM4.34122 28.8406L19.5605 23.3937L18.5121 20.4645L3.29285 25.9113L4.34122 28.8406Z" fill="url(#paint0_linear_157_43)"/>
</g>
<path d="M19.0363 21.9291V21.4291H18.9495L18.8678 21.4583L19.0363 21.9291ZM31.3719 21.9291H31.8719V21.4291H31.3719V21.9291ZM31.3719 78V78.5H31.8719V78H31.3719ZM17.0337 78H16.5337V78.5H17.0337V78ZM17.0337 36.9881H17.5337V36.3452L16.9106 36.5035L17.0337 36.9881ZM7.26139 39.4713L6.78051 39.6082L6.91359 40.0755L7.38453 39.9559L7.26139 39.4713ZM3.81704 27.376L3.64855 26.9052L3.208 27.0629L3.33615 27.5129L3.81704 27.376ZM19.0363 22.4291H31.3719V21.4291H19.0363V22.4291ZM30.8719 21.9291V78H31.8719V21.9291H30.8719ZM31.3719 77.5H17.0337V78.5H31.3719V77.5ZM17.5337 78V36.9881H16.5337V78H17.5337ZM16.9106 36.5035L7.13825 38.9867L7.38453 39.9559L17.1569 37.4727L16.9106 36.5035ZM7.74227 39.3343L4.29792 27.239L3.33615 27.5129L6.78051 39.6082L7.74227 39.3343ZM3.98552 27.8467L19.2048 22.3998L18.8678 21.4583L3.64855 26.9052L3.98552 27.8467Z" fill="white"/>
<defs>
<filter id="filter0_f_157_43" x="0.799507" y="18.9113" width="33.5904" height="62.1066" filterUnits="userSpaceOnUse" color-interpolation-filters="sRGB">
<feFlood flood-opacity="0" result="BackgroundImageFix"/>
<feBlend mode="normal" in="SourceGraphic" in2="BackgroundImageFix" result="shape"/>
<feGaussianBlur stdDeviation="1.50894" result="effect1_foregroundBlur_157_43"/>
</filter>
<linearGradient id="paint0_linear_157_43" x1="5.16151" y1="1.06607e-05" x2="38.6366" y2="0.622928" gradientUnits="userSpaceOnUse">
<stop stop-color="#3F65EC"/>
<stop offset="1" stop-color="#D43FEC"/>
</linearGradient>
</defs>
</svg>
