<svg width="47" height="101" viewBox="0 0 47 101" fill="none" xmlns="http://www.w3.org/2000/svg">
<g filter="url(#filter0_f_157_44)">
<path d="M43.342 72V73.5556H44.8976V72H43.342ZM4.09233 72H2.53672V73.5556H4.09233V72ZM4.09233 61.5868L2.96279 60.5172L2.53672 60.9672V61.5868H4.09233ZM22.6758 41.962L23.8054 43.0316L23.8111 43.0256L23.8168 43.0195L22.6758 41.962ZM26.8411 36.9156L25.5381 36.0659L25.5334 36.0731L25.5287 36.0805L26.8411 36.9156ZM26.6809 29.9468L25.5809 31.0468L25.6153 31.0811L25.6517 31.1133L26.6809 29.9468ZM15.5468 34.5126L14.7883 35.8708L16.3013 36.7157L16.9787 35.1206L15.5468 34.5126ZM3.21121 27.6239L1.78138 27.0111L1.22946 28.2989L2.45275 28.9821L3.21121 27.6239ZM11.0611 18.0918L10.226 16.7794L10.2169 16.7852L11.0611 18.0918ZM36.6135 19.5336L35.6094 20.7218L35.6184 20.7294L35.6275 20.7369L36.6135 19.5336ZM40.218 41.3212L41.5929 42.0491L41.5986 42.038L40.218 41.3212ZM33.4094 50.2124L32.2909 49.1313L32.287 49.1354L33.4094 50.2124ZM25.7998 58.1425L24.6774 57.0654L22.1511 59.6981H25.7998V58.1425ZM43.342 58.1425H44.8976V56.5869H43.342V58.1425ZM43.342 70.4444H4.09233V73.5556H43.342V70.4444ZM5.64793 72V61.5868H2.53672V72H5.64793ZM5.22186 62.6564L23.8054 43.0316L21.5463 40.8924L2.96279 60.5172L5.22186 62.6564ZM23.8168 43.0195C25.8546 40.8207 27.3254 39.0521 28.1535 37.7508L25.5287 36.0805C24.8616 37.1288 23.5555 38.7244 21.5349 40.9046L23.8168 43.0195ZM28.1441 37.7654C29.069 36.3471 29.5982 34.8547 29.5982 33.3111H26.487C26.487 34.1171 26.2152 35.0277 25.5381 36.0659L28.1441 37.7654ZM29.5982 33.3111C29.5982 31.5162 29.0167 29.9333 27.7101 28.7804L25.6517 31.1133C26.1607 31.5624 26.487 32.2223 26.487 33.3111H29.5982ZM27.7809 28.8468C26.5587 27.6246 24.9158 27.1096 23.0763 27.1096V30.2208C24.3341 30.2208 25.0943 30.5602 25.5809 31.0468L27.7809 28.8468ZM23.0763 27.1096C21.0704 27.1096 19.2611 27.699 17.7166 28.8984C16.1939 30.081 15.0131 31.7896 14.115 33.9045L16.9787 35.1206C17.7359 33.3374 18.6378 32.1222 19.6249 31.3557C20.5902 30.606 21.718 30.2208 23.0763 30.2208V27.1096ZM16.3053 33.1544L3.96967 26.2657L2.45275 28.9821L14.7883 35.8708L16.3053 33.1544ZM4.64104 28.2367C6.29193 24.3846 8.71575 21.4594 11.9054 19.3984L10.2169 16.7852C6.46442 19.2099 3.65495 22.6395 1.78138 27.0111L4.64104 28.2367ZM11.8963 19.4042C15.1588 17.3281 18.8181 16.2832 22.9161 16.2832V13.172C18.2564 13.172 14.0124 14.3699 10.226 16.7794L11.8963 19.4042ZM22.9161 16.2832C27.9187 16.2832 32.1208 17.7737 35.6094 20.7218L37.6175 18.3455C33.5232 14.8855 28.5938 13.172 22.9161 13.172V16.2832ZM35.6275 20.7369C39.0704 23.5581 40.8251 27.4196 40.8251 32.5101H43.9364C43.9364 26.5999 41.8463 21.8105 37.5994 18.3304L35.6275 20.7369ZM40.8251 32.5101C40.8251 35.3551 40.1655 38.0466 38.8374 40.6044L41.5986 42.038C43.1542 39.0421 43.9364 35.8595 43.9364 32.5101H40.8251ZM38.8432 40.5934C37.4928 43.1441 35.3276 45.9899 32.2909 49.1313L34.5279 51.2936C37.6857 48.0269 40.0596 44.9452 41.5928 42.0491L38.8432 40.5934ZM32.287 49.1354L24.6774 57.0654L26.9222 59.2195L34.5318 51.2895L32.287 49.1354ZM25.7998 59.6981H43.342V56.5869H25.7998V59.6981ZM41.7864 58.1425V72H44.8976V58.1425H41.7864Z" fill="url(#paint0_linear_157_44)"/>
</g>
<path d="M43.342 72V72.5H43.842V72H43.342ZM4.09233 72H3.59233V72.5H4.09233V72ZM4.09233 61.5868L3.72927 61.243L3.59233 61.3877V61.5868H4.09233ZM22.6758 41.962L23.0389 42.3058L23.0425 42.3019L22.6758 41.962ZM26.8411 36.9156L26.4223 36.6425L26.4193 36.6472L26.8411 36.9156ZM26.6809 29.9468L26.3273 30.3004L26.3384 30.3114L26.3501 30.3217L26.6809 29.9468ZM15.5468 34.5126L15.303 34.9491L15.7893 35.2207L16.007 34.708L15.5468 34.5126ZM3.21121 27.6239L2.75164 27.4269L2.57424 27.8409L2.96743 28.0604L3.21121 27.6239ZM11.0611 18.0918L10.7927 17.67L10.7898 17.6719L11.0611 18.0918ZM36.6135 19.5336L36.2907 19.9156L36.2965 19.9204L36.6135 19.5336ZM40.218 41.3212L40.6599 41.5552L40.6618 41.5516L40.218 41.3212ZM33.4094 50.2124L33.0499 49.8649L33.0486 49.8663L33.4094 50.2124ZM25.7998 58.1425L25.439 57.7963L24.627 58.6425H25.7998V58.1425ZM43.342 58.1425H43.842V57.6425H43.342V58.1425ZM43.342 71.5H4.09233V72.5H43.342V71.5ZM4.59233 72V61.5868H3.59233V72H4.59233ZM4.45538 61.9306L23.0389 42.3058L22.3128 41.6182L3.72927 61.243L4.45538 61.9306ZM23.0425 42.3019C25.0745 40.1095 26.4894 38.3995 27.2629 37.1841L26.4193 36.6472C25.6975 37.7814 24.3356 39.4357 22.3091 41.6221L23.0425 42.3019ZM27.2599 37.1888C28.1008 35.8995 28.5426 34.6044 28.5426 33.3111H27.5426C27.5426 34.3673 27.1835 35.4754 26.4223 36.6425L27.2599 37.1888ZM28.5426 33.3111C28.5426 31.7558 28.0477 30.486 27.0117 29.5719L26.3501 30.3217C27.1297 31.0096 27.5426 31.9827 27.5426 33.3111H28.5426ZM27.0344 29.5933C26.0618 28.6206 24.7184 28.1652 23.0763 28.1652V29.1652C24.5315 29.1652 25.5911 29.5642 26.3273 30.3004L27.0344 29.5933ZM23.0763 28.1652C21.2901 28.1652 19.7121 28.6853 18.3641 29.7321C17.0231 30.7736 15.9369 32.3147 15.0866 34.3172L16.007 34.708C16.8121 32.8122 17.8086 31.4297 18.9774 30.5219C20.1393 29.6197 21.4983 29.1652 23.0763 29.1652V28.1652ZM15.7906 34.076L3.45499 27.1873L2.96743 28.0604L15.303 34.9491L15.7906 34.076ZM3.67078 27.8208C5.39723 23.7925 7.95189 20.6962 11.3325 18.5118L10.7898 17.6719C7.22827 19.9731 4.54965 23.2316 2.75164 27.4269L3.67078 27.8208ZM11.3296 18.5137C14.7698 16.3244 18.6275 15.2276 22.9161 15.2276V14.2276C18.447 14.2276 14.4013 15.3736 10.7927 17.67L11.3296 18.5137ZM22.9161 15.2276C28.1477 15.2276 32.5966 16.7938 36.2907 19.9155L36.9362 19.1518C33.0474 15.8654 28.3647 14.2276 22.9161 14.2276V15.2276ZM36.2965 19.9204C40.0122 22.9652 41.8807 27.1415 41.8807 32.5101H42.8807C42.8807 26.878 40.9044 22.4034 36.9304 19.1469L36.2965 19.9204ZM41.8807 32.5101C41.8807 35.5263 41.1795 38.3844 39.7743 41.0908L40.6618 41.5516C42.1401 38.7043 42.8807 35.6884 42.8807 32.5101H41.8807ZM39.7761 41.0873C38.3637 43.7552 36.1277 46.681 33.0499 49.8649L33.7689 50.56C36.8856 47.3358 39.1887 44.3341 40.6599 41.5551L39.7761 41.0873ZM33.0486 49.8663L25.439 57.7963L26.1605 58.4887L33.7702 50.5586L33.0486 49.8663ZM25.7998 58.6425H43.342V57.6425H25.7998V58.6425ZM42.842 58.1425V72H43.842V58.1425H42.842Z" fill="white"/>
<defs>
<filter id="filter0_f_157_44" x="0.193062" y="11.7097" width="46.1666" height="63.3082" filterUnits="userSpaceOnUse" color-interpolation-filters="sRGB">
<feFlood flood-opacity="0" result="BackgroundImageFix"/>
<feBlend mode="normal" in="SourceGraphic" in2="BackgroundImageFix" result="shape"/>
<feGaussianBlur stdDeviation="1.50894" result="effect1_foregroundBlur_157_44"/>
</filter>
<linearGradient id="paint0_linear_157_44" x1="4.79725" y1="1.07673e-05" x2="48.1083" y2="1.03268" gradientUnits="userSpaceOnUse">
<stop stop-color="#3F65EC"/>
<stop offset="1" stop-color="#D43FEC"/>
</linearGradient>
</defs>
</svg>
