<svg width="47" height="101" viewBox="0 0 47 101" fill="none" xmlns="http://www.w3.org/2000/svg">
<g filter="url(#filter0_f_157_45)">
<path d="M41.3078 27.2234L42.5152 28.2043L42.8634 27.7757V27.2234H41.3078ZM31.936 38.758L30.7286 37.777L29.2762 39.5647L31.477 40.2443L31.936 38.758ZM40.5869 44.6054L39.3539 45.5538L39.3641 45.567L39.3745 45.58L40.5869 44.6054ZM37.9436 68.3153L38.9411 69.509L38.9426 69.5077L37.9436 68.3153ZM10.7892 69.9975L9.97726 71.3243L9.98451 71.3288L9.99181 71.3331L10.7892 69.9975ZM3.09951 60.5455L2.32864 59.1943L1.17601 59.8519L1.64373 61.0938L3.09951 60.5455ZM15.5953 53.4165L17.0847 52.9676L16.5211 51.0974L14.8244 52.0653L15.5953 53.4165ZM27.9309 57.8221L26.9185 56.641L26.9042 56.6532L26.8903 56.6658L27.9309 57.8221ZM27.9309 50.2124L26.8903 51.3687L26.9205 51.3959L26.9521 51.4215L27.9309 50.2124ZM20.2412 48.7706L18.9527 49.6422L19.4154 50.3262H20.2412V48.7706ZM14.7142 40.6003L13.5098 39.6157L12.7767 40.5125L13.4257 41.4719L14.7142 40.6003ZM23.6855 29.6264L24.8899 30.611L26.9666 28.0708H23.6855V29.6264ZM4.86173 29.6264H3.30613V31.182H4.86173V29.6264ZM4.86173 15.9291V14.3735H3.30613V15.9291H4.86173ZM41.3078 15.9291H42.8634V14.3735H41.3078V15.9291ZM40.1005 26.2424L30.7286 37.777L33.1433 39.7389L42.5152 28.2043L40.1005 26.2424ZM31.477 40.2443C34.8282 41.2793 37.4308 43.0538 39.3539 45.5538L41.8199 43.6569C39.4709 40.6032 36.3062 38.4795 32.395 37.2716L31.477 40.2443ZM39.3745 45.58C41.3225 48.0031 42.3155 50.9085 42.3155 54.3777H45.4267C45.4267 50.264 44.2302 46.6545 41.7993 43.6307L39.3745 45.58ZM42.3155 54.3777C42.3155 59.9805 40.485 64.1566 36.9445 67.1229L38.9426 69.5077C43.3055 65.8524 45.4267 60.7368 45.4267 54.3777H42.3155ZM36.9461 67.1216C33.3705 70.1094 28.8546 71.6459 23.285 71.6459V74.7571C29.4637 74.7571 34.7201 73.0362 38.9411 69.509L36.9461 67.1216ZM23.285 71.6459C18.7729 71.6459 14.8911 70.6346 11.5866 68.6618L9.99181 71.3331C13.8431 73.6324 18.2918 74.7571 23.285 74.7571V71.6459ZM11.6012 68.6706C8.33332 66.6708 5.98814 63.8017 4.55529 59.9972L1.64373 61.0938C3.30812 65.5131 6.08943 68.9452 9.97726 71.3243L11.6012 68.6706ZM3.87037 61.8967L16.3662 54.7677L14.8244 52.0653L2.32864 59.1943L3.87037 61.8967ZM14.1059 53.8654C14.7628 56.0451 15.8524 57.8199 17.4573 59.0403C19.0664 60.2639 21.0481 60.8195 23.285 60.8195V57.7083C21.5703 57.7083 20.2945 57.2893 19.3405 56.5638C18.3821 55.835 17.6027 54.6861 17.0847 52.9676L14.1059 53.8654ZM23.285 60.8195C25.5408 60.8195 27.5191 60.2856 28.9716 58.9783L26.8903 56.6658C26.2067 57.281 25.0878 57.7083 23.285 57.7083V60.8195ZM28.9433 59.0032C30.4412 57.7192 31.1686 55.9899 31.1686 53.9772H28.0574C28.0574 55.1686 27.6634 56.0025 26.9185 56.641L28.9433 59.0032ZM31.1686 53.9772C31.1686 51.9646 30.4393 50.2416 28.9097 49.0034L26.9521 51.4215C27.6653 51.9989 28.0574 52.7858 28.0574 53.9772H31.1686ZM28.9716 49.0562C27.5191 47.7489 25.5408 47.215 23.285 47.215V50.3262C25.0878 50.3262 26.2067 50.7535 26.8903 51.3687L28.9716 49.0562ZM23.285 47.215H20.2412V50.3262H23.285V47.215ZM21.5297 47.899L16.0027 39.7287L13.4257 41.4719L18.9527 49.6422L21.5297 47.899ZM15.9186 41.5849L24.8899 30.611L22.4812 28.6418L13.5098 39.6157L15.9186 41.5849ZM23.6855 28.0708H4.86173V31.182H23.6855V28.0708ZM6.41734 29.6264V15.9291H3.30613V29.6264H6.41734ZM4.86173 17.4847H41.3078V14.3735H4.86173V17.4847ZM39.7522 15.9291V27.2234H42.8634V15.9291H39.7522Z" fill="url(#paint0_linear_157_45)"/>
</g>
<path d="M41.3078 27.2234L41.6959 27.5387L41.8078 27.4009V27.2234H41.3078ZM31.936 38.758L31.5479 38.4427L31.0811 39.0172L31.7884 39.2357L31.936 38.758ZM40.5869 44.6054L40.1905 44.9103L40.1972 44.9186L40.5869 44.6054ZM37.9436 68.3153L38.2642 68.699L38.2647 68.6986L37.9436 68.3153ZM10.7892 69.9975L10.5282 70.424L10.5329 70.4268L10.7892 69.9975ZM3.09951 60.5455L2.85174 60.1112L2.48126 60.3226L2.63159 60.7217L3.09951 60.5455ZM15.5953 53.4165L16.074 53.2722L15.8929 52.6711L15.3475 52.9822L15.5953 53.4165ZM27.9309 57.8221L27.6054 57.4423L27.5964 57.4504L27.9309 57.8221ZM27.9309 50.2124L27.5964 50.5841L27.6061 50.5928L27.6163 50.6011L27.9309 50.2124ZM20.2412 48.7706L19.827 49.0508L19.9758 49.2706H20.2412V48.7706ZM14.7142 40.6003L14.3271 40.2838L14.0914 40.5721L14.3001 40.8804L14.7142 40.6003ZM23.6855 29.6264L24.0726 29.9429L24.7401 29.1264H23.6855V29.6264ZM4.86173 29.6264H4.36173V30.1264H4.86173V29.6264ZM4.86173 15.9291V15.4291H4.36173V15.9291H4.86173ZM41.3078 15.9291H41.8078V15.4291H41.3078V15.9291ZM40.9198 26.9081L31.5479 38.4427L32.324 39.0733L41.6959 27.5387L40.9198 26.9081ZM31.7884 39.2357C35.3297 40.3293 38.123 42.2224 40.1906 44.9102L40.9832 44.3005C38.7787 41.4347 35.8048 39.4294 32.0835 38.2802L31.7884 39.2357ZM40.1972 44.9186C42.309 47.5455 43.3711 50.6898 43.3711 54.3777H44.3711C44.3711 50.4827 43.2437 47.1121 40.9766 44.2921L40.1972 44.9186ZM43.3711 54.3777C43.3711 60.2371 41.442 64.732 37.6225 67.9321L38.2647 68.6986C42.3485 65.277 44.3711 60.4802 44.3711 54.3777H43.3711ZM37.623 67.9317C33.8284 71.1024 29.0612 72.7015 23.285 72.7015V73.7015C29.257 73.7015 34.2622 72.0431 38.2642 68.699L37.623 67.9317ZM23.285 72.7015C18.6097 72.7015 14.5355 71.6517 11.0455 69.5682L10.5329 70.4268C14.1987 72.6153 18.455 73.7015 23.285 73.7015V72.7015ZM11.0502 69.571C7.57199 67.4425 5.07883 64.3823 3.56742 60.3693L2.63159 60.7217C4.21743 64.9324 6.85076 68.1735 10.5282 70.424L11.0502 69.571ZM3.34728 60.9798L15.8431 53.8508L15.3475 52.9822L2.85174 60.1112L3.34728 60.9798ZM15.1166 53.5608C15.7263 55.584 16.7107 57.1465 18.0962 58.2C19.4831 59.2547 21.2253 59.7639 23.285 59.7639V58.7639C21.3931 58.7639 19.8778 58.2986 18.7015 57.404C17.5238 56.5085 16.6391 55.1472 16.074 53.2722L15.1166 53.5608ZM23.285 59.7639C25.3871 59.7639 27.0738 59.2662 28.2654 58.1937L27.5964 57.4504C26.652 58.3004 25.2415 58.7639 23.285 58.7639V59.7639ZM28.2563 58.2017C29.4987 57.1368 30.113 55.7112 30.113 53.9772H29.113C29.113 55.4473 28.6059 56.585 27.6055 57.4424L28.2563 58.2017ZM30.113 53.9772C30.113 52.2432 29.4981 50.8379 28.2455 49.8238L27.6163 50.6011C28.6065 51.4027 29.113 52.5072 29.113 53.9772H30.113ZM28.2654 49.8408C27.0738 48.7684 25.3871 48.2706 23.285 48.2706V49.2706C25.2415 49.2706 26.652 49.7341 27.5964 50.5841L28.2654 49.8408ZM23.285 48.2706H20.2412V49.2706H23.285V48.2706ZM20.6553 48.4905L15.1283 40.3201L14.3001 40.8804L19.827 49.0508L20.6553 48.4905ZM15.1013 40.9168L24.0726 29.9429L23.2984 29.3099L14.3271 40.2838L15.1013 40.9168ZM23.6855 29.1264H4.86173V30.1264H23.6855V29.1264ZM5.36173 29.6264V15.9291H4.36173V29.6264H5.36173ZM4.86173 16.4291H41.3078V15.4291H4.86173V16.4291ZM40.8078 15.9291V27.2234H41.8078V15.9291H40.8078Z" fill="white"/>
<defs>
<filter id="filter0_f_157_45" x="0.0817335" y="12.9113" width="46.8072" height="63.3082" filterUnits="userSpaceOnUse" color-interpolation-filters="sRGB">
<feFlood flood-opacity="0" result="BackgroundImageFix"/>
<feBlend mode="normal" in="SourceGraphic" in2="BackgroundImageFix" result="shape"/>
<feGaussianBlur stdDeviation="1.50894" result="effect1_foregroundBlur_157_45"/>
</filter>
<linearGradient id="paint0_linear_157_45" x1="4.79725" y1="1.07673e-05" x2="48.1083" y2="1.03268" gradientUnits="userSpaceOnUse">
<stop stop-color="#3F65EC"/>
<stop offset="1" stop-color="#D43FEC"/>
</linearGradient>
</defs>
</svg>
