<svg width="162" height="36" viewBox="0 0 162 36" fill="none" xmlns="http://www.w3.org/2000/svg">
<path d="M17.5914 31.6998L15.9369 26.939H5.87506L4.22059 31.6998H0L8.57623 8.06456H13.2358L21.7782 31.6998H17.5914ZM7.15811 23.2924H14.6539L10.906 12.6228L7.15811 23.2924Z" fill="white"/>
<path d="M34.1116 18.1264V14.6824H48.6304V18.1264H34.1116ZM34.1116 25.0482V21.6042H48.6304V25.0482H34.1116Z" fill="white"/>
<path d="M71.8697 8.06456C74.0982 8.06456 75.9552 8.80739 77.4409 10.293C78.949 11.7787 79.7031 13.6245 79.7031 15.8304C79.7031 18.0139 78.949 19.8597 77.4409 21.3678C75.9552 22.8535 74.0982 23.5963 71.8697 23.5963H67.0414V31.6998H63.1584V8.06456H71.8697ZM71.8697 19.9497C73.0177 19.9497 73.9631 19.5671 74.706 18.8017C75.4488 18.0139 75.8202 17.0235 75.8202 15.8304C75.8202 14.6374 75.4488 13.6582 74.706 12.8929C73.9631 12.1051 73.0177 11.7112 71.8697 11.7112H67.0414V19.9497H71.8697Z" fill="white"/>
<path d="M87.2949 35.0763C84.8188 30.1242 83.5808 25.0595 83.5808 19.8822C83.5808 14.705 84.8188 9.64025 87.2949 4.6881H90.9415C88.4654 9.64025 87.2274 14.705 87.2274 19.8822C87.2274 25.0595 88.4654 30.1242 90.9415 35.0763H87.2949Z" fill="white"/>
<path d="M99.2803 8.06456H102.657V31.6998H98.7738V12.2176L94.013 13.5682L93.0676 10.2593L99.2803 8.06456Z" fill="white"/>
<path d="M122.918 18.1602V21.6042H117.212V27.3104H113.768V21.6042H108.062V18.1602H113.768V12.454H117.212V18.1602H122.918Z" fill="white"/>
<path d="M131.555 17.6537C132.478 15.5603 134.211 14.5136 136.755 14.5136V18.4641C135.359 18.374 134.144 18.7117 133.108 19.477C132.073 20.2199 131.555 21.4579 131.555 23.1911V31.6998H127.909V14.8175H131.555V17.6537Z" fill="white"/>
<path d="M142.657 35.0763H139.01C141.486 30.1242 142.724 25.0595 142.724 19.8822C142.724 14.705 141.486 9.64025 139.01 4.6881H142.657C145.133 9.64025 146.371 14.705 146.371 19.8822C146.371 25.0595 145.133 30.1242 142.657 35.0763Z" fill="white"/>
<path d="M156.733 0C158.157 0 159.308 0.45535 160.185 1.36605C161.063 2.27675 161.501 3.5269 161.501 5.11648V12.7415H158.819V5.38969C158.819 4.46243 158.571 3.75043 158.074 3.25368C157.577 2.75694 156.898 2.50857 156.037 2.50857C155.093 2.50857 154.332 2.80661 153.752 3.40271C153.173 3.98225 152.883 4.87639 152.883 6.08514V12.7415H150.201V0.322885H152.883V1.91247C153.694 0.637491 154.978 0 156.733 0Z" fill="white"/>
</svg>
