<svg width="176" height="76" viewBox="0 0 176 76" fill="none" xmlns="http://www.w3.org/2000/svg">
<g filter="url(#filter0_f_114_15)">
<g filter="url(#filter1_f_114_15)">
<path d="M26.2684 29.94V27.8726H24.2011V29.94H26.2684ZM47.4484 29.94H49.5158V27.8726H47.4484V29.94ZM41.6284 49.2L43.075 50.677L43.0827 50.6694L41.6284 49.2ZM10.4284 48.6L8.96659 50.0618L8.97349 50.0687L8.98045 50.0756L10.4284 48.6ZM10.4284 17.46L8.95967 16.0051L8.95287 16.012L10.4284 17.46ZM36.7684 13.74L35.7909 15.5617L35.7991 15.566L36.7684 13.74ZM44.4484 20.76L45.4754 22.5542L47.3542 21.4789L46.1936 19.6516L44.4484 20.76ZM35.3284 25.98L33.5843 27.0899L34.6434 28.7542L36.3554 27.7742L35.3284 25.98ZM31.6084 22.8L32.5148 20.9419L32.5148 20.9419L31.6084 22.8ZM17.9884 24.84L16.513 23.3919L16.5064 23.3986L16.4998 23.4055L17.9884 24.84ZM17.9284 41.34L16.4262 42.7603L16.4269 42.7611L17.9284 41.34ZM36.4684 39.18L38.3718 39.9869L39.5903 37.1126H36.4684V39.18ZM26.2684 39.18H24.2011V41.2474H26.2684V39.18ZM26.2684 32.0074H47.4484V27.8726H26.2684V32.0074ZM45.3811 29.94V34.2H49.5158V29.94H45.3811ZM45.3811 34.2C45.3811 39.8854 43.61 44.3302 40.1742 47.7306L43.0827 50.6694C47.4069 46.3898 49.5158 40.8346 49.5158 34.2H45.3811ZM40.1819 47.723C36.7385 51.0954 32.2822 52.8326 26.6284 52.8326V56.9674C33.2147 56.9674 38.7584 54.9046 43.075 50.677L40.1819 47.723ZM26.6284 52.8326C20.598 52.8326 15.7343 50.9102 11.8764 47.1244L8.98045 50.0756C13.6825 54.6898 19.6189 56.9674 26.6284 56.9674V52.8326ZM11.8903 47.1382C8.09376 43.3416 6.1958 38.6944 6.1958 33.06H2.06108C2.06108 39.7456 4.36312 45.4584 8.96659 50.0618L11.8903 47.1382ZM6.1958 33.06C6.1958 27.4691 8.09195 22.7927 11.904 18.908L8.95287 16.012C4.36493 20.6873 2.06108 26.4109 2.06108 33.06H6.1958ZM11.8972 18.9149C15.6924 15.0836 20.3562 13.1674 26.0284 13.1674V9.03263C19.3007 9.03263 13.5645 11.3564 8.95968 16.0051L11.8972 18.9149ZM26.0284 13.1674C29.5823 13.1674 32.8244 13.9699 35.791 15.5617L37.7459 11.9183C34.1524 9.99011 30.2346 9.03263 26.0284 9.03263V13.1674ZM35.7991 15.566C38.7379 17.1261 41.0244 19.2249 42.7033 21.8684L46.1936 19.6516C44.1125 16.3751 41.279 13.7939 37.7378 11.914L35.7991 15.566ZM43.4215 18.9658L34.3015 24.1858L36.3554 27.7742L45.4754 22.5542L43.4215 18.9658ZM37.0726 24.8701C35.9957 23.1778 34.4399 21.881 32.5148 20.9419L30.7021 24.6581C32.057 25.319 32.9812 26.1422 33.5843 27.0899L37.0726 24.8701ZM32.5148 20.9419C30.5662 19.9914 28.4319 19.5326 26.1484 19.5326V23.6674C27.865 23.6674 29.3707 24.0086 30.7021 24.6581L32.5148 20.9419ZM26.1484 19.5326C22.3328 19.5326 19.0614 20.7953 16.513 23.3919L19.4639 26.2881C21.1554 24.5647 23.3241 23.6674 26.1484 23.6674V19.5326ZM16.4998 23.4055C13.9747 26.0259 12.7411 29.3158 12.7411 33.12H16.8758C16.8758 30.2842 17.7622 28.0541 19.4771 26.2745L16.4998 23.4055ZM12.7411 33.12C12.7411 36.8801 13.9515 40.1428 16.4262 42.7603L19.4307 39.9197C17.7454 38.1372 16.8758 35.9199 16.8758 33.12H12.7411ZM16.4269 42.7611C19.0248 45.506 22.5816 46.7674 26.8084 46.7674V42.6326C23.4353 42.6326 21.0721 41.654 19.43 39.9189L16.4269 42.7611ZM26.8084 46.7674C29.498 46.7674 31.9032 46.2612 33.9091 45.115C35.9432 43.9526 37.4299 42.209 38.3718 39.9869L34.565 38.3731C33.947 39.831 33.0437 40.8474 31.8577 41.525C30.6436 42.2188 28.9989 42.6326 26.8084 42.6326V46.7674ZM36.4684 37.1126H26.2684V41.2474H36.4684V37.1126ZM28.3358 39.18V29.94H24.2011V39.18H28.3358ZM90.2477 48.6L91.6957 50.0756L91.7026 50.0687L91.7095 50.0618L90.2477 48.6ZM58.9877 48.6L57.5258 50.0619L57.5328 50.0688L58.9877 48.6ZM58.9877 17.46L60.4426 18.9288L60.4495 18.9218L58.9877 17.46ZM90.2477 17.46L88.7858 18.9218L88.7927 18.9287L88.7997 18.9356L90.2477 17.46ZM66.5477 41.22L65.0858 42.6818L65.0993 42.6954L65.1131 42.7087L66.5477 41.22ZM82.7477 41.22L84.1822 42.7087L84.196 42.6954L84.2095 42.6818L82.7477 41.22ZM82.7477 24.84L81.2858 26.3018L81.2996 26.3156L81.3137 26.3292L82.7477 24.84ZM66.5477 24.84L67.9817 26.3292L67.9957 26.3156L68.0095 26.3018L66.5477 24.84ZM88.7997 47.1244C84.915 50.9365 80.2386 52.8326 74.6477 52.8326V56.9674C81.2967 56.9674 87.0203 54.6635 91.6957 50.0756L88.7997 47.1244ZM74.6477 52.8326C68.969 52.8326 64.279 50.9315 60.4426 47.1312L57.5328 50.0688C62.1763 54.6685 67.9264 56.9674 74.6477 56.9674V52.8326ZM60.4495 47.1382C56.6089 43.2975 54.695 38.6285 54.695 33H50.5603C50.5603 39.6915 52.8864 45.4224 57.5258 50.0618L60.4495 47.1382ZM54.695 33C54.695 27.3718 56.6084 22.7267 60.4426 18.9288L57.5328 15.9912C52.8869 20.5933 50.5603 26.3082 50.5603 33H54.695ZM60.4495 18.9218C64.2873 15.084 68.9751 13.1674 74.6477 13.1674V9.03263C67.9202 9.03263 62.168 11.356 57.5258 15.9982L60.4495 18.9218ZM74.6477 13.1674C80.2761 13.1674 84.9452 15.0812 88.7858 18.9218L91.7095 15.9982C87.0701 11.3588 81.3392 9.03263 74.6477 9.03263V13.1674ZM88.7997 18.9356C92.6715 22.7351 94.6003 27.3781 94.6003 33H98.735C98.735 26.3019 96.3838 20.5849 91.6957 15.9844L88.7997 18.9356ZM94.6003 33C94.6003 38.5785 92.6733 43.2507 88.7858 47.1382L91.7095 50.0618C96.382 45.3893 98.735 39.6615 98.735 33H94.6003ZM65.1131 42.7087C67.7182 45.219 70.9407 46.4674 74.6477 46.4674V42.3326C71.9546 42.3326 69.7772 41.461 67.9822 39.7313L65.1131 42.7087ZM74.6477 46.4674C78.3546 46.4674 81.5772 45.219 84.1822 42.7087L81.3131 39.7313C79.5182 41.461 77.3407 42.3326 74.6477 42.3326V46.4674ZM84.2095 42.6818C86.7928 40.0985 88.055 36.8158 88.055 33H83.9203C83.9203 35.8242 83.0225 38.0215 81.2858 39.7582L84.2095 42.6818ZM88.055 33C88.055 29.1526 86.797 25.8693 84.1817 23.3508L81.3137 26.3292C83.0183 27.9707 83.9203 30.1274 83.9203 33H88.055ZM84.2095 23.3782C81.6365 20.8051 78.399 19.5326 74.6477 19.5326V23.6674C77.3763 23.6674 79.5389 24.5549 81.2858 26.3018L84.2095 23.3782ZM74.6477 19.5326C70.8963 19.5326 67.6589 20.8051 65.0858 23.3782L68.0095 26.3018C69.7565 24.5549 71.919 23.6674 74.6477 23.6674V19.5326ZM65.1136 23.3508C62.4983 25.8693 61.2403 29.1526 61.2403 33H65.375C65.375 30.1274 66.277 27.9707 67.9817 26.3292L65.1136 23.3508ZM61.2403 33C61.2403 36.8158 62.5025 40.0985 65.0858 42.6818L68.0095 39.7582C66.2728 38.0215 65.375 35.8242 65.375 33H61.2403ZM114.19 12H116.257V9.93263H114.19V12ZM114.19 43.62H112.123V45.6874H114.19V43.62ZM128.65 43.62H130.717V41.5526H128.65V43.62ZM128.65 54V56.0674H130.717V54H128.65ZM103.45 54H101.383V56.0674H103.45V54ZM103.45 12V9.93263H101.383V12H103.45ZM112.123 12V43.62H116.257V12H112.123ZM114.19 45.6874H128.65V41.5526H114.19V45.6874ZM126.583 43.62V54H130.717V43.62H126.583ZM128.65 51.9326H103.45V56.0674H128.65V51.9326ZM105.517 54V12H101.383V54H105.517ZM103.45 14.0674H114.19V9.93263H103.45V14.0674ZM134.371 12V9.93263H132.304V12H134.371ZM165.991 48L164.507 46.5604L164.507 46.5606L165.991 48ZM134.371 54H132.304V56.0674H134.371V54ZM145.411 43.62H143.344V45.6874H145.411V43.62ZM158.611 40.74L160.088 42.1864L160.103 42.1708L160.118 42.155L158.611 40.74ZM158.611 25.32L157.104 26.735L157.119 26.7507L157.134 26.766L158.611 25.32ZM145.411 22.38V20.3126H143.344V22.38H145.411ZM134.371 14.0674H151.471V9.93263H134.371V14.0674ZM151.471 14.0674C156.687 14.0674 160.987 15.8713 164.507 19.4996L167.475 16.6204C163.155 12.1687 157.776 9.93263 151.471 9.93263V14.0674ZM164.507 19.4996C168.032 23.1324 169.804 27.5868 169.804 33H173.938C173.938 26.5732 171.79 21.0676 167.475 16.6204L164.507 19.4996ZM169.804 33C169.804 38.4574 168.029 42.9305 164.507 46.5604L167.475 49.4396C171.793 44.9895 173.938 39.4626 173.938 33H169.804ZM164.507 46.5606C161.034 50.1412 156.737 51.9326 151.471 51.9326V56.0674C157.805 56.0674 163.188 53.8588 167.475 49.4394L164.507 46.5606ZM151.471 51.9326H134.371V56.0674H151.471V51.9326ZM136.438 54V12H132.304V54H136.438ZM145.411 45.6874H151.471V41.5526H145.411V45.6874ZM151.471 45.6874C154.863 45.6874 157.789 44.5341 160.088 42.1864L157.134 39.2936C155.673 40.7859 153.84 41.5526 151.471 41.5526V45.6874ZM160.118 42.155C162.385 39.7406 163.438 36.6194 163.438 33H159.304C159.304 35.7806 158.517 37.8194 157.104 39.325L160.118 42.155ZM163.438 33C163.438 29.3519 162.39 26.2256 160.089 23.874L157.134 26.766C158.512 28.1743 159.304 30.1681 159.304 33H163.438ZM160.118 23.905C157.852 21.4904 154.907 20.3126 151.471 20.3126V24.4474C153.875 24.4474 155.691 25.2296 157.104 26.735L160.118 23.905ZM151.471 20.3126H145.411V24.4474H151.471V20.3126ZM143.344 22.38V43.62H147.478V22.38H143.344Z" fill="url(#paint0_linear_114_15)"/>
</g>
<path d="M26.2684 29.94V29.2755H25.604V29.94H26.2684ZM47.4484 29.94H48.1129V29.2755H47.4484V29.94ZM41.6284 49.2L42.0934 49.6747L42.0959 49.6723L41.6284 49.2ZM10.4284 48.6L9.95856 49.0699L9.96303 49.0743L10.4284 48.6ZM10.4284 17.46L9.95635 16.9924L9.95416 16.9946L10.4284 17.46ZM36.7684 13.74L36.4543 14.3255L36.4569 14.3269L36.7684 13.74ZM44.4484 20.76L44.7785 21.3367L45.3824 20.9911L45.0094 20.4037L44.4484 20.76ZM35.3284 25.98L34.7678 26.3367L35.1082 26.8717L35.6585 26.5567L35.3284 25.98ZM31.6084 22.8L31.8998 22.2028L31.8998 22.2028L31.6084 22.8ZM17.9884 24.84L17.5142 24.3745L17.51 24.3789L17.9884 24.84ZM17.9284 41.34L17.4456 41.7965L17.4458 41.7968L17.9284 41.34ZM36.4684 39.18L37.0802 39.4393L37.4719 38.5155H36.4684V39.18ZM26.2684 39.18H25.604V39.8445H26.2684V39.18ZM26.2684 30.6045H47.4484V29.2755H26.2684V30.6045ZM46.784 29.94V34.2H48.1129V29.94H46.784ZM46.784 34.2C46.784 40.2075 44.8983 45.029 41.161 48.7277L42.0959 49.6723C46.1186 45.691 48.1129 40.5125 48.1129 34.2H46.784ZM41.1635 48.7253C37.4238 52.3878 32.5986 54.2355 26.6284 54.2355V55.5645C32.8983 55.5645 38.073 53.6122 42.0934 49.6747L41.1635 48.7253ZM26.6284 54.2355C20.2658 54.2355 15.0382 52.1926 10.8939 48.1257L9.96303 49.0743C14.3787 53.4074 19.9511 55.5645 26.6284 55.5645V54.2355ZM10.8983 48.1301C6.82799 44.0598 4.79293 39.0511 4.79293 33.06H3.46395C3.46395 39.3889 5.62889 44.7402 9.95858 49.0699L10.8983 48.1301ZM4.79293 33.06C4.79293 27.1101 6.82741 22.0783 10.9027 17.9254L9.95416 16.9946C5.62947 21.4017 3.46395 26.7699 3.46395 33.06H4.79293ZM10.9005 17.9276C14.9704 13.819 19.9981 11.7645 26.0284 11.7645V10.4355C19.6588 10.4355 14.2865 12.621 9.95635 16.9924L10.9005 17.9276ZM26.0284 11.7645C29.8036 11.7645 33.275 12.6196 36.4543 14.3255L37.0826 13.1545C33.7019 11.3404 30.0133 10.4355 26.0284 10.4355V11.7645ZM36.4569 14.3269C39.6001 15.9955 42.0722 18.258 43.8875 21.1163L45.0094 20.4037C43.0647 17.342 40.4168 14.9245 37.08 13.1531L36.4569 14.3269ZM44.1184 20.1833L34.9984 25.4033L35.6585 26.5567L44.7785 21.3367L44.1184 20.1833ZM35.889 25.6233C34.9729 24.1836 33.6314 23.0475 31.8998 22.2028L31.3171 23.3972C32.8655 24.1525 34.004 25.1364 34.7678 26.3367L35.889 25.6233ZM31.8998 22.2028C30.1606 21.3544 28.2396 20.9355 26.1484 20.9355V22.2645C28.0573 22.2645 29.7763 22.6456 31.3171 23.3972L31.8998 22.2028ZM26.1484 20.9355C22.6691 20.9355 19.7719 22.0742 17.5142 24.3745L18.4627 25.3055C20.445 23.2858 22.9878 22.2645 26.1484 22.2645V20.9355ZM17.51 24.3789C15.2598 26.714 14.144 29.6444 14.144 33.12H15.4729C15.4729 29.9556 16.4771 27.366 18.4669 25.3011L17.51 24.3789ZM14.144 33.12C14.144 36.5543 15.2387 39.4623 17.4456 41.7965L18.4113 40.8835C16.4582 38.8177 15.4729 36.2457 15.4729 33.12H14.144ZM17.4458 41.7968C19.7194 44.1991 22.8712 45.3645 26.8084 45.3645V44.0355C23.1456 44.0355 20.3774 42.9609 18.4111 40.8832L17.4458 41.7968ZM26.8084 45.3645C29.3286 45.3645 31.4759 44.8896 33.2131 43.8969C34.9594 42.899 36.2482 41.4022 37.0802 39.4393L35.8567 38.9207C35.1287 40.6378 34.0275 41.901 32.5538 42.7431C31.071 43.5903 29.1682 44.0355 26.8084 44.0355V45.3645ZM36.4684 38.5155H26.2684V39.8445H36.4684V38.5155ZM26.9329 39.18V29.94H25.604V39.18H26.9329ZM90.2477 48.6L90.7131 49.0743L90.7175 49.0699L90.2477 48.6ZM58.9877 48.6L58.5178 49.0699L58.52 49.0721L58.9877 48.6ZM58.9877 17.46L59.4553 17.9321L59.4575 17.9299L58.9877 17.46ZM90.2477 17.46L89.7778 17.9299L89.7822 17.9343L90.2477 17.46ZM66.5477 41.22L66.0777 41.6899L66.0866 41.6985L66.5477 41.22ZM82.7477 41.22L83.2088 41.6986L83.2175 41.6899L82.7477 41.22ZM82.7477 24.84L82.2777 25.3099L82.2867 25.3186L82.7477 24.84ZM66.5477 24.84L67.0087 25.3187L67.0175 25.3099L66.5477 24.84ZM89.7822 48.1257C85.6293 52.201 80.5976 54.2355 74.6477 54.2355V55.5645C80.9377 55.5645 86.306 53.399 90.7131 49.0743L89.7822 48.1257ZM74.6477 54.2355C68.6152 54.2355 63.5656 52.1994 59.4553 48.1279L58.52 49.0721C62.8897 53.4006 68.2801 55.5645 74.6477 55.5645V54.2355ZM59.4575 48.1301C55.3459 44.0185 53.2921 38.9892 53.2921 33H51.9632C51.9632 39.3308 54.1494 44.7015 58.5178 49.0699L59.4575 48.1301ZM53.2921 33C53.2921 27.0109 55.3457 22.0029 59.4553 17.9321L58.52 16.9879C54.1496 21.3171 51.9632 26.6691 51.9632 33H53.2921ZM59.4575 17.9299C63.5683 13.8191 68.6172 11.7645 74.6477 11.7645V10.4355C68.2781 10.4355 62.8871 12.6209 58.5178 16.9901L59.4575 17.9299ZM74.6477 11.7645C80.6368 11.7645 85.6662 13.8182 89.7778 17.9299L90.7175 16.9901C86.3492 12.6218 80.9785 10.4355 74.6477 10.4355V11.7645ZM89.7822 17.9343C93.9311 22.0055 96.0032 27.0129 96.0032 33H97.3321C97.3321 26.6671 95.1243 21.3145 90.7131 16.9857L89.7822 17.9343ZM96.0032 33C96.0032 38.946 93.9316 43.9763 89.7778 48.1301L90.7175 49.0699C95.1237 44.6637 97.3321 39.294 97.3321 33H96.0032ZM66.0866 41.6985C68.4168 43.9439 71.2847 45.0645 74.6477 45.0645V43.7355C71.6106 43.7355 69.0786 42.7361 67.0087 40.7415L66.0866 41.6985ZM74.6477 45.0645C78.0106 45.0645 80.8786 43.9439 83.2087 41.6985L82.2866 40.7415C80.2168 42.7361 77.6847 43.7355 74.6477 43.7355V45.0645ZM83.2175 41.6899C85.5136 39.3938 86.6521 36.4794 86.6521 33H85.3232C85.3232 36.1606 84.3017 38.7262 82.2778 40.7501L83.2175 41.6899ZM86.6521 33C86.6521 29.4833 85.5149 26.5823 83.2086 24.3614L82.2867 25.3186C84.3004 27.2577 85.3232 29.7967 85.3232 33H86.6521ZM83.2175 24.3701C80.9248 22.0774 78.052 20.9355 74.6477 20.9355V22.2645C77.7233 22.2645 80.2506 23.2826 82.2778 25.3099L83.2175 24.3701ZM74.6477 20.9355C71.2433 20.9355 68.3706 22.0774 66.0778 24.3701L67.0175 25.3099C69.0448 23.2826 71.572 22.2645 74.6477 22.2645V20.9355ZM66.0867 24.3614C63.7804 26.5823 62.6432 29.4833 62.6432 33H63.9721C63.9721 29.7967 64.9949 27.2577 67.0086 25.3186L66.0867 24.3614ZM62.6432 33C62.6432 36.4794 63.7817 39.3938 66.0778 41.6899L67.0175 40.7501C64.9936 38.7262 63.9721 36.1606 63.9721 33H62.6432ZM114.19 12H114.854V11.3355H114.19V12ZM114.19 43.62H113.526V44.2845H114.19V43.62ZM128.65 43.62H129.314V42.9555H128.65V43.62ZM128.65 54V54.6645H129.314V54H128.65ZM103.45 54H102.786V54.6645H103.45V54ZM103.45 12V11.3355H102.786V12H103.45ZM113.526 12V43.62H114.854V12H113.526ZM114.19 44.2845H128.65V42.9555H114.19V44.2845ZM127.986 43.62V54H129.314V43.62H127.986ZM128.65 53.3355H103.45V54.6645H128.65V53.3355ZM104.114 54V12H102.786V54H104.114ZM103.45 12.6645H114.19V11.3355H103.45V12.6645ZM134.371 12V11.3355H133.707V12H134.371ZM165.991 48L165.514 47.5373L165.514 47.5373L165.991 48ZM134.371 54H133.707V54.6645H134.371V54ZM145.411 43.62H144.747V44.2845H145.411V43.62ZM158.611 40.74L159.086 41.205L159.096 41.1948L158.611 40.74ZM158.611 25.32L158.127 25.7749L158.136 25.7848L158.611 25.32ZM145.411 22.38V21.7155H144.747V22.38H145.411ZM134.371 12.6645H151.471V11.3355H134.371V12.6645ZM151.471 12.6645C157.056 12.6645 161.723 14.615 165.514 18.5227L166.468 17.5973C162.42 13.425 157.406 11.3355 151.471 11.3355V12.6645ZM165.514 18.5227C169.307 22.4318 171.207 27.2429 171.207 33H172.536C172.536 26.9171 170.515 21.7682 166.468 17.5973L165.514 18.5227ZM171.207 33C171.207 38.7985 169.306 43.6291 165.514 47.5373L166.468 48.4627C170.516 44.2909 172.536 39.1215 172.536 33H171.207ZM165.514 47.5373C161.765 51.4025 157.1 53.3355 151.471 53.3355V54.6645C157.443 54.6645 162.457 52.5975 166.468 48.4627L165.514 47.5373ZM151.471 53.3355H134.371V54.6645H151.471V53.3355ZM135.036 54V12H133.707V54H135.036ZM145.411 44.2845H151.471V42.9555H145.411V44.2845ZM151.471 44.2845C154.516 44.2845 157.071 43.2624 159.086 41.2049L158.136 40.2751C156.391 42.0576 154.187 42.9555 151.471 42.9555V44.2845ZM159.096 41.1948C161.073 39.0888 162.036 36.3348 162.036 33H160.707C160.707 36.0652 159.83 38.4712 158.127 40.2852L159.096 41.1948ZM162.036 33C162.036 29.6288 161.074 26.8868 159.086 24.8552L158.136 25.7848C159.828 27.5132 160.707 29.8912 160.707 33H162.036ZM159.096 24.8652C157.118 22.7591 154.557 21.7155 151.471 21.7155V23.0445C154.225 23.0445 156.424 23.9609 158.127 25.7748L159.096 24.8652ZM151.471 21.7155H145.411V23.0445H151.471V21.7155ZM144.747 22.38V43.62H146.076V22.38H144.747Z" fill="white"/>
</g>
<defs>
<filter id="filter0_f_114_15" x="2.12891" y="9.09998" width="171.742" height="47.8" filterUnits="userSpaceOnUse" color-interpolation-filters="sRGB">
<feFlood flood-opacity="0" result="BackgroundImageFix"/>
<feBlend mode="normal" in="SourceGraphic" in2="BackgroundImageFix" result="shape"/>
<feGaussianBlur stdDeviation="1" result="effect1_foregroundBlur_114_15"/>
</filter>
<filter id="filter1_f_114_15" x="0.11822" y="7.08929" width="175.764" height="51.8214" filterUnits="userSpaceOnUse" color-interpolation-filters="sRGB">
<feFlood flood-opacity="0" result="BackgroundImageFix"/>
<feBlend mode="normal" in="SourceGraphic" in2="BackgroundImageFix" result="shape"/>
<feGaussianBlur stdDeviation="2.00534" result="effect1_foregroundBlur_114_15"/>
</filter>
<linearGradient id="paint0_linear_114_15" x1="12.9347" y1="8.10214e-06" x2="179.778" y2="20.6659" gradientUnits="userSpaceOnUse">
<stop stop-color="#E0E408"/>
<stop offset="1" stop-color="#EC883F"/>
</linearGradient>
</defs>
</svg>
