<svg width="10" height="10" viewBox="0 0 10 10" fill="none" xmlns="http://www.w3.org/2000/svg">
<path fill-rule="evenodd" clip-rule="evenodd" d="M5 0.769231C2.66341 0.769231 0.769231 2.66341 0.769231 5C0.769231 7.33659 2.66341 9.23077 5 9.23077C7.33659 9.23077 9.23077 7.33659 9.23077 5C9.23077 2.66341 7.33659 0.769231 5 0.769231ZM0 5C0 2.23858 2.23858 0 5 0C7.76142 0 10 2.23858 10 5C10 7.76142 7.76142 10 5 10C2.23858 10 0 7.76142 0 5ZM5.76923 2.6923C5.76923 3.11714 5.42483 3.46153 5 3.46153C4.57517 3.46153 4.23077 3.11714 4.23077 2.6923C4.23077 2.26747 4.57517 1.92307 5 1.92307C5.42483 1.92307 5.76923 2.26747 5.76923 2.6923ZM5 4.23073C4.57517 4.23073 4.23077 4.57513 4.23077 4.99996V7.30766C4.23077 7.73249 4.57517 8.07689 5 8.07689C5.42483 8.07689 5.76923 7.73249 5.76923 7.30766V4.99996C5.76923 4.57513 5.42483 4.23073 5 4.23073Z" fill="white"/>
</svg>
