<svg width="120" height="43" viewBox="0 0 120 43" fill="none" xmlns="http://www.w3.org/2000/svg">
<rect width="120" height="42.5183" rx="17.3939" fill="url(#paint0_linear_241_443)"/>
<path d="M50.6104 23.1867L55.5741 29.2909H51.6545L47.237 23.6848V29.2909H44.0242V13.2274H47.237V22.6728L51.3172 18.0464H55.4133L50.6104 23.1867V23.1867ZM37.7595 17.7252C37.056 17.7358 36.3656 17.9166 35.7474 18.2523C35.1291 18.588 34.6015 19.0685 34.2095 19.6528V18.0464H31.1735V29.2909H34.3861V24.0381C34.3439 23.6569 34.3807 23.271 34.494 22.9045C34.6074 22.5381 34.795 22.1989 35.0452 21.9081C35.2953 21.6173 35.6026 21.381 35.948 21.2141C36.2933 21.0472 36.6694 20.9531 37.0526 20.9378C38.9161 20.9378 39.2053 22.7691 39.2053 24.0381V29.2909H42.418V23.3313C42.418 19.7974 41.2453 17.7252 37.8238 17.7252H37.7595V17.7252ZM66.5133 23.9257C66.5256 24.1611 66.5256 24.3971 66.5133 24.6325H58.0799V24.745C58.2168 25.4148 58.5879 26.014 59.1267 26.4349C59.6654 26.8559 60.3365 27.0711 61.0196 27.042C61.5615 27.0656 62.1026 26.9796 62.6104 26.7891C63.1183 26.5987 63.5825 26.3078 63.9753 25.9337L66.1118 27.5401C65.4347 28.2311 64.6202 28.7725 63.721 29.1294C62.8218 29.4863 61.8577 29.6508 60.891 29.6122C60.0904 29.6628 59.2883 29.541 58.5389 29.2551C57.7894 28.9691 57.11 28.5256 56.5466 27.9546C55.9832 27.3836 55.5489 26.6983 55.2731 25.9451C54.9972 25.1918 54.8862 24.3882 54.9476 23.5884C54.9311 22.7988 55.0775 22.0143 55.3775 21.2838C55.6776 20.5533 56.1248 19.8924 56.6915 19.3423C57.2582 18.7922 57.932 18.3648 58.6711 18.0865C59.4102 17.8083 60.1987 17.6853 60.9875 17.7252C64.0075 17.7252 66.5133 19.8617 66.5133 23.9257ZM63.5256 22.5442C63.5137 22.226 63.4373 21.9136 63.3008 21.6259C63.1643 21.3382 62.9707 21.0814 62.7317 20.871C62.4928 20.6605 62.2135 20.501 61.9108 20.402C61.6082 20.3031 61.2886 20.2667 60.9715 20.2953C59.5589 20.1426 58.2796 21.1376 58.0799 22.5442H63.5256ZM18.3226 13.2274H15.1099V29.2909H24.748V26.0785H18.3226V13.2274ZM76.1516 13.2274H79.3642V29.2909H76.3281V28.1665C75.9426 28.6414 75.4513 29.0196 74.8934 29.2706C74.3356 29.5217 73.7267 29.6387 73.1155 29.6122C72.3689 29.5931 71.634 29.4214 70.9561 29.1078C70.2782 28.7942 69.6716 28.3452 69.1736 27.7885C68.6756 27.2319 68.2968 26.5792 68.0603 25.8707C67.8238 25.1622 67.7347 24.4128 67.7985 23.6686C67.7226 22.9234 67.8027 22.1705 68.0337 21.4579C68.2647 20.7453 68.6415 20.0886 69.1401 19.5296C69.6387 18.9705 70.2482 18.5214 70.9299 18.2108C71.6115 17.9001 72.3503 17.7348 73.0994 17.7252C73.6573 17.7008 74.2145 17.7876 74.7385 17.9807C75.2625 18.1737 75.7429 18.4691 76.1516 18.8497V13.2274V13.2274ZM76.3924 23.6686C76.443 23.2977 76.4133 22.9203 76.3056 22.5617C76.1979 22.2032 76.0145 21.872 75.7679 21.5903C75.5213 21.3087 75.2171 21.0832 74.876 20.9291C74.5348 20.775 74.1646 20.6958 73.7902 20.6969C72.2534 20.8085 71.0889 22.1301 71.1718 23.6686C71.0889 25.2072 72.2534 26.529 73.7902 26.6405C74.1646 26.6417 74.5348 26.5625 74.876 26.4083C75.2172 26.2542 75.5213 26.0287 75.768 25.7471C76.0146 25.4654 76.1979 25.1341 76.3057 24.7756C76.4134 24.4171 76.443 24.0396 76.3924 23.6686V23.6686ZM27.9608 12.9061C27.4441 12.9134 26.9495 13.1165 26.5768 13.4743C26.2041 13.8321 25.9811 14.3181 25.9527 14.834C25.9527 15.9428 26.8518 16.8418 27.9608 16.8418C29.0697 16.8418 29.9684 15.9426 29.9684 14.834C29.94 14.3181 29.717 13.8323 29.3443 13.4745C28.9717 13.1167 28.4771 12.9136 27.9606 12.9062L27.9608 12.9061ZM26.3544 29.2909H29.5671V18.0464H26.3544V29.2909ZM105.066 11.621V30.8973C105.066 31.3233 104.897 31.7319 104.595 32.0332C104.294 32.3344 103.886 32.5037 103.46 32.5037H84.1833C83.7573 32.5037 83.3487 32.3344 83.0474 32.0332C82.7462 31.7319 82.5769 31.3233 82.5769 30.8973V11.621C82.5769 11.195 82.7462 10.7864 83.0474 10.4851C83.3487 10.1839 83.7573 10.0146 84.1833 10.0146H103.46C103.886 10.0146 104.294 10.1839 104.595 10.4851C104.897 10.7864 105.066 11.195 105.066 11.621V11.621ZM89.0023 18.0464H85.7897V29.2909H89.0023V18.0464ZM89.4039 14.8338C89.4039 13.7248 88.5049 12.8258 87.3961 12.8258C86.2871 12.8258 85.388 13.7248 85.388 14.8338C85.388 15.9426 86.2871 16.8416 87.3961 16.8416C88.5049 16.8416 89.4039 15.9426 89.4039 14.8338V14.8338ZM101.853 23.3313C101.853 19.7974 100.681 17.7252 97.2591 17.7252C96.5447 17.7253 95.8413 17.9011 95.211 18.2373C94.5807 18.5735 94.0427 19.0596 93.6447 19.6528V18.0464H90.6087V29.2909H93.8214V24.0381C93.7792 23.6569 93.816 23.271 93.9294 22.9045C94.0427 22.5381 94.2303 22.1989 94.4805 21.9081C94.7306 21.6173 95.0379 21.381 95.3833 21.2141C95.7286 21.0472 96.1047 20.9531 96.488 20.9378C98.3514 20.9378 98.6406 22.7691 98.6406 24.0381V29.2909H101.853V23.3313Z" fill="white"/>
<defs>
<linearGradient id="paint0_linear_241_443" x1="7.08074" y1="3.01911" x2="119.717" y2="16.2567" gradientUnits="userSpaceOnUse">
<stop stop-color="#AF52D0" stop-opacity="0.56"/>
<stop offset="1" stop-color="#3F65EC" stop-opacity="0.5"/>
</linearGradient>
</defs>
</svg>
