<?xml version="1.0" encoding="UTF-8" standalone="no"?>
<!DOCTYPE svg PUBLIC "-//W3C//DTD SVG 1.1//EN" "http://www.w3.org/Graphics/SVG/1.1/DTD/svg11.dtd">
<svg width="100%" height="100%" viewBox="0 0 1134 514" version="1.1" xmlns="http://www.w3.org/2000/svg" xmlns:xlink="http://www.w3.org/1999/xlink" xml:space="preserve" xmlns:serif="http://www.serif.com/" style="fill-rule:evenodd;clip-rule:evenodd;stroke-linejoin:round;stroke-miterlimit:2;">
    <g id="Монтажная-область1" serif:id="Монтажная область1" transform="matrix(1,0,0,0.603849,0,0)">
        <rect x="0" y="0" width="1133.86" height="850.394" style="fill:none;"/>
        <g transform="matrix(-1.01068,0,0,1.44741,1166.02,73.9347)">
            <path d="M373.7,203C373.1,203 372.2,202.7 372.3,204C372.4,205.2 372.9,206.4 373.9,206.4C374.8,206.4 375.5,205.1 375.4,204C375.4,202.9 374.4,203 373.7,203Z" style="fill:url(#_Linear1);fill-rule:nonzero;"/>
            <path d="M245.8,301.5C245.4,301.2 245,301 244.6,300.8C241.3,299.3 238.1,297.8 234.7,296.5C227.2,293.5 219.7,290.4 212.3,287.2C203,283.3 193.9,279.2 184.8,275C179.6,272.5 174.4,269.9 169.4,267C165.2,264.6 161.2,262 157.2,259.2C152.9,256.1 148.7,252.7 144.4,249.5C138.9,245.2 133.5,240.7 128.5,235.8C126,233.4 123.6,230.8 121.4,228C118.3,224.3 115.6,220.4 113.4,216.2C109.1,208.1 106.8,199.4 107,190.2C107,188.3 107.4,186.4 107.7,184.5C108.3,180.9 109.4,177.4 111.2,174.2C115,167.3 120.7,162.2 127,157.8C132.3,154.1 138.1,151.3 144,148.8C149.9,146.3 156,144.2 162.2,142.5C170.4,140.3 178.8,138.6 187.2,137.1C194,135.9 200.8,134.9 207.6,133.9C212.4,133.2 217.3,132.7 222.2,132.2C228.2,131.7 234.1,131.2 240.1,130.9C244.9,130.6 249.8,130.5 254.6,130.3C259.6,130.1 264.7,130 269.7,129.9C286.5,129.8 303.4,129.9 323.3,129.9C337.8,129.6 355.4,130.4 373,130.2C373.7,130.2 374.4,130.3 375.1,129.9C375.4,129.7 376,130.1 376,129.5C375.9,129 375.5,128.9 375,128.9C370.9,128.6 366.7,128.2 362.6,127.9C358.1,127.7 353.6,127.4 349.1,127.3C341.3,127.1 333.5,126.9 325.7,126.6C319.5,126.3 313.3,126.3 307.1,126.4C291.7,126.4 276.2,125.8 260.8,126.2C252.9,126.4 245,126.4 237.1,126.9C233.4,127.1 229.6,127.3 225.9,127.6C220.8,127.9 215.6,128.4 210.5,129C206.5,129.5 202.5,129.7 198.5,130.4C192.6,131.3 186.7,132.2 180.9,133.3C174.2,134.6 167.7,136.1 161.2,137.9C151.6,140.6 142.4,144.3 133.7,149.2C125.6,153.7 118.2,159.1 112.4,166.5C107.2,173.1 104.5,180.6 103.9,188.8C103.4,195.7 104.2,202.6 106.4,209.3C110,220 116.1,229.1 123.7,237.2C128.5,242.3 133.6,247 139,251.6C143.5,255.4 148.1,259.3 152.8,262.9C161.3,269.5 170.5,274.9 180,279.9C187.3,283.7 194.8,287.1 202.3,290.6C212.1,295.1 221.9,299.4 231.9,303.4C235.5,304.8 239.1,306.3 242.9,307.3C244.7,307.7 246.5,307.2 247.3,306C247.7,304.4 247.3,302.8 245.8,301.5Z" style="fill:url(#_Linear2);fill-rule:nonzero;"/>
            <path d="M357.4,138.9C351.9,138.7 346.5,138.3 341,138.3C334.5,138.2 327.9,137.8 321.4,137.9C307.5,138.1 293.6,137.6 279.7,138.2C273.1,138.5 266.5,138.5 259.8,138.9C255.3,139.1 250.9,139.3 246.4,139.6C241.7,139.9 237,140.2 232.3,140.6C226.5,141 220.8,141.7 215,142.3C210.3,142.8 205.7,143.4 201.1,144.1C194.7,145.1 188.2,146.2 181.9,147.7C173.3,149.7 164.9,152.1 156.9,156C152,158.5 147.2,161.2 143.8,165.7C140.4,170.3 139,175.6 139.8,181.1C140.9,188.7 145.2,194.9 150.3,200.4C155.8,206.4 162.2,211.3 168.7,216.2C176.6,222.1 184.9,227.2 193.6,231.8C200.9,235.7 208.4,239 216.1,241.9C219.3,243.1 222.4,244.5 226,244.1C227,244 227.7,243.6 227.9,242.7C228.1,241.8 228,241.1 227.1,240.4C225.7,239.2 224.1,238.4 222.3,237.8C215,235.1 207.7,232.3 200.7,228.8C194.7,225.7 188.7,222.4 183,218.9C174.3,213.6 166.2,207.5 158.5,200.9C153.8,196.8 149.5,192.2 146.5,186.7C144.1,182.2 143,177.6 144.9,172.6C146.5,168.2 149.8,165.5 153.5,163.1C159.9,159 167,156.5 174.3,154.5C187.2,150.9 200.4,148.9 213.6,147.1C218.7,146.4 223.8,145.9 228.9,145.4C234.4,144.9 239.9,144.4 245.4,144.1C250.9,143.8 256.5,143.4 262,143.1C266.8,142.8 271.6,142.7 276.4,142.4C282.9,142.1 289.4,141.9 295.9,141.8C304.3,141.6 312.6,141.5 321,141.4C329.3,141.4 337.6,141.3 345.9,141.6C354.7,141.9 363.5,141.9 372.2,142.3C378.3,142.6 384.4,142.4 390.8,142.4C390.2,142 389.9,141.8 389.4,141.7C384.1,141.2 378.9,140.5 373.6,140.1C368.4,139.4 362.9,139.1 357.4,138.9Z" style="fill:url(#_Linear3);fill-rule:nonzero;"/>
            <path d="M382.5,152.8C377.9,152.5 373.4,152.5 368.8,152.2C364.6,151.9 360.3,152 356,151.9C348.5,151.7 341,151.5 333.5,151.2C326.8,151 320.1,150.5 313.4,150.8L310.4,150.8C301.7,150.3 293.1,150.9 284.4,151.1C279.1,151.2 273.7,151.5 268.4,151.8C264.7,152 261,152.2 257.4,152.5C252.6,152.8 247.8,153.1 243,153.5C238.4,153.9 233.9,154.3 229.3,154.8C224.2,155.3 219.1,156.1 214,157.2C209.3,158.2 204.6,159.5 200.5,162.1C196.7,164.5 194.2,171 197.9,175.5C199.4,177.3 201,179 202.8,180.3C212.2,186.8 222.3,192 233,196.1C243.2,200 253.7,203.3 264.2,206.3C267,207.1 269.9,207.9 272.7,208.7C273.9,209 275.3,208.7 275.7,207.6C276.2,206.4 274.8,205.9 273.9,205.5C272.5,204.8 271,204.3 269.6,203.8C259.8,200.4 249.8,197.4 240,193.8C228.8,189.7 217.8,185 207.8,178.5C205.2,176.8 202.5,175.1 200.9,172.2C199.9,170.4 200.2,168.6 201.6,167.1C203.9,164.8 206.9,164 209.8,163.2C217.7,161 225.9,160.1 234.1,159.2C238.9,158.6 243.8,158.2 248.6,157.9C253,157.6 257.4,157.2 261.9,156.9C267.2,156.5 272.4,156.2 277.7,155.9C282.4,155.6 287.1,155.3 291.7,155.2C297.5,155.1 303.2,154.9 309,154.8C314.3,154.7 319.6,155 324.9,155C336.6,155 348.4,155.4 360.1,154.8C364.5,154.6 368.9,154.8 373.2,154.8C380.4,154.8 387.6,155 394.8,154.5C395.4,154.5 396,154.4 396.4,153.9C391.8,153.5 387.2,153.1 382.5,152.8Z" style="fill:url(#_Linear4);fill-rule:nonzero;"/>
            <path d="M283.3,171.8C283.6,168.9 280.9,167.6 278.2,167.5C275.7,167.3 273.6,169.5 273.7,171.9C273.8,175.1 275.3,177.3 278.2,177.4C280.3,177.4 283.3,175.3 283.3,171.8ZM278.9,174.1C277.5,174.1 277.1,172.9 276.7,171.9C276.5,171.4 278.4,170.4 279.4,170.4C280.5,170.4 281.4,170.7 281.6,171.9C281.7,172.6 279.9,174.1 278.9,174.1Z" style="fill:url(#_Linear5);fill-rule:nonzero;"/>
            <path d="M245.5,163C243.2,163.2 242.9,163.6 243.6,165.8C243.6,166 243.8,166.1 243.8,166.2C244.1,167.3 244.5,168.5 245.8,168.7C247.3,169 247.2,167.4 247.7,166.7C248.3,166 248.5,165 248,164.1C247.6,163.2 246.6,162.9 245.5,163Z" style="fill:url(#_Linear6);fill-rule:nonzero;"/>
            <path d="M350.9,266.7C350.2,266.9 348.6,266.4 348.7,268.2C348.8,269.7 350,271.9 350.8,271.9C351.5,271.9 353,269.7 353,268.6C353.1,267.3 352.1,266.3 350.9,266.7Z" style="fill:url(#_Linear7);fill-rule:nonzero;"/>
            <path d="M346.9,273.8C345.9,273.8 345.1,274 345,275.1C344.9,276.3 346,278.1 346.8,278.1C347.6,278.1 348.7,276.5 348.7,275.3C348.7,274.2 348,273.8 346.9,273.8Z" style="fill:url(#_Linear8);fill-rule:nonzero;"/>
            <path d="M354.5,274.8C353.9,274.8 353,274.7 353.1,275.6C353.2,276.4 353.3,277.6 354.4,277.7C355,277.7 355.7,277 355.7,275.8C355.8,275.2 355.4,274.8 354.5,274.8Z" style="fill:url(#_Linear9);fill-rule:nonzero;"/>
            <path d="M193.3,299.8C191.6,299.8 191.5,299.9 191.5,301.1C191.5,302.4 192.8,304.8 193.6,304.7C194.2,304.6 196,302.1 195.8,301.2C195.5,299.8 194.4,299.8 193.3,299.8Z" style="fill:url(#_Linear10);fill-rule:nonzero;"/>
            <path d="M291.7,306.8C290.6,306.7 289.5,306.6 289.5,308.2C289.5,309.6 290.7,311.8 291.6,311.8C292.5,311.8 294.2,309.5 294,308.1C293.8,306.9 292.8,306.6 291.7,306.8Z" style="fill:url(#_Linear11);fill-rule:nonzero;"/>
            <path d="M297.8,314.4C297,314.4 296.3,314.3 296.5,315.5C296.6,316.5 296.8,317.7 298,317.7C299.1,317.7 299.3,316.5 299.5,315.9C299.6,314.2 298.6,314.4 297.8,314.4Z" style="fill:url(#_Linear12);fill-rule:nonzero;"/>
            <path d="M266.8,223.5C267,223.1 267.2,222.7 267.4,222.4C267.9,221.5 268.5,220.4 268,219.5C267.5,218.7 266.5,217.9 265.3,218.3C262.8,218.3 262.2,218.7 262.5,220.5C262.7,221.5 263,222.6 263.5,223.5C264.5,225.3 265.8,225.2 266.8,223.5Z" style="fill:url(#_Linear13);fill-rule:nonzero;"/>
            <path d="M256.9,224.1C257,222.7 256.3,222.2 255,222.3C253.5,222.3 252.6,222.8 252.6,223.6C252.6,224.6 254.2,227.2 254.9,227.3C255.5,227.3 256.9,225.1 256.9,224.1Z" style="fill:url(#_Linear14);fill-rule:nonzero;"/>
            <path d="M327.4,270.5C329.9,268.5 332.1,266.1 334.4,263.9C341.1,257.5 347.5,250.9 354.1,244.3C354.6,243.8 354.9,243.3 355.1,242.6C354.8,241.5 354,240.9 353,240.6C350.9,240 348.7,239.8 346.4,239.6C343.5,239.4 340.5,239.2 337.6,238.9C332.9,238.4 328.1,238.1 323.4,237.6C320.8,237.3 318.2,237.6 315.7,237C315.1,236.9 314.7,236.7 314.5,236.1C312.8,231.4 310.2,227.1 308.3,222.5C305.3,215.5 301.8,208.7 299.5,201.4C299.2,200.4 298.8,199.3 297.6,199.4C296.5,199.4 295.7,200.1 295.2,201.1C293.8,204.2 292.3,207.2 290.9,210.3C288.7,215.3 286.6,220.3 284.5,225.3C283,228.9 281,232.2 280.4,236.1C280.3,236.6 280.2,237.1 279.2,237.3C275.3,238 271.4,238.9 267.5,239.7C262,240.9 256.5,242.2 250.9,243.2C248.2,243.7 245.5,244.2 242.8,244.9C241.2,245.3 240.6,247.6 241.7,248.8C243.9,251.1 246.1,253.4 248.6,255.4C252.1,258.2 255.5,261.1 258.9,264C261.2,266 263.6,268 265.9,270C266.9,270.9 268.3,271.7 268.8,272.9C269.1,273.6 268.1,274.9 267.7,276C267.5,276.5 267.4,277 267.3,277.5C265.1,285 263.5,292.6 261.7,300.2C261,303.2 260.3,306.2 259.6,309.1C259.3,310.4 259.1,311.7 260.3,312.5C261.4,313.3 262.6,312.4 263.6,311.9C268.7,309.2 273.8,306.3 278.9,303.6C283.4,301.2 287.9,298.9 292.3,296.5C294.9,295.1 297.4,294.1 299.6,297C299.7,297.1 299.9,297.2 300,297.3C308.9,303.3 317.9,309.4 326.8,315.4C328.8,316.8 330.7,318.4 333.1,319.3C334.3,319.7 335,319.2 335,317.9C335.1,315.9 334.7,313.9 334.4,311.9C333.4,306.4 332.7,300.9 331.7,295.4C330.3,287.3 328.8,279.3 327.2,271.2C327.2,270.9 327.1,270.8 327.4,270.5ZM275.4,248.3C276.5,248.2 277.4,248.3 277.1,249.3C276.9,250 277,251.2 275.8,251.2C274.5,251.2 274.4,249.9 274.2,249.2C274.1,248.3 275.1,248.3 275.4,248.3ZM273.2,245.2C273.1,245.7 273,246.3 272.3,246.5C271.5,246.2 271.2,245.6 271.2,244.9C271.2,244.2 271.7,244 272.3,244C273.2,243.9 273.4,244.5 273.2,245.2ZM276.1,289.1C276,289.7 275.9,290.7 275.1,290.7C274.5,290.7 274,289.9 273.9,289.2C273.8,288.4 274.5,288.5 275.1,288.3C275.6,288.4 276.2,288.6 276.1,289.1ZM277.8,283.1C277.7,284 277.4,285.4 276.5,285.4C275.6,285.4 274.8,284.2 274.6,283.1C274.4,282 275.6,282.1 276.2,281.8C277.2,281.8 277.9,282.1 277.8,283.1ZM277.4,246.4C277,246.3 276.5,245.9 276.5,245.3C276.5,244.8 276.9,244.9 277.2,244.8C277.7,244.8 277.9,244.9 277.8,245.4C277.9,246 277.7,246.5 277.4,246.4ZM281.5,287.6C281.2,288.1 281.6,289.4 280.4,289.4C279.3,289.4 279,288.2 278.9,287.2C278.8,286.1 279.8,286.2 280.4,286.1C281,286.1 281.7,286.5 281.5,287.6ZM321.4,258.1C321.2,258.9 321.3,260.2 320,260.2C318.9,260.2 318.7,259 318.5,258.2C318.2,257 319.5,257.4 320.2,257.1C320.7,257.3 321.6,257.2 321.4,258.1ZM322.5,254.9C321.6,254.8 321.2,253.9 321.1,253.1C321.1,252.2 321.9,252.3 322.5,252.2C323.3,252.1 323.8,252.6 323.6,253.2C323.5,253.8 323.7,255 322.5,254.9ZM326.7,257.2C326.3,257.8 326.5,259.3 325.2,259.2C324,259.1 323.6,257.8 323.5,256.9C323.4,255.7 324.7,256 325.5,255.9C326.3,255.8 326.8,256.1 326.7,257.2Z" style="fill:url(#_Linear15);fill-rule:nonzero;"/>
            <path d="M376.8,184.1C370,182.5 363.1,181.6 356.4,179.8C355.4,179.5 354.8,179 354.8,178.2C354.6,176.1 354.1,174 353.7,171.9C353.2,169.4 353.1,166.8 351.7,164.5C350.9,163.2 350.1,163 348.9,164.1C348.5,164.4 348.3,164.8 348,165.2C345.5,168.5 343.4,172 341.1,175.5C340.8,176 340.6,176.7 339.7,176.5C337.4,176.1 335.1,175.7 332.8,175.3C329.3,174.8 325.8,174.3 322.2,173.8C321.5,174.1 320.6,173.9 320,175C319.4,176.2 319.9,177.1 320.6,177.8C324.4,181.7 327.6,186.1 331.5,189.8C334,192.1 333.9,192.2 332,195C328.9,199.5 325.8,203.9 323.1,208.7C322.7,209.5 321.9,210.4 322.6,211.2C323.1,211.8 324.2,211.5 325.1,211.3C330.5,210.1 335.7,208.3 341,206.6C343,206 344.2,205.6 345.9,207.6C348.9,211.2 352.6,214.4 355.8,217.9C358.1,220.4 360.5,222.7 362.9,225.1C363.4,225.6 364.1,226 364.8,225.7C365.4,225.4 365.4,224.6 365.4,224C365.4,221.7 365.4,219.4 365.1,217.1C364.7,214.4 364.8,211.6 364.4,209C363.8,205.3 363.8,201.4 362.8,197.8C362.6,197 363.3,196.9 363.7,196.7C368.5,193.9 373.5,191.3 377.8,187.6C378.5,187 379,186.6 378.8,185.8C378.4,184.6 377.6,184.3 376.8,184.1ZM329.8,181.4C328.9,181.4 328.7,180.6 328.5,180.2C328.3,179.5 329.3,179.5 329.7,179.1C330.5,179.1 330.6,179.8 330.6,180.3C330.5,180.7 330.7,181.4 329.8,181.4ZM332.1,179.5C332.1,178.9 332.4,178.8 332.9,178.8C333.7,178.7 333.9,179 333.7,179.8C333.6,180.1 334,180.8 333.3,180.8C332.6,180.7 332.1,180.2 332.1,179.5ZM333.5,184.2C333,184.1 332.4,183.9 332.5,183.2C332.5,182.7 332.8,182.4 333.3,182.4C334.2,182.4 333.4,183.3 334,183.4C333.6,183.7 334,184.3 333.5,184.2ZM353,183.6C352.9,184.2 352.5,184.7 351.8,184.8C351.3,184.6 351.1,184.1 351.1,183.6C351.1,183 351.5,182.8 352.1,182.8C352.6,182.7 353.1,182.9 353,183.6ZM353,180.8C353,181.2 352.9,181.6 352.4,181.5C352,181.4 351.7,181 351.6,180.5C351.6,179.9 352,180 352.4,180C353.1,180 353,180.4 353,180.8ZM354.8,204.4C354.2,204.2 353.8,203.8 353.8,203.2C353.8,202.6 354.5,202.4 355,202.5C355.6,202.6 355.7,203.2 355.8,203.7C355.7,204.1 355.3,204.3 354.8,204.4ZM354,179.7C354.9,180.1 355.7,180.5 356.6,180.8C355.8,180.5 354.9,180.2 354,179.7Z" style="fill:url(#_Linear16);fill-rule:nonzero;"/>
            <path d="M223,272.2C222.8,275.5 225.6,278.8 228.3,278.8C231.2,278.8 234.3,275.2 234.3,271.8C234.3,269.1 232.2,267 229.4,267.2C225.5,267.5 223.2,268.6 223,272.2ZM228.3,270.6C229.3,270.4 231.2,271.7 231.3,272.3C231.4,273.3 230,274.5 228.9,274.5C227.9,274.5 226.7,273.2 226.7,272.1C226.7,271.1 227.6,270.7 228.3,270.6Z" style="fill:url(#_Linear17);fill-rule:nonzero;"/>
        </g>
        <g transform="matrix(4.61934,0,0,7.64983,-7598.59,-12498.4)">
            <path d="M1674.65,1668.11L1665.9,1668.11L1663.9,1674.76L1668,1674.76L1668,1701.86L1674.65,1701.86L1674.65,1668.11Z" style="fill:url(#_Linear18);fill-rule:nonzero;"/>
            <path d="M1703.7,1668.11L1694.85,1682.66L1686,1668.11L1679.4,1668.11L1679.4,1701.86L1686,1701.86L1686,1680.86L1692.3,1691.21L1697.4,1691.21L1703.7,1680.86L1703.7,1701.86L1710.3,1701.86L1710.3,1668.11L1703.7,1668.11Z" style="fill:url(#_Linear19);fill-rule:nonzero;"/>
            <path d="M1731.95,1668.11L1715.05,1668.11L1715.05,1701.86L1731.95,1701.86C1736.9,1701.86 1740.95,1697.81 1740.95,1692.86L1740.95,1677.11C1740.95,1672.16 1736.9,1668.11 1731.95,1668.11ZM1734.3,1692.76C1734.3,1694.11 1733.2,1695.26 1731.8,1695.26L1718.4,1695.26L1721.65,1691.96L1721.65,1674.76L1731.8,1674.76C1733.2,1674.76 1734.3,1675.86 1734.3,1677.26L1734.3,1692.76Z" style="fill:url(#_Linear20);fill-rule:nonzero;"/>
            <path d="M1773.2,1677.11C1773.2,1672.16 1769.15,1668.11 1764.2,1668.11L1754.7,1668.11C1749.75,1668.11 1745.7,1672.16 1745.7,1677.11L1745.7,1701.86L1752.3,1701.86L1752.3,1677.26C1752.3,1675.86 1753.45,1674.76 1754.8,1674.76L1764.05,1674.76C1765.45,1674.76 1766.55,1675.86 1766.55,1677.26L1766.55,1685.06L1756.8,1685.06L1754.8,1691.71L1766.55,1691.71L1766.55,1701.86L1773.2,1701.86L1773.2,1677.11Z" style="fill:url(#_Linear21);fill-rule:nonzero;"/>
            <path d="M1795.45,1668.11L1786.95,1668.11C1782,1668.11 1777.95,1672.16 1777.95,1677.11L1777.95,1692.86C1777.95,1697.81 1782,1701.86 1786.95,1701.86L1795.45,1701.86C1800.4,1701.86 1804.45,1697.81 1804.45,1692.86L1804.45,1677.11C1804.45,1672.16 1800.4,1668.11 1795.45,1668.11ZM1797.8,1692.76C1797.8,1694.11 1796.7,1695.26 1795.3,1695.26L1787.05,1695.26C1785.7,1695.26 1784.55,1694.11 1784.55,1692.76L1784.55,1677.26C1784.55,1675.86 1785.7,1674.76 1787.05,1674.76L1795.3,1674.76C1796.7,1674.76 1797.8,1675.86 1797.8,1677.26L1797.8,1692.76Z" style="fill:url(#_Linear22);fill-rule:nonzero;"/>
        </g>
    </g>
    <defs>
        <linearGradient id="_Linear1" x1="0" y1="0" x2="1" y2="0" gradientUnits="userSpaceOnUse" gradientTransform="matrix(3.59462,239.29,206.934,-4.15668,248.033,100.724)"><stop offset="0" style="stop-color:rgb(70,0,140);stop-opacity:1"/><stop offset="0.43" style="stop-color:rgb(233,73,208);stop-opacity:1"/><stop offset="0.68" style="stop-color:rgb(103,15,154);stop-opacity:1"/><stop offset="1" style="stop-color:rgb(70,0,140);stop-opacity:1"/></linearGradient>
        <linearGradient id="_Linear2" x1="0" y1="0" x2="1" y2="0" gradientUnits="userSpaceOnUse" gradientTransform="matrix(3.59462,239.29,206.934,-4.15668,248.033,100.724)"><stop offset="0" style="stop-color:rgb(70,0,140);stop-opacity:1"/><stop offset="0.43" style="stop-color:rgb(233,73,208);stop-opacity:1"/><stop offset="0.68" style="stop-color:rgb(103,15,154);stop-opacity:1"/><stop offset="1" style="stop-color:rgb(70,0,140);stop-opacity:1"/></linearGradient>
        <linearGradient id="_Linear3" x1="0" y1="0" x2="1" y2="0" gradientUnits="userSpaceOnUse" gradientTransform="matrix(3.59462,239.29,206.934,-4.15668,248.033,100.724)"><stop offset="0" style="stop-color:rgb(70,0,140);stop-opacity:1"/><stop offset="0.43" style="stop-color:rgb(233,73,208);stop-opacity:1"/><stop offset="0.68" style="stop-color:rgb(103,15,154);stop-opacity:1"/><stop offset="1" style="stop-color:rgb(70,0,140);stop-opacity:1"/></linearGradient>
        <linearGradient id="_Linear4" x1="0" y1="0" x2="1" y2="0" gradientUnits="userSpaceOnUse" gradientTransform="matrix(3.59462,239.29,206.934,-4.15668,248.033,100.724)"><stop offset="0" style="stop-color:rgb(70,0,140);stop-opacity:1"/><stop offset="0.43" style="stop-color:rgb(233,73,208);stop-opacity:1"/><stop offset="0.68" style="stop-color:rgb(103,15,154);stop-opacity:1"/><stop offset="1" style="stop-color:rgb(70,0,140);stop-opacity:1"/></linearGradient>
        <linearGradient id="_Linear5" x1="0" y1="0" x2="1" y2="0" gradientUnits="userSpaceOnUse" gradientTransform="matrix(3.59462,239.29,206.934,-4.15668,248.033,100.724)"><stop offset="0" style="stop-color:rgb(70,0,140);stop-opacity:1"/><stop offset="0.43" style="stop-color:rgb(233,73,208);stop-opacity:1"/><stop offset="0.68" style="stop-color:rgb(103,15,154);stop-opacity:1"/><stop offset="1" style="stop-color:rgb(70,0,140);stop-opacity:1"/></linearGradient>
        <linearGradient id="_Linear6" x1="0" y1="0" x2="1" y2="0" gradientUnits="userSpaceOnUse" gradientTransform="matrix(3.59462,239.29,206.934,-4.15668,248.033,100.724)"><stop offset="0" style="stop-color:rgb(70,0,140);stop-opacity:1"/><stop offset="0.43" style="stop-color:rgb(233,73,208);stop-opacity:1"/><stop offset="0.68" style="stop-color:rgb(103,15,154);stop-opacity:1"/><stop offset="1" style="stop-color:rgb(70,0,140);stop-opacity:1"/></linearGradient>
        <linearGradient id="_Linear7" x1="0" y1="0" x2="1" y2="0" gradientUnits="userSpaceOnUse" gradientTransform="matrix(3.59462,239.29,206.934,-4.15668,248.033,100.724)"><stop offset="0" style="stop-color:rgb(70,0,140);stop-opacity:1"/><stop offset="0.43" style="stop-color:rgb(233,73,208);stop-opacity:1"/><stop offset="0.68" style="stop-color:rgb(103,15,154);stop-opacity:1"/><stop offset="1" style="stop-color:rgb(70,0,140);stop-opacity:1"/></linearGradient>
        <linearGradient id="_Linear8" x1="0" y1="0" x2="1" y2="0" gradientUnits="userSpaceOnUse" gradientTransform="matrix(3.59462,239.29,206.934,-4.15668,248.033,100.724)"><stop offset="0" style="stop-color:rgb(70,0,140);stop-opacity:1"/><stop offset="0.43" style="stop-color:rgb(233,73,208);stop-opacity:1"/><stop offset="0.68" style="stop-color:rgb(103,15,154);stop-opacity:1"/><stop offset="1" style="stop-color:rgb(70,0,140);stop-opacity:1"/></linearGradient>
        <linearGradient id="_Linear9" x1="0" y1="0" x2="1" y2="0" gradientUnits="userSpaceOnUse" gradientTransform="matrix(3.59462,239.29,206.934,-4.15668,248.033,100.724)"><stop offset="0" style="stop-color:rgb(70,0,140);stop-opacity:1"/><stop offset="0.43" style="stop-color:rgb(233,73,208);stop-opacity:1"/><stop offset="0.68" style="stop-color:rgb(103,15,154);stop-opacity:1"/><stop offset="1" style="stop-color:rgb(70,0,140);stop-opacity:1"/></linearGradient>
        <linearGradient id="_Linear10" x1="0" y1="0" x2="1" y2="0" gradientUnits="userSpaceOnUse" gradientTransform="matrix(3.59462,239.29,206.934,-4.15668,248.033,100.724)"><stop offset="0" style="stop-color:rgb(70,0,140);stop-opacity:1"/><stop offset="0.43" style="stop-color:rgb(233,73,208);stop-opacity:1"/><stop offset="0.68" style="stop-color:rgb(103,15,154);stop-opacity:1"/><stop offset="1" style="stop-color:rgb(70,0,140);stop-opacity:1"/></linearGradient>
        <linearGradient id="_Linear11" x1="0" y1="0" x2="1" y2="0" gradientUnits="userSpaceOnUse" gradientTransform="matrix(3.59462,239.29,206.934,-4.15668,248.033,100.724)"><stop offset="0" style="stop-color:rgb(70,0,140);stop-opacity:1"/><stop offset="0.43" style="stop-color:rgb(233,73,208);stop-opacity:1"/><stop offset="0.68" style="stop-color:rgb(103,15,154);stop-opacity:1"/><stop offset="1" style="stop-color:rgb(70,0,140);stop-opacity:1"/></linearGradient>
        <linearGradient id="_Linear12" x1="0" y1="0" x2="1" y2="0" gradientUnits="userSpaceOnUse" gradientTransform="matrix(3.59462,239.29,206.934,-4.15668,248.033,100.724)"><stop offset="0" style="stop-color:rgb(70,0,140);stop-opacity:1"/><stop offset="0.43" style="stop-color:rgb(233,73,208);stop-opacity:1"/><stop offset="0.68" style="stop-color:rgb(103,15,154);stop-opacity:1"/><stop offset="1" style="stop-color:rgb(70,0,140);stop-opacity:1"/></linearGradient>
        <linearGradient id="_Linear13" x1="0" y1="0" x2="1" y2="0" gradientUnits="userSpaceOnUse" gradientTransform="matrix(3.59462,239.29,206.934,-4.15668,248.033,100.724)"><stop offset="0" style="stop-color:rgb(70,0,140);stop-opacity:1"/><stop offset="0.43" style="stop-color:rgb(233,73,208);stop-opacity:1"/><stop offset="0.68" style="stop-color:rgb(103,15,154);stop-opacity:1"/><stop offset="1" style="stop-color:rgb(70,0,140);stop-opacity:1"/></linearGradient>
        <linearGradient id="_Linear14" x1="0" y1="0" x2="1" y2="0" gradientUnits="userSpaceOnUse" gradientTransform="matrix(3.59462,239.29,206.934,-4.15668,248.033,100.724)"><stop offset="0" style="stop-color:rgb(70,0,140);stop-opacity:1"/><stop offset="0.43" style="stop-color:rgb(233,73,208);stop-opacity:1"/><stop offset="0.68" style="stop-color:rgb(103,15,154);stop-opacity:1"/><stop offset="1" style="stop-color:rgb(70,0,140);stop-opacity:1"/></linearGradient>
        <linearGradient id="_Linear15" x1="0" y1="0" x2="1" y2="0" gradientUnits="userSpaceOnUse" gradientTransform="matrix(3.59462,239.29,206.934,-4.15668,248.033,100.724)"><stop offset="0" style="stop-color:rgb(70,0,140);stop-opacity:1"/><stop offset="0.43" style="stop-color:rgb(233,73,208);stop-opacity:1"/><stop offset="0.68" style="stop-color:rgb(103,15,154);stop-opacity:1"/><stop offset="1" style="stop-color:rgb(70,0,140);stop-opacity:1"/></linearGradient>
        <linearGradient id="_Linear16" x1="0" y1="0" x2="1" y2="0" gradientUnits="userSpaceOnUse" gradientTransform="matrix(3.59462,239.29,206.934,-4.15668,248.033,100.724)"><stop offset="0" style="stop-color:rgb(70,0,140);stop-opacity:1"/><stop offset="0.43" style="stop-color:rgb(233,73,208);stop-opacity:1"/><stop offset="0.68" style="stop-color:rgb(103,15,154);stop-opacity:1"/><stop offset="1" style="stop-color:rgb(70,0,140);stop-opacity:1"/></linearGradient>
        <linearGradient id="_Linear17" x1="0" y1="0" x2="1" y2="0" gradientUnits="userSpaceOnUse" gradientTransform="matrix(3.59462,239.29,206.934,-4.15668,248.033,100.724)"><stop offset="0" style="stop-color:rgb(70,0,140);stop-opacity:1"/><stop offset="0.43" style="stop-color:rgb(233,73,208);stop-opacity:1"/><stop offset="0.68" style="stop-color:rgb(103,15,154);stop-opacity:1"/><stop offset="1" style="stop-color:rgb(70,0,140);stop-opacity:1"/></linearGradient>
        <linearGradient id="_Linear18" x1="0" y1="0" x2="1" y2="0" gradientUnits="userSpaceOnUse" gradientTransform="matrix(1.16341,55.2956,-55.2956,1.16341,1747.34,1646.56)"><stop offset="0" style="stop-color:rgb(233,73,208);stop-opacity:1"/><stop offset="0.36" style="stop-color:rgb(122,25,160);stop-opacity:1"/><stop offset="0.72" style="stop-color:rgb(214,22,229);stop-opacity:1"/><stop offset="1" style="stop-color:rgb(70,0,140);stop-opacity:1"/></linearGradient>
        <linearGradient id="_Linear19" x1="0" y1="0" x2="1" y2="0" gradientUnits="userSpaceOnUse" gradientTransform="matrix(1.16341,55.2956,-55.2956,1.16341,1747.34,1646.56)"><stop offset="0" style="stop-color:rgb(233,73,208);stop-opacity:1"/><stop offset="0.36" style="stop-color:rgb(122,25,160);stop-opacity:1"/><stop offset="0.72" style="stop-color:rgb(214,22,229);stop-opacity:1"/><stop offset="1" style="stop-color:rgb(70,0,140);stop-opacity:1"/></linearGradient>
        <linearGradient id="_Linear20" x1="0" y1="0" x2="1" y2="0" gradientUnits="userSpaceOnUse" gradientTransform="matrix(1.16341,55.2956,-55.2956,1.16341,1747.34,1646.56)"><stop offset="0" style="stop-color:rgb(233,73,208);stop-opacity:1"/><stop offset="0.36" style="stop-color:rgb(122,25,160);stop-opacity:1"/><stop offset="0.72" style="stop-color:rgb(214,22,229);stop-opacity:1"/><stop offset="1" style="stop-color:rgb(70,0,140);stop-opacity:1"/></linearGradient>
        <linearGradient id="_Linear21" x1="0" y1="0" x2="1" y2="0" gradientUnits="userSpaceOnUse" gradientTransform="matrix(1.16341,55.2956,-55.2956,1.16341,1747.34,1646.56)"><stop offset="0" style="stop-color:rgb(233,73,208);stop-opacity:1"/><stop offset="0.36" style="stop-color:rgb(122,25,160);stop-opacity:1"/><stop offset="0.72" style="stop-color:rgb(214,22,229);stop-opacity:1"/><stop offset="1" style="stop-color:rgb(70,0,140);stop-opacity:1"/></linearGradient>
        <linearGradient id="_Linear22" x1="0" y1="0" x2="1" y2="0" gradientUnits="userSpaceOnUse" gradientTransform="matrix(1.16341,55.2956,-55.2956,1.16341,1747.34,1646.56)"><stop offset="0" style="stop-color:rgb(233,73,208);stop-opacity:1"/><stop offset="0.36" style="stop-color:rgb(122,25,160);stop-opacity:1"/><stop offset="0.72" style="stop-color:rgb(214,22,229);stop-opacity:1"/><stop offset="1" style="stop-color:rgb(70,0,140);stop-opacity:1"/></linearGradient>
    </defs>
</svg>
