<svg width="289" height="74" viewBox="0 0 289 74" fill="none" xmlns="http://www.w3.org/2000/svg">
<g filter="url(#filter0_f_106_2640)">
<path d="M3.25399 11.8217V11.0717H2.50399V11.8217H3.25399ZM29.7258 15.8807L29.2068 16.4222L29.7258 15.8807ZM29.7258 36.5875L29.2068 36.046L29.7258 36.5875ZM13.7839 40.6465V39.8965H13.0339V40.6465H13.7839ZM13.7839 53V53.75H14.5339V53H13.7839ZM3.25399 53H2.50399V53.75H3.25399V53ZM13.7839 30.6461H13.0339V31.3961H13.7839V30.6461ZM22.196 29.4107L21.6657 28.8804L21.6592 28.8868L21.6529 28.8935L22.196 29.4107ZM22.196 23.1163L21.6529 23.6335L21.6655 23.6468L21.6788 23.6594L22.196 23.1163ZM13.7839 21.881V21.131H13.0339V21.881H13.7839ZM3.25399 12.5717H19.2547V11.0717H3.25399V12.5717ZM19.2547 12.5717C23.2318 12.5717 26.5322 13.859 29.2068 16.4222L30.2447 15.3392C27.272 12.4904 23.5917 11.0717 19.2547 11.0717V12.5717ZM29.2068 16.4222C31.8713 18.9756 33.2113 22.2257 33.2113 26.2341H34.7113C34.7113 21.85 33.2275 18.1978 30.2447 15.3392L29.2068 16.4222ZM33.2113 26.2341C33.2113 30.2425 31.8713 33.4926 29.2068 36.046L30.2447 37.129C33.2275 34.2704 34.7113 30.6182 34.7113 26.2341H33.2113ZM29.2068 36.046C26.5322 38.6092 23.2318 39.8965 19.2547 39.8965V41.3965C23.5917 41.3965 27.272 39.9778 30.2447 37.129L29.2068 36.046ZM19.2547 39.8965H13.7839V41.3965H19.2547V39.8965ZM13.0339 40.6465V53H14.5339V40.6465H13.0339ZM13.7839 52.25H3.25399V53.75H13.7839V52.25ZM4.00399 53V11.8217H2.50399V53H4.00399ZM13.7839 31.3961H19.2547V29.8961H13.7839V31.3961ZM19.2547 31.3961C20.6285 31.3961 21.8078 30.9058 22.7391 29.9279L21.6529 28.8935C21.0155 29.5627 20.2339 29.8961 19.2547 29.8961V31.3961ZM22.7264 29.941C23.7068 28.9606 24.1814 27.703 24.1814 26.2341H22.6814C22.6814 27.3536 22.3324 28.2137 21.6657 28.8804L22.7264 29.941ZM24.1814 26.2341C24.1814 24.7657 23.7065 23.5192 22.7133 22.5732L21.6788 23.6594C22.3326 24.2821 22.6814 25.1141 22.6814 26.2341H24.1814ZM22.7391 22.5991C21.8078 21.6212 20.6285 21.131 19.2547 21.131V22.631C20.2339 22.631 21.0155 22.9643 21.6529 23.6335L22.7391 22.5991ZM19.2547 21.131H13.7839V22.631H19.2547V21.131ZM13.0339 21.881V30.6461H14.5339V21.881H13.0339ZM50.3618 11.8217H51.1118V11.0717H50.3618V11.8217ZM50.3618 42.8231H49.6118V43.5731H50.3618V42.8231ZM64.5389 42.8231H65.2889V42.0731H64.5389V42.8231ZM64.5389 53V53.75H65.2889V53H64.5389ZM39.8319 53H39.0819V53.75H39.8319V53ZM39.8319 11.8217V11.0717H39.0819V11.8217H39.8319ZM49.6118 11.8217V42.8231H51.1118V11.8217H49.6118ZM50.3618 43.5731H64.5389V42.0731H50.3618V43.5731ZM63.7889 42.8231V53H65.2889V42.8231H63.7889ZM64.5389 52.25H39.8319V53.75H64.5389V52.25ZM40.5819 53V11.8217H39.0819V53H40.5819ZM39.8319 12.5717H50.3618V11.0717H39.8319V12.5717ZM107.769 53V53.75H108.807L108.481 52.765L107.769 53ZM96.4158 53L95.6969 53.2136L95.8562 53.75H96.4158V53ZM94.651 47.0586L95.37 46.845L95.2106 46.3086H94.651V47.0586ZM80.9445 47.0586V46.3086H80.3849L80.2256 46.845L80.9445 47.0586ZM79.1797 53V53.75H79.7393L79.8987 53.2136L79.1797 53ZM67.7675 53L67.0552 52.765L66.7302 53.75H67.7675V53ZM81.3563 11.8217V11.0717H80.814L80.6441 11.5866L81.3563 11.8217ZM94.1804 11.8217L94.8926 11.5866L94.7227 11.0717H94.1804V11.8217ZM87.7684 23.9987L88.4871 23.7843L87.7633 21.358L87.0488 23.7871L87.7684 23.9987ZM83.6505 37.9993L82.931 37.7877L82.6482 38.7493H83.6505V37.9993ZM91.945 37.9993V38.7493H92.9514L92.6637 37.7849L91.945 37.9993ZM107.769 52.25H96.4158V53.75H107.769V52.25ZM97.1348 52.7864L95.37 46.845L93.9321 47.2721L95.6969 53.2136L97.1348 52.7864ZM94.651 46.3086H80.9445V47.8086H94.651V46.3086ZM80.2256 46.845L78.4608 52.7864L79.8987 53.2136L81.6635 47.2721L80.2256 46.845ZM79.1797 52.25H67.7675V53.75H79.1797V52.25ZM68.4797 53.235L82.0685 12.0567L80.6441 11.5866L67.0552 52.765L68.4797 53.235ZM81.3563 12.5717H94.1804V11.0717H81.3563V12.5717ZM93.4682 12.0567L107.057 53.235L108.481 52.765L94.8926 11.5866L93.4682 12.0567ZM87.0488 23.7871L82.931 37.7877L84.3701 38.2109L88.4879 24.2103L87.0488 23.7871ZM83.6505 38.7493H91.945V37.2493H83.6505V38.7493ZM92.6637 37.7849L88.4871 23.7843L87.0497 24.2131L91.2263 38.2137L92.6637 37.7849ZM106.951 11.8217V11.0717H106.201V11.8217H106.951ZM137.835 11.8217H138.585V11.0717H137.835V11.8217ZM137.835 21.9986V22.7486H138.585V21.9986H137.835ZM127.658 21.9986V21.2486H126.908V21.9986H127.658ZM127.658 53V53.75H128.408V53H127.658ZM117.128 53H116.378V53.75H117.128V53ZM117.128 21.9986H117.878V21.2486H117.128V21.9986ZM106.951 21.9986H106.201V22.7486H106.951V21.9986ZM106.951 12.5717H137.835V11.0717H106.951V12.5717ZM137.085 11.8217V21.9986H138.585V11.8217H137.085ZM137.835 21.2486H127.658V22.7486H137.835V21.2486ZM126.908 21.9986V53H128.408V21.9986H126.908ZM127.658 52.25H117.128V53.75H127.658V52.25ZM117.878 53V21.9986H116.378V53H117.878ZM117.128 21.2486H106.951V22.7486H117.128V21.2486ZM107.701 21.9986V11.8217H106.201V21.9986H107.701ZM143.419 53H142.669V53.75H143.419V53ZM143.419 11.8217V11.0717H142.669V11.8217H143.419ZM153.949 11.8217H154.699V11.0717H153.949V11.8217ZM153.949 53V53.75H154.699V53H153.949ZM144.169 53V11.8217H142.669V53H144.169ZM143.419 12.5717H153.949V11.0717H143.419V12.5717ZM153.199 11.8217V53H154.699V11.8217H153.199ZM153.949 52.25H143.419V53.75H153.949V52.25ZM184.895 32.5285L184.281 32.9593L185.645 34.903V32.5285H184.895ZM184.895 11.8217V11.0717H184.145V11.8217H184.895ZM195.366 11.8217H196.116V11.0717H195.366V11.8217ZM195.366 53V53.75H196.116V53H195.366ZM187.248 53L186.634 53.4308L186.858 53.75H187.248V53ZM172.718 32.2932L173.332 31.8624L171.968 29.9186V32.2932H172.718ZM172.718 53V53.75H173.468V53H172.718ZM162.188 53H161.438V53.75H162.188V53ZM162.188 11.8217V11.0717H161.438V11.8217H162.188ZM170.365 11.8217L170.979 11.3909L170.755 11.0717H170.365V11.8217ZM185.645 32.5285V11.8217H184.145V32.5285H185.645ZM184.895 12.5717H195.366V11.0717H184.895V12.5717ZM194.616 11.8217V53H196.116V11.8217H194.616ZM195.366 52.25H187.248V53.75H195.366V52.25ZM187.862 52.5692L173.332 31.8624L172.104 32.724L186.634 53.4308L187.862 52.5692ZM171.968 32.2932V53H173.468V32.2932H171.968ZM172.718 52.25H162.188V53.75H172.718V52.25ZM162.938 53V11.8217H161.438V53H162.938ZM162.188 12.5717H170.365V11.0717H162.188V12.5717ZM169.751 12.2525L184.281 32.9593L185.509 32.0977L170.979 11.3909L169.751 12.2525ZM203.237 11.8217V11.0717H202.487V11.8217H203.237ZM213.767 11.8217H214.517V11.0717H213.767V11.8217ZM225.297 11.8217V11.0717H224.547V11.8217H225.297ZM235.827 11.8217H236.577V11.0717H235.827V11.8217ZM231.239 49.941L230.746 49.3757L230.743 49.3784L231.239 49.941ZM207.767 49.941L207.27 50.5032L207.275 50.5068L207.767 49.941ZM203.987 39.47V11.8217H202.487V39.47H203.987ZM203.237 12.5717H213.767V11.0717H203.237V12.5717ZM213.017 11.8217V38.4699H214.517V11.8217H213.017ZM213.017 38.4699C213.017 40.3332 213.54 41.862 214.707 42.9105C215.86 43.9452 217.514 44.3966 219.532 44.3966V42.8966C217.707 42.8966 216.479 42.4852 215.709 41.7944C214.955 41.1174 214.517 40.0578 214.517 38.4699H213.017ZM219.532 44.3966C221.551 44.3966 223.205 43.9452 224.357 42.9105C225.525 41.862 226.047 40.3332 226.047 38.4699H224.547C224.547 40.0578 224.109 41.1174 223.355 41.7944C222.585 42.4852 221.357 42.8966 219.532 42.8966V44.3966ZM226.047 38.4699V11.8217H224.547V38.4699H226.047ZM225.297 12.5717H235.827V11.0717H225.297V12.5717ZM235.077 11.8217V39.47H236.577V11.8217H235.077ZM235.077 39.47C235.077 43.5826 233.63 46.8612 230.746 49.3757L231.731 50.5064C234.965 47.6873 236.577 43.9852 236.577 39.47H235.077ZM230.743 49.3784C227.927 51.8607 224.214 53.1324 219.532 53.1324V54.6324C224.498 54.6324 228.589 53.2765 231.734 50.5036L230.743 49.3784ZM219.532 53.1324C214.85 53.1324 211.116 51.8608 208.259 49.3752L207.275 50.5068C210.458 53.2764 214.566 54.6324 219.532 54.6324V53.1324ZM208.263 49.3789C205.417 46.8655 203.987 43.586 203.987 39.47H202.487C202.487 43.9818 204.077 47.683 207.27 50.5032L208.263 49.3789ZM275.205 11.8217V11.0717H274.779L274.561 11.4364L275.205 11.8217ZM285.676 11.8217H286.426V11.0717H285.676V11.8217ZM285.676 53V53.75H286.426V53H285.676ZM275.205 53H274.455V53.75H275.205V53ZM275.205 30.8225H275.955V28.1339L274.563 30.4343L275.205 30.8225ZM265.204 47.3527V48.1027H265.627L265.846 47.7409L265.204 47.3527ZM264.145 47.3527L263.503 47.7402L263.722 48.1027H264.145V47.3527ZM254.204 30.8814L254.846 30.4938L253.454 28.1874V30.8814H254.204ZM254.204 53V53.75H254.954V53H254.204ZM243.674 53H242.924V53.75H243.674V53ZM243.674 11.8217V11.0717H242.924V11.8217H243.674ZM254.204 11.8217L254.848 11.438L254.63 11.0717H254.204V11.8217ZM264.675 29.4107L264.03 29.7944L264.673 30.8739L265.318 29.7959L264.675 29.4107ZM275.205 12.5717H285.676V11.0717H275.205V12.5717ZM284.926 11.8217V53H286.426V11.8217H284.926ZM285.676 52.25H275.205V53.75H285.676V52.25ZM275.955 53V30.8225H274.455V53H275.955ZM274.563 30.4343L264.562 46.9645L265.846 47.7409L275.846 31.2108L274.563 30.4343ZM265.204 46.6027H264.145V48.1027H265.204V46.6027ZM264.787 46.9651L254.846 30.4938L253.562 31.2689L263.503 47.7402L264.787 46.9651ZM253.454 30.8814V53H254.954V30.8814H253.454ZM254.204 52.25H243.674V53.75H254.204V52.25ZM244.424 53V11.8217H242.924V53H244.424ZM243.674 12.5717H254.204V11.0717H243.674V12.5717ZM253.559 12.2053L264.03 29.7944L265.319 29.0271L254.848 11.438L253.559 12.2053ZM265.318 29.7959L275.848 12.2069L274.561 11.4364L264.031 29.0255L265.318 29.7959Z" fill="white"/>
</g>
<path d="M3.25399 11.8217V11.4545H2.8868V11.8217H3.25399ZM29.7258 15.8807L29.4717 16.1458L29.7258 15.8807ZM29.7258 36.5875L29.4717 36.3224L29.7258 36.5875ZM13.7839 40.6465V40.2793H13.4167V40.6465H13.7839ZM13.7839 53V53.3672H14.1511V53H13.7839ZM3.25399 53H2.8868V53.3672H3.25399V53ZM13.7839 30.6461H13.4167V31.0133H13.7839V30.6461ZM22.196 29.4107L21.9363 29.151L21.9301 29.1575L22.196 29.4107ZM22.196 23.1163L21.9301 23.3695L21.9363 23.376L21.9428 23.3822L22.196 23.1163ZM13.7839 21.881V21.5138H13.4167V21.881H13.7839ZM3.25399 12.1889H19.2547V11.4545H3.25399V12.1889ZM19.2547 12.1889C23.3236 12.1889 26.721 13.5097 29.4717 16.1458L29.9798 15.6156C27.0832 12.8396 23.4999 11.4545 19.2547 11.4545V12.1889ZM29.4717 16.1458C32.2174 18.7771 33.5941 22.1298 33.5941 26.2341H34.3285C34.3285 21.9459 32.8814 18.3963 29.9798 15.6156L29.4717 16.1458ZM33.5941 26.2341C33.5941 30.3384 32.2174 33.6911 29.4717 36.3224L29.9798 36.8526C32.8814 34.0719 34.3285 30.5223 34.3285 26.2341H33.5941ZM29.4717 36.3224C26.721 38.9585 23.3236 40.2793 19.2547 40.2793V41.0137C23.4999 41.0137 27.0832 39.6285 29.9798 36.8526L29.4717 36.3224ZM19.2547 40.2793H13.7839V41.0137H19.2547V40.2793ZM13.4167 40.6465V53H14.1511V40.6465H13.4167ZM13.7839 52.6328H3.25399V53.3672H13.7839V52.6328ZM3.62119 53V11.8217H2.8868V53H3.62119ZM13.7839 31.0133H19.2547V30.2789H13.7839V31.0133ZM19.2547 31.0133C20.5278 31.0133 21.6056 30.5631 22.4619 29.6639L21.9301 29.1575C21.2177 29.9055 20.3346 30.2789 19.2547 30.2789V31.0133ZM22.4557 29.6704C23.3561 28.77 23.7986 27.6138 23.7986 26.2341H23.0642C23.0642 27.4427 22.6831 28.4043 21.9364 29.1511L22.4557 29.6704ZM23.7986 26.2341C23.7986 24.8546 23.3559 23.7139 22.4493 22.8504L21.9428 23.3822C22.6833 24.0874 23.0642 25.0252 23.0642 26.2341H23.7986ZM22.4619 22.8631C21.6056 21.9639 20.5278 21.5138 19.2547 21.5138V22.2482C20.3346 22.2482 21.2177 22.6215 21.9301 23.3695L22.4619 22.8631ZM19.2547 21.5138H13.7839V22.2482H19.2547V21.5138ZM13.4167 21.881V30.6461H14.1511V21.881H13.4167ZM50.3618 11.8217H50.729V11.4545H50.3618V11.8217ZM50.3618 42.8231H49.9946V43.1903H50.3618V42.8231ZM64.5389 42.8231H64.9061V42.4559H64.5389V42.8231ZM64.5389 53V53.3672H64.9061V53H64.5389ZM39.8319 53H39.4647V53.3672H39.8319V53ZM39.8319 11.8217V11.4545H39.4647V11.8217H39.8319ZM49.9946 11.8217V42.8231H50.729V11.8217H49.9946ZM50.3618 43.1903H64.5389V42.4559H50.3618V43.1903ZM64.1717 42.8231V53H64.9061V42.8231H64.1717ZM64.5389 52.6328H39.8319V53.3672H64.5389V52.6328ZM40.1991 53V11.8217H39.4647V53H40.1991ZM39.8319 12.1889H50.3618V11.4545H39.8319V12.1889ZM107.769 53V53.3672H108.277L108.118 52.8849L107.769 53ZM96.4158 53L96.0638 53.1046L96.1418 53.3672H96.4158V53ZM94.651 47.0586L95.003 46.954L94.925 46.6914H94.651V47.0586ZM80.9445 47.0586V46.6914H80.6705L80.5925 46.954L80.9445 47.0586ZM79.1797 53V53.3672H79.4537L79.5317 53.1046L79.1797 53ZM67.7675 53L67.4188 52.8849L67.2596 53.3672H67.7675V53ZM81.3563 11.8217V11.4545H81.0908L81.0076 11.7066L81.3563 11.8217ZM94.1804 11.8217L94.5291 11.7066L94.4459 11.4545H94.1804V11.8217ZM87.7684 23.9987L88.1202 23.8937L87.7659 22.7058L87.4161 23.8951L87.7684 23.9987ZM83.6505 37.9993L83.2982 37.8957L83.1598 38.3665H83.6505V37.9993ZM91.945 37.9993V38.3665H92.4378L92.2969 37.8944L91.945 37.9993ZM107.769 52.6328H96.4158V53.3672H107.769V52.6328ZM96.7678 52.8954L95.003 46.954L94.299 47.1631L96.0638 53.1046L96.7678 52.8954ZM94.651 46.6914H80.9445V47.4258H94.651V46.6914ZM80.5925 46.954L78.8277 52.8954L79.5317 53.1046L81.2965 47.1631L80.5925 46.954ZM79.1797 52.6328H67.7675V53.3672H79.1797V52.6328ZM68.1162 53.1151L81.705 11.9367L81.0076 11.7066L67.4188 52.8849L68.1162 53.1151ZM81.3563 12.1889H94.1804V11.4545H81.3563V12.1889ZM93.8317 11.9367L107.421 53.1151L108.118 52.8849L94.5291 11.7066L93.8317 11.9367ZM87.4161 23.8951L83.2982 37.8957L84.0028 38.1029L88.1206 24.1023L87.4161 23.8951ZM83.6505 38.3665H91.945V37.6321H83.6505V38.3665ZM92.2969 37.8944L88.1202 23.8937L87.4165 24.1037L91.5931 38.1043L92.2969 37.8944ZM106.951 11.8217V11.4545H106.584V11.8217H106.951ZM137.835 11.8217H138.202V11.4545H137.835V11.8217ZM137.835 21.9986V22.3658H138.202V21.9986H137.835ZM127.658 21.9986V21.6314H127.291V21.9986H127.658ZM127.658 53V53.3672H128.025V53H127.658ZM117.128 53H116.761V53.3672H117.128V53ZM117.128 21.9986H117.495V21.6314H117.128V21.9986ZM106.951 21.9986H106.584V22.3658H106.951V21.9986ZM106.951 12.1889H137.835V11.4545H106.951V12.1889ZM137.468 11.8217V21.9986H138.202V11.8217H137.468ZM137.835 21.6314H127.658V22.3658H137.835V21.6314ZM127.291 21.9986V53H128.025V21.9986H127.291ZM127.658 52.6328H117.128V53.3672H127.658V52.6328ZM117.495 53V21.9986H116.761V53H117.495ZM117.128 21.6314H106.951V22.3658H117.128V21.6314ZM107.318 21.9986V11.8217H106.584V21.9986H107.318ZM143.419 53H143.052V53.3672H143.419V53ZM143.419 11.8217V11.4545H143.052V11.8217H143.419ZM153.949 11.8217H154.316V11.4545H153.949V11.8217ZM153.949 53V53.3672H154.316V53H153.949ZM143.786 53V11.8217H143.052V53H143.786ZM143.419 12.1889H153.949V11.4545H143.419V12.1889ZM153.582 11.8217V53H154.316V11.8217H153.582ZM153.949 52.6328H143.419V53.3672H153.949V52.6328ZM184.895 32.5285L184.594 32.7394L185.262 33.6911V32.5285H184.895ZM184.895 11.8217V11.4545H184.528V11.8217H184.895ZM195.366 11.8217H195.733V11.4545H195.366V11.8217ZM195.366 53V53.3672H195.733V53H195.366ZM187.248 53L186.947 53.2109L187.057 53.3672H187.248V53ZM172.718 32.2932L173.019 32.0823L172.351 31.1306V32.2932H172.718ZM172.718 53V53.3672H173.085V53H172.718ZM162.188 53H161.821V53.3672H162.188V53ZM162.188 11.8217V11.4545H161.821V11.8217H162.188ZM170.365 11.8217L170.665 11.6108L170.556 11.4545H170.365V11.8217ZM185.262 32.5285V11.8217H184.528V32.5285H185.262ZM184.895 12.1889H195.366V11.4545H184.895V12.1889ZM194.999 11.8217V53H195.733V11.8217H194.999ZM195.366 52.6328H187.248V53.3672H195.366V52.6328ZM187.549 52.7891L173.019 32.0823L172.417 32.5041L186.947 53.2109L187.549 52.7891ZM172.351 32.2932V53H173.085V32.2932H172.351ZM172.718 52.6328H162.188V53.3672H172.718V52.6328ZM162.555 53V11.8217H161.821V53H162.555ZM162.188 12.1889H170.365V11.4545H162.188V12.1889ZM170.064 12.0326L184.594 32.7394L185.196 32.3176L170.665 11.6108L170.064 12.0326ZM203.237 11.8217V11.4545H202.87V11.8217H203.237ZM213.767 11.8217H214.134V11.4545H213.767V11.8217ZM225.297 11.8217V11.4545H224.93V11.8217H225.297ZM235.827 11.8217H236.194V11.4545H235.827V11.8217ZM231.239 49.941L230.997 49.6642L230.996 49.6656L231.239 49.941ZM207.767 49.941L207.524 50.2163L207.526 50.2181L207.767 49.941ZM203.604 39.47V11.8217H202.87V39.47H203.604ZM203.237 12.1889H213.767V11.4545H203.237V12.1889ZM213.4 11.8217V38.4699H214.134V11.8217H213.4ZM213.4 38.4699C213.4 40.2629 213.901 41.672 214.963 42.6257C216.018 43.5727 217.563 44.0138 219.532 44.0138V43.2794C217.658 43.2794 216.321 42.8578 215.454 42.0793C214.594 41.3074 214.134 40.1281 214.134 38.4699H213.4ZM219.532 44.0138C221.501 44.0138 223.047 43.5727 224.101 42.6257C225.163 41.672 225.664 40.2629 225.664 38.4699H224.93C224.93 40.1281 224.47 41.3074 223.61 42.0793C222.743 42.8578 221.406 43.2794 219.532 43.2794V44.0138ZM225.664 38.4699V11.8217H224.93V38.4699H225.664ZM225.297 12.1889H235.827V11.4545H225.297V12.1889ZM235.46 11.8217V39.47H236.194V11.8217H235.46ZM235.46 39.47C235.46 43.6854 233.971 47.072 230.997 49.6643L231.48 50.2178C234.624 47.4765 236.194 43.8824 236.194 39.47H235.46ZM230.996 49.6656C228.096 52.222 224.286 53.5152 219.532 53.5152V54.2496C224.425 54.2496 228.42 52.9152 231.481 50.2165L230.996 49.6656ZM219.532 53.5152C214.778 53.5152 210.948 52.2221 208.008 49.664L207.526 50.2181C210.625 52.9152 214.639 54.2496 219.532 54.2496V53.5152ZM208.01 49.6658C205.075 47.0741 203.604 43.687 203.604 39.47H202.87C202.87 43.8808 204.419 47.4744 207.524 50.2163L208.01 49.6658ZM275.205 11.8217V11.4545H274.996L274.89 11.6331L275.205 11.8217ZM285.676 11.8217H286.043V11.4545H285.676V11.8217ZM285.676 53V53.3672H286.043V53H285.676ZM275.205 53H274.837V53.3672H275.205V53ZM275.205 30.8225H275.572V29.5062L274.89 30.6325L275.205 30.8225ZM265.204 47.3527V47.7199H265.411L265.518 47.5428L265.204 47.3527ZM264.145 47.3527L263.831 47.5424L263.938 47.7199H264.145V47.3527ZM254.204 30.8814L254.518 30.6916L253.836 29.5624V30.8814H254.204ZM254.204 53V53.3672H254.571V53H254.204ZM243.674 53H243.307V53.3672H243.674V53ZM243.674 11.8217V11.4545H243.307V11.8217H243.674ZM254.204 11.8217L254.519 11.6338L254.412 11.4545H254.204V11.8217ZM264.675 29.4107L264.359 29.5985L264.674 30.1271L264.99 29.5993L264.675 29.4107ZM275.205 12.1889H285.676V11.4545H275.205V12.1889ZM285.308 11.8217V53H286.043V11.8217H285.308ZM285.676 52.6328H275.205V53.3672H285.676V52.6328ZM275.572 53V30.8225H274.837V53H275.572ZM274.89 30.6325L264.89 47.1626L265.518 47.5428L275.519 31.0126L274.89 30.6325ZM265.204 46.9855H264.145V47.7199H265.204V46.9855ZM264.46 47.1629L254.518 30.6916L253.889 31.0711L263.831 47.5424L264.46 47.1629ZM253.836 30.8814V53H254.571V30.8814H253.836ZM254.204 52.6328H243.674V53.3672H254.204V52.6328ZM244.041 53V11.8217H243.307V53H244.041ZM243.674 12.1889H254.204V11.4545H243.674V12.1889ZM253.888 12.0095L264.359 29.5985L264.99 29.2229L254.519 11.6338L253.888 12.0095ZM264.99 29.5993L275.52 12.0103L274.89 11.6331L264.36 29.2221L264.99 29.5993Z" fill="white"/>
<defs>
<filter id="filter0_f_106_2640" x="1.03759" y="9.60537" width="286.855" height="46.4933" filterUnits="userSpaceOnUse" color-interpolation-filters="sRGB">
<feFlood flood-opacity="0" result="BackgroundImageFix"/>
<feBlend mode="normal" in="SourceGraphic" in2="BackgroundImageFix" result="shape"/>
<feGaussianBlur stdDeviation="1.10816" result="effect1_foregroundBlur_106_2640"/>
</filter>
</defs>
</svg>
