<svg width="211" height="54" viewBox="0 0 211 54" fill="none" xmlns="http://www.w3.org/2000/svg">
<g filter="url(#filter0_f_114_18)">
<g filter="url(#filter1_f_114_18)">
<path d="M2.37576 8.93555V8.10146H1.54167V8.93555H2.37576ZM21.7029 11.899L21.1258 12.5013L21.1258 12.5013L21.7029 11.899ZM21.7029 27.0172L21.1258 26.415L21.1258 26.415L21.7029 27.0172ZM10.0637 29.9807V29.1466H9.22958V29.9807H10.0637ZM10.0637 39V39.8341H10.8978V39H10.0637ZM2.37576 39H1.54167V39.8341H2.37576V39ZM10.0637 22.6793H9.22958V23.5134H10.0637V22.6793ZM16.2054 21.7774L15.6156 21.1876L15.6084 21.1948L15.6014 21.2021L16.2054 21.7774ZM16.2054 17.1818L15.6014 17.757L15.6154 17.7718L15.6302 17.7858L16.2054 17.1818ZM10.0637 16.2799V15.4458H9.22958V16.2799H10.0637ZM2.37576 9.76965H14.0579V8.10146H2.37576V9.76965ZM14.0579 9.76965C16.8929 9.76965 19.23 10.6844 21.1258 12.5013L22.28 11.2968C20.0527 9.16236 17.2932 8.10146 14.0579 8.10146V9.76965ZM21.1258 12.5013C23.0103 14.3073 23.9612 16.6033 23.9612 19.4581H25.6293C25.6293 16.1855 24.5186 13.4422 22.28 11.2968L21.1258 12.5013ZM23.9612 19.4581C23.9612 22.3129 23.0103 24.609 21.1258 26.415L22.28 27.6194C24.5186 25.4741 25.6293 22.7307 25.6293 19.4581H23.9612ZM21.1258 26.415C19.23 28.2318 16.8929 29.1466 14.0579 29.1466V30.8148C17.2932 30.8148 20.0527 29.7539 22.28 27.6194L21.1258 26.415ZM14.0579 29.1466H10.0637V30.8148H14.0579V29.1466ZM9.22958 29.9807V39H10.8978V29.9807H9.22958ZM10.0637 38.1659H2.37576V39.8341H10.0637V38.1659ZM3.20986 39V8.93555H1.54167V39H3.20986ZM10.0637 23.5134H14.0579V21.8452H10.0637V23.5134ZM14.0579 23.5134C15.1363 23.5134 16.0733 23.1255 16.8094 22.3526L15.6014 21.2021C15.1922 21.6318 14.6975 21.8452 14.0579 21.8452V23.5134ZM16.7952 22.3672C17.571 21.5914 17.9414 20.5973 17.9414 19.4581H16.2732C16.2732 20.2087 16.0424 20.7608 15.6156 21.1876L16.7952 22.3672ZM17.9414 19.4581C17.9414 18.3195 17.5707 17.3302 16.7806 16.5778L15.6302 17.7858C16.0427 18.1787 16.2732 18.707 16.2732 19.4581H17.9414ZM16.8094 16.6066C16.0733 15.8337 15.1363 15.4458 14.0579 15.4458V17.114C14.6975 17.114 15.1922 17.3274 15.6014 17.757L16.8094 16.6066ZM14.0579 15.4458H10.0637V17.114H14.0579V15.4458ZM9.22958 16.2799V22.6793H10.8978V16.2799H9.22958ZM36.7694 8.93555H37.6034V8.10146H36.7694V8.93555ZM36.7694 31.5698H35.9353V32.4039H36.7694V31.5698ZM47.1201 31.5698H47.9542V30.7357H47.1201V31.5698ZM47.1201 39V39.8341H47.9542V39H47.1201ZM29.0814 39H28.2474V39.8341H29.0814V39ZM29.0814 8.93555V8.10146H28.2474V8.93555H29.0814ZM35.9353 8.93555V31.5698H37.6034V8.93555H35.9353ZM36.7694 32.4039H47.1201V30.7357H36.7694V32.4039ZM46.286 31.5698V39H47.9542V31.5698H46.286ZM47.1201 38.1659H29.0814V39.8341H47.1201V38.1659ZM29.9155 39V8.93555H28.2474V39H29.9155ZM29.0814 9.76965H36.7694V8.10146H29.0814V9.76965ZM78.6827 39V39.8341H79.8363L79.4748 38.7386L78.6827 39ZM70.3936 39L69.594 39.2375L69.7712 39.8341H70.3936V39ZM69.1051 34.6621L69.9046 34.4246L69.7274 33.828H69.1051V34.6621ZM59.0979 34.6621V33.828H58.4755L58.2983 34.4246L59.0979 34.6621ZM57.8094 39V39.8341H58.4318L58.609 39.2375L57.8094 39ZM49.4773 39L48.6852 38.7386L48.3237 39.8341H49.4773V39ZM59.3986 8.93555V8.10146H58.7955L58.6065 8.67417L59.3986 8.93555ZM68.7615 8.93555L69.5536 8.67417L69.3646 8.10146H68.7615V8.93555ZM64.08 17.826L64.8793 17.5876L64.0743 14.8893L63.2798 17.5907L64.08 17.826ZM61.0736 28.048L60.2734 27.8126L59.9588 28.882H61.0736V28.048ZM67.1294 28.048V28.882H68.2487L67.9287 27.8095L67.1294 28.048ZM78.6827 38.1659H70.3936V39.8341H78.6827V38.1659ZM71.1931 38.7625L69.9046 34.4246L68.3055 34.8996L69.594 39.2375L71.1931 38.7625ZM69.1051 33.828H59.0979V35.4962H69.1051V33.828ZM58.2983 34.4246L57.0099 38.7625L58.609 39.2375L59.8975 34.8996L58.2983 34.4246ZM57.8094 38.1659H49.4773V39.8341H57.8094V38.1659ZM50.2694 39.2614L60.1906 9.19694L58.6065 8.67417L48.6852 38.7386L50.2694 39.2614ZM59.3986 9.76965H68.7615V8.10146H59.3986V9.76965ZM67.9694 9.19694L77.8907 39.2614L79.4748 38.7386L69.5536 8.67417L67.9694 9.19694ZM63.2798 17.5907L60.2734 27.8126L61.8738 28.2833L64.8802 18.0614L63.2798 17.5907ZM61.0736 28.882H67.1294V27.2139H61.0736V28.882ZM67.9287 27.8095L64.8793 17.5876L63.2807 18.0645L66.3301 28.2864L67.9287 27.8095ZM78.0855 8.93555V8.10146H77.2514V8.93555H78.0855ZM100.634 8.93555H101.468V8.10146H100.634V8.93555ZM100.634 16.3658V17.1999H101.468V16.3658H100.634ZM93.2036 16.3658V15.5317H92.3695V16.3658H93.2036ZM93.2036 39V39.8341H94.0377V39H93.2036ZM85.5157 39H84.6816V39.8341H85.5157V39ZM85.5157 16.3658H86.3498V15.5317H85.5157V16.3658ZM78.0855 16.3658H77.2514V17.1999H78.0855V16.3658ZM78.0855 9.76965H100.634V8.10146H78.0855V9.76965ZM99.7997 8.93555V16.3658H101.468V8.93555H99.7997ZM100.634 15.5317H93.2036V17.1999H100.634V15.5317ZM92.3695 16.3658V39H94.0377V16.3658H92.3695ZM93.2036 38.1659H85.5157V39.8341H93.2036V38.1659ZM86.3498 39V16.3658H84.6816V39H86.3498ZM85.5157 15.5317H78.0855V17.1999H85.5157V15.5317ZM78.9196 16.3658V8.93555H77.2514V16.3658H78.9196ZM104.711 39H103.877V39.8341H104.711V39ZM104.711 8.93555V8.10146H103.877V8.93555H104.711ZM112.399 8.93555H113.233V8.10146H112.399V8.93555ZM112.399 39V39.8341H113.233V39H112.399ZM105.545 39V8.93555H103.877V39H105.545ZM104.711 9.76965H112.399V8.10146H104.711V9.76965ZM111.564 8.93555V39H113.233V8.93555H111.564ZM112.399 38.1659H104.711V39.8341H112.399V38.1659ZM134.993 24.0537L134.31 24.5328L135.827 26.6945V24.0537H134.993ZM134.993 8.93555V8.10146H134.158V8.93555H134.993ZM142.637 8.93555H143.472V8.10146H142.637V8.93555ZM142.637 39V39.8341H143.472V39H142.637ZM136.71 39L136.028 39.4791L136.277 39.8341H136.71V39ZM126.102 23.8819L126.785 23.4028L125.268 21.2411V23.8819H126.102ZM126.102 39V39.8341H126.936V39H126.102ZM118.414 39H117.58V39.8341H118.414V39ZM118.414 8.93555V8.10146H117.58V8.93555H118.414ZM124.384 8.93555L125.067 8.45645L124.818 8.10146H124.384V8.93555ZM135.827 24.0537V8.93555H134.158V24.0537H135.827ZM134.993 9.76965H142.637V8.10146H134.993V9.76965ZM141.803 8.93555V39H143.472V8.93555H141.803ZM142.637 38.1659H136.71V39.8341H142.637V38.1659ZM137.393 38.5209L126.785 23.4028L125.419 24.361L136.028 39.4791L137.393 38.5209ZM125.268 23.8819V39H126.936V23.8819H125.268ZM126.102 38.1659H118.414V39.8341H126.102V38.1659ZM119.248 39V8.93555H117.58V39H119.248ZM118.414 9.76965H124.384V8.10146H118.414V9.76965ZM123.701 9.41466L134.31 24.5328L135.675 23.5746L125.067 8.45645L123.701 9.41466ZM148.384 8.93555V8.10146H147.55V8.93555H148.384ZM156.072 8.93555H156.906V8.10146H156.072V8.93555ZM164.49 8.93555V8.10146H163.656V8.93555H164.49ZM172.178 8.93555H173.012V8.10146H172.178V8.93555ZM168.828 36.7666L168.28 36.1379L168.277 36.141L168.828 36.7666ZM151.691 36.7666L151.139 37.3919L151.144 37.3959L151.691 36.7666ZM149.218 29.1217V8.93555H147.55V29.1217H149.218ZM148.384 9.76965H156.072V8.10146H148.384V9.76965ZM155.238 8.93555V28.3915H156.906V8.93555H155.238ZM155.238 28.3915C155.238 29.8045 155.636 31.0103 156.567 31.8468C157.482 32.668 158.77 33.0052 160.281 33.0052V31.337C158.986 31.337 158.17 31.0443 157.682 30.6056C157.21 30.1822 156.906 29.4982 156.906 28.3915H155.238ZM160.281 33.0052C161.792 33.0052 163.081 32.668 163.995 31.8468C164.927 31.0103 165.324 29.8045 165.324 28.3915H163.656C163.656 29.4982 163.352 30.1822 162.881 30.6056C162.392 31.0443 161.576 31.337 160.281 31.337V33.0052ZM165.324 28.3915V8.93555H163.656V28.3915H165.324ZM164.49 9.76965H172.178V8.10146H164.49V9.76965ZM171.344 8.93555V29.1217H173.012V8.93555H171.344ZM171.344 29.1217C171.344 32.0475 170.319 34.3603 168.28 36.1379L169.376 37.3954C171.804 35.2789 173.012 32.4951 173.012 29.1217H171.344ZM168.277 36.141C166.284 37.8977 163.645 38.8101 160.281 38.8101V40.4783C163.961 40.4783 167.02 39.4723 169.38 37.3923L168.277 36.141ZM160.281 38.8101C156.917 38.8101 154.262 37.8979 152.239 36.1374L151.144 37.3959C153.53 39.4722 156.601 40.4783 160.281 40.4783V38.8101ZM152.243 36.1414C150.232 34.365 149.218 32.0512 149.218 29.1217H147.55C147.55 32.4914 148.741 35.2742 151.139 37.3918L152.243 36.1414ZM200.928 8.93555V8.10146H200.455L200.212 8.50712L200.928 8.93555ZM208.573 8.93555H209.407V8.10146H208.573V8.93555ZM208.573 39V39.8341H209.407V39H208.573ZM200.928 39H200.094V39.8341H200.928V39ZM200.928 22.8081H201.762V19.8181L200.214 22.3764L200.928 22.8081ZM193.627 34.8769V35.711H194.097L194.34 35.3086L193.627 34.8769ZM192.853 34.8769L192.139 35.3079L192.383 35.711H192.853V34.8769ZM185.595 22.8511L186.309 22.4201L184.761 19.855V22.8511H185.595ZM185.595 39V39.8341H186.429V39H185.595ZM177.907 39H177.073V39.8341H177.907V39ZM177.907 8.93555V8.10146H177.073V8.93555H177.907ZM185.595 8.93555L186.312 8.50888L186.069 8.10146H185.595V8.93555ZM193.24 21.7774L192.523 22.204L193.238 23.4046L193.956 22.2058L193.24 21.7774ZM200.928 9.76965H208.573V8.10146H200.928V9.76965ZM207.739 8.93555V39H209.407V8.93555H207.739ZM208.573 38.1659H200.928V39.8341H208.573V38.1659ZM201.762 39V22.8081H200.094V39H201.762ZM200.214 22.3764L192.913 34.4451L194.34 35.3086L201.642 23.2399L200.214 22.3764ZM193.627 34.0428H192.853V35.711H193.627V34.0428ZM193.568 34.4459L186.309 22.4201L184.881 23.2821L192.139 35.3079L193.568 34.4459ZM184.761 22.8511V39H186.429V22.8511H184.761ZM185.595 38.1659H177.907V39.8341H185.595V38.1659ZM178.741 39V8.93555H177.073V39H178.741ZM177.907 9.76965H185.595V8.10146H177.907V9.76965ZM184.878 9.36222L192.523 22.204L193.957 21.3507L186.312 8.50888L184.878 9.36222ZM193.956 22.2058L201.644 9.36399L200.212 8.50712L192.524 21.3489L193.956 22.2058Z" fill="url(#paint0_linear_114_18)"/>
</g>
<path d="M2.37576 8.93555V8.66746H2.10767V8.93555H2.37576ZM21.7029 11.899L21.5174 12.0926L21.5174 12.0926L21.7029 11.899ZM21.7029 27.0172L21.5174 26.8236L21.5174 26.8236L21.7029 27.0172ZM10.0637 29.9807V29.7126H9.79558V29.9807H10.0637ZM10.0637 39V39.2681H10.3318V39H10.0637ZM2.37576 39H2.10767V39.2681H2.37576V39ZM10.0637 22.6793H9.79558V22.9474H10.0637V22.6793ZM16.2054 21.7774L16.0158 21.5877L16.0113 21.5925L16.2054 21.7774ZM16.2054 17.1818L16.011 17.3669L16.0205 17.3759L16.2054 17.1818ZM10.0637 16.2799V16.0118H9.79558V16.2799H10.0637ZM2.37576 9.20365H14.0579V8.66746H2.37576V9.20365ZM14.0579 9.20365C17.0287 9.20365 19.5091 10.168 21.5174 12.0926L21.8884 11.7055C19.7736 9.67878 17.1574 8.66746 14.0579 8.66746V9.20365ZM21.5174 12.0926C23.5221 14.0137 24.5272 16.4615 24.5272 19.4581H25.0633C25.0633 16.3273 24.0069 13.7357 21.8884 11.7055L21.5174 12.0926ZM24.5272 19.4581C24.5272 22.4547 23.5221 24.9025 21.5174 26.8236L21.8884 27.2107C24.0069 25.1805 25.0633 22.589 25.0633 19.4581H24.5272ZM21.5174 26.8236C19.5091 28.7482 17.0287 29.7126 14.0579 29.7126V30.2488C17.1574 30.2488 19.7736 29.2374 21.8884 27.2107L21.5174 26.8236ZM14.0579 29.7126H10.0637V30.2488H14.0579V29.7126ZM9.79558 29.9807V39H10.3318V29.9807H9.79558ZM10.0637 38.7319H2.37576V39.2681H10.0637V38.7319ZM2.64386 39V8.93555H2.10767V39H2.64386ZM10.0637 22.9474H14.0579V22.4112H10.0637V22.9474ZM14.0579 22.9474C14.9875 22.9474 15.7744 22.6187 16.3995 21.9623L16.0113 21.5925C15.4911 22.1386 14.8464 22.4112 14.0579 22.4112V22.9474ZM16.395 21.9669C17.0524 21.3096 17.3754 20.4654 17.3754 19.4581H16.8393C16.8393 20.3405 16.561 21.0426 16.0158 21.5878L16.395 21.9669ZM17.3754 19.4581C17.3754 18.451 17.0523 17.6181 16.3903 16.9877L16.0205 17.3759C16.5611 17.8908 16.8393 18.5755 16.8393 19.4581H17.3754ZM16.3995 16.9969C15.7744 16.3405 14.9875 16.0118 14.0579 16.0118V16.548C14.8464 16.548 15.4911 16.8206 16.0113 17.3667L16.3995 16.9969ZM14.0579 16.0118H10.0637V16.548H14.0579V16.0118ZM9.79558 16.2799V22.6793H10.3318V16.2799H9.79558ZM36.7694 8.93555H37.0374V8.66746H36.7694V8.93555ZM36.7694 31.5698H36.5013V31.8379H36.7694V31.5698ZM47.1201 31.5698H47.3882V31.3017H47.1201V31.5698ZM47.1201 39V39.2681H47.3882V39H47.1201ZM29.0814 39H28.8134V39.2681H29.0814V39ZM29.0814 8.93555V8.66746H28.8134V8.93555H29.0814ZM36.5013 8.93555V31.5698H37.0374V8.93555H36.5013ZM36.7694 31.8379H47.1201V31.3017H36.7694V31.8379ZM46.852 31.5698V39H47.3882V31.5698H46.852ZM47.1201 38.7319H29.0814V39.2681H47.1201V38.7319ZM29.3495 39V8.93555H28.8134V39H29.3495ZM29.0814 9.20365H36.7694V8.66746H29.0814V9.20365ZM78.6827 39V39.2681H79.0535L78.9373 38.916L78.6827 39ZM70.3936 39L70.1366 39.0763L70.1935 39.2681H70.3936V39ZM69.1051 34.6621L69.3621 34.5858L69.3051 34.394H69.1051V34.6621ZM59.0979 34.6621V34.394H58.8979L58.8409 34.5858L59.0979 34.6621ZM57.8094 39V39.2681H58.0095L58.0664 39.0763L57.8094 39ZM49.4773 39L49.2227 38.916L49.1065 39.2681H49.4773V39ZM59.3986 8.93555V8.66746H59.2047L59.144 8.85154L59.3986 8.93555ZM68.7615 8.93555L69.0161 8.85154L68.9553 8.66746H68.7615V8.93555ZM64.08 17.826L64.3369 17.7494L64.0782 16.8821L63.8228 17.7504L64.08 17.826ZM61.0736 28.048L60.8164 27.9723L60.7153 28.316H61.0736V28.048ZM67.1294 28.048V28.316H67.4892L67.3863 27.9713L67.1294 28.048ZM78.6827 38.7319H70.3936V39.2681H78.6827V38.7319ZM70.6505 38.9237L69.3621 34.5858L68.8481 34.7385L70.1366 39.0763L70.6505 38.9237ZM69.1051 34.394H59.0979V34.9302H69.1051V34.394ZM58.8409 34.5858L57.5524 38.9237L58.0664 39.0763L59.3549 34.7385L58.8409 34.5858ZM57.8094 38.7319H49.4773V39.2681H57.8094V38.7319ZM49.7319 39.084L59.6531 9.01957L59.144 8.85154L49.2227 38.916L49.7319 39.084ZM59.3986 9.20365H68.7615V8.66746H59.3986V9.20365ZM68.5069 9.01957L78.4282 39.084L78.9373 38.916L69.0161 8.85154L68.5069 9.01957ZM63.8228 17.7504L60.8164 27.9723L61.3308 28.1236L64.3372 17.9017L63.8228 17.7504ZM61.0736 28.316H67.1294V27.7799H61.0736V28.316ZM67.3863 27.9713L64.3369 17.7494L63.8231 17.9027L66.8725 28.1246L67.3863 27.9713ZM78.0855 8.93555V8.66746H77.8174V8.93555H78.0855ZM100.634 8.93555H100.902V8.66746H100.634V8.93555ZM100.634 16.3658V16.6339H100.902V16.3658H100.634ZM93.2036 16.3658V16.0977H92.9355V16.3658H93.2036ZM93.2036 39V39.2681H93.4717V39H93.2036ZM85.5157 39H85.2476V39.2681H85.5157V39ZM85.5157 16.3658H85.7838V16.0977H85.5157V16.3658ZM78.0855 16.3658H77.8174V16.6339H78.0855V16.3658ZM78.0855 9.20365H100.634V8.66746H78.0855V9.20365ZM100.366 8.93555V16.3658H100.902V8.93555H100.366ZM100.634 16.0977H93.2036V16.6339H100.634V16.0977ZM92.9355 16.3658V39H93.4717V16.3658H92.9355ZM93.2036 38.7319H85.5157V39.2681H93.2036V38.7319ZM85.7838 39V16.3658H85.2476V39H85.7838ZM85.5157 16.0977H78.0855V16.6339H85.5157V16.0977ZM78.3536 16.3658V8.93555H77.8174V16.3658H78.3536ZM104.711 39H104.443V39.2681H104.711V39ZM104.711 8.93555V8.66746H104.443V8.93555H104.711ZM112.399 8.93555H112.667V8.66746H112.399V8.93555ZM112.399 39V39.2681H112.667V39H112.399ZM104.979 39V8.93555H104.443V39H104.979ZM104.711 9.20365H112.399V8.66746H104.711V9.20365ZM112.13 8.93555V39H112.667V8.93555H112.13ZM112.399 38.7319H104.711V39.2681H112.399V38.7319ZM134.993 24.0537L134.773 24.2077L135.261 24.9025V24.0537H134.993ZM134.993 8.93555V8.66746H134.724V8.93555H134.993ZM142.637 8.93555H142.906V8.66746H142.637V8.93555ZM142.637 39V39.2681H142.906V39H142.637ZM136.71 39L136.491 39.154L136.571 39.2681H136.71V39ZM126.102 23.8819L126.321 23.7279L125.834 23.0331V23.8819H126.102ZM126.102 39V39.2681H126.37V39H126.102ZM118.414 39H118.146V39.2681H118.414V39ZM118.414 8.93555V8.66746H118.146V8.93555H118.414ZM124.384 8.93555L124.604 8.78156L124.523 8.66746H124.384V8.93555ZM135.261 24.0537V8.93555H134.724V24.0537H135.261ZM134.993 9.20365H142.637V8.66746H134.993V9.20365ZM142.369 8.93555V39H142.906V8.93555H142.369ZM142.637 38.7319H136.71V39.2681H142.637V38.7319ZM136.93 38.846L126.321 23.7279L125.883 24.0359L136.491 39.154L136.93 38.846ZM125.834 23.8819V39H126.37V23.8819H125.834ZM126.102 38.7319H118.414V39.2681H126.102V38.7319ZM118.682 39V8.93555H118.146V39H118.682ZM118.414 9.20365H124.384V8.66746H118.414V9.20365ZM124.165 9.08955L134.773 24.2077L135.212 23.8997L124.604 8.78156L124.165 9.08955ZM148.384 8.93555V8.66746H148.116V8.93555H148.384ZM156.072 8.93555H156.34V8.66746H156.072V8.93555ZM164.49 8.93555V8.66746H164.222V8.93555H164.49ZM172.178 8.93555H172.446V8.66746H172.178V8.93555ZM168.828 36.7666L168.652 36.5646L168.651 36.5655L168.828 36.7666ZM151.691 36.7666L151.514 36.9676L151.515 36.9689L151.691 36.7666ZM148.652 29.1217V8.93555H148.116V29.1217H148.652ZM148.384 9.20365H156.072V8.66746H148.384V9.20365ZM155.804 8.93555V28.3915H156.34V8.93555H155.804ZM155.804 28.3915C155.804 29.7006 156.17 30.7293 156.945 31.4257C157.715 32.1171 158.844 32.4392 160.281 32.4392V31.903C158.913 31.903 157.937 31.5952 157.304 31.0267C156.676 30.4632 156.34 29.6022 156.34 28.3915H155.804ZM160.281 32.4392C161.719 32.4392 162.847 32.1171 163.617 31.4257C164.393 30.7293 164.758 29.7006 164.758 28.3915H164.222C164.222 29.6022 163.886 30.4632 163.259 31.0267C162.626 31.5952 161.65 31.903 160.281 31.903V32.4392ZM164.758 28.3915V8.93555H164.222V28.3915H164.758ZM164.49 9.20365H172.178V8.66746H164.49V9.20365ZM171.91 8.93555V29.1217H172.446V8.93555H171.91ZM171.91 29.1217C171.91 32.1994 170.823 34.672 168.652 36.5646L169.004 36.9687C171.3 34.9672 172.446 32.3432 172.446 29.1217H171.91ZM168.651 36.5655C166.534 38.432 163.752 39.3761 160.281 39.3761V39.9123C163.854 39.9123 166.77 38.9381 169.005 36.9677L168.651 36.5655ZM160.281 39.3761C156.81 39.3761 154.014 38.432 151.867 36.5644L151.515 36.9689C153.778 38.9381 156.709 39.9123 160.281 39.9123V39.3761ZM151.869 36.5657C149.726 34.6735 148.652 32.2006 148.652 29.1217H148.116C148.116 32.342 149.247 34.9657 151.514 36.9676L151.869 36.5657ZM200.928 8.93555V8.66746H200.776L200.698 8.79785L200.928 8.93555ZM208.573 8.93555H208.841V8.66746H208.573V8.93555ZM208.573 39V39.2681H208.841V39H208.573ZM200.928 39H200.66V39.2681H200.928V39ZM200.928 22.8081H201.196V21.8471L200.699 22.6694L200.928 22.8081ZM193.627 34.8769V35.145H193.778L193.856 35.0156L193.627 34.8769ZM192.853 34.8769L192.624 35.0154L192.702 35.145H192.853V34.8769ZM185.595 22.8511L185.825 22.7126L185.327 21.8881V22.8511H185.595ZM185.595 39V39.2681H185.863V39H185.595ZM177.907 39H177.639V39.2681H177.907V39ZM177.907 8.93555V8.66746H177.639V8.93555H177.907ZM185.595 8.93555L185.825 8.79841L185.747 8.66746H185.595V8.93555ZM193.24 21.7774L193.01 21.9145L193.239 22.3004L193.47 21.9151L193.24 21.7774ZM200.928 9.20365H208.573V8.66746H200.928V9.20365ZM208.305 8.93555V39H208.841V8.93555H208.305ZM208.573 38.7319H200.928V39.2681H208.573V38.7319ZM201.196 39V22.8081H200.66V39H201.196ZM200.699 22.6694L193.397 34.7381L193.856 35.0156L201.157 22.9469L200.699 22.6694ZM193.627 34.6088H192.853V35.145H193.627V34.6088ZM193.083 34.7383L185.825 22.7126L185.366 22.9896L192.624 35.0154L193.083 34.7383ZM185.327 22.8511V39H185.863V22.8511H185.327ZM185.595 38.7319H177.907V39.2681H185.595V38.7319ZM178.175 39V8.93555H177.639V39H178.175ZM177.907 9.20365H185.595V8.66746H177.907V9.20365ZM185.365 9.07269L193.01 21.9145L193.47 21.6402L185.825 8.79841L185.365 9.07269ZM193.47 21.9151L201.158 9.07326L200.698 8.79785L193.01 21.6397L193.47 21.9151Z" fill="white"/>
</g>
<defs>
<filter id="filter0_f_114_18" x="0.375" y="6.93555" width="210.197" height="34.7087" filterUnits="userSpaceOnUse" color-interpolation-filters="sRGB">
<feFlood flood-opacity="0" result="BackgroundImageFix"/>
<feBlend mode="normal" in="SourceGraphic" in2="BackgroundImageFix" result="shape"/>
<feGaussianBlur stdDeviation="1" result="effect1_foregroundBlur_114_18"/>
</filter>
<filter id="filter1_f_114_18" x="0.756857" y="7.3174" width="209.434" height="33.945" filterUnits="userSpaceOnUse" color-interpolation-filters="sRGB">
<feFlood flood-opacity="0" result="BackgroundImageFix"/>
<feBlend mode="normal" in="SourceGraphic" in2="BackgroundImageFix" result="shape"/>
<feGaussianBlur stdDeviation="0.809072" result="effect1_foregroundBlur_114_18"/>
</filter>
<linearGradient id="paint0_linear_114_18" x1="13.4141" y1="5.75678e-06" x2="212.14" y2="42.4985" gradientUnits="userSpaceOnUse">
<stop stop-color="white"/>
<stop offset="0.468709" stop-color="#9B9B9B"/>
<stop offset="1" stop-color="white"/>
</linearGradient>
</defs>
</svg>
