<svg width="30" height="30" viewBox="0 0 30 30" fill="none" xmlns="http://www.w3.org/2000/svg">
<path d="M4.71525 16.3345C5.26012 21.4741 9.62023 25.4908 14.9024 25.4908C16.3364 25.4923 17.7546 25.191 19.064 24.6065C16.7181 23.6443 14.1713 22.3845 11.6262 20.9182C9.13939 19.4867 6.74337 17.894 4.71525 16.3345ZM28.6825 20.1067C28.1876 19.4483 27.5182 18.7212 26.7032 17.9528C26.5477 18.6299 26.3335 19.2922 26.0629 19.9321C27.7348 21.6493 27.9955 22.5714 27.9356 22.7524C27.8192 22.8823 26.9431 23.1535 24.5505 22.547C24.2079 22.46 23.833 22.3541 23.4259 22.2291C23.1635 22.1484 22.8959 22.0613 22.6231 21.9677C23.0517 21.4762 23.4326 20.9451 23.7606 20.3815C23.7705 20.3646 23.781 20.3477 23.7909 20.3302C24.6797 18.783 25.1476 17.0298 25.1478 15.2454C25.148 14.8759 25.1286 14.5067 25.0896 14.1393C24.5325 9.00676 20.1765 5 14.9024 5C12.6646 4.99874 10.4884 5.7328 8.70862 7.08924C7.62987 7.91029 6.72334 8.9357 6.04075 10.107C6.03143 10.1239 6.02096 10.1407 6.01106 10.1576C5.68665 10.7228 5.41706 11.3177 5.20598 11.9343C4.98905 11.7453 4.77967 11.5576 4.57787 11.3713C4.26411 11.0803 3.98585 10.8108 3.73845 10.5564C2.01711 8.79487 1.8122 7.90131 1.86634 7.73598C1.99208 7.59453 2.91998 7.35527 5.25022 7.94264C5.67104 7.38842 6.13844 6.87116 6.64732 6.39652C5.54944 6.06994 4.5639 5.85223 3.73379 5.75618C1.94493 5.55127 0.774275 5.90346 0.253275 6.80459C0.0646667 7.12941 -0.116374 7.68301 0.0949372 8.46946C0.407538 9.6372 1.52172 11.0541 3.0987 12.5385C3.60107 13.0118 4.15001 13.4914 4.73563 13.9729C5.16174 14.3221 5.60881 14.6749 6.06869 15.0253C6.37566 15.2582 6.68904 15.491 7.00882 15.7239C7.3286 15.9567 7.65265 16.1853 7.98097 16.4096C9.46014 17.4347 11.0231 18.4191 12.5559 19.3022C13.1124 19.6228 13.6681 19.9332 14.2231 20.2336C14.778 20.534 15.3285 20.8213 15.8746 21.0957C17.1494 21.7361 18.3981 22.3135 19.592 22.8089C20.1039 23.0216 20.6047 23.2187 21.0945 23.4003C21.7866 23.6576 22.4549 23.8841 23.0917 24.075L23.1558 24.0942C24.6536 24.5401 25.9162 24.7747 26.9093 24.7928H27.0106C28.2703 24.7928 29.1237 24.4214 29.5475 23.6868C30.0766 22.7775 29.785 21.5725 28.6825 20.1067V20.1067Z" fill="url(#paint0_linear_306_33)"/>
<defs>
<linearGradient id="paint0_linear_306_33" x1="8.9411" y1="23.8234" x2="17.8822" y2="5" gradientUnits="userSpaceOnUse">
<stop stop-color="#3F65EC"/>
<stop offset="0.494792" stop-color="#8952EC" stop-opacity="0.73"/>
<stop offset="1" stop-color="#D43FEC"/>
</linearGradient>
</defs>
</svg>
