<svg width="201" height="76" viewBox="0 0 201 76" fill="none" xmlns="http://www.w3.org/2000/svg">
<g filter="url(#filter0_f_114_12)">
<g filter="url(#filter1_f_114_12)">
<path d="M9.30297 52.14L8.53749 53.3548L8.54495 53.3594L9.30297 52.14ZM3.12297 44.46L2.40102 43.2189L1.36129 43.8237L1.77456 44.9533L3.12297 44.46ZM12.303 39.12L13.6271 38.5647L12.9946 37.0566L11.581 37.8789L12.303 39.12ZM22.683 38.88L23.2452 37.5588L23.2164 37.5466L23.1871 37.5356L22.683 38.88ZM17.403 37.26L17.805 35.8816L17.7956 35.8789L17.403 37.26ZM8.10297 32.4L7.09741 33.4249L7.09741 33.4249L8.10297 32.4ZM9.06297 14.7L8.13621 13.6033L8.12847 13.6099L8.12082 13.6165L9.06297 14.7ZM28.863 13.62L28.1085 14.8416L28.115 14.8456L28.1216 14.8496L28.863 13.62ZM35.103 20.7L35.8295 21.9384L36.9576 21.2766L36.4036 20.0919L35.103 20.7ZM26.103 25.98L24.7806 26.5395L25.4182 28.0464L26.8295 27.2184L26.103 25.98ZM16.683 22.08L17.511 23.253L17.5334 23.2372L17.5552 23.2206L16.683 22.08ZM17.103 26.4L16.3065 27.5947L16.3177 27.6021L16.329 27.6093L17.103 26.4ZM22.863 28.62L23.2779 27.2454L23.2702 27.2431L22.863 28.62ZM27.783 30.3L28.3437 28.9782L28.332 28.9733L27.783 30.3ZM31.863 32.58L31.051 33.7642L31.0625 33.772L31.0741 33.7797L31.863 32.58ZM31.863 51.42L30.9698 50.2958L30.9698 50.2958L31.863 51.42ZM20.283 53.4642C16.124 53.4642 12.7427 52.5876 10.061 50.9206L8.54495 53.3594C11.7833 55.3724 15.7219 56.3358 20.283 56.3358V53.4642ZM10.0684 50.9252C7.42067 49.2568 5.56364 46.9522 4.47138 43.9667L1.77456 44.9533C3.0823 48.5278 5.34527 51.3432 8.53751 53.3548L10.0684 50.9252ZM3.84492 45.7011L13.0249 40.3611L11.581 37.8789L2.40102 43.2189L3.84492 45.7011ZM10.9789 39.6753C11.8439 41.7381 13.0833 43.3788 14.7406 44.4957C16.3997 45.6138 18.3723 46.1358 20.583 46.1358V43.2642C18.8336 43.2642 17.4462 42.8562 16.3454 42.1143C15.2427 41.3712 14.322 40.2219 13.6271 38.5647L10.9789 39.6753ZM20.583 46.1358C22.3131 46.1358 23.8434 45.8962 24.987 45.2407C26.2504 44.5166 26.9388 43.3381 26.9388 41.88H24.0672C24.0672 42.3019 23.9356 42.5334 23.559 42.7493C23.0625 43.0338 22.1329 43.2642 20.583 43.2642V46.1358ZM26.9388 41.88C26.9388 39.7656 25.2509 38.4123 23.2452 37.5588L22.1208 40.2012C23.875 40.9477 24.0672 41.5944 24.0672 41.88H26.9388ZM23.1871 37.5356C22.4845 37.2721 20.6624 36.715 17.805 35.8816L17.0009 38.6384C19.9035 39.485 21.6014 40.0079 22.1788 40.2244L23.1871 37.5356ZM17.7956 35.8789C13.8537 34.7582 10.9995 33.2304 9.10853 31.3751L7.09741 33.4249C9.44643 35.7296 12.7922 37.4418 17.0103 38.6411L17.7956 35.8789ZM9.10853 31.3751C7.30766 29.6082 6.35878 27.2407 6.35878 24.12H3.48715C3.48715 27.8793 4.65828 31.0318 7.09741 33.4249L9.10853 31.3751ZM6.35878 24.12C6.35878 20.6269 7.57975 17.8925 10.0051 15.7835L8.12082 13.6165C5.02619 16.3075 3.48715 19.8531 3.48715 24.12H6.35878ZM9.98973 15.7967C12.5421 13.6397 15.6831 12.5358 19.503 12.5358V9.66418C15.0829 9.66418 11.2638 10.9603 8.13621 13.6033L9.98973 15.7967ZM19.503 12.5358C22.7843 12.5358 25.6378 13.3156 28.1085 14.8416L29.6175 12.3984C26.6482 10.5644 23.2617 9.66418 19.503 9.66418V12.5358ZM28.1216 14.8496C30.5802 16.332 32.474 18.4671 33.8023 21.3081L36.4036 20.0919C34.8519 16.7729 32.5858 14.188 29.6043 12.3904L28.1216 14.8496ZM34.3764 19.4616L25.3764 24.7416L26.8295 27.2184L35.8295 21.9384L34.3764 19.4616ZM27.4253 25.4205C26.6891 23.6805 25.6687 22.2721 24.3135 21.3024C22.9479 20.3251 21.3409 19.8642 19.563 19.8642V22.7358C20.8251 22.7358 21.828 23.0549 22.6424 23.6376C23.4672 24.2279 24.1968 25.1595 24.7806 26.5395L27.4253 25.4205ZM19.563 19.8642C18.1443 19.8642 16.8315 20.1589 15.8108 20.9394L17.5552 23.2206C17.8944 22.9611 18.5017 22.7358 19.563 22.7358V19.8642ZM15.855 20.907C14.7897 21.659 14.2272 22.7586 14.2272 24.06H17.0988C17.0988 23.6814 17.2163 23.461 17.511 23.253L15.855 20.907ZM14.2272 24.06C14.2272 25.5835 15.062 26.765 16.3065 27.5947L17.8994 25.2053C17.2239 24.755 17.0988 24.3765 17.0988 24.06H14.2272ZM16.329 27.6093C17.5203 28.3718 19.6224 29.1588 22.4557 29.9969L23.2702 27.2431C20.4235 26.4012 18.6857 25.7082 17.877 25.1907L16.329 27.6093ZM22.448 29.9945C24.5512 30.6295 26.1388 31.1735 27.234 31.6267L28.332 28.9733C27.1072 28.4665 25.4147 27.8905 23.2779 27.2455L22.448 29.9945ZM27.2222 31.6218C28.4398 32.1383 29.716 32.8487 31.051 33.7642L32.675 31.3958C31.21 30.3913 29.7662 29.5817 28.3437 28.9782L27.2222 31.6218ZM31.0741 33.7797C33.5047 35.3779 34.8072 37.931 34.8072 41.76H37.6788C37.6788 37.189 36.0613 33.6221 32.6518 31.3803L31.0741 33.7797ZM34.8072 41.76C34.8072 45.4944 33.508 48.2792 30.9698 50.2958L32.7562 52.5442C36.058 49.9208 37.6788 46.2656 37.6788 41.76H34.8072ZM30.9698 50.2958C28.3689 52.3623 24.8529 53.4642 20.283 53.4642V56.3358C25.3131 56.3358 29.5171 55.1177 32.7562 52.5442L30.9698 50.2958ZM41.9477 54H40.5118V55.4358H41.9477V54ZM41.9477 12V10.5642H40.5118V12H41.9477ZM52.6877 12H54.1235V10.5642H52.6877V12ZM52.6877 54V55.4358H54.1235V54H52.6877ZM43.3835 54V12H40.5118V54H43.3835ZM41.9477 13.4358H52.6877V10.5642H41.9477V13.4358ZM51.2518 12V54H54.1235V12H51.2518ZM52.6877 52.5642H41.9477V55.4358H52.6877V52.5642ZM71.8314 12H73.2672V10.5642H71.8314V12ZM71.8314 43.62H70.3956V45.0558H71.8314V43.62ZM86.2914 43.62H87.7272V42.1842H86.2914V43.62ZM86.2914 54V55.4358H87.7272V54H86.2914ZM61.0914 54H59.6556V55.4358H61.0914V54ZM61.0914 12V10.5642H59.6556V12H61.0914ZM70.3956 12V43.62H73.2672V12H70.3956ZM71.8314 45.0558H86.2914V42.1842H71.8314V45.0558ZM84.8556 43.62V54H87.7272V43.62H84.8556ZM86.2914 52.5642H61.0914V55.4358H86.2914V52.5642ZM62.5272 54V12H59.6556V54H62.5272ZM61.0914 13.4358H71.8314V10.5642H61.0914V13.4358ZM111.478 54V55.4358H112.524L112.845 54.4411L111.478 54ZM98.6983 54L97.3319 54.4411L97.6531 55.4358H98.6983V54ZM85.1383 12V10.5642H83.1659L83.7719 12.4411L85.1383 12ZM96.8983 12L98.2801 11.6101L97.985 10.5642H96.8983V12ZM105.058 40.92L103.676 41.3099L105.053 46.1895L106.439 41.3126L105.058 40.92ZM113.278 12V10.5642H112.194L111.897 11.6074L113.278 12ZM125.038 12L126.405 12.4411L127.011 10.5642H125.038V12ZM111.478 52.5642H98.6983V55.4358H111.478V52.5642ZM100.065 53.5589L86.5047 11.5589L83.7719 12.4411L97.3319 54.4411L100.065 53.5589ZM85.1383 13.4358H96.8983V10.5642H85.1383V13.4358ZM95.5164 12.3899L103.676 41.3099L106.44 40.5301L98.2801 11.6101L95.5164 12.3899ZM106.439 41.3126L114.659 12.3926L111.897 11.6074L103.677 40.5274L106.439 41.3126ZM113.278 13.4358H125.038V10.5642H113.278V13.4358ZM123.672 11.5589L110.112 53.5589L112.845 54.4411L126.405 12.4411L123.672 11.5589ZM140.881 37.74V36.3042H139.445V37.74H140.881ZM140.881 43.92H139.445V45.3558H140.881V43.92ZM157.141 43.92H158.576V42.4842H157.141V43.92ZM157.141 54V55.4358H158.576V54H157.141ZM130.141 54H128.705V55.4358H130.141V54ZM130.141 12V10.5642H128.705V12H130.141ZM156.841 12H158.276V10.5642H156.841V12ZM156.841 22.02V23.4558H158.276V22.02H156.841ZM140.881 22.02V20.5842H139.445V22.02H140.881ZM140.881 27.84H139.445V29.2758H140.881V27.84ZM155.341 27.84H156.776V26.4042H155.341V27.84ZM155.341 37.74V39.1758H156.776V37.74H155.341ZM139.445 37.74V43.92H142.316V37.74H139.445ZM140.881 45.3558H157.141V42.4842H140.881V45.3558ZM155.705 43.92V54H158.576V43.92H155.705ZM157.141 52.5642H130.141V55.4358H157.141V52.5642ZM131.576 54V12H128.705V54H131.576ZM130.141 13.4358H156.841V10.5642H130.141V13.4358ZM155.405 12V22.02H158.276V12H155.405ZM156.841 20.5842H140.881V23.4558H156.841V20.5842ZM139.445 22.02V27.84H142.316V22.02H139.445ZM140.881 29.2758H155.341V26.4042H140.881V29.2758ZM153.905 27.84V37.74H156.776V27.84H153.905ZM155.341 36.3042H140.881V39.1758H155.341V36.3042ZM197.47 54V55.4358H199.911L198.725 53.3023L197.47 54ZM185.95 54L184.687 54.6821L185.093 55.4358H185.95V54ZM178.63 40.44L179.893 39.7579L179.487 39.0042H178.63V40.44ZM174.79 40.44V39.0042H173.354V40.44H174.79ZM174.79 54V55.4358H176.226V54H174.79ZM164.05 54H162.614V55.4358H164.05V54ZM164.05 12V10.5642H162.614V12H164.05ZM191.59 16.14L190.597 17.1766L190.608 17.1873L190.619 17.1978L191.59 16.14ZM188.83 38.46L188.125 37.2092L186.881 37.9101L187.575 39.1577L188.83 38.46ZM174.79 21.9V20.4642H173.354V21.9H174.79ZM174.79 31.32H173.354V32.7558H174.79V31.32ZM180.73 31.32L180.773 29.8848L180.752 29.8842H180.73V31.32ZM183.97 23.22L182.931 24.2114L182.931 24.2114L183.97 23.22ZM197.47 52.5642H185.95V55.4358H197.47V52.5642ZM187.213 53.3179L179.893 39.7579L177.367 41.1221L184.687 54.6821L187.213 53.3179ZM178.63 39.0042H174.79V41.8758H178.63V39.0042ZM173.354 40.44V54H176.226V40.44H173.354ZM174.79 52.5642H164.05V55.4358H174.79V52.5642ZM165.486 54V12H162.614V54H165.486ZM164.05 13.4358H180.85V10.5642H164.05V13.4358ZM180.85 13.4358C184.789 13.4358 188.005 14.6926 190.597 17.1766L192.583 15.1034C189.415 12.0674 185.471 10.5642 180.85 10.5642V13.4358ZM190.619 17.1978C193.22 19.5853 194.534 22.6507 194.534 26.52H197.406C197.406 21.9093 195.8 18.0547 192.561 15.0822L190.619 17.1978ZM194.534 26.52C194.534 28.7388 193.965 30.7821 192.821 32.6779L195.279 34.1621C196.695 31.8179 197.406 29.2612 197.406 26.52H194.534ZM192.821 32.6779C191.671 34.5816 190.114 36.0882 188.125 37.2092L189.535 39.7108C191.946 38.3518 193.869 36.4984 195.279 34.1621L192.821 32.6779ZM187.575 39.1577L196.215 54.6977L198.725 53.3023L190.085 37.7623L187.575 39.1577ZM180.73 20.4642H174.79V23.3358H180.73V20.4642ZM173.354 21.9V31.32H176.226V21.9H173.354ZM174.79 32.7558H180.73V29.8842H174.79V32.7558ZM180.687 32.7552C182.375 32.8063 183.861 32.2533 185.009 31.0514L182.931 29.0686C182.399 29.6267 181.725 29.9137 180.773 29.8848L180.687 32.7552ZM185.009 31.0514C186.142 29.8639 186.666 28.3493 186.666 26.64H183.794C183.794 27.7307 183.478 28.4961 182.931 29.0686L185.009 31.0514ZM186.666 26.64C186.666 24.9307 186.142 23.4161 185.009 22.2286L182.931 24.2114C183.478 24.7839 183.794 25.5493 183.794 26.64H186.666ZM185.009 22.2286C183.873 21.039 182.405 20.4642 180.73 20.4642V23.3358C181.695 23.3358 182.387 23.641 182.931 24.2114L185.009 22.2286Z" fill="url(#paint0_linear_114_12)"/>
</g>
<path d="M9.30297 52.14L9.05693 52.5305L9.05933 52.5319L9.30297 52.14ZM3.12297 44.46L2.89092 44.0611L2.55673 44.2555L2.68957 44.6186L3.12297 44.46ZM12.303 39.12L12.7286 38.9415L12.5253 38.4568L12.0709 38.7211L12.303 39.12ZM22.683 38.88L22.8637 38.4554L22.8544 38.4514L22.845 38.4479L22.683 38.88ZM17.403 37.26L17.5322 36.817L17.5292 36.8161L17.403 37.26ZM8.10297 32.4L7.77976 32.7294L7.77976 32.7294L8.10297 32.4ZM9.06297 14.7L8.76506 14.3475L8.76014 14.3517L9.06297 14.7ZM28.863 13.62L28.6204 14.0127L28.6247 14.0152L28.863 13.62ZM35.103 20.7L35.3365 21.0981L35.6991 20.8853L35.521 20.5045L35.103 20.7ZM26.103 25.98L25.6779 26.1598L25.8829 26.6442L26.3365 26.3781L26.103 25.98ZM16.683 22.08L16.9491 22.457L16.9563 22.4519L16.9633 22.4466L16.683 22.08ZM17.103 26.4L16.8469 26.7841L16.8542 26.7887L17.103 26.4ZM22.863 28.62L22.9963 28.1782L22.9939 28.1775L22.863 28.62ZM27.783 30.3L27.9632 29.8751L27.9594 29.8736L27.783 30.3ZM31.863 32.58L31.6019 32.9607L31.6094 32.9656L31.863 32.58ZM31.863 51.42L31.5759 51.0587L31.5759 51.0587L31.863 51.42ZM20.283 54.4385C15.9876 54.4385 12.4171 53.5324 9.54661 51.7481L9.05933 52.5319C12.1088 54.4276 15.8584 55.3615 20.283 55.3615V54.4385ZM9.549 51.7496C6.7165 49.9647 4.72174 47.4868 3.55637 44.3014L2.68957 44.6186C3.9242 47.9932 6.04943 50.6353 9.05694 52.5304L9.549 51.7496ZM3.35502 44.8589L12.535 39.5189L12.0709 38.7211L2.89092 44.0611L3.35502 44.8589ZM11.8774 39.2985C12.6847 41.2237 13.8159 42.6976 15.2851 43.6877C16.7548 44.6782 18.5288 45.1615 20.583 45.1615V44.2385C18.6771 44.2385 17.0912 43.7918 15.8009 42.9223C14.51 42.0524 13.4812 40.7363 12.7286 38.9415L11.8774 39.2985ZM20.583 45.1615C22.2519 45.1615 23.5785 44.925 24.5025 44.3954C25.465 43.8437 25.9645 42.9865 25.9645 41.88H25.0415C25.0415 42.6535 24.721 43.2063 24.0435 43.5946C23.3275 44.005 22.194 44.2385 20.583 44.2385V45.1615ZM25.9645 41.88C25.9645 40.3861 24.7841 39.2726 22.8637 38.4554L22.5023 39.3046C24.3418 40.0874 25.0415 40.9739 25.0415 41.88H25.9645ZM22.845 38.4479C22.1849 38.2003 20.4049 37.6548 17.5322 36.817L17.2738 37.703C20.161 38.5452 21.901 39.0797 22.5209 39.3121L22.845 38.4479ZM17.5292 36.8161C13.4936 35.6687 10.4726 34.0784 8.42617 32.0706L7.77976 32.7294C9.97338 34.8816 13.1524 36.5313 17.2768 37.7039L17.5292 36.8161ZM8.42617 32.0706C6.40875 30.0912 5.38447 27.4574 5.38447 24.12H4.46147C4.46147 27.6626 5.55719 30.5488 7.77976 32.7294L8.42617 32.0706ZM5.38447 24.12C5.38447 20.3643 6.71335 17.3547 9.36579 15.0482L8.76014 14.3517C5.89259 16.8453 4.46147 20.1156 4.46147 24.12H5.38447ZM9.36085 15.0525C12.1084 12.7306 15.4794 11.5615 19.503 11.5615V10.6385C15.2865 10.6385 11.6975 11.8694 8.76509 14.3475L9.36085 15.0525ZM19.503 11.5615C22.9463 11.5615 25.9806 12.3821 28.6205 14.0126L29.1055 13.2274C26.3054 11.4979 23.0997 10.6385 19.503 10.6385V11.5615ZM28.6247 14.0152C31.2607 15.6046 33.2808 17.8923 34.6849 20.8955L35.521 20.5045C34.0451 17.3477 31.9053 14.9154 29.1013 13.2248L28.6247 14.0152ZM34.8694 20.3019L25.8694 25.5819L26.3365 26.3781L35.3365 21.0981L34.8694 20.3019ZM26.528 25.8002C25.8435 24.1823 24.9218 22.9357 23.7465 22.0947C22.5679 21.2513 21.1659 20.8385 19.563 20.8385V21.7615C21.0001 21.7615 22.208 22.1287 23.2094 22.8453C24.2142 23.5643 25.0424 24.6577 25.6779 26.1598L26.528 25.8002ZM19.563 20.8385C18.2655 20.8385 17.1921 21.1097 16.4026 21.7134L16.9633 22.4466C17.5338 22.0103 18.3804 21.7615 19.563 21.7615V20.8385ZM16.4168 21.703C15.613 22.2704 15.2015 23.0717 15.2015 24.06H16.1245C16.1245 23.3683 16.393 22.8496 16.9491 22.457L16.4168 21.703ZM15.2015 24.06C15.2015 25.174 15.7955 26.083 16.847 26.784L17.359 26.016C16.4904 25.437 16.1245 24.786 16.1245 24.06H15.2015ZM16.8542 26.7887C17.9157 27.4681 19.8942 28.2232 22.7321 29.0625L22.9939 28.1775C20.1517 27.3368 18.2903 26.6119 17.3517 26.0113L16.8542 26.7887ZM22.7296 29.0618C24.8442 29.7002 26.4673 30.255 27.6065 30.7264L27.9594 29.8736C26.7786 29.385 25.1217 28.8198 22.9963 28.1782L22.7296 29.0618ZM27.6027 30.7248C28.8898 31.2709 30.2229 32.0149 31.602 32.9606L32.124 32.1994C30.7031 31.2251 29.3161 30.4491 27.9632 29.8752L27.6027 30.7248ZM31.6094 32.9656C34.3721 34.7822 35.7815 37.6792 35.7815 41.76H36.7045C36.7045 37.4408 35.1938 34.2178 32.1165 32.1944L31.6094 32.9656ZM35.7815 41.76C35.7815 45.7561 34.3732 48.8362 31.5759 51.0587L32.1501 51.7813C35.1928 49.3638 36.7045 46.0039 36.7045 41.76H35.7815ZM31.5759 51.0587C28.7584 53.2972 25.009 54.4385 20.283 54.4385V55.3615C25.1569 55.3615 29.1275 54.1828 32.1501 51.7813L31.5759 51.0587ZM41.9477 54H41.4862V54.4615H41.9477V54ZM41.9477 12V11.5385H41.4862V12H41.9477ZM52.6877 12H53.1492V11.5385H52.6877V12ZM52.6877 54V54.4615H53.1492V54H52.6877ZM42.4092 54V12H41.4862V54H42.4092ZM41.9477 12.4615H52.6877V11.5385H41.9477V12.4615ZM52.2262 12V54H53.1492V12H52.2262ZM52.6877 53.5385H41.9477V54.4615H52.6877V53.5385ZM71.8314 12H72.2929V11.5385H71.8314V12ZM71.8314 43.62H71.3699V44.0815H71.8314V43.62ZM86.2914 43.62H86.7529V43.1585H86.2914V43.62ZM86.2914 54V54.4615H86.7529V54H86.2914ZM61.0914 54H60.6299V54.4615H61.0914V54ZM61.0914 12V11.5385H60.6299V12H61.0914ZM71.3699 12V43.62H72.2929V12H71.3699ZM71.8314 44.0815H86.2914V43.1585H71.8314V44.0815ZM85.8299 43.62V54H86.7529V43.62H85.8299ZM86.2914 53.5385H61.0914V54.4615H86.2914V53.5385ZM61.5529 54V12H60.6299V54H61.5529ZM61.0914 12.4615H71.8314V11.5385H61.0914V12.4615ZM111.478 54V54.4615H111.814L111.917 54.1418L111.478 54ZM98.6983 54L98.2591 54.1418L98.3623 54.4615H98.6983V54ZM85.1383 12V11.5385H84.5043L84.6991 12.1418L85.1383 12ZM96.8983 12L97.3424 11.8747L97.2476 11.5385H96.8983V12ZM105.058 40.92L104.614 41.0453L105.057 42.6137L105.502 41.0462L105.058 40.92ZM113.278 12V11.5385H112.93L112.834 11.8738L113.278 12ZM125.038 12L125.477 12.1418L125.672 11.5385H125.038V12ZM111.478 53.5385H98.6983V54.4615H111.478V53.5385ZM99.1375 53.8582L85.5775 11.8582L84.6991 12.1418L98.2591 54.1418L99.1375 53.8582ZM85.1383 12.4615H96.8983V11.5385H85.1383V12.4615ZM96.4541 12.1253L104.614 41.0453L105.502 40.7947L97.3424 11.8747L96.4541 12.1253ZM105.502 41.0462L113.722 12.1262L112.834 11.8738L104.614 40.7938L105.502 41.0462ZM113.278 12.4615H125.038V11.5385H113.278V12.4615ZM124.599 11.8582L111.039 53.8582L111.917 54.1418L125.477 12.1418L124.599 11.8582ZM140.881 37.74V37.2785H140.419V37.74H140.881ZM140.881 43.92H140.419V44.3815H140.881V43.92ZM157.141 43.92H157.602V43.4585H157.141V43.92ZM157.141 54V54.4615H157.602V54H157.141ZM130.141 54H129.679V54.4615H130.141V54ZM130.141 12V11.5385H129.679V12H130.141ZM156.841 12H157.302V11.5385H156.841V12ZM156.841 22.02V22.4815H157.302V22.02H156.841ZM140.881 22.02V21.5585H140.419V22.02H140.881ZM140.881 27.84H140.419V28.3015H140.881V27.84ZM155.341 27.84H155.802V27.3785H155.341V27.84ZM155.341 37.74V38.2015H155.802V37.74H155.341ZM140.419 37.74V43.92H141.342V37.74H140.419ZM140.881 44.3815H157.141V43.4585H140.881V44.3815ZM156.679 43.92V54H157.602V43.92H156.679ZM157.141 53.5385H130.141V54.4615H157.141V53.5385ZM130.602 54V12H129.679V54H130.602ZM130.141 12.4615H156.841V11.5385H130.141V12.4615ZM156.379 12V22.02H157.302V12H156.379ZM156.841 21.5585H140.881V22.4815H156.841V21.5585ZM140.419 22.02V27.84H141.342V22.02H140.419ZM140.881 28.3015H155.341V27.3785H140.881V28.3015ZM154.879 27.84V37.74H155.802V27.84H154.879ZM155.341 37.2785H140.881V38.2015H155.341V37.2785ZM197.47 54V54.4615H198.255L197.873 53.7757L197.47 54ZM185.95 54L185.544 54.2192L185.675 54.4615H185.95V54ZM178.63 40.44L179.036 40.2208L178.905 39.9785H178.63V40.44ZM174.79 40.44V39.9785H174.329V40.44H174.79ZM174.79 54V54.4615H175.251V54H174.79ZM164.05 54H163.589V54.4615H164.05V54ZM164.05 12V11.5385H163.589V12H164.05ZM191.59 16.14L191.271 16.4733L191.278 16.48L191.59 16.14ZM188.83 38.46L188.603 38.058L188.204 38.2833L188.427 38.6843L188.83 38.46ZM174.79 21.9V21.4385H174.329V21.9H174.79ZM174.79 31.32H174.329V31.7815H174.79V31.32ZM180.73 31.32L180.744 30.8585H180.73V31.32ZM183.97 23.22L183.636 23.5387L183.636 23.5387L183.97 23.22ZM197.47 53.5385H185.95V54.4615H197.47V53.5385ZM186.356 53.7808L179.036 40.2208L178.224 40.6592L185.544 54.2192L186.356 53.7808ZM178.63 39.9785H174.79V40.9015H178.63V39.9785ZM174.329 40.44V54H175.251V40.44H174.329ZM174.79 53.5385H164.05V54.4615H174.79V53.5385ZM164.511 54V12H163.589V54H164.511ZM164.05 12.4615H180.85V11.5385H164.05V12.4615ZM180.85 12.4615C185.021 12.4615 188.483 13.8019 191.271 16.4732L191.909 15.8068C188.937 12.9581 185.239 11.5385 180.85 11.5385V12.4615ZM191.278 16.48C194.096 19.066 195.509 22.3991 195.509 26.52H196.431C196.431 22.1609 194.925 18.574 191.902 15.8L191.278 16.48ZM195.509 26.52C195.509 28.916 194.891 31.1335 193.655 33.1815L194.445 33.6585C195.769 31.4664 196.431 29.0839 196.431 26.52H195.509ZM193.655 33.1815C192.417 35.232 190.736 36.8562 188.603 38.058L189.057 38.862C191.324 37.5838 193.123 35.848 194.445 33.6585L193.655 33.1815ZM188.427 38.6843L197.067 54.2243L197.873 53.7757L189.233 38.2357L188.427 38.6843ZM180.73 21.4385H174.79V22.3615H180.73V21.4385ZM174.329 21.9V31.32H175.251V21.9H174.329ZM174.79 31.7815H180.73V30.8585H174.79V31.7815ZM180.716 31.7813C182.154 31.8249 183.365 31.3621 184.304 30.3787L183.636 29.7413C182.895 30.5179 181.946 30.8951 180.744 30.8587L180.716 31.7813ZM184.304 30.3787C185.238 29.3998 185.691 28.1394 185.691 26.64H184.769C184.769 27.9406 184.382 28.9602 183.636 29.7413L184.304 30.3787ZM185.691 26.64C185.691 25.1406 185.238 23.8802 184.304 22.9013L183.636 23.5387C184.382 24.3198 184.769 25.3394 184.769 26.64H185.691ZM184.304 22.9013C183.369 21.9218 182.164 21.4385 180.73 21.4385V22.3615C181.936 22.3615 182.891 22.7582 183.636 23.5387L184.304 22.9013Z" fill="white"/>
</g>
<defs>
<filter id="filter0_f_114_12" x="1.12305" y="9.09998" width="198.348" height="47.8" filterUnits="userSpaceOnUse" color-interpolation-filters="sRGB">
<feFlood flood-opacity="0" result="BackgroundImageFix"/>
<feBlend mode="normal" in="SourceGraphic" in2="BackgroundImageFix" result="shape"/>
<feGaussianBlur stdDeviation="1" result="effect1_foregroundBlur_114_12"/>
</filter>
<filter id="filter1_f_114_12" x="0.337564" y="8.31449" width="199.919" height="49.371" filterUnits="userSpaceOnUse" color-interpolation-filters="sRGB">
<feFlood flood-opacity="0" result="BackgroundImageFix"/>
<feBlend mode="normal" in="SourceGraphic" in2="BackgroundImageFix" result="shape"/>
<feGaussianBlur stdDeviation="1.39274" result="effect1_foregroundBlur_114_12"/>
</filter>
<linearGradient id="paint0_linear_114_12" x1="14.4605" y1="8.10214e-06" x2="203.73" y2="26.715" gradientUnits="userSpaceOnUse">
<stop stop-color="#7F8088"/>
<stop offset="1" stop-color="#788BEE"/>
</linearGradient>
</defs>
</svg>
