<svg width="34" height="27" viewBox="0 0 34 27" fill="none" xmlns="http://www.w3.org/2000/svg">
<path d="M33.6741 3.15853C32.76 4.5182 31.6385 5.67726 30.3097 6.6357C30.3228 6.89275 30.3294 7.18328 30.3294 7.5073C30.3294 9.30758 30.0669 11.11 29.542 12.9147C29.017 14.7193 28.2151 16.4467 27.1364 18.0968C26.0576 19.7469 24.7726 21.2087 23.2813 22.4823C21.7901 23.7559 19.9975 24.7714 17.9037 25.5288C15.8098 26.2862 13.5657 26.6649 11.1715 26.6649C7.43485 26.6649 3.99377 25.6561 0.848267 23.6386C1.40656 23.7007 1.942 23.7318 2.45461 23.7318C5.57626 23.7318 8.3644 22.7703 10.819 20.8473C9.36353 20.8206 8.06003 20.3725 6.90852 19.5031C5.75701 18.6337 4.96456 17.5228 4.53119 16.1703C4.95955 16.2519 5.38233 16.2927 5.79953 16.2927C6.40005 16.2927 6.99096 16.2144 7.57226 16.0577C6.01898 15.7467 4.7304 14.973 3.70652 13.7368C2.68268 12.5007 2.17076 11.0739 2.17076 9.45652V9.37317C3.12417 9.90106 4.14113 10.1819 5.22165 10.2156C4.3015 9.60213 3.57195 8.80219 3.03302 7.81576C2.49406 6.82932 2.22457 5.76182 2.22457 4.61326C2.22457 3.40191 2.52812 2.27391 3.1352 1.22928C4.82437 3.30215 6.87114 4.95885 9.27553 6.19939C11.6799 7.43994 14.2594 8.12891 17.014 8.26628C16.8965 7.77666 16.8376 7.26572 16.8374 6.73346C16.8374 4.87499 17.4951 3.28813 18.8105 1.97288C20.1258 0.657626 21.7128 0 23.5712 0C25.517 0 27.1559 0.708493 28.488 2.12548C30.01 1.82401 31.4351 1.27872 32.7633 0.48962C32.2516 2.1 31.2656 3.34229 29.8053 4.21651C31.1474 4.05702 32.437 3.70436 33.674 3.15853H33.6741Z" fill="url(#paint0_linear_102_94)"/>
<defs>
<linearGradient id="paint0_linear_102_94" x1="-4.95848" y1="-2.73674e-06" x2="70.9184" y2="-53.2156" gradientUnits="userSpaceOnUse">
<stop stop-color="#D43FEC"/>
<stop offset="1" stop-color="#3F65EC"/>
</linearGradient>
</defs>
</svg>
