<svg width="125" height="125" viewBox="0 0 125 125" fill="none" xmlns="http://www.w3.org/2000/svg">
<circle cx="62.2472" cy="62.2472" r="62.2472" fill="black"/>
<g filter="url(#filter0_f_227_8)">
<path d="M61.0363 31.9291V30.3735H60.7663L60.5121 30.4645L61.0363 31.9291ZM73.3719 31.9291H74.9275V30.3735H73.3719V31.9291ZM73.3719 88V89.5556H74.9275V88H73.3719ZM59.0337 88H57.4781V89.5556H59.0337V88ZM59.0337 46.9881H60.5894V44.9878L58.6506 45.4804L59.0337 46.9881ZM49.2614 49.4713L47.7653 49.8973L48.1793 51.3513L49.6445 50.979L49.2614 49.4713ZM45.817 37.376L45.2929 35.9113L43.9222 36.4019L44.3209 37.802L45.817 37.376ZM61.0363 33.4847H73.3719V30.3735H61.0363V33.4847ZM71.8163 31.9291V88H74.9275V31.9291H71.8163ZM73.3719 86.4444H59.0337V89.5556H73.3719V86.4444ZM60.5894 88V46.9881H57.4781V88H60.5894ZM58.6506 45.4804L48.8783 47.9636L49.6445 50.979L59.4169 48.4958L58.6506 45.4804ZM50.7575 49.0452L47.3132 36.9499L44.3209 37.802L47.7653 49.8973L50.7575 49.0452ZM46.3412 38.8406L61.5605 33.3937L60.5121 30.4645L45.2929 35.9113L46.3412 38.8406Z" fill="url(#paint0_linear_227_8)"/>
</g>
<path d="M45.817 37.376L45.6486 36.9052L45.208 37.0629L45.3362 37.5129L45.817 37.376ZM61.0363 31.9291V31.4291H60.9495L60.8678 31.4583L61.0363 31.9291ZM73.3719 31.9291H73.8719V31.4291H73.3719V31.9291ZM73.3719 88V88.5H73.8719V88H73.3719ZM59.0337 88H58.5337V88.5H59.0337V88ZM59.0337 46.9881H59.5337V46.3452L58.9106 46.5035L59.0337 46.9881ZM49.2614 49.4713L48.7805 49.6082L48.9136 50.0755L49.3845 49.9559L49.2614 49.4713ZM45.9855 37.8467L61.2048 32.3998L60.8678 31.4583L45.6486 36.9052L45.9855 37.8467ZM61.0363 32.4291H73.3719V31.4291H61.0363V32.4291ZM72.8719 31.9291V88H73.8719V31.9291H72.8719ZM73.3719 87.5H59.0337V88.5H73.3719V87.5ZM59.5337 88V46.9881H58.5337V88H59.5337ZM58.9106 46.5035L49.1383 48.9867L49.3845 49.9559L59.1569 47.4727L58.9106 46.5035ZM49.7423 49.3343L46.2979 37.239L45.3362 37.5129L48.7805 49.6082L49.7423 49.3343Z" fill="white"/>
<defs>
<filter id="filter0_f_227_8" x="42.7991" y="28.9112" width="33.5906" height="62.1067" filterUnits="userSpaceOnUse" color-interpolation-filters="sRGB">
<feFlood flood-opacity="0" result="BackgroundImageFix"/>
<feBlend mode="normal" in="SourceGraphic" in2="BackgroundImageFix" result="shape"/>
<feGaussianBlur stdDeviation="1.50894" result="effect1_foregroundBlur_227_8"/>
</filter>
<linearGradient id="paint0_linear_227_8" x1="47.1615" y1="10" x2="80.6366" y2="10.6229" gradientUnits="userSpaceOnUse">
<stop stop-color="#3F65EC"/>
<stop offset="1" stop-color="#D43FEC"/>
</linearGradient>
</defs>
</svg>
