<svg width="125" height="125" viewBox="0 0 125 125" fill="none" xmlns="http://www.w3.org/2000/svg">
<circle cx="62.2472" cy="62.2472" r="62.2472" fill="black"/>
<g filter="url(#filter0_f_227_9)">
<path d="M81.342 87V88.5556H82.8976V87H81.342ZM42.0923 87H40.5367V88.5556H42.0923V87ZM42.0923 76.5868L40.9628 75.5172L40.5367 75.9672V76.5868H42.0923ZM60.6758 56.962L61.8054 58.0316L61.8111 58.0256L61.8168 58.0195L60.6758 56.962ZM64.8411 51.9156L63.5381 51.0659L63.5334 51.0731L63.5287 51.0805L64.8411 51.9156ZM64.6809 44.9468L63.5809 46.0468L63.6153 46.0811L63.6517 46.1133L64.6809 44.9468ZM53.5468 49.5126L52.7883 50.8708L54.3013 51.7157L54.9787 50.1206L53.5468 49.5126ZM41.2112 42.6239L39.7814 42.0111L39.2295 43.2989L40.4527 43.9821L41.2112 42.6239ZM49.0611 33.0918L48.226 31.7794L48.2169 31.7852L49.0611 33.0918ZM74.6135 34.5336L73.6094 35.7218L73.6184 35.7294L73.6275 35.7369L74.6135 34.5336ZM78.218 56.3212L79.5929 57.0491L79.5986 57.038L78.218 56.3212ZM71.4094 65.2124L70.2909 64.1313L70.287 64.1354L71.4094 65.2124ZM63.7998 73.1425L62.6774 72.0654L60.1511 74.6981H63.7998V73.1425ZM81.342 73.1425H82.8976V71.5869H81.342V73.1425ZM81.342 85.4444H42.0923V88.5556H81.342V85.4444ZM43.6479 87V76.5868H40.5367V87H43.6479ZM43.2219 77.6564L61.8054 58.0316L59.5463 55.8924L40.9628 75.5172L43.2219 77.6564ZM61.8168 58.0195C63.8546 55.8207 65.3254 54.0521 66.1535 52.7508L63.5287 51.0805C62.8616 52.1288 61.5555 53.7244 59.5349 55.9046L61.8168 58.0195ZM66.1441 52.7654C67.069 51.3471 67.5982 49.8547 67.5982 48.3111H64.487C64.487 49.1171 64.2152 50.0277 63.5381 51.0659L66.1441 52.7654ZM67.5982 48.3111C67.5982 46.5162 67.0167 44.9333 65.7101 43.7804L63.6517 46.1133C64.1607 46.5624 64.487 47.2223 64.487 48.3111H67.5982ZM65.7809 43.8468C64.5587 42.6246 62.9158 42.1096 61.0763 42.1096V45.2208C62.3341 45.2208 63.0943 45.5602 63.5809 46.0468L65.7809 43.8468ZM61.0763 42.1096C59.0704 42.1096 57.2611 42.699 55.7166 43.8984C54.1939 45.081 53.0131 46.7896 52.115 48.9045L54.9787 50.1206C55.7359 48.3374 56.6378 47.1222 57.6249 46.3557C58.5902 45.606 59.718 45.2208 61.0763 45.2208V42.1096ZM54.3053 48.1544L41.9697 41.2657L40.4527 43.9821L52.7883 50.8708L54.3053 48.1544ZM42.641 43.2367C44.2919 39.3846 46.7157 36.4594 49.9054 34.3984L48.2169 31.7852C44.4644 34.2099 41.6549 37.6395 39.7814 42.0111L42.641 43.2367ZM49.8963 34.4042C53.1588 32.3281 56.8181 31.2832 60.9161 31.2832V28.172C56.2564 28.172 52.0124 29.3699 48.226 31.7794L49.8963 34.4042ZM60.9161 31.2832C65.9187 31.2832 70.1208 32.7737 73.6094 35.7218L75.6175 33.3455C71.5232 29.8855 66.5938 28.172 60.9161 28.172V31.2832ZM73.6275 35.7369C77.0704 38.5581 78.8251 42.4196 78.8251 47.5101H81.9364C81.9364 41.5999 79.8463 36.8105 75.5994 33.3304L73.6275 35.7369ZM78.8251 47.5101C78.8251 50.3551 78.1655 53.0466 76.8374 55.6044L79.5986 57.038C81.1542 54.0421 81.9364 50.8595 81.9364 47.5101H78.8251ZM76.8432 55.5934C75.4928 58.1441 73.3276 60.9899 70.2909 64.1313L72.5279 66.2936C75.6857 63.0269 78.0596 59.9452 79.5928 57.0491L76.8432 55.5934ZM70.287 64.1354L62.6774 72.0654L64.9222 74.2195L72.5318 66.2895L70.287 64.1354ZM63.7998 74.6981H81.342V71.5869H63.7998V74.6981ZM79.7864 73.1425V87H82.8976V73.1425H79.7864Z" fill="url(#paint0_linear_227_9)"/>
</g>
<path d="M81.342 88V88.5H81.842V88H81.342ZM42.0923 88H41.5923V88.5H42.0923V88ZM42.0923 77.5868L41.7293 77.243L41.5923 77.3877V77.5868H42.0923ZM60.6758 57.962L61.0389 58.3058L61.0425 58.3019L60.6758 57.962ZM64.8411 52.9156L64.4223 52.6425L64.4193 52.6472L64.8411 52.9156ZM64.6809 45.9468L64.3273 46.3004L64.3384 46.3114L64.3501 46.3217L64.6809 45.9468ZM53.5468 50.5126L53.303 50.9491L53.7893 51.2207L54.007 50.708L53.5468 50.5126ZM41.2112 43.6239L40.7516 43.4269L40.5742 43.8409L40.9674 44.0604L41.2112 43.6239ZM49.0611 34.0918L48.7927 33.67L48.7898 33.6719L49.0611 34.0918ZM74.6135 35.5336L74.2907 35.9156L74.2965 35.9204L74.6135 35.5336ZM78.218 57.3212L78.6599 57.5552L78.6618 57.5516L78.218 57.3212ZM71.4094 66.2124L71.0499 65.8649L71.0486 65.8663L71.4094 66.2124ZM63.7998 74.1425L63.439 73.7963L62.627 74.6425H63.7998V74.1425ZM81.342 74.1425H81.842V73.6425H81.342V74.1425ZM81.342 87.5H42.0923V88.5H81.342V87.5ZM42.5923 88V77.5868H41.5923V88H42.5923ZM42.4554 77.9306L61.0389 58.3058L60.3128 57.6182L41.7293 77.243L42.4554 77.9306ZM61.0425 58.3019C63.0745 56.1095 64.4894 54.3995 65.2629 53.1841L64.4193 52.6472C63.6975 53.7814 62.3356 55.4357 60.3091 57.6221L61.0425 58.3019ZM65.2599 53.1888C66.1008 51.8995 66.5426 50.6044 66.5426 49.3111H65.5426C65.5426 50.3673 65.1835 51.4754 64.4223 52.6425L65.2599 53.1888ZM66.5426 49.3111C66.5426 47.7558 66.0477 46.486 65.0117 45.5719L64.3501 46.3217C65.1297 47.0096 65.5426 47.9827 65.5426 49.3111H66.5426ZM65.0344 45.5933C64.0618 44.6206 62.7184 44.1652 61.0763 44.1652V45.1652C62.5315 45.1652 63.5911 45.5642 64.3273 46.3004L65.0344 45.5933ZM61.0763 44.1652C59.2901 44.1652 57.7121 44.6853 56.3641 45.7321C55.0231 46.7736 53.9369 48.3147 53.0866 50.3172L54.007 50.708C54.8121 48.8122 55.8086 47.4297 56.9774 46.5219C58.1393 45.6197 59.4983 45.1652 61.0763 45.1652V44.1652ZM53.7906 50.076L41.455 43.1873L40.9674 44.0604L53.303 50.9491L53.7906 50.076ZM41.6708 43.8208C43.3972 39.7925 45.9519 36.6962 49.3325 34.5118L48.7898 33.6719C45.2283 35.9731 42.5497 39.2316 40.7516 43.4269L41.6708 43.8208ZM49.3296 34.5137C52.7698 32.3244 56.6275 31.2276 60.9161 31.2276V30.2276C56.447 30.2276 52.4013 31.3736 48.7927 33.67L49.3296 34.5137ZM60.9161 31.2276C66.1477 31.2276 70.5966 32.7938 74.2907 35.9155L74.9362 35.1518C71.0474 31.8654 66.3647 30.2276 60.9161 30.2276V31.2276ZM74.2965 35.9204C78.0122 38.9652 79.8807 43.1415 79.8807 48.5101H80.8807C80.8807 42.878 78.9044 38.4034 74.9304 35.1469L74.2965 35.9204ZM79.8807 48.5101C79.8807 51.5263 79.1795 54.3844 77.7743 57.0908L78.6618 57.5516C80.1401 54.7043 80.8807 51.6884 80.8807 48.5101H79.8807ZM77.7761 57.0873C76.3637 59.7552 74.1277 62.681 71.0499 65.8649L71.7689 66.56C74.8856 63.3358 77.1887 60.3341 78.6599 57.5551L77.7761 57.0873ZM71.0486 65.8663L63.439 73.7963L64.1605 74.4887L71.7702 66.5586L71.0486 65.8663ZM63.7998 74.6425H81.342V73.6425H63.7998V74.6425ZM80.842 74.1425V88H81.842V74.1425H80.842Z" fill="white"/>
<defs>
<filter id="filter0_f_227_9" x="38.1933" y="26.7097" width="46.1665" height="63.3082" filterUnits="userSpaceOnUse" color-interpolation-filters="sRGB">
<feFlood flood-opacity="0" result="BackgroundImageFix"/>
<feBlend mode="normal" in="SourceGraphic" in2="BackgroundImageFix" result="shape"/>
<feGaussianBlur stdDeviation="1.50894" result="effect1_foregroundBlur_227_9"/>
</filter>
<linearGradient id="paint0_linear_227_9" x1="42.7973" y1="15" x2="86.1083" y2="16.0327" gradientUnits="userSpaceOnUse">
<stop stop-color="#3F65EC"/>
<stop offset="1" stop-color="#D43FEC"/>
</linearGradient>
</defs>
</svg>
