<svg width="125" height="125" viewBox="0 0 125 125" fill="none" xmlns="http://www.w3.org/2000/svg">
<circle cx="62.2472" cy="62.2472" r="62.2472" fill="black"/>
<g filter="url(#filter0_f_227_13)">
<path d="M79.3078 42.2234L80.5152 43.2043L80.8634 42.7757V42.2234H79.3078ZM69.936 53.758L68.7286 52.777L67.2762 54.5647L69.477 55.2443L69.936 53.758ZM78.5869 59.6054L77.3539 60.5538L77.3641 60.567L77.3745 60.58L78.5869 59.6054ZM75.9436 83.3153L76.9411 84.509L76.9426 84.5077L75.9436 83.3153ZM48.7892 84.9975L47.9773 86.3243L47.9845 86.3288L47.9918 86.3331L48.7892 84.9975ZM41.0995 75.5455L40.3286 74.1943L39.176 74.8519L39.6437 76.0938L41.0995 75.5455ZM53.5953 68.4165L55.0847 67.9676L54.5211 66.0974L52.8244 67.0653L53.5953 68.4165ZM65.9309 72.8221L64.9185 71.641L64.9042 71.6532L64.8903 71.6658L65.9309 72.8221ZM65.9309 65.2124L64.8903 66.3687L64.9205 66.3959L64.9521 66.4215L65.9309 65.2124ZM58.2412 63.7706L56.9527 64.6422L57.4154 65.3262H58.2412V63.7706ZM52.7142 55.6003L51.5098 54.6157L50.7767 55.5125L51.4257 56.4719L52.7142 55.6003ZM61.6855 44.6264L62.8899 45.611L64.9666 43.0708H61.6855V44.6264ZM42.8617 44.6264H41.3061V46.182H42.8617V44.6264ZM42.8617 30.9291V29.3735H41.3061V30.9291H42.8617ZM79.3078 30.9291H80.8634V29.3735H79.3078V30.9291ZM78.1005 41.2424L68.7286 52.777L71.1433 54.7389L80.5152 43.2043L78.1005 41.2424ZM69.477 55.2443C72.8282 56.2793 75.4308 58.0538 77.3539 60.5538L79.8199 58.6569C77.4709 55.6032 74.3062 53.4795 70.395 52.2716L69.477 55.2443ZM77.3745 60.58C79.3225 63.0031 80.3155 65.9085 80.3155 69.3777H83.4267C83.4267 65.264 82.2302 61.6545 79.7993 58.6307L77.3745 60.58ZM80.3155 69.3777C80.3155 74.9805 78.485 79.1566 74.9445 82.1229L76.9426 84.5077C81.3055 80.8524 83.4267 75.7368 83.4267 69.3777H80.3155ZM74.9461 82.1216C71.3705 85.1094 66.8546 86.6459 61.285 86.6459V89.7571C67.4637 89.7571 72.7201 88.0362 76.9411 84.509L74.9461 82.1216ZM61.285 86.6459C56.7729 86.6459 52.8911 85.6346 49.5866 83.6618L47.9918 86.3331C51.8431 88.6324 56.2918 89.7571 61.285 89.7571V86.6459ZM49.6012 83.6706C46.3333 81.6708 43.9881 78.8017 42.5553 74.9972L39.6437 76.0938C41.3081 80.5131 44.0894 83.9452 47.9773 86.3243L49.6012 83.6706ZM41.8704 76.8967L54.3662 69.7677L52.8244 67.0653L40.3286 74.1943L41.8704 76.8967ZM52.1059 68.8654C52.7628 71.0451 53.8524 72.8199 55.4573 74.0403C57.0664 75.2639 59.0481 75.8195 61.285 75.8195V72.7083C59.5703 72.7083 58.2945 72.2893 57.3405 71.5638C56.3821 70.835 55.6027 69.6861 55.0847 67.9676L52.1059 68.8654ZM61.285 75.8195C63.5408 75.8195 65.5191 75.2856 66.9716 73.9783L64.8903 71.6658C64.2067 72.281 63.0878 72.7083 61.285 72.7083V75.8195ZM66.9433 74.0032C68.4412 72.7192 69.1686 70.9899 69.1686 68.9772H66.0574C66.0574 70.1686 65.6634 71.0025 64.9185 71.641L66.9433 74.0032ZM69.1686 68.9772C69.1686 66.9646 68.4393 65.2416 66.9097 64.0034L64.9521 66.4215C65.6653 66.9989 66.0574 67.7858 66.0574 68.9772H69.1686ZM66.9716 64.0562C65.5191 62.7489 63.5408 62.215 61.285 62.215V65.3262C63.0878 65.3262 64.2067 65.7535 64.8903 66.3687L66.9716 64.0562ZM61.285 62.215H58.2412V65.3262H61.285V62.215ZM59.5297 62.899L54.0027 54.7287L51.4257 56.4719L56.9527 64.6422L59.5297 62.899ZM53.9186 56.5849L62.8899 45.611L60.4812 43.6418L51.5098 54.6157L53.9186 56.5849ZM61.6855 43.0708H42.8617V46.182H61.6855V43.0708ZM44.4173 44.6264V30.9291H41.3061V44.6264H44.4173ZM42.8617 32.4847H79.3078V29.3735H42.8617V32.4847ZM77.7522 30.9291V42.2234H80.8634V30.9291H77.7522Z" fill="url(#paint0_linear_227_13)"/>
</g>
<path d="M79.3078 43.2234L79.6959 43.5387L79.8078 43.4009V43.2234H79.3078ZM69.936 54.758L69.5479 54.4427L69.0811 55.0172L69.7884 55.2357L69.936 54.758ZM78.5869 60.6054L78.1905 60.9103L78.1972 60.9186L78.5869 60.6054ZM75.9436 84.3153L76.2642 84.699L76.2647 84.6986L75.9436 84.3153ZM48.7892 85.9975L48.5282 86.424L48.5329 86.4268L48.7892 85.9975ZM41.0995 76.5455L40.8517 76.1112L40.4813 76.3226L40.6316 76.7217L41.0995 76.5455ZM53.5953 69.4165L54.074 69.2722L53.8929 68.6711L53.3475 68.9822L53.5953 69.4165ZM65.9309 73.8221L65.6054 73.4423L65.5964 73.4504L65.9309 73.8221ZM65.9309 66.2124L65.5964 66.5841L65.6061 66.5928L65.6163 66.6011L65.9309 66.2124ZM58.2412 64.7706L57.827 65.0508L57.9758 65.2706H58.2412V64.7706ZM52.7142 56.6003L52.3271 56.2838L52.0914 56.5721L52.3001 56.8804L52.7142 56.6003ZM61.6855 45.6264L62.0726 45.9429L62.7401 45.1264H61.6855V45.6264ZM42.8617 45.6264H42.3617V46.1264H42.8617V45.6264ZM42.8617 31.9291V31.4291H42.3617V31.9291H42.8617ZM79.3078 31.9291H79.8078V31.4291H79.3078V31.9291ZM78.9198 42.9081L69.5479 54.4427L70.324 55.0733L79.6959 43.5387L78.9198 42.9081ZM69.7884 55.2357C73.3297 56.3293 76.123 58.2224 78.1906 60.9102L78.9832 60.3005C76.7787 57.4347 73.8048 55.4294 70.0835 54.2802L69.7884 55.2357ZM78.1972 60.9186C80.309 63.5455 81.3711 66.6898 81.3711 70.3777H82.3711C82.3711 66.4827 81.2437 63.1121 78.9766 60.2921L78.1972 60.9186ZM81.3711 70.3777C81.3711 76.2371 79.442 80.732 75.6225 83.9321L76.2647 84.6986C80.3485 81.277 82.3711 76.4802 82.3711 70.3777H81.3711ZM75.623 83.9317C71.8284 87.1024 67.0612 88.7015 61.285 88.7015V89.7015C67.257 89.7015 72.2622 88.0431 76.2642 84.699L75.623 83.9317ZM61.285 88.7015C56.6097 88.7015 52.5355 87.6517 49.0455 85.5682L48.5329 86.4268C52.1987 88.6153 56.455 89.7015 61.285 89.7015V88.7015ZM49.0502 85.571C45.572 83.4425 43.0788 80.3823 41.5674 76.3693L40.6316 76.7217C42.2174 80.9324 44.8508 84.1735 48.5282 86.424L49.0502 85.571ZM41.3473 76.9798L53.8431 69.8508L53.3475 68.9822L40.8517 76.1112L41.3473 76.9798ZM53.1166 69.5608C53.7263 71.584 54.7107 73.1465 56.0962 74.2C57.4831 75.2547 59.2253 75.7639 61.285 75.7639V74.7639C59.3931 74.7639 57.8778 74.2986 56.7015 73.404C55.5238 72.5085 54.6391 71.1472 54.074 69.2722L53.1166 69.5608ZM61.285 75.7639C63.3871 75.7639 65.0738 75.2662 66.2654 74.1937L65.5964 73.4504C64.652 74.3004 63.2415 74.7639 61.285 74.7639V75.7639ZM66.2563 74.2017C67.4987 73.1368 68.113 71.7112 68.113 69.9772H67.113C67.113 71.4473 66.6059 72.585 65.6055 73.4424L66.2563 74.2017ZM68.113 69.9772C68.113 68.2432 67.4981 66.8379 66.2455 65.8238L65.6163 66.6011C66.6065 67.4027 67.113 68.5072 67.113 69.9772H68.113ZM66.2654 65.8408C65.0738 64.7684 63.3871 64.2706 61.285 64.2706V65.2706C63.2415 65.2706 64.652 65.7341 65.5964 66.5841L66.2654 65.8408ZM61.285 64.2706H58.2412V65.2706H61.285V64.2706ZM58.6553 64.4905L53.1283 56.3201L52.3001 56.8804L57.827 65.0508L58.6553 64.4905ZM53.1013 56.9168L62.0726 45.9429L61.2984 45.3099L52.3271 56.2838L53.1013 56.9168ZM61.6855 45.1264H42.8617V46.1264H61.6855V45.1264ZM43.3617 45.6264V31.9291H42.3617V45.6264H43.3617ZM42.8617 32.4291H79.3078V31.4291H42.8617V32.4291ZM78.8078 31.9291V43.2234H79.8078V31.9291H78.8078Z" fill="white"/>
<defs>
<filter id="filter0_f_227_13" x="38.0816" y="27.9112" width="46.8074" height="63.3082" filterUnits="userSpaceOnUse" color-interpolation-filters="sRGB">
<feFlood flood-opacity="0" result="BackgroundImageFix"/>
<feBlend mode="normal" in="SourceGraphic" in2="BackgroundImageFix" result="shape"/>
<feGaussianBlur stdDeviation="1.50894" result="effect1_foregroundBlur_227_13"/>
</filter>
<linearGradient id="paint0_linear_227_13" x1="42.7973" y1="15" x2="86.1083" y2="16.0327" gradientUnits="userSpaceOnUse">
<stop stop-color="#3F65EC"/>
<stop offset="1" stop-color="#D43FEC"/>
</linearGradient>
</defs>
</svg>
