<svg width="125" height="125" viewBox="0 0 125 125" fill="none" xmlns="http://www.w3.org/2000/svg">
<circle cx="62.2472" cy="62.2472" r="62.2472" fill="black"/>
<g filter="url(#filter0_f_227_17)">
<path d="M79.3964 65.3726H77.8408V66.9283H79.3964V65.3726ZM85.0035 65.3726H86.5591V63.817H85.0035V65.3726ZM85.0035 78.4292V79.9848H86.5591V78.4292H85.0035ZM79.3964 78.4292V76.8736H77.8408V78.4292H79.3964ZM79.3964 87V88.5556H80.952V87H79.3964ZM65.1383 87H63.5827V88.5556H65.1383V87ZM65.1383 78.4292H66.6939V76.8736H65.1383V78.4292ZM40.5472 78.4292H38.9916V79.9848H40.5472V78.4292ZM40.5472 65.3726L39.1481 64.6926L38.9916 65.0146V65.3726H40.5472ZM57.2884 30.9291V29.3735H56.3149L55.8893 30.2491L57.2884 30.9291ZM73.1485 30.9291L74.545 31.6144L75.6446 29.3735H73.1485V30.9291ZM56.2471 65.3726L54.8506 64.6874L53.751 66.9283H56.2471V65.3726ZM65.1383 65.3726V66.9283H66.6939V65.3726H65.1383ZM65.1383 55.2799V53.7243H63.5827V55.2799H65.1383ZM79.3964 55.2799H80.952V53.7243H79.3964V55.2799ZM79.3964 66.9283H85.0035V63.817H79.3964V66.9283ZM83.4479 65.3726V78.4292H86.5591V65.3726H83.4479ZM85.0035 76.8736H79.3964V79.9848H85.0035V76.8736ZM77.8408 78.4292V87H80.952V78.4292H77.8408ZM79.3964 85.4444H65.1383V88.5556H79.3964V85.4444ZM66.6939 87V78.4292H63.5827V87H66.6939ZM65.1383 76.8736H40.5472V79.9848H65.1383V76.8736ZM42.1028 78.4292V65.3726H38.9916V78.4292H42.1028ZM41.9463 66.0527L58.6875 31.6091L55.8893 30.2491L39.1481 64.6926L41.9463 66.0527ZM57.2884 32.4847H73.1485V29.3735H57.2884V32.4847ZM71.7519 30.2438L54.8506 64.6874L57.6436 66.0579L74.545 31.6144L71.7519 30.2438ZM56.2471 66.9283H65.1383V63.817H56.2471V66.9283ZM66.6939 65.3726V55.2799H63.5827V65.3726H66.6939ZM65.1383 56.8355H79.3964V53.7243H65.1383V56.8355ZM77.8408 55.2799V65.3726H80.952V55.2799H77.8408Z" fill="url(#paint0_linear_227_17)"/>
</g>
<path d="M79.3964 66.3726H78.8964V66.8726H79.3964V66.3726ZM85.0035 66.3726H85.5035V65.8726H85.0035V66.3726ZM85.0035 79.4292V79.9292H85.5035V79.4292H85.0035ZM79.3964 79.4292V78.9292H78.8964V79.4292H79.3964ZM79.3964 88V88.5H79.8964V88H79.3964ZM65.1383 88H64.6383V88.5H65.1383V88ZM65.1383 79.4292H65.6383V78.9292H65.1383V79.4292ZM40.5472 79.4292H40.0472V79.9292H40.5472V79.4292ZM40.5472 66.3726L40.0975 66.1541L40.0472 66.2576V66.3726H40.5472ZM57.2884 31.9291V31.4291H56.9755L56.8387 31.7105L57.2884 31.9291ZM73.1485 31.9291L73.5973 32.1493L73.9508 31.4291H73.1485V31.9291ZM56.2471 66.3726L55.7982 66.1524L55.4448 66.8726H56.2471V66.3726ZM65.1383 66.3726V66.8726H65.6383V66.3726H65.1383ZM65.1383 56.2799V55.7799H64.6383V56.2799H65.1383ZM79.3964 56.2799H79.8964V55.7799H79.3964V56.2799ZM79.3964 66.8726H85.0035V65.8726H79.3964V66.8726ZM84.5035 66.3726V79.4292H85.5035V66.3726H84.5035ZM85.0035 78.9292H79.3964V79.9292H85.0035V78.9292ZM78.8964 79.4292V88H79.8964V79.4292H78.8964ZM79.3964 87.5H65.1383V88.5H79.3964V87.5ZM65.6383 88V79.4292H64.6383V88H65.6383ZM65.1383 78.9292H40.5472V79.9292H65.1383V78.9292ZM41.0472 79.4292V66.3726H40.0472V79.4292H41.0472ZM40.9969 66.5912L57.7381 32.1477L56.8387 31.7105L40.0975 66.1541L40.9969 66.5912ZM57.2884 32.4291H73.1485V31.4291H57.2884V32.4291ZM72.6996 31.7088L55.7982 66.1524L56.696 66.5929L73.5973 32.1493L72.6996 31.7088ZM56.2471 66.8726H65.1383V65.8726H56.2471V66.8726ZM65.6383 66.3726V56.2799H64.6383V66.3726H65.6383ZM65.1383 56.7799H79.3964V55.7799H65.1383V56.7799ZM78.8964 56.2799V66.3726H79.8964V56.2799H78.8964Z" fill="white"/>
<defs>
<filter id="filter0_f_227_17" x="37.5294" y="27.9112" width="50.4919" height="62.1067" filterUnits="userSpaceOnUse" color-interpolation-filters="sRGB">
<feFlood flood-opacity="0" result="BackgroundImageFix"/>
<feBlend mode="normal" in="SourceGraphic" in2="BackgroundImageFix" result="shape"/>
<feGaussianBlur stdDeviation="1.50894" result="effect1_foregroundBlur_227_17"/>
</filter>
<linearGradient id="paint0_linear_227_17" x1="41.988" y1="15" x2="88.2484" y2="16.1782" gradientUnits="userSpaceOnUse">
<stop stop-color="#3F65EC"/>
<stop offset="1" stop-color="#D43FEC"/>
</linearGradient>
</defs>
</svg>
