<svg width="45" height="32" viewBox="0 0 45 32" fill="none" xmlns="http://www.w3.org/2000/svg">
<path d="M32.5277 15.703C35.6234 15.703 38.1135 13.1905 38.1135 10.0948C38.1135 6.99906 35.6234 4.48658 32.5277 4.48658C31.0403 4.48658 29.6138 5.07744 28.5621 6.12919C27.5103 7.18093 26.9195 8.6074 26.9195 10.0948C26.9195 11.5822 27.5103 13.0087 28.5621 14.0604C29.6138 15.1122 31.0403 15.703 32.5277 15.703V15.703ZM15.703 13.4597C19.4269 13.4597 22.4104 10.4537 22.4104 6.72986C22.4104 3.00601 19.4269 0 15.703 0C11.9792 0 8.97315 3.00601 8.97315 6.72986C8.97315 10.4537 11.9792 13.4597 15.703 13.4597ZM32.5277 20.1896C28.4225 20.1896 20.1896 22.2534 20.1896 26.3586V29.1627C20.1896 30.3966 21.1991 31.406 22.4329 31.406H42.6225C43.8563 31.406 44.8658 30.3966 44.8658 29.1627V26.3586C44.8658 22.2534 36.6329 20.1896 32.5277 20.1896ZM15.703 17.9463C10.4762 17.9463 0 20.571 0 25.7978V29.1627C0 30.3966 1.00948 31.406 2.24329 31.406H15.703V26.3586C15.703 24.4518 16.4433 21.1093 21.0196 18.5744C19.0679 18.1706 17.1836 17.9463 15.703 17.9463Z" fill="white" fill-opacity="0.4"/>
</svg>
