<svg width="29" height="41" viewBox="0 0 29 41" fill="none" xmlns="http://www.w3.org/2000/svg">
<path d="M29 4.39286C28.9988 3.22817 28.5401 2.11153 27.7246 1.28798C26.9091 0.464418 25.8033 0.00121132 24.65 0H4.35C3.19668 0.00121132 2.09093 0.464418 1.27541 1.28798C0.459887 2.11153 0.00119951 3.22817 0 4.39286V36.6071C0.00119951 37.7718 0.459887 38.8885 1.27541 39.712C2.09093 40.5356 3.19668 40.9988 4.35 41H24.65C25.8033 40.9988 26.9091 40.5356 27.7246 39.712C28.5401 38.8885 28.9988 37.7718 29 36.6071V4.39286ZM6.525 36.6071C6.09483 36.6071 5.67431 36.4783 5.31664 36.237C4.95896 35.9956 4.68018 35.6526 4.51556 35.2513C4.35094 34.8499 4.30787 34.4083 4.39179 33.9822C4.47571 33.5561 4.68286 33.1648 4.98704 32.8576C5.29122 32.5504 5.67877 32.3412 6.10068 32.2565C6.52259 32.1717 6.95991 32.2152 7.35734 32.3815C7.75477 32.5477 8.09446 32.8292 8.33345 33.1904C8.57244 33.5516 8.7 33.9763 8.7 34.4107C8.7 34.9932 8.47085 35.5519 8.06296 35.9638C7.65507 36.3757 7.10185 36.6071 6.525 36.6071ZM6.525 29.2857C6.09483 29.2857 5.67431 29.1569 5.31664 28.9155C4.95896 28.6742 4.68018 28.3312 4.51556 27.9298C4.35094 27.5285 4.30787 27.0869 4.39179 26.6608C4.47571 26.2347 4.68286 25.8434 4.98704 25.5362C5.29122 25.229 5.67877 25.0198 6.10068 24.9351C6.52259 24.8503 6.95991 24.8938 7.35734 25.0601C7.75477 25.2263 8.09446 25.5078 8.33345 25.869C8.57244 26.2302 8.7 26.6549 8.7 27.0893C8.7 27.6718 8.47085 28.2305 8.06296 28.6424C7.65507 29.0543 7.10185 29.2857 6.525 29.2857ZM6.525 21.9643C6.09483 21.9643 5.67431 21.8355 5.31664 21.5941C4.95896 21.3528 4.68018 21.0097 4.51556 20.6084C4.35094 20.207 4.30787 19.7654 4.39179 19.3394C4.47571 18.9133 4.68286 18.5219 4.98704 18.2147C5.29122 17.9076 5.67877 17.6984 6.10068 17.6136C6.52259 17.5289 6.95991 17.5724 7.35734 17.7386C7.75477 17.9049 8.09446 18.1864 8.33345 18.5476C8.57244 18.9088 8.7 19.3334 8.7 19.7679C8.7 20.3504 8.47085 20.9091 8.06296 21.321C7.65507 21.7329 7.10185 21.9643 6.525 21.9643V21.9643ZM14.5 36.6071C14.0698 36.6071 13.6493 36.4783 13.2916 36.237C12.934 35.9956 12.6552 35.6526 12.4906 35.2513C12.3259 34.8499 12.2829 34.4083 12.3668 33.9822C12.4507 33.5561 12.6579 33.1648 12.962 32.8576C13.2662 32.5504 13.6538 32.3412 14.0757 32.2565C14.4976 32.1717 14.9349 32.2152 15.3323 32.3815C15.7298 32.5477 16.0695 32.8292 16.3084 33.1904C16.5474 33.5516 16.675 33.9763 16.675 34.4107C16.675 34.9932 16.4458 35.5519 16.038 35.9638C15.6301 36.3757 15.0768 36.6071 14.5 36.6071ZM14.5 29.2857C14.0698 29.2857 13.6493 29.1569 13.2916 28.9155C12.934 28.6742 12.6552 28.3312 12.4906 27.9298C12.3259 27.5285 12.2829 27.0869 12.3668 26.6608C12.4507 26.2347 12.6579 25.8434 12.962 25.5362C13.2662 25.229 13.6538 25.0198 14.0757 24.9351C14.4976 24.8503 14.9349 24.8938 15.3323 25.0601C15.7298 25.2263 16.0695 25.5078 16.3084 25.869C16.5474 26.2302 16.675 26.6549 16.675 27.0893C16.675 27.6718 16.4458 28.2305 16.038 28.6424C15.6301 29.0543 15.0768 29.2857 14.5 29.2857ZM14.5 21.9643C14.0698 21.9643 13.6493 21.8355 13.2916 21.5941C12.934 21.3528 12.6552 21.0097 12.4906 20.6084C12.3259 20.207 12.2829 19.7654 12.3668 19.3394C12.4507 18.9133 12.6579 18.5219 12.962 18.2147C13.2662 17.9076 13.6538 17.6984 14.0757 17.6136C14.4976 17.5289 14.9349 17.5724 15.3323 17.7386C15.7298 17.9049 16.0695 18.1864 16.3084 18.5476C16.5474 18.9088 16.675 19.3334 16.675 19.7679C16.675 20.3504 16.4458 20.9091 16.038 21.321C15.6301 21.7329 15.0768 21.9643 14.5 21.9643V21.9643ZM24.65 34.4107C24.65 34.9932 24.4208 35.5519 24.013 35.9638C23.6051 36.3757 23.0518 36.6071 22.475 36.6071C21.8982 36.6071 21.3449 36.3757 20.937 35.9638C20.5292 35.5519 20.3 34.9932 20.3 34.4107V27.0893C20.3 26.5068 20.5292 25.9481 20.937 25.5362C21.3449 25.1243 21.8982 24.8929 22.475 24.8929C23.0518 24.8929 23.6051 25.1243 24.013 25.5362C24.4208 25.9481 24.65 26.5068 24.65 27.0893V34.4107ZM22.475 21.9643C22.0448 21.9643 21.6243 21.8355 21.2666 21.5941C20.909 21.3528 20.6302 21.0097 20.4656 20.6084C20.3009 20.207 20.2579 19.7654 20.3418 19.3394C20.4257 18.9133 20.6329 18.5219 20.937 18.2147C21.2412 17.9076 21.6288 17.6984 22.0507 17.6136C22.4726 17.5289 22.9099 17.5724 23.3073 17.7386C23.7048 17.9049 24.0445 18.1864 24.2834 18.5476C24.5224 18.9088 24.65 19.3334 24.65 19.7679C24.65 20.3504 24.4208 20.9091 24.013 21.321C23.6051 21.7329 23.0518 21.9643 22.475 21.9643V21.9643ZM24.225 12.7494C23.9532 13.024 23.5845 13.1784 23.2 13.1786H5.8C5.41544 13.1786 5.04662 13.0243 4.7747 12.7497C4.50277 12.4751 4.35 12.1026 4.35 11.7143V5.85714C4.35 5.46879 4.50277 5.09634 4.7747 4.82174C5.04662 4.54713 5.41544 4.39286 5.8 4.39286H23.2C23.5846 4.39286 23.9534 4.54713 24.2253 4.82174C24.4972 5.09634 24.65 5.46879 24.65 5.85714V11.7143C24.6498 12.1026 24.4969 12.4749 24.225 12.7494Z" fill="url(#paint0_linear_329_169)"/>
<defs>
<linearGradient id="paint0_linear_329_169" x1="-35.6664" y1="6.69642" x2="41.1282" y2="-20.2629" gradientUnits="userSpaceOnUse">
<stop stop-color="#D43FEC"/>
<stop offset="1" stop-color="#3F65EC"/>
</linearGradient>
</defs>
</svg>
