<svg width="30" height="42" viewBox="0 0 30 42" fill="none" xmlns="http://www.w3.org/2000/svg">
<path d="M29.6109 4.44163C29.6097 3.26401 29.1413 2.13498 28.3086 1.30228C27.4759 0.469574 26.3469 0.00122477 25.1692 0H4.44163C3.26401 0.00122477 2.13498 0.469574 1.30228 1.30228C0.469574 2.13498 0.00122477 3.26401 0 4.44163V37.0136C0.00122477 38.1912 0.469574 39.3202 1.30228 40.153C2.13498 40.9857 3.26401 41.454 4.44163 41.4552H25.1692C26.3469 41.454 27.4759 40.9857 28.3086 40.153C29.1413 39.3202 29.6097 38.1912 29.6109 37.0136V4.44163ZM6.66245 37.0136C6.22321 37.0136 5.79384 36.8833 5.42863 36.6393C5.06342 36.3953 4.77877 36.0484 4.61068 35.6426C4.44259 35.2368 4.39861 34.7903 4.4843 34.3595C4.56999 33.9287 4.78151 33.533 5.09209 33.2224C5.40268 32.9118 5.79839 32.7003 6.22919 32.6146C6.65998 32.5289 7.10652 32.5729 7.51232 32.741C7.91812 32.9091 8.26496 33.1938 8.50899 33.559C8.75302 33.9242 8.88326 34.3535 8.88326 34.7928C8.88326 35.3818 8.64929 35.9466 8.2328 36.3631C7.81632 36.7796 7.25144 37.0136 6.66245 37.0136ZM6.66245 29.6109C6.22321 29.6109 5.79384 29.4806 5.42863 29.2366C5.06342 28.9926 4.77877 28.6457 4.61068 28.2399C4.44259 27.8341 4.39861 27.3876 4.4843 26.9568C4.56999 26.526 4.78151 26.1303 5.09209 25.8197C5.40268 25.5091 5.79839 25.2976 6.22919 25.2119C6.65998 25.1262 7.10652 25.1702 7.51232 25.3383C7.91812 25.5064 8.26496 25.791 8.50899 26.1562C8.75302 26.5215 8.88326 26.9508 8.88326 27.3901C8.88326 27.9791 8.64929 28.5439 8.2328 28.9604C7.81632 29.3769 7.25144 29.6109 6.66245 29.6109ZM6.66245 22.2082C6.22321 22.2082 5.79384 22.0779 5.42863 21.8339C5.06342 21.5899 4.77877 21.243 4.61068 20.8372C4.44259 20.4314 4.39861 19.9849 4.4843 19.5541C4.56999 19.1233 4.78151 18.7276 5.09209 18.417C5.40268 18.1064 5.79839 17.8949 6.22919 17.8092C6.65998 17.7235 7.10652 17.7675 7.51232 17.9356C7.91812 18.1037 8.26496 18.3883 8.50899 18.7535C8.75302 19.1187 8.88326 19.5481 8.88326 19.9873C8.88326 20.5763 8.64929 21.1412 8.2328 21.5577C7.81632 21.9742 7.25144 22.2082 6.66245 22.2082V22.2082ZM14.8054 37.0136C14.3662 37.0136 13.9368 36.8833 13.5716 36.6393C13.2064 36.3953 12.9218 36.0484 12.7537 35.6426C12.5856 35.2368 12.5416 34.7903 12.6273 34.3595C12.713 33.9287 12.9245 33.533 13.2351 33.2224C13.5457 32.9118 13.9414 32.7003 14.3722 32.6146C14.803 32.5289 15.2495 32.5729 15.6553 32.741C16.0611 32.9091 16.408 33.1938 16.652 33.559C16.896 33.9242 17.0263 34.3535 17.0263 34.7928C17.0263 35.3818 16.7923 35.9466 16.3758 36.3631C15.9593 36.7796 15.3944 37.0136 14.8054 37.0136ZM14.8054 29.6109C14.3662 29.6109 13.9368 29.4806 13.5716 29.2366C13.2064 28.9926 12.9218 28.6457 12.7537 28.2399C12.5856 27.8341 12.5416 27.3876 12.6273 26.9568C12.713 26.526 12.9245 26.1303 13.2351 25.8197C13.5457 25.5091 13.9414 25.2976 14.3722 25.2119C14.803 25.1262 15.2495 25.1702 15.6553 25.3383C16.0611 25.5064 16.408 25.791 16.652 26.1562C16.896 26.5215 17.0263 26.9508 17.0263 27.3901C17.0263 27.9791 16.7923 28.5439 16.3758 28.9604C15.9593 29.3769 15.3944 29.6109 14.8054 29.6109ZM14.8054 22.2082C14.3662 22.2082 13.9368 22.0779 13.5716 21.8339C13.2064 21.5899 12.9218 21.243 12.7537 20.8372C12.5856 20.4314 12.5416 19.9849 12.6273 19.5541C12.713 19.1233 12.9245 18.7276 13.2351 18.417C13.5457 18.1064 13.9414 17.8949 14.3722 17.8092C14.803 17.7235 15.2495 17.7675 15.6553 17.9356C16.0611 18.1037 16.408 18.3883 16.652 18.7535C16.896 19.1187 17.0263 19.5481 17.0263 19.9873C17.0263 20.5763 16.7923 21.1412 16.3758 21.5577C15.9593 21.9742 15.3944 22.2082 14.8054 22.2082V22.2082ZM25.1692 34.7928C25.1692 35.3818 24.9353 35.9466 24.5188 36.3631C24.1023 36.7796 23.5374 37.0136 22.9484 37.0136C22.3594 37.0136 21.7946 36.7796 21.3781 36.3631C20.9616 35.9466 20.7276 35.3818 20.7276 34.7928V27.3901C20.7276 26.8011 20.9616 26.2362 21.3781 25.8197C21.7946 25.4032 22.3594 25.1692 22.9484 25.1692C23.5374 25.1692 24.1023 25.4032 24.5188 25.8197C24.9353 26.2362 25.1692 26.8011 25.1692 27.3901V34.7928ZM22.9484 22.2082C22.5092 22.2082 22.0798 22.0779 21.7146 21.8339C21.3494 21.5899 21.0648 21.243 20.8967 20.8372C20.7286 20.4314 20.6846 19.9849 20.7703 19.5541C20.856 19.1233 21.0675 18.7276 21.3781 18.417C21.6887 18.1064 22.0844 17.8949 22.5152 17.8092C22.946 17.7235 23.3925 17.7675 23.7983 17.9356C24.2041 18.1037 24.5509 18.3883 24.795 18.7535C25.039 19.1187 25.1692 19.5481 25.1692 19.9873C25.1692 20.5763 24.9353 21.1412 24.5188 21.5577C24.1023 21.9742 23.5374 22.2082 22.9484 22.2082V22.2082ZM24.7353 12.8909C24.4577 13.1686 24.0813 13.3247 23.6887 13.3249H5.92218C5.52951 13.3249 5.15293 13.1689 4.87527 12.8913C4.59762 12.6136 4.44163 12.237 4.44163 11.8444V5.92218C4.44163 5.52951 4.59762 5.15293 4.87527 4.87527C5.15293 4.59762 5.52951 4.44163 5.92218 4.44163H23.6887C24.0814 4.44163 24.4579 4.59762 24.7356 4.87527C25.0133 5.15293 25.1692 5.52951 25.1692 5.92218V11.8444C25.1691 12.2369 25.013 12.6134 24.7353 12.8909Z" fill="white" fill-opacity="0.4"/>
</svg>
