<svg width="32" height="32" viewBox="0 0 32 32" fill="none" xmlns="http://www.w3.org/2000/svg">
<path d="M1.77375 17.7375H12.4162C13.3918 17.7375 14.19 16.9393 14.19 15.9637V1.77375C14.19 0.798187 13.3918 0 12.4162 0H1.77375C0.798187 0 0 0.798187 0 1.77375V15.9637C0 16.9393 0.798187 17.7375 1.77375 17.7375ZM1.77375 31.9275H12.4162C13.3918 31.9275 14.19 31.1293 14.19 30.1537V23.0587C14.19 22.0832 13.3918 21.285 12.4162 21.285H1.77375C0.798187 21.285 0 22.0832 0 23.0587V30.1537C0 31.1293 0.798187 31.9275 1.77375 31.9275ZM19.5112 31.9275H30.1537C31.1293 31.9275 31.9275 31.1293 31.9275 30.1537V15.9637C31.9275 14.9882 31.1293 14.19 30.1537 14.19H19.5112C18.5357 14.19 17.7375 14.9882 17.7375 15.9637V30.1537C17.7375 31.1293 18.5357 31.9275 19.5112 31.9275ZM17.7375 1.77375V8.86875C17.7375 9.84431 18.5357 10.6425 19.5112 10.6425H30.1537C31.1293 10.6425 31.9275 9.84431 31.9275 8.86875V1.77375C31.9275 0.798187 31.1293 0 30.1537 0H19.5112C18.5357 0 17.7375 0.798187 17.7375 1.77375Z" fill="white" fill-opacity="0.4"/>
</svg>
