<svg width="34" height="25" viewBox="0 0 34 25" fill="none" xmlns="http://www.w3.org/2000/svg">
<path d="M28.1094 2.05571C26.0026 1.10562 23.7444 0.403376 21.383 0.00406222C21.362 2.48979e-05 21.3402 0.00262669 21.3207 0.0115078C21.3012 0.0203889 21.285 0.03511 21.2742 0.0536323C20.985 0.561725 20.6628 1.22404 20.437 1.74728C17.9325 1.37307 15.3863 1.37307 12.8817 1.74728C12.6302 1.16739 12.3466 0.601965 12.0321 0.0536323C12.0215 0.034882 12.0054 0.0198279 11.9859 0.010479C11.9665 0.00113001 11.9447 -0.00206929 11.9234 0.0013082C9.56329 0.400622 7.3051 1.10286 5.19699 2.05433C5.17886 2.06194 5.16348 2.07491 5.15293 2.09151C0.867875 8.39104 -0.30666 14.535 0.27028 20.6018C0.271886 20.6166 0.276498 20.631 0.283836 20.644C0.291174 20.6571 0.301085 20.6685 0.312965 20.6775C2.81404 22.4984 5.60365 23.8856 8.565 24.7808C8.58564 24.7872 8.60772 24.7872 8.62836 24.7808C8.64899 24.7744 8.66722 24.7619 8.68066 24.745C9.31791 23.8928 9.8826 22.9886 10.3688 22.0421C10.3755 22.0291 10.3794 22.0149 10.3802 22.0003C10.381 21.9857 10.3786 21.9712 10.3732 21.9576C10.3679 21.944 10.3597 21.9317 10.3492 21.9216C10.3387 21.9115 10.3261 21.9037 10.3123 21.8989C9.42284 21.5639 8.56099 21.1597 7.7347 20.6899C7.71986 20.6814 7.70734 20.6694 7.69829 20.6549C7.68924 20.6404 7.68393 20.6239 7.68284 20.6068C7.68174 20.5898 7.68491 20.5727 7.69204 20.5572C7.69917 20.5416 7.71004 20.5281 7.72369 20.5178C7.89718 20.3897 8.07068 20.2562 8.23591 20.1226C8.25078 20.1106 8.2687 20.103 8.28766 20.1005C8.30662 20.0981 8.32589 20.101 8.34331 20.1088C13.7506 22.5378 19.6067 22.5378 24.9507 20.1088C24.9681 20.1005 24.9876 20.0972 25.0068 20.0994C25.0261 20.1016 25.0443 20.1092 25.0594 20.1212C25.2247 20.2562 25.3968 20.3897 25.5717 20.5178C25.5854 20.5279 25.5965 20.5412 25.6038 20.5566C25.6112 20.572 25.6146 20.589 25.6138 20.6061C25.613 20.6231 25.608 20.6397 25.5992 20.6543C25.5904 20.669 25.5781 20.6812 25.5634 20.6899C24.74 21.1636 23.8835 21.5643 22.9844 21.8975C22.9706 21.9025 22.958 21.9104 22.9475 21.9207C22.937 21.9309 22.9288 21.9433 22.9234 21.957C22.9181 21.9707 22.9157 21.9854 22.9165 22C22.9173 22.0147 22.9212 22.029 22.9279 22.0421C23.4236 22.988 23.9909 23.8886 24.6147 24.7436C24.6276 24.7612 24.6457 24.7743 24.6664 24.7812C24.6871 24.7881 24.7094 24.7884 24.7303 24.7822C27.6968 23.8894 30.4909 22.5017 32.9948 20.6775C33.007 20.669 33.0172 20.6579 33.0248 20.6451C33.0324 20.6323 33.0372 20.618 33.0388 20.6032C33.7273 13.589 31.8849 7.49464 28.1521 2.09427C28.1429 2.07672 28.1278 2.06303 28.1094 2.05571ZM11.1771 16.9074C9.54952 16.9074 8.20699 15.4355 8.20699 13.6303C8.20699 11.8238 9.52335 10.3532 11.1771 10.3532C12.8432 10.3532 14.1733 11.8362 14.1471 13.6303C14.1471 15.4369 12.8308 16.9074 11.1771 16.9074V16.9074ZM22.1582 16.9074C20.5293 16.9074 19.1881 15.4355 19.1881 13.6303C19.1881 11.8238 20.5031 10.3532 22.1582 10.3532C23.8243 10.3532 25.1544 11.8362 25.1283 13.6303C25.1283 15.4369 23.8257 16.9074 22.1582 16.9074V16.9074Z" fill="url(#paint0_linear_330_180)"/>
<defs>
<linearGradient id="paint0_linear_330_180" x1="-40.5112" y1="4.04833" x2="27.8513" y2="-41.1898" gradientUnits="userSpaceOnUse">
<stop stop-color="#D43FEC"/>
<stop offset="1" stop-color="#3F65EC"/>
</linearGradient>
</defs>
</svg>
