<svg width="32" height="36" viewBox="0 0 32 36" fill="none" xmlns="http://www.w3.org/2000/svg">
<path fill-rule="evenodd" clip-rule="evenodd" d="M21.974 9.22608C22.5914 9.84351 23.4269 10.1933 24.3001 10.2H31.1993V24.3C31.1993 26.781 29.2163 28.8 26.7781 28.8H22.7993V18.6105C22.8022 17.7968 22.4832 17.015 21.9121 16.4355L13.7251 8.1105C13.4418 7.82354 13.1046 7.59538 12.7329 7.43913C12.3612 7.28288 11.9623 7.20161 11.5591 7.2H8.40008V4.5C8.40147 3.30695 8.87602 2.16317 9.71963 1.31955C10.5632 0.475941 11.707 0.00138946 12.9001 0H21.0001V6.9C21.0067 7.77315 21.3566 8.60865 21.974 9.22608ZM11.175 18.825C10.8669 18.5211 10.6222 18.1591 10.4548 17.76C10.2875 17.361 10.2009 16.9327 10.2 16.5V9.59997H4.8C3.52812 9.60373 2.3094 10.1106 1.41004 11.01C0.510679 11.9094 0.00375919 13.1281 0 14.4V31.2C0 32.473 0.505713 33.6939 1.40589 34.5941C2.30606 35.4943 3.52696 36 4.8 36H15.6C16.873 36 18.0939 35.4943 18.9941 34.5941C19.8943 33.6939 20.4 32.473 20.4 31.2V19.8H13.5C13.0672 19.7994 12.6389 19.7129 12.2398 19.5455C11.8407 19.3781 11.4788 19.1332 11.175 18.825ZM24.3 7.79997H29.5792C29.6383 7.80002 29.6961 7.78261 29.7454 7.74993C29.7946 7.71725 29.8331 7.67076 29.856 7.61628C29.879 7.5618 29.8853 7.50177 29.8742 7.44371C29.8631 7.38566 29.8351 7.33218 29.7937 7.28997L23.9137 1.31097C23.872 1.26854 23.8185 1.23951 23.7602 1.22756C23.7018 1.21562 23.6412 1.22132 23.5861 1.24392C23.531 1.26652 23.4839 1.30501 23.4508 1.35448C23.4176 1.40395 23.4 1.46217 23.4 1.52172V6.89997C23.4 7.13866 23.4948 7.36758 23.6636 7.53637C23.8324 7.70515 24.0613 7.79997 24.3 7.79997ZM18.7793 17.3999C18.8384 17.4 18.8962 17.3826 18.9454 17.3499C18.9946 17.3172 19.0331 17.2707 19.0561 17.2162C19.079 17.1618 19.0853 17.1017 19.0742 17.0437C19.0631 16.9856 19.0351 16.9321 18.9938 16.8899L13.1138 10.9109C13.072 10.8685 13.0185 10.8395 12.9602 10.8275C12.9018 10.8156 12.8412 10.8213 12.7862 10.8439C12.7311 10.8665 12.6839 10.905 12.6508 10.9544C12.6176 11.0039 12.6 11.0621 12.6 11.1217V16.4999C12.6 16.7386 12.6948 16.9676 12.8636 17.1363C13.0324 17.3051 13.2613 17.3999 13.5 17.3999H18.7793Z" fill="url(#paint0_linear_329_175)"/>
<defs>
<linearGradient id="paint0_linear_329_175" x1="-0.526676" y1="34.5849" x2="36.4841" y2="26.9625" gradientUnits="userSpaceOnUse">
<stop stop-color="#3F65EC"/>
<stop offset="1" stop-color="#D43FEC"/>
</linearGradient>
</defs>
</svg>
