<svg width="41" height="34" viewBox="0 0 41 34" fill="none" xmlns="http://www.w3.org/2000/svg">
<path fill-rule="evenodd" clip-rule="evenodd" d="M39.3265 22.5918H13.1961L13.7542 21.6865C13.9936 21.2982 14.0638 20.8288 13.9492 20.387L13.4045 18.2902L37.6556 17.0301C38.5751 16.9832 39.3265 16.1908 39.3265 15.2704V4.18367C39.3265 3.26327 38.5735 2.5102 37.6531 2.5102H9.30365L8.97649 1.25259C8.88328 0.893906 8.67365 0.576305 8.38048 0.349609C8.0873 0.122913 7.72717 -5.28294e-05 7.35657 1.70265e-08H1.67347C1.22964 1.70265e-08 0.803984 0.176311 0.490148 0.490148C0.176311 0.803984 0 1.22964 0 1.67347C0 2.1173 0.176311 2.54295 0.490148 2.85679C0.803984 3.17063 1.22964 3.34694 1.67347 3.34694H6.06298L10.5311 20.5377L8.774 23.3867C8.61771 23.6402 8.53196 23.9309 8.52564 24.2286C8.51931 24.5264 8.59263 24.8204 8.73802 25.0803C8.88282 25.3405 9.09453 25.5573 9.35124 25.7082C9.60795 25.8592 9.90033 25.9388 10.1981 25.9388H39.3265C39.7704 25.9388 40.196 25.7625 40.5099 25.4486C40.8237 25.1348 41 24.7091 41 24.2653C41 23.8215 40.8237 23.3958 40.5099 23.082C40.196 22.7681 39.7704 22.5918 39.3265 22.5918ZM36.8164 33.4693C38.6649 33.4693 40.1634 31.9708 40.1634 30.1223C40.1634 28.2739 38.6649 26.7754 36.8164 26.7754C34.968 26.7754 33.4695 28.2739 33.4695 30.1223C33.4695 31.9708 34.968 33.4693 36.8164 33.4693ZM15.898 30.1223C15.898 31.9708 14.3995 33.4693 12.551 33.4693C10.7026 33.4693 9.2041 31.9708 9.2041 30.1223C9.2041 28.2739 10.7026 26.7754 12.551 26.7754C14.3995 26.7754 15.898 28.2739 15.898 30.1223Z" fill="url(#paint0_linear_329_157)"/>
<defs>
<linearGradient id="paint0_linear_329_157" x1="-50.4249" y1="5.46644" x2="38.6133" y2="-48.6685" gradientUnits="userSpaceOnUse">
<stop stop-color="#D43FEC"/>
<stop offset="1" stop-color="#3F65EC"/>
</linearGradient>
</defs>
</svg>
