<svg width="38" height="53" viewBox="0 0 38 53" fill="none" xmlns="http://www.w3.org/2000/svg">
<path d="M24.8198 10.4758C27.4399 10.4758 29.5836 8.3321 29.5836 5.71202C29.5836 3.09194 27.4399 0.948242 24.8198 0.948242C22.1997 0.948242 20.056 3.09194 20.056 5.71202C20.056 8.3321 22.1997 10.4758 24.8198 10.4758ZM17.2692 39.0585L18.6269 33.1038L23.6289 37.8675V49.777C23.6289 51.087 24.7007 52.1589 26.0108 52.1589C27.3208 52.1589 28.3927 51.087 28.3927 49.777V36.3431C28.3927 35.0331 27.8686 33.7945 26.9159 32.8894L23.3907 29.5309L24.8198 22.3853C27.504 25.4539 31.1786 27.485 35.2049 28.1256C36.634 28.34 37.9202 27.1967 37.9202 25.7437C37.9202 24.5766 37.0627 23.6 35.8956 23.4095C32.2751 22.814 29.274 20.6703 27.6781 17.8597L25.2962 14.0486C24.3434 12.6195 22.9143 11.6668 21.247 11.6668C20.5324 11.6668 20.056 11.9049 19.3415 11.9049L9.86154 15.9065C8.99861 16.2754 8.26311 16.8897 7.74647 17.6731C7.22982 18.4566 6.95481 19.3746 6.95564 20.313V25.9581C6.95564 27.2681 8.02749 28.34 9.33753 28.34C10.6476 28.34 11.7194 27.2681 11.7194 25.9581V20.2416L16.0068 18.5742L12.1958 37.8675L2.85878 35.962C1.57256 35.7 0.31016 36.5337 0.0481521 37.8199V37.9152C-0.213856 39.2014 0.619806 40.4638 1.90603 40.7258L11.6956 42.679C12.9132 42.9207 14.1771 42.6775 15.2181 42.0013C16.2591 41.3251 16.995 40.2692 17.2692 39.0585V39.0585Z" fill="url(#paint0_linear_92728_2942)"/>
<defs>
<linearGradient id="paint0_linear_92728_2942" x1="-46.6372" y1="9.31234" x2="52.7328" y2="-27.2075" gradientUnits="userSpaceOnUse">
<stop stop-color="#D43FEC"/>
<stop offset="1" stop-color="#3F65EC"/>
</linearGradient>
</defs>
</svg>
