<svg width="38" height="52" viewBox="0 0 38 52" fill="none" xmlns="http://www.w3.org/2000/svg">
<path d="M24.872 9.67442C27.4976 9.67442 29.6458 7.49767 29.6458 4.83721C29.6458 2.17674 27.4976 0 24.872 0C22.2464 0 20.0982 2.17674 20.0982 4.83721C20.0982 7.49767 22.2464 9.67442 24.872 9.67442ZM17.3056 38.6977L18.6661 32.6512L23.6786 37.4884V49.5814C23.6786 50.9116 24.7527 52 26.0655 52C27.3783 52 28.4524 50.9116 28.4524 49.5814V35.9405C28.4524 34.6102 27.9273 33.3526 26.9725 32.4335L23.4399 29.0233L24.872 21.7674C27.5619 24.8834 31.2442 26.9458 35.2789 27.5963C36.7111 27.814 38 26.653 38 25.1777C38 23.9926 37.1407 23.0009 35.9711 22.8074C32.343 22.2028 29.3355 20.026 27.7363 17.1721L25.3494 13.3023C24.3947 11.8512 22.9625 10.8837 21.2917 10.8837C20.5756 10.8837 20.0982 11.1256 19.3822 11.1256L9.88229 15.1888C9.01754 15.5634 8.2805 16.1872 7.76276 16.9827C7.24503 17.7782 6.96945 18.7103 6.97027 19.6633V25.3953C6.97027 26.7256 8.04438 27.814 9.35717 27.814C10.67 27.814 11.7441 26.7256 11.7441 25.3953V19.5907L16.0405 17.8977L12.2215 37.4884L2.8648 35.5535C1.57587 35.2874 0.310813 36.134 0.0482534 37.44V37.5367C-0.214306 38.8428 0.62111 40.1247 1.91004 40.3907L11.7202 42.374C12.9404 42.6194 14.2069 42.3725 15.2501 41.6858C16.2933 40.9992 17.0308 39.927 17.3056 38.6977V38.6977Z" fill="white" fill-opacity="0.4"/>
</svg>
