<svg width="51" height="37" viewBox="0 0 51 37" fill="none" xmlns="http://www.w3.org/2000/svg">
<path fill-rule="evenodd" clip-rule="evenodd" d="M7.4047 36.0941C8.25997 36.3254 9.14223 36.4418 10.0282 36.4403C11.737 36.4221 13.4124 35.9641 14.8927 35.1103C16.0521 34.4396 17.0664 33.5449 17.8766 32.4783C18.6867 31.4117 19.2764 30.1945 19.6114 28.8976L20.0305 27.3308H30.9618L31.2898 28.9341C31.6248 30.2309 32.2145 31.4481 33.0246 32.5147C33.8348 33.5814 34.8491 34.4761 36.0085 35.1467C37.1411 35.8027 38.3925 36.2274 39.6904 36.3963C40.9882 36.5652 42.3067 36.4749 43.5694 36.1306C46.148 35.4025 48.3368 33.6894 49.6629 31.3611C50.989 29.0328 51.3459 26.2762 50.6566 23.687L46.4116 7.54496C46.0738 6.24931 45.4829 5.03332 44.6731 3.96705C43.8632 2.90079 42.8503 2.00533 41.6928 1.33228C40.5603 0.676308 39.3088 0.25158 38.011 0.0827019C36.7131 -0.0861762 35.3947 0.00415343 34.132 0.348458C32.7883 0.718111 31.5367 1.36447 30.4574 2.24609C29.3781 3.1277 28.495 4.22513 27.8646 5.46799H23.1277C22.4946 4.22712 21.6106 3.1313 20.5317 2.25002C19.4528 1.36873 18.2026 0.721197 16.8604 0.348458C15.5977 0.00415343 14.2792 -0.0861762 12.9813 0.0827019C11.6835 0.25158 10.432 0.676308 9.29947 1.33228C8.13632 2.00706 7.11972 2.90745 6.3094 3.98059C5.49907 5.05372 4.91135 6.27796 4.58075 7.5814L0.335727 23.687C-0.343441 26.2687 0.0163432 29.0138 1.33789 31.3333C2.65944 33.6529 4.83746 35.362 7.4047 36.0941ZM11.1214 4.48417C12.0759 3.93858 13.1556 3.64983 14.255 3.6461C14.8088 3.64705 15.3601 3.72055 15.8947 3.86472C16.887 4.14563 17.798 4.65909 18.5521 5.3625C19.3062 6.06591 19.8817 6.939 20.2309 7.90934L20.6681 9.11179H30.3242L30.7614 7.90934C31.1075 6.9403 31.6798 6.06782 32.4308 5.36437C33.1818 4.66092 34.0898 4.1468 35.0793 3.86472C35.8795 3.64781 36.7146 3.59088 37.5368 3.69717C38.3591 3.80346 39.1522 4.0709 39.8709 4.48417C40.6115 4.9167 41.2587 5.49221 41.7748 6.17719C42.2909 6.86218 42.6656 7.64297 42.8771 8.47413L47.1221 24.5797C47.5769 26.2368 47.3593 28.0065 46.5167 29.5041C45.674 31.0017 44.2744 32.1063 42.622 32.5779C41.8218 32.7948 40.9867 32.8517 40.1645 32.7454C39.3423 32.6391 38.5491 32.3717 37.8304 31.9584C37.0883 31.5253 36.4392 30.9499 35.9201 30.2652C35.4011 29.5804 35.0225 28.7999 34.8061 27.9684L33.6947 23.687H17.2976L16.168 27.9684C15.9553 28.8015 15.5782 29.5837 15.0588 30.2689C14.5394 30.9541 13.8883 31.5285 13.1437 31.9584C12.4285 32.3721 11.6384 32.6398 10.819 32.7462C9.99968 32.8525 9.16739 32.7953 8.3703 32.5779C6.71985 32.1019 5.32199 30.9974 4.47712 29.5019C3.63224 28.0063 3.40779 26.239 3.85199 24.5797L8.09702 8.47413C8.53789 6.79656 9.62532 5.36193 11.1214 4.48417ZM12.54 17.6075C13.1392 18.0078 13.8437 18.2215 14.5644 18.2215C15.5308 18.2215 16.4576 17.8377 17.1409 17.1543C17.8243 16.471 18.2082 15.5441 18.2082 14.5778C18.2082 13.8571 17.9945 13.1526 17.5941 12.5534C17.1937 11.9541 16.6246 11.4871 15.9588 11.2113C15.293 10.9355 14.5603 10.8634 13.8535 11.004C13.1467 11.1446 12.4974 11.4916 11.9878 12.0012C11.4782 12.5108 11.1312 13.1601 10.9906 13.8669C10.85 14.5737 10.9222 15.3064 11.198 15.9722C11.4737 16.638 11.9408 17.2071 12.54 17.6075ZM36.427 12.7556C37.4333 12.7556 38.2489 11.9399 38.2489 10.9337C38.2489 9.92752 37.4333 9.11183 36.427 9.11183C35.4208 9.11183 34.6051 9.92752 34.6051 10.9337C34.6051 11.9399 35.4208 12.7556 36.427 12.7556ZM38.2489 18.2222C38.2489 19.2284 37.4333 20.0441 36.427 20.0441C35.4208 20.0441 34.6051 19.2284 34.6051 18.2222C34.6051 17.216 35.4208 16.4003 36.427 16.4003C37.4333 16.4003 38.2489 17.216 38.2489 18.2222ZM32.7834 16.3999C33.7896 16.3999 34.6053 15.5842 34.6053 14.578C34.6053 13.5718 33.7896 12.7561 32.7834 12.7561C31.7772 12.7561 30.9615 13.5718 30.9615 14.578C30.9615 15.5842 31.7772 16.3999 32.7834 16.3999ZM41.8932 14.578C41.8932 15.5842 41.0775 16.3999 40.0713 16.3999C39.0651 16.3999 38.2494 15.5842 38.2494 14.578C38.2494 13.5718 39.0651 12.7561 40.0713 12.7561C41.0775 12.7561 41.8932 13.5718 41.8932 14.578Z" fill="white" fill-opacity="0.4"/>
</svg>
