<svg width="28" height="40" viewBox="0 0 28 40" fill="none" xmlns="http://www.w3.org/2000/svg">
<path d="M21.6485 0.16931C21.8906 0.309668 22.078 0.527982 22.18 0.788589C22.282 1.04919 22.2926 1.33669 22.2101 1.6041L17.7548 16.0806H25.9751C26.2167 16.0805 26.453 16.1512 26.6549 16.2839C26.8568 16.4165 27.0154 16.6054 27.1112 16.8272C27.207 17.049 27.2357 17.294 27.1938 17.5319C27.1519 17.7698 27.0413 17.9903 26.8756 18.166L7.08539 39.1931C6.8939 39.3968 6.63909 39.5295 6.36249 39.5698C6.08588 39.61 5.8038 39.5554 5.56221 39.4148C5.32062 39.2742 5.13378 39.056 5.03213 38.7956C4.93048 38.5352 4.92003 38.2481 5.00247 37.981L9.45774 23.502H1.23738C0.995805 23.5021 0.759488 23.4314 0.557602 23.2987C0.355717 23.1661 0.197102 22.9772 0.101337 22.7554C0.00557238 22.5336 -0.0231494 22.2886 0.018717 22.0507C0.0605834 21.8128 0.171205 21.5923 0.336927 21.4166L20.1271 0.389476C20.3184 0.186129 20.5728 0.0534592 20.849 0.0130375C21.1252 -0.0273841 21.407 0.0268197 21.6485 0.166836V0.16931Z" fill="url(#paint0_linear_329_165)"/>
<defs>
<linearGradient id="paint0_linear_329_165" x1="-33.468" y1="6.46493" x2="39.033" y2="-18.2734" gradientUnits="userSpaceOnUse">
<stop stop-color="#D43FEC"/>
<stop offset="1" stop-color="#3F65EC"/>
</linearGradient>
</defs>
</svg>
