<svg width="24" height="34" viewBox="0 0 24 34" fill="none" xmlns="http://www.w3.org/2000/svg">
<path d="M18.4664 0.144423C18.6729 0.264149 18.8327 0.450374 18.9197 0.672673C19.0067 0.894973 19.0158 1.14021 18.9454 1.36831L15.145 13.7169H22.157C22.3631 13.7168 22.5647 13.7771 22.7369 13.8903C22.9091 14.0034 23.0444 14.1646 23.1261 14.3538C23.2078 14.5429 23.2323 14.7519 23.1966 14.9549C23.1608 15.1578 23.0665 15.3458 22.9251 15.4958L6.0439 33.4321C5.88056 33.6058 5.6632 33.719 5.42726 33.7534C5.19131 33.7877 4.95069 33.7411 4.74461 33.6212C4.53854 33.5013 4.37916 33.3151 4.29245 33.093C4.20575 32.8709 4.19683 32.6259 4.26715 32.3981L8.06753 20.0474H1.0555C0.84943 20.0475 0.64785 19.9872 0.47564 19.874C0.30343 19.7609 0.16813 19.5997 0.0864415 19.4106C0.00475329 19.2214 -0.0197467 19.0124 0.0159658 18.8095C0.0516782 18.6065 0.146039 18.4185 0.287402 18.2685L17.1686 0.332226C17.3318 0.15877 17.5488 0.0456011 17.7844 0.0111211C18.02 -0.0233589 18.2604 0.0228775 18.4664 0.142312V0.144423Z" fill="white" fill-opacity="0.4"/>
</svg>
