<svg width="248" height="28" viewBox="0 0 248 28" fill="none" xmlns="http://www.w3.org/2000/svg">
<circle opacity="0.8" cx="12.9011" cy="13.8591" r="12.9011" fill="#6B5EE1"/>
<circle cx="234.586" cy="13.8594" r="12.7011" transform="rotate(1.38442 234.586 13.8594)" stroke="white" stroke-width="0.4"/>
<path d="M26 13.3984H221.82" stroke="white" stroke-width="0.4"/>
<path d="M9.71544 7.93865L12.8353 6.85347H14.1918V18.7227H12.6319V8.54907L10.1054 9.29513L9.71544 7.93865Z" fill="white"/>
<path d="M238.304 18.7227H230.64V17.434L234.828 13.1611C235.947 12.042 236.506 11.0812 236.506 10.2786C236.506 9.62295 236.303 9.10861 235.896 8.73558C235.5 8.35125 235.003 8.15908 234.404 8.15908C233.285 8.15908 232.471 8.69037 231.962 9.75294L230.64 8.97297C231.001 8.2156 231.51 7.6391 232.166 7.24346C232.821 6.83651 233.562 6.63304 234.387 6.63304C235.393 6.63304 236.258 6.96086 236.981 7.61649C237.716 8.28342 238.083 9.16514 238.083 10.2616C238.083 11.4598 237.377 12.7655 235.964 14.1785L232.929 17.1966H238.304V18.7227Z" fill="white"/>
</svg>
