<svg width="22" height="19" viewBox="0 0 22 19" fill="none" xmlns="http://www.w3.org/2000/svg">
<path fill-rule="evenodd" clip-rule="evenodd" d="M21.0706 8.49208C20.5387 5.56357 18.2926 3.34705 15.5901 3.32067L5.67925 3.2239L5.72703 0.65332L0 4.79994L5.59961 8.99699L5.6474 6.48656L15.5582 6.58332C16.6939 6.59441 17.6654 7.37333 18.1059 8.48902C18.3931 9.21636 18.9919 9.87981 19.7739 9.88745C20.5558 9.89508 21.2104 9.26147 21.0706 8.49208ZM0.124046 10.9634C0.655934 13.8919 2.90204 16.1085 5.60458 16.1348L15.5154 16.2316L15.4676 18.8022L21.1947 14.6556L15.595 10.4585L15.5473 12.969L5.63644 12.8722C4.50076 12.8611 3.52926 12.0822 3.08875 10.9665C2.80158 10.2392 2.20274 9.5757 1.4208 9.56807C0.638859 9.56043 -0.0156942 10.194 0.124046 10.9634Z" fill="white"/>
</svg>
