<svg width="14" height="16" viewBox="0 0 14 16" fill="none" xmlns="http://www.w3.org/2000/svg">
<path d="M7.92151 1C7.92151 0.491066 7.50893 0.0784929 7 0.0784929C6.49107 0.0784929 6.07849 0.491066 6.07849 1L7.92151 1ZM6.3484 15.4742C6.70827 15.8341 7.29173 15.8341 7.6516 15.4742L13.516 9.60977C13.8759 9.2499 13.8759 8.66644 13.516 8.30657C13.1562 7.9467 12.5727 7.9467 12.2128 8.30657L7 13.5194L1.78717 8.30657C1.4273 7.9467 0.843832 7.9467 0.483961 8.30657C0.12409 8.66644 0.12409 9.2499 0.483961 9.60977L6.3484 15.4742ZM6.07849 1L6.07849 14.8226H7.92151L7.92151 1L6.07849 1Z" fill="#C896F0"/>
</svg>
