<svg width="29" height="29" viewBox="0 0 29 29" fill="none" xmlns="http://www.w3.org/2000/svg">
<path fill-rule="evenodd" clip-rule="evenodd" d="M2.59697 14.2834C2.59697 7.82915 7.82915 2.59697 14.2834 2.59697C20.7376 2.59697 25.9697 7.82915 25.9697 14.2834C25.9697 20.7376 20.7376 25.9697 14.2834 25.9697C7.82915 25.9697 2.59697 20.7376 2.59697 14.2834ZM14.2834 0C6.39488 0 0 6.39488 0 14.2834C0 22.1718 6.39488 28.5667 14.2834 28.5667C22.1718 28.5667 28.5667 22.1718 28.5667 14.2834C28.5667 6.39488 22.1718 0 14.2834 0ZM12.7905 15.5704C12.5393 16.2742 13.1726 16.8981 13.9198 16.8981C14.6671 16.8981 15.2676 16.2565 15.6574 15.619C15.6701 15.5982 15.6831 15.5775 15.6964 15.5568C15.9788 15.1176 16.3239 14.7097 16.7317 14.3332C17.1396 13.9411 17.5475 13.541 17.9553 13.1332C18.3632 12.7253 18.7083 12.239 18.9907 11.6743C19.273 11.0939 19.4142 10.4742 19.4142 9.81537C19.4142 8.40354 18.9044 7.29761 17.8847 6.49757C16.8651 5.69753 15.6572 5.29751 14.261 5.29751C13.0218 5.29751 11.908 5.60341 10.9197 6.2152C10.261 6.61893 9.72459 7.14139 9.31052 7.78258C8.9617 8.32275 9.21833 9.01555 9.778 9.33214C10.4811 9.72985 11.3569 9.34682 11.9373 8.78504C12.045 8.6808 12.1607 8.58501 12.2845 8.49766C12.8178 8.12117 13.4531 7.93293 14.1904 7.93293C14.9591 7.93293 15.5709 8.11333 16.0258 8.47413C16.4807 8.81924 16.7082 9.32123 16.7082 9.98008C16.7082 10.4507 16.567 10.9056 16.2847 11.3449C16.0023 11.7684 15.6572 12.1684 15.2493 12.5449C14.8414 12.9057 14.4336 13.29 14.0257 13.6979C13.6179 14.0901 13.2727 14.5607 12.9904 15.1097C12.9132 15.2598 12.8466 15.4134 12.7905 15.5704ZM13.9316 22.3571C14.4179 22.3571 14.8336 22.1846 15.1787 21.8395C15.5238 21.4943 15.6964 21.0786 15.6964 20.5923C15.6964 20.106 15.5238 19.6903 15.1787 19.3452C14.8336 19.0001 14.4179 18.8276 13.9316 18.8276C13.4296 18.8276 13.0061 19.0001 12.661 19.3452C12.3315 19.6903 12.1668 20.106 12.1668 20.5923C12.1668 21.0786 12.3394 21.4943 12.6845 21.8395C13.0296 22.1846 13.4453 22.3571 13.9316 22.3571Z" fill="white"/>
</svg>
