<svg width="31" height="25" viewBox="0 0 31 25" fill="none" xmlns="http://www.w3.org/2000/svg">
<path d="M30.5139 2.93608C29.6642 4.19999 28.6217 5.27742 27.3865 6.16835C27.3987 6.4073 27.4048 6.67737 27.4048 6.97856C27.4048 8.65205 27.1608 10.3276 26.6728 12.0051C26.1848 13.6827 25.4394 15.2884 24.4367 16.8223C23.4339 18.3561 22.2394 19.715 20.8531 20.8989C19.4669 22.0828 17.8006 23.0268 15.8542 23.7308C13.9078 24.4348 11.8218 24.7869 9.59615 24.7869C6.12269 24.7869 2.92397 23.8492 0 21.9737C0.51897 22.0315 1.01671 22.0604 1.49321 22.0604C4.39501 22.0604 6.98678 21.1666 9.26852 19.379C7.91554 19.3542 6.70384 18.9377 5.63343 18.1295C4.56302 17.3214 3.82639 16.2887 3.42353 15.0315C3.82173 15.1073 4.21473 15.1452 4.60255 15.1452C5.16078 15.1452 5.71007 15.0724 6.25042 14.9268C4.80654 14.6376 3.60872 13.9185 2.65695 12.7694C1.70522 11.6203 1.22935 10.294 1.22935 8.7905V8.71302C2.11562 9.20373 3.06095 9.46476 4.06536 9.49609C3.21002 8.92586 2.53186 8.18226 2.03089 7.2653C1.52988 6.34833 1.27937 5.35602 1.27937 4.28835C1.27937 3.16231 1.56154 2.11376 2.12587 1.1427C3.69607 3.06958 5.59869 4.6096 7.83373 5.76277C10.0688 6.91595 12.4666 7.55639 15.0272 7.68409C14.918 7.22896 14.8633 6.754 14.8631 6.25922C14.8631 4.53165 15.4744 3.05655 16.6971 1.83393C17.9199 0.61131 19.395 0 21.1226 0C22.9313 0 24.4548 0.658595 25.6931 1.97578C27.1079 1.69554 28.4326 1.18866 29.6673 0.455136C29.1916 1.9521 28.275 3.1069 26.9176 3.91954C28.1652 3.77128 29.364 3.44346 30.5138 2.93608H30.5139Z" fill="url(#paint0_linear_330_181)"/>
<defs>
<linearGradient id="paint0_linear_330_181" x1="-5.39778" y1="-2.54399e-06" x2="65.1352" y2="-49.4676" gradientUnits="userSpaceOnUse">
<stop stop-color="#D43FEC"/>
<stop offset="1" stop-color="#3F65EC"/>
</linearGradient>
</defs>
</svg>
